<svg id="svg" version="1.1" xmlns="http://www.w3.org/2000/svg" xmlns:xlink="http://www.w3.org/1999/xlink" width="400" height="400" viewBox="0, 0, 400,400"><g id="svgg"><path id="path0" d="M270.858 1.118 C 263.932 3.613,258.099 9.704,256.245 16.379 C 255.806 17.959,255.476 31.674,255.474 48.438 L 255.470 77.734 257.691 82.429 C 261.254 89.961,266.714 93.900,275.592 95.345 C 282.308 96.438,282.031 95.612,282.031 114.574 C 282.031 136.692,283.703 140.427,293.234 139.605 C 298.443 139.155,299.011 138.464,312.316 116.386 C 319.959 103.703,324.485 96.956,325.781 96.310 C 327.230 95.587,334.914 95.333,355.511 95.324 L 383.287 95.313 387.296 93.315 C 396.735 88.611,399.959 82.334,399.983 68.611 C 400.000 58.833,399.974 58.687,397.942 57.088 C 392.198 52.570,388.602 56.047,388.124 66.577 C 387.365 83.323,387.858 83.101,350.331 83.594 L 320.584 83.984 317.519 86.020 C 315.089 87.633,312.429 91.427,304.688 104.321 L 294.922 120.587 294.531 107.364 C 294.009 89.679,291.430 85.299,280.508 83.540 C 267.881 81.506,267.975 81.774,267.972 48.035 C 267.968 17.433,268.065 16.835,273.486 13.928 C 277.505 11.772,377.741 11.717,382.005 13.868 C 386.432 16.102,387.647 19.155,388.193 29.421 C 388.727 39.447,389.368 40.625,394.290 40.625 C 399.199 40.625,400.000 38.831,400.000 27.833 C 400.000 13.656,397.202 7.711,388.175 2.712 L 383.984 0.391 328.906 0.219 C 283.915 0.079,273.284 0.243,270.858 1.118 M116.016 23.019 C 85.421 29.858,71.152 51.436,71.064 90.995 L 71.034 104.297 68.053 106.357 C 61.976 110.556,60.936 114.361,60.945 132.380 C 60.957 156.219,65.153 162.500,81.066 162.500 L 87.182 162.500 88.126 168.003 C 90.782 183.495,100.234 198.517,113.743 208.716 L 117.969 211.906 117.969 220.836 C 117.969 230.074,117.333 232.587,114.302 235.330 C 112.955 236.549,109.611 236.692,77.699 236.891 C 38.204 237.137,39.125 237.003,32.511 243.427 C 26.207 249.549,24.754 255.294,25.682 270.433 L 26.361 281.529 22.883 286.610 C 9.912 305.555,4.694 324.246,4.690 351.775 L 4.688 368.002 2.558 371.219 C -3.755 380.760,1.545 395.844,12.349 399.081 C 14.651 399.771,50.872 400.000,157.554 400.000 L 299.693 400.000 303.775 397.966 C 313.706 393.017,317.407 378.070,310.612 370.351 C 309.803 369.433,309.447 364.710,309.138 350.781 C 308.514 322.741,303.717 305.824,291.087 287.132 L 287.407 281.686 287.928 269.163 C 288.656 251.672,285.958 245.126,275.671 239.428 L 271.484 237.109 235.837 236.884 C 201.990 236.671,200.121 236.585,198.848 235.178 C 196.416 232.491,195.382 227.958,195.347 219.830 L 195.313 211.926 198.323 209.934 C 203.267 206.662,210.827 199.264,214.535 194.067 L 218.011 189.196 226.779 188.934 C 239.548 188.552,246.057 184.760,250.693 175.000 L 252.734 170.703 252.734 144.141 C 252.734 113.435,252.581 112.559,246.230 106.973 L 242.578 103.761 242.188 85.279 C 241.631 58.938,237.079 51.268,220.243 48.303 C 216.632 47.667,215.625 47.185,215.625 46.093 C 215.625 38.402,208.768 28.298,200.940 24.453 L 196.484 22.266 158.594 22.118 C 129.315 22.004,119.638 22.209,116.016 23.019 M283.683 30.273 C 277.886 35.086,282.654 41.768,291.527 41.267 C 299.532 40.814,303.057 35.175,298.192 30.605 C 295.783 28.342,286.271 28.124,283.683 30.273 M312.510 30.459 C 309.950 33.019,310.158 37.112,312.977 39.648 C 315.515 41.932,366.815 42.447,371.098 40.232 C 374.209 38.623,375.069 34.324,372.868 31.375 L 371.316 29.297 342.699 29.092 C 314.923 28.893,314.036 28.933,312.510 30.459 M197.217 37.019 C 200.552 39.563,203.082 44.422,203.108 48.331 C 203.146 54.180,209.072 60.114,214.950 60.191 C 220.903 60.268,225.643 63.108,228.208 68.133 C 230.214 72.063,230.485 111.014,228.526 113.811 C 227.626 115.096,215.674 120.313,213.631 120.313 C 213.439 120.313,213.273 113.721,213.263 105.664 C 213.225 75.809,199.899 64.515,173.438 71.914 C 163.887 74.584,149.154 74.598,140.234 71.946 C 114.543 64.307,100.821 75.643,100.016 105.168 L 99.609 120.101 92.593 117.668 C 82.995 114.339,83.447 115.717,83.846 91.016 C 84.277 64.324,86.082 58.437,97.262 47.266 C 109.362 35.174,112.877 34.446,158.265 34.624 L 194.264 34.766 197.217 37.019 M284.282 57.036 C 280.740 59.106,280.835 66.074,284.431 67.999 C 285.280 68.453,302.540 68.750,328.109 68.750 L 370.384 68.750 372.301 66.832 C 374.838 64.295,374.838 60.705,372.301 58.168 L 370.384 56.250 327.965 56.274 C 302.763 56.288,285.034 56.597,284.282 57.036 M136.719 84.151 C 148.747 87.256,164.632 87.236,176.908 84.098 C 195.890 79.247,200.781 84.122,200.781 107.894 C 200.781 126.732,203.685 132.748,212.804 132.800 L 215.060 132.813 214.605 147.852 C 214.211 160.872,213.445 168.066,212.335 169.176 C 212.169 169.342,210.292 168.591,208.165 167.508 C 202.904 164.828,183.780 164.909,178.516 167.633 C 163.598 175.351,169.316 197.453,186.456 198.319 L 192.344 198.616 190.117 200.131 C 166.146 216.436,136.404 213.579,115.545 192.969 C 103.166 180.738,99.219 169.436,99.219 146.227 L 99.219 133.012 102.283 132.522 C 110.606 131.191,112.499 126.948,112.504 109.609 C 112.509 94.029,113.089 90.877,116.659 87.003 C 121.473 81.779,125.380 81.223,136.719 84.151 M82.415 127.410 L 86.719 129.194 86.719 139.988 L 86.719 150.781 84.180 150.777 C 74.509 150.760,73.438 148.973,73.438 132.851 L 73.438 119.956 75.774 122.791 C 77.184 124.501,79.818 126.334,82.415 127.410 M240.259 144.211 C 239.576 147.966,236.809 150.023,231.736 150.547 L 227.344 151.000 227.344 140.092 L 227.344 129.185 231.087 127.493 C 233.146 126.563,236.046 124.546,237.532 123.011 L 240.234 120.222 240.466 131.009 C 240.594 136.942,240.501 142.883,240.259 144.211 M240.336 165.430 C 239.411 172.275,234.489 176.563,227.554 176.563 C 224.467 176.563,223.415 176.296,223.702 175.586 C 223.919 175.049,224.708 171.898,225.456 168.584 L 226.816 162.559 233.135 162.298 C 236.610 162.154,239.765 161.965,240.145 161.878 C 240.526 161.790,240.612 163.388,240.336 165.430 M203.460 179.353 C 207.641 183.533,204.096 185.938,193.750 185.938 C 189.397 185.938,185.155 185.574,184.324 185.129 C 182.379 184.088,182.285 180.072,184.180 178.969 C 186.526 177.602,202.018 177.911,203.460 179.353 M140.387 221.246 C 152.699 224.300,165.548 223.624,180.934 219.111 C 182.480 218.658,182.599 218.996,183.047 225.136 C 183.308 228.713,183.758 232.783,184.046 234.180 L 184.570 236.719 156.655 236.719 C 130.362 236.719,128.774 236.639,129.334 235.352 C 129.662 234.600,130.091 230.390,130.287 225.996 C 130.620 218.547,130.741 218.060,132.076 218.774 C 132.863 219.195,136.603 220.308,140.387 221.246 M270.392 250.987 C 276.459 255.028,276.335 252.896,273.551 305.389 C 272.193 330.999,270.873 354.326,270.618 357.227 L 270.154 362.500 224.823 362.500 L 179.492 362.500 179.963 360.144 C 180.720 356.362,184.105 349.815,187.135 346.275 C 205.316 325.035,200.614 291.544,177.907 280.552 C 166.986 275.265,163.281 280.688,163.281 301.960 L 163.281 316.469 156.836 316.243 L 150.391 316.016 150.000 300.391 C 149.570 283.183,149.325 282.220,144.846 280.094 C 135.485 275.653,119.992 290.350,115.946 307.510 C 112.854 320.625,116.334 333.913,125.867 345.387 C 129.179 349.373,132.248 355.109,133.456 359.570 L 134.249 362.500 88.729 362.500 L 43.209 362.500 42.697 352.979 C 42.098 341.843,41.057 339.844,35.858 339.844 C 30.542 339.844,29.555 342.175,30.180 353.249 L 30.703 362.500 23.555 362.500 L 16.406 362.500 16.424 356.445 C 16.477 338.345,19.122 322.903,24.296 310.489 C 27.273 303.346,27.910 303.913,28.047 313.830 C 28.165 322.330,30.973 326.023,36.303 324.685 C 41.060 323.492,41.078 323.273,39.293 290.038 C 37.429 255.335,37.764 252.949,44.922 249.968 C 45.781 249.611,96.266 249.296,157.111 249.268 L 267.738 249.219 270.392 250.987 M183.500 304.688 C 188.259 314.677,186.027 327.470,177.780 337.468 C 173.027 343.230,169.771 349.557,168.033 356.408 L 166.586 362.109 156.909 362.327 L 147.232 362.544 145.867 357.249 C 143.937 349.764,141.579 345.087,136.034 337.741 C 124.970 323.085,124.612 307.368,135.113 297.307 L 137.500 295.020 137.504 305.909 C 137.512 326.024,140.481 329.284,158.328 328.778 C 173.723 328.341,175.763 325.740,175.814 306.476 L 175.846 294.141 178.650 297.266 C 180.191 298.984,182.374 302.324,183.500 304.688 M290.818 314.444 C 294.895 325.581,296.134 332.783,296.635 348.242 L 297.097 362.500 289.901 362.500 L 282.705 362.500 283.174 356.445 C 283.699 349.679,285.917 309.512,285.967 305.859 L 286.000 303.516 287.263 305.850 C 287.958 307.134,289.557 311.002,290.818 314.444 M297.957 375.883 C 301.864 377.663,302.401 382.805,299.010 385.964 C 297.384 387.479,295.477 387.500,156.989 387.500 L 16.617 387.500 14.558 385.881 C 11.794 383.706,11.729 379.606,14.418 376.918 L 16.335 375.000 156.178 375.000 C 258.447 375.000,296.541 375.237,297.957 375.883 " stroke="none" fill="#fff" fill-rule="evenodd"></path></g></svg>
