<svg id="svg" version="1.1" xmlns="http://www.w3.org/2000/svg" xmlns:xlink="http://www.w3.org/1999/xlink" width="400" height="400" viewBox="0, 0, 400,400"><g id="svgg"><path id="path0" d="M196.094 6.192 C 178.607 9.774,175.679 34.986,191.893 42.373 L 193.750 43.220 193.750 65.360 L 193.750 87.500 200.000 87.500 L 206.250 87.500 206.250 65.360 L 206.250 43.220 208.107 42.373 C 228.151 33.241,217.701 1.766,196.094 6.192 M203.906 21.094 C 207.288 24.475,204.790 30.469,200.000 30.469 C 196.993 30.469,194.531 28.007,194.531 25.000 C 194.531 21.993,196.993 19.531,200.000 19.531 C 201.302 19.531,203.038 20.226,203.906 21.094 M98.047 45.234 C 78.455 54.325,86.791 82.539,108.627 81.043 L 114.655 80.629 119.827 85.842 L 125.000 91.055 125.000 111.152 L 125.000 131.250 131.250 131.250 L 137.500 131.250 137.500 107.712 L 137.500 84.174 130.946 77.438 L 124.391 70.703 124.791 64.755 C 125.845 49.105,111.799 38.853,98.047 45.234 M285.547 45.208 C 278.134 48.584,274.573 55.317,275.209 64.755 L 275.609 70.703 269.054 77.438 L 262.500 84.174 262.500 107.712 L 262.500 131.250 268.750 131.250 L 275.000 131.250 275.000 111.152 L 275.000 91.055 280.173 85.842 L 285.345 80.629 291.373 81.043 C 304.328 81.931,312.466 74.777,312.466 62.500 C 312.466 48.429,298.364 39.370,285.547 45.208 M110.156 58.594 C 111.024 59.462,111.719 61.198,111.719 62.500 C 111.719 63.802,111.024 65.538,110.156 66.406 C 106.775 69.788,100.781 67.290,100.781 62.500 C 100.781 59.493,103.243 57.031,106.250 57.031 C 107.552 57.031,109.288 57.726,110.156 58.594 M297.656 58.594 C 298.524 59.462,299.219 61.198,299.219 62.500 C 299.219 63.802,298.524 65.538,297.656 66.406 C 294.275 69.788,288.281 67.290,288.281 62.500 C 288.281 59.493,290.743 57.031,293.750 57.031 C 295.052 57.031,296.788 57.726,297.656 58.594 M157.813 95.313 C 156.342 96.783,156.250 97.919,156.246 114.648 L 156.243 132.422 135.787 138.233 C 123.464 141.733,114.769 144.606,113.916 145.459 C 112.584 146.791,112.500 149.373,112.500 189.063 L 112.500 231.250 79.687 231.250 C 40.258 231.250,43.750 230.144,43.750 242.631 C 43.750 253.247,45.765 267.724,47.602 270.313 C 48.881 272.113,49.599 272.299,56.820 272.699 C 66.173 273.217,68.041 274.178,69.948 279.460 C 70.691 281.519,73.054 287.246,75.199 292.188 C 81.007 305.570,81.000 305.726,74.297 312.808 C 70.022 317.324,68.750 319.193,68.750 320.953 C 68.750 329.423,108.077 368.750,116.547 368.750 C 118.307 368.750,120.176 367.478,124.692 363.203 C 131.774 356.500,131.930 356.493,145.313 362.301 C 150.254 364.446,155.981 366.809,158.040 367.552 C 163.322 369.459,164.283 371.327,164.801 380.680 C 165.427 391.991,170.165 393.750,200.000 393.750 C 229.759 393.750,234.569 391.978,235.205 380.779 C 235.843 369.567,235.601 369.860,248.047 365.219 C 252.344 363.617,257.871 361.295,260.329 360.059 C 267.229 356.591,268.641 356.893,275.391 363.281 C 279.835 367.488,281.696 368.750,283.453 368.750 C 291.904 368.750,331.250 329.404,331.250 320.953 C 331.250 319.196,329.988 317.335,325.781 312.891 C 319.393 306.141,319.091 304.729,322.559 297.829 C 323.795 295.371,326.117 289.844,327.719 285.547 C 332.360 273.101,332.067 273.343,343.279 272.705 C 350.390 272.301,351.123 272.109,352.398 270.313 C 354.235 267.724,356.250 253.247,356.250 242.631 C 356.250 230.144,359.742 231.250,320.313 231.250 L 287.500 231.250 287.500 189.212 C 287.500 156.250,287.284 146.878,286.498 145.804 C 285.302 144.167,282.091 143.091,260.363 137.041 L 243.773 132.422 243.761 114.648 C 243.751 97.925,243.658 96.783,242.188 95.313 C 239.741 92.866,160.259 92.866,157.813 95.313 M231.250 168.750 L 231.250 231.250 225.000 231.250 L 218.750 231.250 218.750 217.188 C 218.750 198.533,220.350 200.000,200.000 200.000 C 179.650 200.000,181.250 198.533,181.250 217.188 L 181.250 231.250 175.000 231.250 L 168.750 231.250 168.750 168.750 L 168.750 106.250 200.000 106.250 L 231.250 106.250 231.250 168.750 M35.547 113.984 C 21.250 120.618,21.250 141.882,35.547 148.516 C 41.287 151.179,51.463 150.110,55.546 146.414 C 56.727 145.346,57.726 145.667,65.926 149.749 L 75.000 154.265 75.000 177.133 L 75.000 200.000 81.250 200.000 L 87.500 200.000 87.500 173.777 C 87.500 159.354,87.180 146.961,86.789 146.238 C 86.397 145.514,80.772 142.295,74.289 139.083 L 62.500 133.245 62.483 129.708 C 62.422 117.147,47.502 108.437,35.547 113.984 M348.047 113.984 C 341.812 116.877,337.500 123.376,337.500 129.879 L 337.500 133.245 325.711 139.083 C 319.228 142.295,313.603 145.514,313.211 146.238 C 312.820 146.961,312.500 159.354,312.500 173.777 L 312.500 200.000 318.750 200.000 L 325.000 200.000 325.000 177.133 L 325.000 154.265 334.074 149.749 C 342.274 145.667,343.273 145.346,344.454 146.414 C 350.409 151.804,363.055 151.127,369.431 145.078 C 384.748 130.546,367.234 105.082,348.047 113.984 M181.250 131.250 L 181.250 137.500 200.000 137.500 L 218.750 137.500 218.750 131.250 L 218.750 125.000 200.000 125.000 L 181.250 125.000 181.250 131.250 M47.656 127.344 C 51.038 130.725,48.540 136.719,43.750 136.719 C 40.743 136.719,38.281 134.257,38.281 131.250 C 38.281 128.243,40.743 125.781,43.750 125.781 C 45.052 125.781,46.788 126.476,47.656 127.344 M360.156 127.344 C 361.024 128.212,361.719 129.948,361.719 131.250 C 361.719 132.552,361.024 134.288,360.156 135.156 C 359.288 136.024,357.552 136.719,356.250 136.719 C 354.948 136.719,353.212 136.024,352.344 135.156 C 351.476 134.288,350.781 132.552,350.781 131.250 C 350.781 129.948,351.476 128.212,352.344 127.344 C 353.212 126.476,354.948 125.781,356.250 125.781 C 357.552 125.781,359.288 126.476,360.156 127.344 M156.250 188.672 L 156.250 231.250 140.625 231.250 L 125.000 231.250 125.015 193.164 L 125.030 155.078 140.445 150.649 C 148.923 148.212,155.947 146.191,156.055 146.156 C 156.162 146.122,156.250 165.254,156.250 188.672 M264.648 152.157 L 275.000 155.076 275.000 193.163 L 275.000 231.250 259.375 231.250 L 243.750 231.250 243.750 188.727 L 243.750 146.204 249.023 147.721 C 251.924 148.555,258.955 150.551,264.648 152.157 M181.250 156.250 L 181.250 162.500 200.000 162.500 L 218.750 162.500 218.750 156.250 L 218.750 150.000 200.000 150.000 L 181.250 150.000 181.250 156.250 M131.250 168.750 L 131.250 175.000 140.625 175.000 L 150.000 175.000 150.000 168.750 L 150.000 162.500 140.625 162.500 L 131.250 162.500 131.250 168.750 M250.000 168.750 L 250.000 175.000 259.375 175.000 L 268.750 175.000 268.750 168.750 L 268.750 162.500 259.375 162.500 L 250.000 162.500 250.000 168.750 M181.250 181.250 L 181.250 187.500 200.000 187.500 L 218.750 187.500 218.750 181.250 L 218.750 175.000 200.000 175.000 L 181.250 175.000 181.250 181.250 M131.250 193.750 L 131.250 200.000 140.625 200.000 L 150.000 200.000 150.000 193.750 L 150.000 187.500 140.625 187.500 L 131.250 187.500 131.250 193.750 M250.000 193.750 L 250.000 200.000 259.375 200.000 L 268.750 200.000 268.750 193.750 L 268.750 187.500 259.375 187.500 L 250.000 187.500 250.000 193.750 M75.000 218.750 L 75.000 225.000 81.250 225.000 L 87.500 225.000 87.500 218.750 L 87.500 212.500 81.250 212.500 L 75.000 212.500 75.000 218.750 M206.250 221.875 L 206.250 231.250 200.000 231.250 L 193.750 231.250 193.750 221.875 L 193.750 212.500 200.000 212.500 L 206.250 212.500 206.250 221.875 M312.500 218.750 L 312.500 225.000 318.750 225.000 L 325.000 225.000 325.000 218.750 L 325.000 212.500 318.750 212.500 L 312.500 212.500 312.500 218.750 M101.090 245.508 C 101.277 246.475,101.834 250.254,102.330 253.906 C 108.589 300.077,151.799 336.710,200.000 336.710 C 248.183 336.710,291.413 300.060,297.670 253.906 C 298.166 250.254,298.723 246.475,298.910 245.508 L 299.249 243.750 321.216 243.750 L 343.184 243.750 342.640 250.444 C 341.932 259.177,341.977 259.100,337.257 259.712 C 326.198 261.145,320.533 265.725,316.898 276.172 C 315.701 279.609,313.093 285.938,311.102 290.234 C 305.234 302.895,305.691 310.882,312.719 318.506 L 315.819 321.870 312.402 326.342 C 308.001 332.100,294.600 345.501,288.842 349.902 L 284.370 353.319 281.006 350.219 C 273.226 343.047,265.475 342.711,251.953 348.959 C 247.227 351.142,241.014 353.696,238.146 354.633 C 228.677 357.729,223.417 364.159,222.283 374.028 C 221.802 378.211,221.467 378.979,219.963 379.356 C 214.050 380.840,185.960 380.843,180.051 379.360 C 178.590 378.993,178.217 378.193,177.753 374.422 C 176.466 363.962,171.500 357.959,161.141 354.341 C 157.807 353.176,151.563 350.593,147.266 348.602 C 134.621 342.742,126.617 343.192,119.023 350.192 L 115.689 353.265 110.774 349.505 C 104.752 344.897,92.225 332.372,87.598 326.331 L 84.181 321.870 87.281 318.506 C 94.309 310.882,94.766 302.895,88.898 290.234 C 86.907 285.938,84.324 279.693,83.159 276.359 C 79.548 266.020,73.535 261.033,63.137 259.754 C 57.986 259.120,58.075 259.264,57.360 250.444 L 56.816 243.750 78.784 243.750 L 100.751 243.750 101.090 245.508 M285.351 247.461 C 281.429 284.351,251.453 315.794,214.120 322.178 C 166.454 330.329,119.728 295.231,114.649 247.461 L 114.254 243.750 200.000 243.750 L 285.746 243.750 285.351 247.461 " stroke="none" fill="white" fill-rule="evenodd"></path></g></svg>
