<svg id="svg" version="1.1" xmlns="http://www.w3.org/2000/svg" xmlns:xlink="http://www.w3.org/1999/xlink" width="400" height="400" viewBox="0, 0, 400,400"><g id="svgg"><path id="path0" d="M294.356 0.708 C 288.068 1.382,287.538 2.164,286.117 12.879 L 284.904 22.015 280.929 23.961 L 276.953 25.906 269.171 21.156 C 257.933 14.298,258.761 14.044,246.040 28.232 C 238.042 37.152,237.977 38.020,244.651 46.574 C 247.294 49.962,249.743 53.107,250.092 53.562 C 250.762 54.438,249.325 60.156,248.435 60.156 C 248.148 60.156,241.913 57.520,234.580 54.297 C 213.932 45.223,216.754 43.246,201.953 77.158 L 191.016 102.219 190.625 56.509 L 190.234 10.799 188.390 9.306 C 185.959 7.338,181.691 7.372,179.688 9.375 C 178.241 10.821,178.125 11.979,178.125 24.965 L 178.125 38.992 175.586 39.369 C 174.189 39.577,169.955 40.136,166.176 40.611 C 131.994 44.909,99.251 65.216,79.408 94.424 C 76.115 99.272,75.871 101.471,78.320 104.254 C 82.682 109.211,85.904 107.753,92.969 97.627 C 109.484 73.954,141.493 55.612,171.680 52.526 L 178.125 51.866 178.125 176.324 L 178.125 300.781 158.263 300.781 L 138.401 300.781 136.064 298.443 L 133.726 296.105 133.464 282.741 C 133.161 267.211,134.645 269.770,120.703 260.738 C 81.963 235.641,62.251 186.390,72.796 141.039 C 76.011 127.212,75.286 124.219,68.724 124.219 C 63.861 124.219,61.700 128.812,59.079 144.718 C 50.995 193.776,72.094 243.713,112.305 270.692 L 120.313 276.065 120.313 284.478 C 120.312 299.191,123.108 305.992,131.029 310.547 L 135.104 312.891 135.154 325.781 C 135.288 360.063,145.288 373.438,170.785 373.438 L 178.125 373.438 178.125 385.156 C 178.125 398.699,178.668 400.000,184.318 400.000 C 191.101 400.000,190.625 405.664,190.625 324.895 C 190.625 285.851,190.817 253.906,191.051 253.906 C 191.812 253.906,248.814 279.006,249.288 279.550 C 250.768 281.247,248.289 286.647,245.626 287.525 C 243.003 288.391,242.637 288.260,236.995 284.449 C 228.549 278.743,227.966 278.848,219.027 287.695 C 209.529 297.096,209.416 297.627,215.112 306.136 C 221.299 315.380,220.562 317.177,209.789 319.116 C 199.911 320.895,200.000 320.754,200.000 334.584 C 200.000 348.120,200.181 348.387,210.401 349.977 C 220.415 351.535,221.354 353.774,215.639 362.479 C 209.869 371.267,210.007 372.026,218.990 381.010 C 228.075 390.094,229.136 390.283,237.894 384.373 L 243.687 380.464 246.326 381.722 C 248.859 382.930,249.015 383.263,250.210 390.002 C 252.009 400.154,251.772 400.000,265.625 400.000 C 279.487 400.000,279.240 400.161,281.050 389.947 C 282.869 379.684,284.896 378.886,293.879 384.899 C 302.466 390.646,302.666 390.607,311.871 381.402 C 321.288 371.986,321.416 371.341,315.552 362.859 C 310.975 356.238,310.947 352.143,315.473 351.254 C 316.631 351.026,319.852 350.415,322.632 349.894 C 330.980 348.331,331.420 347.527,331.113 334.378 C 330.818 321.703,330.679 321.432,323.706 319.908 C 319.635 319.018,321.815 318.901,343.829 318.830 L 368.518 318.750 375.533 311.523 C 379.392 307.549,385.772 300.869,389.712 296.679 L 396.875 289.062 396.875 236.433 C 396.875 184.373,396.858 183.782,395.256 181.746 L 393.637 179.688 358.537 179.688 C 339.232 179.688,323.438 179.559,323.438 179.401 C 323.438 179.244,325.898 173.547,328.906 166.741 C 335.242 152.407,335.235 152.461,331.650 143.328 C 328.649 135.684,328.584 135.987,333.708 133.765 L 337.337 132.191 344.990 136.799 C 354.924 142.780,356.067 142.788,361.572 136.914 C 376.785 120.679,376.783 120.686,369.412 111.239 C 366.768 107.850,364.319 104.704,363.968 104.247 C 363.058 103.059,365.683 95.390,367.139 94.984 C 367.810 94.797,371.843 93.859,376.102 92.900 C 387.342 90.368,387.067 90.829,386.417 75.614 C 385.709 59.057,385.966 59.378,372.190 57.793 L 364.303 56.885 362.620 53.422 C 360.397 48.846,360.322 49.206,365.123 41.491 C 372.047 30.367,372.107 30.648,360.578 20.408 C 348.561 9.733,349.007 9.774,337.891 18.345 L 331.641 23.165 327.745 21.684 C 322.927 19.852,323.723 21.119,321.427 11.637 C 318.399 -0.870,316.450 -1.657,294.356 0.708 M308.895 13.867 C 309.119 14.619,309.851 17.695,310.522 20.703 C 311.533 25.236,313.160 30.450,313.571 30.475 C 313.627 30.478,317.188 31.739,321.484 33.277 C 333.797 37.684,333.632 37.696,341.495 31.761 L 348.225 26.682 351.849 29.942 L 355.472 33.203 351.175 39.844 C 346.191 47.545,345.949 49.330,349.119 54.983 C 350.353 57.184,351.995 60.685,352.767 62.764 C 354.627 67.770,356.078 68.563,365.385 69.655 L 373.262 70.579 373.740 74.070 C 374.629 80.557,374.957 80.190,366.602 82.073 C 356.746 84.293,355.804 84.929,354.213 90.434 C 353.499 92.902,352.067 96.850,351.029 99.208 C 348.635 104.644,348.940 105.790,354.790 113.352 C 359.968 120.046,359.987 120.324,355.562 124.535 L 353.177 126.805 346.706 122.868 C 337.567 117.307,337.703 117.322,330.439 121.062 L 324.201 124.274 323.508 122.488 C 323.127 121.506,322.077 118.844,321.173 116.573 C 319.044 111.216,318.886 111.667,323.785 109.108 C 346.980 96.988,347.222 62.495,324.207 49.009 C 306.924 38.883,283.059 46.839,275.391 65.283 C 274.151 68.264,273.073 70.806,272.993 70.932 C 272.914 71.058,270.004 69.828,266.526 68.198 L 260.203 65.234 262.502 60.156 C 265.647 53.206,265.549 52.680,259.678 45.011 L 254.513 38.264 257.427 34.709 C 259.029 32.753,260.738 31.309,261.225 31.499 C 261.711 31.689,265.068 33.644,268.684 35.844 C 276.188 40.409,277.150 40.564,281.655 37.923 C 283.457 36.867,286.828 35.259,289.146 34.349 C 295.938 31.683,296.572 30.737,297.679 21.619 C 298.210 17.248,299.038 13.414,299.518 13.098 C 301.414 11.851,308.468 12.430,308.895 13.867 M55.605 37.746 C 51.757 41.842,52.763 43.758,65.420 56.436 C 78.020 69.057,80.447 70.334,84.375 66.406 C 88.285 62.496,87.020 60.087,74.424 47.470 C 61.681 34.706,59.513 33.586,55.605 37.746 M316.868 59.766 C 329.492 65.943,332.849 82.218,323.702 92.905 C 321.341 95.663,315.086 99.863,314.509 99.078 C 314.408 98.941,313.512 96.719,312.517 94.141 C 310.006 87.629,308.877 86.731,296.484 81.383 C 284.064 76.024,284.196 76.200,287.663 69.542 C 293.531 58.275,305.577 54.242,316.868 59.766 M259.014 78.908 C 278.763 87.565,295.191 94.908,295.520 95.227 C 295.849 95.545,292.597 103.798,288.294 113.567 C 277.189 138.771,276.296 136.305,300.391 146.944 C 310.273 151.307,318.653 155.146,319.012 155.474 C 319.371 155.802,317.364 161.297,314.553 167.684 L 309.441 179.297 297.714 179.688 C 288.662 179.989,285.743 180.345,284.916 181.250 C 284.327 181.895,278.569 188.047,272.121 194.922 C 257.036 211.005,258.594 205.828,258.594 239.884 C 258.594 267.168,258.511 268.910,257.227 268.565 C 256.475 268.362,241.182 261.763,223.242 253.900 L 190.625 239.603 190.625 187.222 L 190.625 134.841 206.445 98.752 C 215.146 78.904,222.455 62.777,222.686 62.916 C 222.917 63.055,239.265 70.251,259.014 78.908 M310.468 124.161 C 313.726 132.508,316.275 139.454,316.132 139.597 C 315.620 140.109,295.346 130.843,295.329 130.089 C 295.313 129.341,304.173 108.668,304.420 108.879 C 304.488 108.937,307.209 115.814,310.468 124.161 M4.688 162.500 C 2.684 164.504,2.650 168.772,4.618 171.203 C 6.107 173.040,6.172 173.047,23.437 173.047 C 42.947 173.047,43.750 172.796,43.750 166.710 C 43.750 161.203,42.815 160.938,23.438 160.938 C 7.292 160.938,6.155 161.032,4.688 162.500 M374.301 193.555 C 373.887 194.307,371.138 197.298,368.193 200.202 L 362.837 205.483 321.530 205.280 L 280.223 205.078 286.286 198.633 L 292.350 192.188 333.702 192.188 C 372.852 192.188,375.015 192.260,374.301 193.555 M384.375 243.073 L 384.375 283.802 378.137 290.143 L 371.899 296.484 371.887 285.916 C 371.873 273.246,371.310 271.875,366.121 271.875 C 359.818 271.875,359.798 271.931,359.526 290.170 L 359.286 306.250 337.479 306.250 L 315.672 306.250 317.602 303.407 C 320.939 298.489,320.300 296.712,312.217 288.419 C 303.030 278.994,301.958 278.783,293.343 284.703 C 287.052 289.027,285.737 289.224,282.236 286.368 C 282.134 286.285,281.374 282.920,280.547 278.891 C 278.935 271.031,278.146 269.899,273.692 269.064 L 271.094 268.576 271.094 243.663 L 271.094 218.750 315.234 218.750 L 359.375 218.750 359.375 233.898 C 359.375 251.516,359.759 252.699,365.479 252.699 C 371.727 252.699,371.875 252.229,371.875 232.366 L 371.875 214.973 377.816 208.659 C 381.083 205.185,383.895 202.344,384.066 202.344 C 384.236 202.344,384.375 220.672,384.375 243.073 M67.373 276.767 C 54.050 290.111,53.524 291.144,57.844 295.464 C 61.816 299.436,63.539 298.532,76.393 285.726 C 88.077 274.086,89.075 272.553,87.481 268.705 C 84.536 261.594,81.178 262.941,67.373 276.767 M268.273 282.617 C 268.498 283.369,269.079 286.325,269.565 289.185 C 270.562 295.062,272.026 296.897,276.953 298.447 C 278.672 298.988,281.382 300.086,282.977 300.887 C 287.377 303.098,289.681 302.726,295.418 298.878 L 300.584 295.412 302.636 297.553 L 304.687 299.695 301.172 304.688 C 297.001 310.611,296.877 312.127,300.000 319.015 C 301.289 321.858,302.344 324.658,302.344 325.237 C 302.344 327.422,305.884 329.568,310.938 330.447 C 318.950 331.842,318.868 331.793,318.598 334.995 L 318.359 337.827 312.004 339.056 C 304.293 340.547,303.789 340.934,301.558 347.083 C 300.587 349.762,299.311 352.647,298.724 353.494 C 296.807 356.261,297.476 359.290,301.172 364.577 C 305.270 370.439,305.241 370.301,302.833 372.563 L 300.979 374.305 295.889 370.746 C 290.164 366.745,287.568 366.326,282.977 368.663 C 281.382 369.474,278.560 370.592,276.705 371.146 C 272.399 372.433,270.656 374.690,269.982 379.856 C 269.009 387.317,268.905 387.500,265.651 387.500 L 262.722 387.500 261.434 381.077 C 259.742 372.641,260.610 373.368,245.341 367.594 C 242.058 366.353,240.420 366.882,234.466 371.106 L 230.127 374.184 227.975 372.122 L 225.824 370.061 229.274 365.226 C 233.853 358.809,234.154 357.313,231.808 352.633 C 230.759 350.541,229.457 347.422,228.914 345.703 C 227.668 341.757,226.174 340.039,223.552 339.536 C 222.415 339.318,219.463 338.746,216.992 338.264 L 212.500 337.389 212.500 334.376 L 212.500 331.364 218.398 330.412 C 225.374 329.287,227.495 327.843,228.854 323.295 C 229.408 321.440,230.526 318.618,231.337 317.023 C 233.676 312.428,233.256 309.837,229.239 304.091 L 225.666 298.979 227.653 296.992 L 229.640 295.005 235.011 298.674 C 241.321 302.985,242.754 303.118,249.344 300.001 C 252.068 298.712,254.851 297.657,255.528 297.657 C 257.991 297.656,260.028 294.274,260.940 288.672 C 262.163 281.167,262.115 281.250,265.157 281.250 C 267.058 281.250,267.985 281.657,268.273 282.617 M255.675 309.222 C 237.003 316.696,232.395 340.677,247.005 354.343 C 265.991 372.102,296.175 355.863,292.062 330.102 C 289.450 313.749,270.924 303.118,255.675 309.222 M178.125 337.591 L 178.125 361.119 170.508 360.787 C 152.998 360.022,148.481 353.614,148.455 329.492 L 148.438 314.063 163.281 314.063 L 178.125 314.063 178.125 337.591 M271.861 321.868 C 282.326 327.207,282.152 342.921,271.575 347.724 C 258.573 353.629,245.703 338.962,253.217 326.804 C 256.886 320.868,265.454 318.599,271.861 321.868 " stroke="none" fill="#fff" fill-rule="evenodd"></path></g></svg>
