<?xml version="1.0" standalone="no"?>
<!DOCTYPE svg PUBLIC "-//W3C//DTD SVG 20010904//EN"
 "http://www.w3.org/TR/2001/REC-SVG-20010904/DTD/svg10.dtd">
<svg version="1.0" xmlns="http://www.w3.org/2000/svg"
 width="512.000000pt" height="512.000000pt" viewBox="0 0 512.000000 512.000000"
 preserveAspectRatio="xMidYMid meet">

<g transform="translate(0.000000,512.000000) scale(0.100000,-0.100000)"
fill="#fff" stroke="none">
<path d="M235 4709 c-94 -22 -192 -116 -220 -212 -23 -76 -23 -3158 0 -3233
24 -78 80 -143 159 -184 l69 -35 793 -3 c721 -2 794 -4 794 -19 0 -21 -49
-422 -56 -450 -4 -23 -7 -23 -142 -23 -150 0 -174 -7 -186 -55 -7 -29 15 -79
39 -89 22 -8 2128 -8 2150 0 24 10 46 60 39 89 -12 48 -36 55 -186 55 -135 0
-138 0 -142 22 -7 29 -56 430 -56 451 0 15 73 17 794 19 l793 3 69 35 c49 25
79 49 105 84 74 98 69 -30 69 1715 0 1384 -2 1573 -15 1619 -22 73 -88 150
-160 187 l-59 30 -2305 2 c-1396 0 -2322 -3 -2346 -8z m4646 -162 c31 -16 51
-36 67 -67 l22 -44 0 -1555 c0 -1552 0 -1555 -21 -1597 -12 -26 -36 -53 -57
-66 l-37 -23 -2295 0 -2295 0 -37 23 c-21 13 -45 40 -57 66 -21 42 -21 45 -21
1597 l0 1555 23 44 c15 31 35 51 66 67 l44 23 2277 0 2277 0 44 -23z m-2601
-3577 c31 -120 70 -174 164 -222 59 -31 174 -31 236 1 89 46 130 102 160 221
l16 65 140 3 140 3 30 -246 30 -245 -636 0 -636 0 30 245 30 246 140 -3 140
-3 16 -65z m416 38 c-16 -80 -73 -138 -136 -138 -63 0 -120 58 -136 138 l-6
32 142 0 143 0 -7 -32z"/>
<path d="M345 4375 l-25 -24 0 -1471 c0 -1450 0 -1470 20 -1490 27 -27 56 -33
161 -29 81 4 93 6 110 28 26 32 24 73 -4 99 -18 17 -36 22 -80 22 l-57 0 0
1370 0 1370 1900 0 1901 0 26 26 c20 20 24 31 19 57 -3 18 -16 40 -27 50 -20
16 -129 17 -1971 17 l-1949 0 -24 -25z"/>
<path d="M4515 4375 c-32 -31 -33 -74 -2 -103 18 -17 36 -22 80 -22 l57 0 0
-1370 0 -1370 -1904 0 -1905 0 -20 -26 c-12 -15 -21 -33 -21 -40 0 -26 23 -62
47 -73 17 -8 561 -11 1954 -11 2061 0 1975 -2 1993 45 3 9 6 676 6 1481 l0
1465 -25 24 c-23 23 -31 25 -130 25 -99 0 -107 -2 -130 -25z"/>
<path d="M1403 3908 c-12 -6 -27 -23 -33 -37 -20 -49 0 -74 127 -159 l118 -79
139 -489 c76 -269 147 -504 157 -522 l19 -33 -57 -112 c-67 -133 -73 -181 -31
-244 25 -39 26 -41 12 -94 -11 -42 -12 -66 -4 -106 45 -215 329 -257 434 -64
25 47 28 61 24 122 l-4 69 336 0 336 0 -4 -65 c-4 -55 0 -73 22 -120 94 -192
372 -165 432 42 15 52 16 64 3 113 -12 45 -12 60 -2 80 14 28 9 56 -15 83 -14
16 -62 17 -729 17 -478 0 -713 3 -713 10 0 6 20 50 44 98 l44 88 39 -4 c60 -5
1121 125 1178 144 69 24 156 111 178 179 9 28 46 198 82 379 60 306 64 331 49
353 -8 13 -25 28 -37 33 -12 5 -393 25 -847 45 -914 39 -950 41 -950 58 -1 7
-9 21 -18 33 -25 29 -274 194 -292 193 -8 0 -25 -5 -37 -11z m694 -402 c5 -5
52 -271 53 -298 0 -5 -58 -8 -128 -8 l-128 0 -46 161 -46 162 145 -6 c79 -3
147 -8 150 -11z m391 -13 l82 -6 0 -143 0 -144 -133 0 -133 0 -22 138 c-12 75
-22 143 -22 150 0 14 91 16 228 5z m519 -26 c1 -2 -2 -63 -9 -135 l-11 -132
-134 0 -133 0 0 142 0 141 142 -6 c77 -4 143 -8 145 -10z m420 -20 c3 -3 -24
-149 -42 -224 -5 -22 -9 -23 -126 -23 l-122 0 7 83 c4 45 10 104 13 131 l6 49
130 -6 c71 -4 131 -8 134 -10z m-1253 -405 c6 -11 68 -374 64 -377 -2 -2 -35
-6 -74 -10 -106 -10 -113 -2 -174 210 -27 94 -50 173 -50 178 0 10 228 9 234
-1z m391 -167 l0 -170 -85 -12 c-46 -7 -86 -11 -88 -9 -3 3 -62 343 -62 359 0
4 53 6 118 5 l117 -3 0 -170z m401 113 c-3 -35 -9 -102 -12 -150 -8 -98 -3
-93 -99 -102 -33 -4 -77 -9 -97 -12 l-38 -6 0 166 0 166 126 0 127 0 -7 -62z
m381 40 c-3 -13 -11 -51 -18 -86 -21 -109 -71 -159 -174 -169 -50 -5 -55 -4
-55 14 0 32 21 237 25 251 3 9 36 12 116 12 110 0 111 0 106 -22z m-1210 -890
c45 -42 23 -119 -39 -141 -32 -11 -79 14 -94 49 -34 82 68 153 133 92z m1116
8 c30 -23 41 -70 23 -104 -16 -32 -65 -55 -94 -45 -92 32 -78 164 17 163 20 0
44 -7 54 -14z"/>
</g>
</svg>
