<svg id="svg" version="1.1" xmlns="http://www.w3.org/2000/svg" xmlns:xlink="http://www.w3.org/1999/xlink" width="400" height="400" viewBox="0, 0, 400,400"><g id="svgg"><path id="path0" d="M99.979 71.167 C 99.839 90.656,99.690 96.170,99.300 96.300 C 99.025 96.392,98.800 96.732,98.800 97.057 C 98.800 97.382,98.665 97.571,98.500 97.478 C 98.335 97.384,97.030 98.548,95.600 100.063 C 91.014 104.922,87.400 108.561,85.678 110.054 C 84.755 110.854,84.000 111.720,84.000 111.978 C 84.000 112.236,83.820 112.336,83.600 112.200 C 83.380 112.064,83.200 112.244,83.200 112.600 C 83.200 112.956,83.065 113.172,82.900 113.080 C 82.735 112.988,80.947 114.597,78.927 116.656 C 76.908 118.715,75.317 120.400,75.393 120.400 C 75.469 120.400,73.908 121.975,71.925 123.900 C 65.425 130.209,62.794 132.928,62.995 133.129 C 63.104 133.237,63.007 133.550,62.780 133.824 C 62.553 134.098,62.263 135.172,62.136 136.210 C 61.660 140.093,61.401 139.777,81.590 160.007 L 100.200 178.655 100.150 203.427 C 100.108 224.472,100.460 233.270,100.837 220.600 C 100.909 218.199,100.993 217.666,101.091 219.000 L 101.237 221.000 108.653 228.438 L 116.069 235.877 112.953 236.140 C 105.176 236.798,109.492 237.200,124.320 237.200 L 139.600 237.200 139.600 247.024 C 139.600 253.471,139.737 256.762,140.000 256.600 C 140.250 256.445,140.400 257.270,140.400 258.800 C 140.400 260.146,140.547 261.156,140.726 261.046 C 140.906 260.935,144.191 263.988,148.026 267.831 L 155.000 274.818 155.235 272.709 L 155.470 270.600 155.606 273.000 C 155.888 277.959,156.400 267.667,156.635 252.300 L 156.866 237.200 157.850 237.200 C 158.614 237.200,162.922 241.296,177.159 255.555 C 187.239 265.650,195.916 274.051,196.443 274.223 C 197.859 274.686,202.051 274.708,203.200 274.259 C 203.750 274.043,204.304 273.852,204.430 273.834 C 204.937 273.760,231.520 246.853,231.301 246.635 C 231.172 246.506,231.249 246.400,231.471 246.400 C 232.049 246.400,236.400 242.112,236.400 241.542 C 236.400 241.281,236.512 241.178,236.648 241.315 C 236.966 241.633,240.800 238.021,240.800 237.403 C 240.800 237.115,241.253 237.005,241.990 237.113 L 243.180 237.288 243.368 296.544 C 243.547 352.694,243.766 366.410,244.415 362.000 L 244.680 360.200 244.740 362.404 L 244.800 364.608 252.200 372.000 L 259.600 379.392 259.600 377.696 C 259.600 376.763,259.780 376.000,260.000 376.000 C 260.265 376.000,260.400 359.222,260.400 326.465 C 260.400 277.283,260.087 249.098,259.566 251.400 C 259.305 252.555,259.291 252.540,259.195 251.000 L 259.095 249.400 258.847 250.728 L 258.600 252.056 251.300 244.683 L 244.000 237.311 243.923 241.156 L 243.845 245.000 243.623 241.000 C 243.381 236.651,243.482 235.571,244.050 236.466 C 244.309 236.875,244.389 236.836,244.394 236.300 C 244.398 235.801,244.083 235.600,243.294 235.600 C 242.408 235.600,241.129 234.538,236.850 230.250 C 232.777 226.168,231.268 224.900,230.487 224.900 C 229.674 224.900,226.440 227.929,214.742 239.647 L 200.020 254.395 183.240 237.597 C 172.229 226.575,166.182 220.800,165.653 220.800 C 165.210 220.800,164.736 220.620,164.600 220.400 C 164.440 220.141,155.996 220.000,140.576 220.000 L 116.800 220.000 116.800 195.974 C 116.800 178.794,116.670 171.705,116.345 171.098 C 116.095 170.631,108.446 162.805,99.348 153.707 L 82.806 137.167 86.703 133.202 C 88.846 131.022,91.691 128.104,93.025 126.719 C 94.359 125.333,97.095 122.683,99.105 120.829 C 101.115 118.975,102.665 117.306,102.550 117.119 C 102.435 116.933,102.489 116.827,102.670 116.884 C 103.210 117.054,105.194 115.113,104.925 114.678 C 104.788 114.457,104.852 114.385,105.067 114.518 C 105.482 114.774,106.872 113.405,106.537 113.070 C 106.428 112.962,106.713 112.754,107.170 112.610 C 107.626 112.465,108.000 112.109,108.000 111.820 C 108.000 111.530,108.378 111.194,108.840 111.074 C 109.302 110.953,109.582 110.694,109.461 110.498 C 109.241 110.142,109.991 109.398,111.432 108.545 C 111.854 108.294,112.175 107.801,112.145 107.449 C 112.115 107.097,112.231 106.896,112.403 107.002 C 113.077 107.418,114.341 105.826,113.993 105.000 L 113.656 104.200 113.581 105.000 C 113.539 105.440,113.529 105.943,113.558 106.117 C 113.691 106.910,111.777 105.227,106.406 99.827 L 100.612 94.002 100.385 70.101 L 100.158 46.200 99.979 71.167 M130.541 122.934 C 130.605 123.987,131.379 123.954,131.790 122.881 C 131.929 122.520,131.914 122.352,131.758 122.509 C 131.602 122.665,131.251 122.608,130.978 122.382 C 130.606 122.073,130.497 122.210,130.541 122.934 M130.000 125.590 C 130.000 125.999,129.775 126.424,129.500 126.535 C 129.192 126.660,129.259 126.749,129.675 126.768 C 130.095 126.788,130.327 127.103,130.290 127.600 C 130.222 128.497,129.772 128.661,129.465 127.900 C 129.354 127.625,129.249 127.816,129.232 128.324 C 129.211 128.925,129.361 129.148,129.662 128.962 C 129.975 128.768,130.014 128.854,129.782 129.230 C 129.378 129.884,129.219 132.389,129.251 137.600 C 129.264 139.690,129.271 142.480,129.267 143.800 C 129.263 145.120,129.453 146.822,129.689 147.583 C 129.924 148.344,130.102 149.509,130.083 150.172 C 130.064 150.834,130.218 151.581,130.425 151.830 C 130.632 152.079,130.830 153.030,130.866 153.942 C 130.902 154.854,131.082 155.600,131.266 155.600 C 131.450 155.600,131.600 156.151,131.600 156.824 C 131.600 157.537,131.767 157.944,132.000 157.800 C 132.224 157.662,132.400 157.971,132.400 158.501 C 132.400 159.023,132.760 160.195,133.200 161.106 C 133.640 162.016,134.000 163.209,134.000 163.757 C 134.000 164.305,134.180 164.864,134.400 165.000 C 134.620 165.136,134.800 165.597,134.800 166.024 C 134.800 166.451,134.980 166.800,135.200 166.800 C 135.420 166.800,135.600 167.070,135.600 167.400 C 135.600 167.730,135.780 168.000,136.000 168.000 C 136.220 168.000,136.400 168.431,136.400 168.957 C 136.400 169.484,136.681 170.022,137.025 170.154 C 137.369 170.286,137.539 170.576,137.402 170.797 C 137.265 171.019,137.343 171.200,137.576 171.200 C 137.809 171.200,138.000 171.560,138.000 172.000 C 138.000 172.440,138.180 172.800,138.400 172.800 C 138.620 172.800,138.800 173.081,138.800 173.424 C 138.800 173.767,138.980 173.936,139.200 173.800 C 139.420 173.664,139.600 173.923,139.600 174.376 C 139.600 174.829,139.736 175.200,139.902 175.200 C 140.069 175.200,140.448 175.750,140.746 176.423 C 141.044 177.096,141.391 177.542,141.518 177.415 C 141.645 177.288,142.070 177.884,142.462 178.740 C 142.854 179.595,143.829 180.949,144.628 181.748 C 145.426 182.546,145.965 183.200,145.824 183.200 C 145.684 183.200,145.801 183.451,146.084 183.758 C 146.368 184.065,146.763 184.217,146.962 184.096 C 147.161 183.975,147.210 184.061,147.070 184.287 C 146.771 184.771,148.082 186.400,148.771 186.400 C 149.033 186.400,149.160 186.541,149.053 186.713 C 148.947 186.886,149.397 187.455,150.055 187.978 C 150.712 188.501,151.850 189.530,152.585 190.265 C 153.319 190.999,154.168 191.600,154.472 191.600 C 154.775 191.600,155.283 191.960,155.600 192.400 C 155.917 192.840,156.407 193.200,156.688 193.200 C 156.970 193.200,157.200 193.380,157.200 193.600 C 157.200 193.820,157.430 194.000,157.712 194.000 C 157.993 194.000,158.483 194.360,158.800 194.800 C 159.117 195.240,159.617 195.600,159.912 195.600 C 160.206 195.600,160.336 195.780,160.200 196.000 C 160.064 196.220,160.233 196.400,160.576 196.400 C 160.919 196.400,161.200 196.580,161.200 196.800 C 161.200 197.020,161.558 197.200,161.997 197.200 C 162.435 197.200,163.018 197.560,163.293 198.000 C 163.568 198.440,164.109 198.800,164.496 198.800 C 164.883 198.800,165.200 198.980,165.200 199.200 C 165.200 199.420,165.434 199.600,165.720 199.600 C 166.456 199.600,168.393 200.541,168.397 200.900 C 168.399 201.065,168.634 201.200,168.920 201.200 C 169.656 201.200,171.593 202.141,171.597 202.500 C 171.599 202.665,171.949 202.800,172.376 202.800 C 172.803 202.800,173.264 202.980,173.400 203.200 C 173.536 203.420,174.076 203.600,174.600 203.600 C 175.124 203.600,175.672 203.792,175.817 204.027 C 175.962 204.262,176.312 204.366,176.595 204.257 C 176.877 204.149,177.497 204.333,177.973 204.666 C 178.448 204.999,179.087 205.175,179.393 205.058 C 179.698 204.941,180.011 205.033,180.087 205.262 C 180.164 205.492,180.761 205.730,181.413 205.791 C 182.066 205.852,183.086 206.097,183.680 206.334 C 184.275 206.571,185.490 206.808,186.380 206.861 C 187.271 206.913,188.000 207.082,188.000 207.236 C 188.000 207.390,189.153 207.489,190.562 207.457 C 191.972 207.424,193.041 207.533,192.939 207.699 C 192.837 207.865,195.998 208.000,199.964 208.000 C 206.648 208.000,207.159 207.949,206.957 207.300 C 206.759 206.664,206.779 206.661,207.169 207.263 C 207.608 207.941,209.392 207.834,208.972 207.155 C 208.851 206.960,208.943 206.800,209.176 206.800 C 209.409 206.800,209.600 206.950,209.600 207.133 C 209.600 207.317,210.140 207.467,210.800 207.467 C 211.460 207.467,212.000 207.355,212.000 207.218 C 212.000 207.082,212.402 206.940,212.894 206.903 C 213.386 206.866,213.851 206.648,213.927 206.418 C 214.004 206.188,214.242 206.000,214.457 206.000 C 214.672 206.000,214.755 206.150,214.641 206.333 C 214.528 206.517,214.697 206.667,215.018 206.667 C 215.338 206.667,215.600 206.536,215.600 206.376 C 215.600 205.929,214.603 205.648,213.462 205.773 C 212.315 205.899,198.945 192.905,199.056 191.772 C 199.087 191.449,198.764 191.200,198.313 191.200 C 197.812 191.200,197.591 191.399,197.719 191.733 C 197.832 192.027,197.663 192.267,197.345 192.267 C 197.026 192.267,196.853 192.039,196.960 191.761 C 197.138 191.297,196.653 191.262,195.400 191.647 C 195.180 191.715,194.595 191.545,194.100 191.271 C 193.375 190.869,193.198 190.872,193.188 191.286 C 193.180 191.610,193.033 191.556,192.790 191.140 C 192.544 190.718,191.880 190.480,190.951 190.480 C 190.151 190.480,189.381 190.293,189.240 190.064 C 189.098 189.835,188.366 189.666,187.612 189.687 C 186.859 189.709,186.173 189.518,186.088 189.263 C 186.003 189.008,185.329 188.800,184.590 188.800 C 183.852 188.800,183.136 188.620,183.000 188.400 C 182.864 188.180,182.403 188.000,181.976 188.000 C 181.549 188.000,181.200 187.830,181.200 187.623 C 181.200 187.416,180.831 187.317,180.380 187.404 C 179.914 187.494,179.464 187.311,179.337 186.981 C 179.215 186.661,178.774 186.400,178.357 186.400 C 177.941 186.400,177.600 186.220,177.600 186.000 C 177.600 185.780,177.240 185.600,176.800 185.600 C 176.360 185.600,175.997 185.375,175.994 185.100 C 175.989 184.713,175.918 184.709,175.679 185.085 C 175.458 185.434,174.989 185.244,174.010 184.408 C 173.261 183.769,172.525 183.323,172.375 183.416 C 172.224 183.509,171.619 183.138,171.030 182.593 C 170.441 182.047,169.788 181.600,169.579 181.600 C 169.371 181.600,169.200 181.390,169.200 181.133 C 169.200 180.877,169.088 180.779,168.950 180.916 C 168.813 181.054,168.349 180.769,167.920 180.283 C 167.490 179.797,167.253 179.625,167.393 179.900 C 167.533 180.175,167.457 180.400,167.224 180.400 C 166.991 180.400,166.800 180.207,166.800 179.971 C 166.800 179.407,165.778 178.400,165.205 178.400 C 164.956 178.400,164.856 178.233,164.982 178.029 C 165.108 177.825,164.849 177.543,164.406 177.402 C 163.963 177.261,163.600 176.978,163.600 176.773 C 163.600 176.568,163.358 176.400,163.061 176.400 C 162.765 176.400,161.730 175.473,160.761 174.341 C 159.793 173.208,158.775 172.051,158.500 171.769 C 158.225 171.488,158.000 171.079,158.000 170.860 C 158.000 170.642,157.235 169.691,156.300 168.746 C 155.365 167.802,154.838 167.176,155.130 167.356 C 155.568 167.628,155.569 167.539,155.133 166.842 C 154.844 166.379,154.460 166.000,154.280 166.000 C 154.100 166.000,154.060 165.827,154.191 165.615 C 154.322 165.403,154.063 164.863,153.615 164.415 C 153.167 163.967,152.800 163.387,152.800 163.126 C 152.800 162.865,152.410 162.236,151.933 161.729 C 151.457 161.222,151.043 160.490,151.014 160.103 C 150.985 159.716,150.655 158.787,150.281 158.039 C 149.906 157.290,149.600 156.345,149.600 155.939 C 149.600 155.532,149.420 155.200,149.200 155.200 C 148.980 155.200,148.800 154.649,148.800 153.976 C 148.800 153.263,148.633 152.856,148.400 153.000 C 148.168 153.143,148.000 152.752,148.000 152.066 C 148.000 151.417,147.752 150.791,147.449 150.674 C 147.099 150.540,146.971 150.087,147.097 149.429 C 147.205 148.861,147.071 148.126,146.798 147.798 C 146.419 147.341,146.412 147.067,146.768 146.639 C 147.114 146.221,147.117 146.039,146.777 145.926 C 146.526 145.842,146.320 145.105,146.320 144.288 C 146.320 143.335,146.167 142.897,145.892 143.067 C 145.618 143.236,145.561 143.078,145.734 142.628 C 146.533 140.545,146.294 138.400,145.261 138.400 C 145.091 138.400,141.992 135.427,138.375 131.794 C 132.047 125.437,130.000 123.920,130.000 125.590 M145.397 134.459 C 145.426 134.857,145.603 135.322,145.789 135.492 C 145.976 135.661,145.999 135.575,145.841 135.300 C 145.682 135.025,145.743 134.800,145.976 134.800 C 146.209 134.800,146.400 134.560,146.400 134.267 C 146.400 133.973,146.162 133.733,145.872 133.733 C 145.581 133.733,145.368 134.060,145.397 134.459 M246.012 190.784 C 245.688 190.989,245.544 191.278,245.693 191.426 C 245.841 191.574,246.253 191.404,246.610 191.048 C 247.313 190.344,246.957 190.187,246.012 190.784 M201.055 191.800 C 201.182 192.130,201.416 192.400,201.576 192.400 C 201.736 192.400,201.867 192.130,201.867 191.800 C 201.867 191.470,201.632 191.200,201.346 191.200 C 201.047 191.200,200.923 191.456,201.055 191.800 M233.355 221.372 C 233.224 221.715,232.927 221.879,232.696 221.736 C 232.445 221.581,232.396 221.670,232.574 221.958 C 232.804 222.330,233.022 222.324,233.536 221.933 C 233.901 221.654,234.257 221.393,234.327 221.353 C 234.396 221.313,234.260 221.161,234.024 221.015 C 233.788 220.869,233.487 221.030,233.355 221.372 M243.200 236.400 C 243.200 236.620,242.851 236.800,242.424 236.800 C 241.997 236.800,241.536 236.620,241.400 236.400 C 241.260 236.173,241.596 236.000,242.176 236.000 C 242.739 236.000,243.200 236.180,243.200 236.400 M193.830 334.024 C 193.407 334.451,193.244 334.800,193.468 334.800 C 193.692 334.800,194.202 334.440,194.600 334.000 C 195.528 332.974,194.850 332.995,193.830 334.024 M205.400 334.000 C 205.798 334.440,206.310 334.800,206.537 334.800 C 206.765 334.800,206.564 334.440,206.092 334.000 C 205.620 333.560,205.108 333.200,204.955 333.200 C 204.801 333.200,205.002 333.560,205.400 334.000 M207.693 336.400 C 208.162 337.151,208.800 337.480,208.800 336.971 C 208.800 336.673,207.725 335.600,207.425 335.600 C 207.298 335.600,207.418 335.960,207.693 336.400 M209.063 337.504 C 208.965 337.667,209.126 338.023,209.421 338.296 C 209.716 338.569,210.038 338.659,210.137 338.496 C 210.235 338.333,210.074 337.977,209.779 337.704 C 209.484 337.431,209.162 337.341,209.063 337.504 M211.463 339.904 C 211.365 340.067,211.526 340.423,211.821 340.696 C 212.116 340.969,212.438 341.059,212.537 340.896 C 212.635 340.733,212.474 340.377,212.179 340.104 C 211.884 339.831,211.562 339.741,211.463 339.904 M212.800 341.504 C 212.800 341.671,213.160 342.032,213.600 342.307 C 214.530 342.888,214.654 342.597,213.829 341.771 C 213.198 341.141,212.800 341.037,212.800 341.504 M218.400 346.962 C 218.400 347.339,218.560 347.549,218.755 347.428 C 218.950 347.308,219.203 347.567,219.317 348.004 C 219.431 348.442,219.767 348.786,220.063 348.768 C 220.470 348.744,220.478 348.688,220.098 348.534 C 219.821 348.423,219.682 348.191,219.788 348.019 C 219.894 347.847,219.625 347.385,219.191 346.991 C 218.456 346.326,218.400 346.324,218.400 346.962 M224.800 353.125 C 224.800 353.689,226.310 355.272,226.511 354.920 C 226.612 354.744,226.268 354.189,225.747 353.686 C 225.226 353.183,224.800 352.931,224.800 353.125 M227.866 356.268 C 227.695 356.438,228.232 357.161,229.058 357.875 C 230.805 359.385,231.372 359.335,229.842 357.806 C 229.269 357.233,228.787 356.907,228.772 357.082 C 228.756 357.257,228.616 357.076,228.459 356.679 C 228.303 356.283,228.036 356.098,227.866 356.268 M241.251 369.895 C 242.549 371.538,243.256 372.186,243.129 371.618 C 242.988 370.981,241.397 369.200,240.969 369.200 C 240.822 369.200,240.949 369.513,241.251 369.895 " stroke="none" fill="#fc9331" fill-rule="evenodd"></path><path id="path1" d="M99.751 90.800 C 99.751 93.330,99.816 94.365,99.896 93.100 C 99.975 91.835,99.975 89.765,99.896 88.500 C 99.816 87.235,99.751 88.270,99.751 90.800 M89.400 106.000 C 87.872 107.540,86.743 108.800,86.891 108.800 C 87.039 108.800,88.438 107.540,90.000 106.000 C 91.562 104.460,92.691 103.200,92.509 103.200 C 92.327 103.200,90.928 104.460,89.400 106.000 M110.060 109.442 C 109.762 109.778,109.599 110.132,109.695 110.229 C 109.792 110.326,110.198 110.044,110.598 109.602 C 110.997 109.161,111.161 108.807,110.962 108.815 C 110.763 108.824,110.357 109.105,110.060 109.442 M93.377 126.174 C 90.917 128.680,90.793 129.295,93.228 126.914 C 94.402 125.767,95.280 124.759,95.181 124.674 C 95.081 124.590,94.270 125.264,93.377 126.174 M99.600 203.400 C 99.600 217.150,99.742 228.400,99.915 228.400 C 100.088 228.400,100.270 228.922,100.318 229.561 C 100.367 230.199,100.674 231.234,101.001 231.861 C 101.328 232.487,101.596 233.225,101.598 233.500 C 101.599 233.775,101.791 234.000,102.024 234.000 C 102.257 234.000,102.336 234.180,102.200 234.400 C 102.064 234.620,102.214 234.800,102.534 234.800 C 102.853 234.800,103.217 235.067,103.342 235.393 C 103.467 235.719,104.296 236.102,105.185 236.244 C 106.073 236.386,106.800 236.620,106.800 236.764 C 106.800 237.200,108.883 237.229,109.400 236.800 C 109.665 236.580,111.274 236.282,112.976 236.138 L 116.069 235.877 108.653 228.438 L 101.237 221.000 101.091 219.000 C 100.993 217.666,100.909 218.199,100.837 220.600 C 100.459 233.315,100.106 224.439,100.149 203.300 C 100.177 189.605,100.065 178.400,99.900 178.400 C 99.735 178.400,99.600 189.650,99.600 203.400 M299.788 203.200 C 299.788 216.730,299.838 222.265,299.900 215.500 C 299.961 208.735,299.961 197.665,299.900 190.900 C 299.838 184.135,299.788 189.670,299.788 203.200 M172.800 227.000 C 173.546 227.770,174.247 228.400,174.357 228.400 C 174.467 228.400,173.946 227.770,173.200 227.000 C 172.454 226.230,171.753 225.600,171.643 225.600 C 171.533 225.600,172.054 226.230,172.800 227.000 M209.970 243.868 L 209.000 244.936 210.087 244.168 C 210.686 243.746,211.181 243.265,211.187 243.100 C 211.208 242.607,210.989 242.746,209.970 243.868 M139.900 256.629 C 139.427 257.109,139.526 394.800,140.000 394.800 C 140.220 394.800,140.400 395.072,140.400 395.405 C 140.400 398.444,142.802 399.800,148.184 399.800 L 153.003 399.800 155.284 397.500 C 156.539 396.235,157.462 395.200,157.335 395.200 C 157.209 395.200,158.220 394.165,159.583 392.900 C 164.575 388.265,172.000 380.791,172.000 380.401 C 172.000 380.180,172.225 379.998,172.500 379.996 C 172.775 379.994,173.450 379.420,174.000 378.721 C 175.179 377.221,178.800 373.545,178.800 373.848 C 178.800 373.963,179.070 373.787,179.400 373.457 C 179.730 373.127,180.000 372.664,180.000 372.429 C 180.000 372.193,180.165 372.000,180.367 372.000 C 180.932 372.000,183.998 368.931,183.715 368.649 C 183.579 368.512,183.684 368.400,183.949 368.400 C 184.392 368.400,186.565 366.263,193.032 359.468 C 194.369 358.062,195.629 356.842,195.832 356.756 C 196.034 356.670,196.675 356.025,197.256 355.322 C 197.836 354.619,198.421 354.154,198.556 354.289 C 198.690 354.423,198.800 354.223,198.800 353.843 C 198.800 353.463,198.980 353.264,199.200 353.400 C 199.420 353.536,199.606 353.322,199.613 352.924 C 199.625 352.237,199.653 352.236,200.157 352.900 C 200.449 353.285,200.803 353.600,200.944 353.600 C 201.299 353.600,202.799 355.133,202.804 355.500 C 202.806 355.665,203.382 356.250,204.084 356.800 C 205.720 358.081,208.319 360.680,209.600 362.316 C 210.150 363.018,210.716 363.594,210.858 363.596 C 211.207 363.601,213.600 365.855,213.600 366.179 C 213.600 366.595,215.341 368.215,216.101 368.507 C 216.485 368.654,216.800 369.051,216.800 369.387 C 216.800 369.724,217.100 370.000,217.467 370.000 C 217.833 370.000,218.037 370.096,217.920 370.213 C 217.716 370.418,220.278 373.200,220.670 373.200 C 220.775 373.200,222.106 374.460,223.627 376.000 C 225.149 377.540,226.305 378.800,226.197 378.800 C 226.088 378.800,226.764 379.569,227.699 380.508 C 228.635 381.448,229.535 382.157,229.700 382.085 C 229.865 382.012,230.000 382.233,230.000 382.576 C 230.000 382.919,230.276 383.200,230.613 383.200 C 230.949 383.200,231.346 383.515,231.493 383.899 C 231.785 384.659,233.405 386.400,233.821 386.400 C 234.145 386.400,236.399 388.793,236.404 389.142 C 236.406 389.284,236.982 389.850,237.684 390.400 C 238.982 391.416,241.515 393.891,243.043 395.637 C 243.507 396.167,244.243 396.889,244.680 397.242 C 245.116 397.595,245.767 398.303,246.126 398.816 C 246.882 399.895,256.000 400.644,256.000 399.627 C 256.000 399.366,256.146 399.243,256.325 399.354 C 256.504 399.464,257.162 399.115,257.787 398.577 C 258.413 398.040,258.784 397.600,258.613 397.600 C 258.442 397.600,258.543 397.309,258.839 396.954 C 260.136 395.391,260.388 393.403,260.394 384.700 C 260.398 379.163,260.255 376.000,260.000 376.000 C 259.780 376.000,259.600 376.763,259.600 377.696 L 259.600 379.392 252.200 372.000 L 244.800 364.608 244.740 362.404 L 244.680 360.200 244.400 362.000 C 244.158 363.556,244.107 363.338,244.025 360.400 C 243.795 352.193,243.304 353.273,243.206 362.200 C 243.151 367.260,243.135 371.580,243.172 371.800 C 243.209 372.020,242.690 371.570,242.020 370.800 C 241.350 370.030,240.799 369.130,240.795 368.800 C 240.789 368.267,240.745 368.267,240.400 368.800 C 240.088 369.283,240.011 369.219,240.006 368.476 C 240.003 367.968,239.825 367.661,239.612 367.793 C 239.398 367.925,239.109 367.575,238.968 367.016 C 238.828 366.457,238.433 366.000,238.090 366.000 C 237.747 366.000,237.578 365.889,237.714 365.752 C 238.069 365.397,236.974 364.400,236.229 364.400 C 235.883 364.400,235.600 364.117,235.600 363.771 C 235.600 363.026,234.603 361.931,234.248 362.286 C 234.111 362.422,234.000 362.253,234.000 361.910 C 234.000 361.567,233.543 361.172,232.984 361.032 C 232.425 360.891,232.075 360.602,232.207 360.388 C 232.339 360.175,232.032 359.997,231.524 359.994 C 230.781 359.989,230.717 359.912,231.200 359.600 C 231.733 359.255,231.733 359.211,231.200 359.205 C 230.433 359.196,227.806 356.965,227.782 356.303 C 227.772 356.026,227.547 355.845,227.282 355.900 C 227.017 355.955,226.800 355.700,226.800 355.333 C 226.800 354.967,226.689 354.778,226.552 354.914 C 226.215 355.252,225.439 354.423,224.633 352.863 C 224.264 352.149,223.534 351.371,223.012 351.133 C 222.440 350.872,222.150 350.475,222.281 350.134 C 222.400 349.822,222.341 349.620,222.149 349.684 C 221.957 349.748,221.761 349.659,221.714 349.486 C 221.556 348.906,220.463 348.000,219.929 348.006 C 219.538 348.011,219.557 348.114,220.000 348.400 C 220.456 348.694,220.471 348.789,220.063 348.794 C 219.767 348.797,219.431 348.442,219.317 348.004 C 219.203 347.567,218.950 347.308,218.755 347.428 C 218.560 347.549,218.400 347.264,218.400 346.795 C 218.400 345.877,217.539 344.800,216.805 344.800 C 216.556 344.800,216.483 344.589,216.642 344.332 C 216.843 344.006,216.702 343.952,216.178 344.153 C 215.763 344.312,215.545 344.321,215.693 344.174 C 215.944 343.923,214.936 342.642,214.429 342.565 C 213.614 342.442,212.800 341.827,212.800 341.334 C 212.800 341.014,212.665 340.835,212.500 340.934 C 212.109 341.171,211.174 340.160,211.491 339.843 C 211.624 339.709,211.433 339.600,211.067 339.600 C 210.700 339.600,210.400 339.319,210.400 338.976 C 210.400 338.633,210.265 338.435,210.100 338.534 C 209.709 338.771,208.774 337.760,209.091 337.443 C 209.224 337.309,209.053 337.200,208.709 337.200 C 208.116 337.200,207.398 336.151,207.539 335.491 C 207.576 335.321,207.144 335.007,206.579 334.792 C 205.954 334.554,205.664 334.221,205.838 333.939 C 206.012 333.657,205.948 333.585,205.675 333.754 C 205.428 333.906,204.997 333.664,204.717 333.216 C 204.437 332.767,203.891 332.400,203.504 332.400 C 203.117 332.400,202.800 332.250,202.800 332.067 C 202.800 331.883,201.540 331.733,200.000 331.733 C 198.460 331.733,197.200 331.883,197.200 332.067 C 197.200 332.250,196.883 332.400,196.496 332.400 C 196.109 332.400,195.563 332.767,195.283 333.216 C 195.003 333.664,194.572 333.906,194.325 333.754 C 194.052 333.585,193.988 333.657,194.162 333.939 C 194.333 334.216,194.077 334.547,193.524 334.764 C 192.471 335.178,191.149 336.615,191.500 336.966 C 191.628 337.095,191.423 337.200,191.043 337.200 C 190.663 337.200,190.464 337.380,190.600 337.600 C 190.736 337.820,190.648 338.000,190.405 338.000 C 189.832 338.000,188.000 339.832,188.000 340.405 C 188.000 340.648,187.820 340.736,187.600 340.600 C 187.380 340.464,187.200 340.663,187.200 341.043 C 187.200 341.423,187.086 341.619,186.947 341.480 C 186.807 341.341,186.106 341.806,185.389 342.513 C 184.671 343.221,183.705 344.065,183.242 344.388 C 182.779 344.712,182.400 345.213,182.400 345.501 C 182.400 345.790,182.027 346.164,181.570 346.333 C 181.114 346.501,180.754 346.766,180.770 346.920 C 180.787 347.074,180.702 347.192,180.582 347.182 C 180.461 347.173,179.696 347.896,178.882 348.790 C 176.237 351.692,167.264 360.730,167.130 360.627 C 167.059 360.572,165.513 362.028,163.695 363.863 C 161.877 365.699,160.466 367.200,160.559 367.200 C 160.652 367.200,159.941 368.010,158.979 369.000 C 158.017 369.990,157.133 370.800,157.015 370.800 C 156.897 370.800,156.776 346.905,156.747 317.700 C 156.701 272.806,156.427 256.725,155.968 272.000 L 155.866 275.400 155.600 273.000 L 155.334 270.600 155.267 272.796 L 155.200 274.992 148.000 267.800 C 144.040 263.845,140.769 260.786,140.731 261.004 C 140.693 261.222,140.558 260.258,140.431 258.863 C 140.304 257.467,140.065 256.462,139.900 256.629 M199.300 274.676 C 199.685 274.776,200.315 274.776,200.700 274.676 C 201.085 274.575,200.770 274.493,200.000 274.493 C 199.230 274.493,198.915 274.575,199.300 274.676 " stroke="none" fill="#fcb42c" fill-rule="evenodd"></path><path id="path2" d="M194.166 1.473 C 193.305 2.235,192.870 2.720,193.200 2.552 C 193.713 2.291,193.722 2.343,193.262 2.910 C 192.966 3.276,192.516 3.535,192.262 3.487 C 192.008 3.439,191.845 3.625,191.900 3.900 C 191.955 4.175,191.775 4.355,191.500 4.300 C 191.225 4.245,191.045 4.425,191.100 4.700 C 191.155 4.975,190.975 5.155,190.700 5.100 C 190.425 5.045,190.245 5.225,190.300 5.500 C 190.355 5.775,190.175 5.955,189.900 5.900 C 189.625 5.845,189.445 6.025,189.500 6.300 C 189.555 6.575,189.375 6.755,189.100 6.700 C 188.825 6.645,188.645 6.825,188.700 7.100 C 188.755 7.375,188.575 7.555,188.300 7.500 C 188.025 7.445,187.845 7.625,187.900 7.900 C 187.955 8.175,187.775 8.355,187.500 8.300 C 187.225 8.245,187.045 8.425,187.100 8.700 C 187.155 8.975,186.961 9.200,186.670 9.200 C 186.378 9.200,185.703 9.695,185.170 10.300 L 184.200 11.400 185.322 10.409 C 186.033 9.782,186.355 9.651,186.201 10.053 C 186.067 10.402,185.472 10.938,184.879 11.244 C 184.285 11.550,183.350 12.228,182.800 12.751 C 182.250 13.273,182.006 13.589,182.258 13.453 C 182.961 13.072,183.174 14.127,182.608 15.185 C 182.087 16.158,191.488 26.363,192.391 25.806 C 193.022 25.415,192.300 27.224,191.630 27.712 C 190.861 28.272,189.600 30.014,189.600 30.518 C 189.600 30.704,189.870 30.587,190.200 30.257 C 190.530 29.927,190.800 29.434,190.800 29.162 C 190.800 28.890,190.907 28.773,191.037 28.904 C 191.515 29.382,195.504 25.030,195.084 24.490 C 194.865 24.210,194.802 23.865,194.943 23.724 C 195.084 23.582,195.200 23.677,195.200 23.933 C 195.200 24.190,195.385 24.400,195.611 24.400 C 196.145 24.400,199.600 20.945,199.600 20.411 C 199.600 19.893,199.854 19.894,200.826 20.414 C 201.252 20.642,201.600 21.020,201.600 21.254 C 201.600 21.759,204.217 24.449,204.680 24.420 C 204.856 24.409,205.008 24.625,205.018 24.900 C 205.028 25.175,205.253 25.355,205.518 25.300 C 205.783 25.245,205.955 25.425,205.900 25.700 C 205.845 25.975,206.025 26.155,206.300 26.100 C 206.575 26.045,206.755 26.225,206.700 26.500 C 206.645 26.775,206.825 26.955,207.100 26.900 C 207.375 26.845,207.555 27.025,207.500 27.300 C 207.445 27.575,207.625 27.755,207.900 27.700 C 208.175 27.645,208.355 27.735,208.300 27.900 C 208.245 28.065,208.358 28.234,208.551 28.275 C 208.743 28.316,209.118 28.766,209.383 29.275 C 209.648 29.784,210.076 30.155,210.333 30.100 C 210.590 30.045,210.755 30.225,210.700 30.500 C 210.645 30.775,210.825 30.955,211.100 30.900 C 211.375 30.845,211.600 31.070,211.600 31.400 C 211.600 31.730,211.881 32.000,212.224 32.000 C 212.567 32.000,212.752 32.154,212.636 32.342 C 212.380 32.756,214.147 34.492,214.530 34.204 C 214.678 34.092,214.712 34.118,214.603 34.263 C 214.288 34.685,215.249 35.617,215.707 35.334 C 215.936 35.192,216.011 35.258,215.874 35.480 C 215.576 35.962,217.340 37.727,217.730 37.337 C 217.878 37.188,218.000 37.367,218.000 37.733 C 218.000 38.100,218.248 38.400,218.551 38.400 C 218.854 38.400,219.349 38.715,219.651 39.100 C 220.159 39.748,220.140 39.756,219.400 39.212 C 218.809 38.778,218.854 38.909,219.570 39.712 C 220.595 40.862,221.049 41.135,220.547 40.300 C 220.335 39.948,220.443 39.959,220.910 40.338 C 221.276 40.634,221.535 41.084,221.487 41.338 C 221.439 41.592,221.625 41.755,221.900 41.700 C 222.175 41.645,222.355 41.825,222.300 42.100 C 222.245 42.375,222.425 42.555,222.700 42.500 C 222.975 42.445,223.155 42.625,223.100 42.900 C 223.045 43.175,223.225 43.355,223.500 43.300 C 223.775 43.245,223.955 43.425,223.900 43.700 C 223.845 43.975,224.025 44.155,224.300 44.100 C 224.575 44.045,224.755 44.217,224.700 44.482 C 224.645 44.747,224.825 44.972,225.100 44.982 C 225.375 44.992,225.591 45.144,225.580 45.320 C 225.551 45.781,228.072 48.205,228.900 48.514 C 229.285 48.657,229.600 49.019,229.600 49.318 C 229.600 49.616,230.050 50.283,230.600 50.800 C 231.150 51.317,231.600 51.619,231.600 51.472 C 231.600 51.325,232.044 51.591,232.586 52.063 C 233.129 52.535,233.478 53.073,233.363 53.260 C 233.247 53.447,233.493 53.600,233.910 53.600 C 234.326 53.600,234.777 53.710,234.911 53.845 C 235.046 53.979,245.921 54.179,259.078 54.290 C 272.235 54.400,283.042 54.527,283.094 54.573 C 283.146 54.618,283.196 65.585,283.206 78.944 C 283.216 92.303,283.373 103.140,283.555 103.028 C 283.737 102.915,284.223 103.448,284.634 104.211 C 285.045 104.975,285.611 105.600,285.891 105.600 C 286.171 105.600,286.379 105.735,286.353 105.900 C 286.225 106.709,286.453 107.200,286.957 107.200 C 287.264 107.200,287.622 107.481,287.754 107.825 C 287.889 108.175,288.199 108.324,288.459 108.164 C 288.738 107.991,288.816 108.051,288.654 108.312 C 288.303 108.881,290.319 110.897,290.888 110.546 C 291.137 110.392,291.210 110.460,291.058 110.706 C 290.734 111.231,291.833 112.400,292.652 112.400 C 292.979 112.400,293.135 112.581,292.998 112.803 C 292.861 113.025,293.030 113.488,293.374 113.832 C 293.845 114.302,294.001 114.326,294.006 113.929 C 294.009 113.638,294.249 113.850,294.539 114.400 C 294.828 114.950,295.258 115.361,295.494 115.313 C 295.730 115.265,296.166 115.524,296.462 115.890 C 296.922 116.458,296.913 116.505,296.400 116.220 C 296.070 116.036,296.685 116.804,297.767 117.925 C 298.849 119.046,299.889 119.869,300.077 119.752 C 300.266 119.636,300.394 119.689,300.363 119.870 C 300.228 120.647,300.432 121.200,300.853 121.200 C 301.356 121.200,302.800 122.729,302.800 123.261 C 302.800 123.448,303.070 123.600,303.400 123.600 C 303.730 123.600,304.000 123.780,304.000 124.000 C 304.000 124.220,304.217 124.355,304.482 124.300 C 304.747 124.245,304.980 124.470,305.000 124.800 C 305.020 125.130,305.267 125.351,305.548 125.290 C 305.829 125.230,305.954 125.350,305.826 125.558 C 305.522 126.050,306.750 127.278,307.242 126.974 C 307.450 126.846,307.570 126.979,307.510 127.270 C 307.449 127.562,307.625 127.755,307.900 127.700 C 308.175 127.645,308.379 127.735,308.353 127.900 C 308.189 128.935,308.417 129.393,308.800 128.800 C 309.129 128.291,309.189 128.310,309.194 128.924 C 309.197 129.322,309.384 129.533,309.610 129.394 C 309.835 129.255,309.994 129.289,309.963 129.470 C 309.825 130.260,310.044 130.731,310.657 130.966 C 311.232 131.187,311.245 131.131,310.757 130.509 C 310.251 129.864,310.264 129.850,310.900 130.349 C 311.285 130.651,311.600 131.129,311.600 131.411 C 311.600 131.694,312.860 133.142,314.401 134.629 C 317.034 137.171,317.387 137.775,316.267 137.818 C 316.010 137.828,315.849 138.067,315.910 138.348 C 315.970 138.629,315.859 138.760,315.663 138.639 C 315.467 138.518,314.968 138.817,314.553 139.303 C 313.927 140.038,313.918 140.095,314.500 139.644 C 315.414 138.937,315.392 139.256,314.453 140.339 C 314.042 140.812,313.367 141.214,312.953 141.232 C 312.539 141.249,312.404 141.347,312.654 141.450 C 313.296 141.713,312.413 143.532,311.500 143.828 C 310.338 144.203,310.604 144.568,315.965 149.950 C 318.806 152.802,321.011 155.269,320.865 155.432 C 320.719 155.594,320.931 155.608,321.336 155.462 C 322.547 155.026,322.826 155.565,321.925 156.601 C 321.460 157.135,320.899 157.461,320.678 157.325 C 320.440 157.177,320.402 157.280,320.585 157.576 C 320.815 157.948,324.400 155.154,324.400 154.602 C 324.400 154.585,324.053 154.571,323.629 154.571 C 323.206 154.571,322.946 154.713,323.053 154.886 C 323.289 155.268,322.640 155.307,322.266 154.932 C 321.684 154.351,323.284 153.172,323.938 153.701 C 324.450 154.116,324.494 154.099,324.200 153.600 C 323.886 153.067,323.929 153.067,324.593 153.600 C 325.283 154.155,325.321 154.133,325.107 153.300 C 324.889 152.455,325.315 152.166,326.500 152.353 C 326.665 152.379,326.755 152.175,326.700 151.900 C 326.645 151.625,326.847 151.452,327.149 151.516 C 327.509 151.593,327.612 151.409,327.449 150.983 C 327.289 150.567,327.378 150.393,327.697 150.499 C 327.970 150.590,328.390 150.290,328.630 149.832 C 328.869 149.375,329.289 149.049,329.562 149.110 C 329.836 149.170,329.963 149.064,329.845 148.873 C 329.553 148.400,332.175 145.908,332.560 146.293 C 332.729 146.462,332.807 146.345,332.733 146.033 C 332.660 145.721,333.050 145.228,333.600 144.939 C 334.150 144.649,334.437 144.409,334.238 144.406 C 334.038 144.403,334.623 143.644,335.538 142.721 C 336.544 141.704,337.200 140.669,337.200 140.097 C 337.200 139.578,337.365 139.255,337.567 139.380 C 338.125 139.724,337.878 134.616,337.303 133.924 C 337.030 133.595,336.924 133.209,337.068 133.066 C 337.211 132.922,336.894 132.424,336.364 131.959 C 335.834 131.494,335.445 130.953,335.500 130.756 C 335.555 130.560,335.407 130.400,335.171 130.400 C 334.936 130.400,334.473 130.130,334.143 129.800 C 333.813 129.470,333.631 129.200,333.738 129.200 C 333.845 129.200,333.321 128.570,332.574 127.800 C 331.826 127.030,331.108 126.400,330.978 126.400 C 330.849 126.400,330.473 126.130,330.143 125.800 C 329.813 125.470,329.665 125.200,329.814 125.200 C 329.963 125.200,329.507 124.661,328.802 124.002 C 328.096 123.342,327.329 122.920,327.098 123.063 C 326.860 123.210,326.794 123.134,326.946 122.888 C 327.274 122.357,325.300 120.291,324.774 120.616 C 324.568 120.743,324.400 120.563,324.400 120.217 C 324.400 119.517,321.760 116.773,321.417 117.116 C 321.298 117.236,321.200 117.003,321.200 116.600 C 321.200 116.197,321.089 115.978,320.952 116.114 C 320.656 116.410,319.600 115.427,319.600 114.856 C 319.600 114.635,319.257 114.345,318.837 114.212 C 318.417 114.079,317.969 113.695,317.840 113.359 C 317.709 113.020,317.400 112.877,317.141 113.036 C 316.852 113.215,316.784 113.149,316.962 112.862 C 317.119 112.608,317.046 112.400,316.800 112.400 C 316.554 112.400,316.464 112.220,316.600 112.000 C 316.736 111.780,316.579 111.600,316.251 111.600 C 315.922 111.600,315.540 111.240,315.400 110.800 C 315.166 110.063,314.714 109.816,313.870 109.963 C 313.689 109.994,313.655 109.835,313.794 109.610 C 313.933 109.384,313.756 109.200,313.400 109.200 C 313.044 109.200,312.857 109.032,312.984 108.826 C 313.309 108.300,311.243 106.326,310.712 106.654 C 310.463 106.808,310.390 106.740,310.542 106.494 C 310.869 105.965,309.680 104.704,309.158 105.026 C 308.950 105.154,308.830 105.021,308.890 104.730 C 308.951 104.438,308.775 104.245,308.500 104.300 C 308.225 104.355,308.045 104.175,308.100 103.900 C 308.155 103.625,307.975 103.445,307.700 103.500 C 307.425 103.555,307.200 103.240,307.200 102.800 C 307.200 102.075,306.773 101.806,305.870 101.963 C 305.689 101.994,305.643 101.854,305.768 101.652 C 306.021 101.243,302.596 97.600,301.958 97.600 C 301.735 97.600,301.664 97.420,301.800 97.200 C 301.936 96.980,301.849 96.800,301.607 96.800 C 300.223 96.800,300.198 96.300,300.306 70.875 C 300.376 54.339,300.274 45.714,300.006 45.446 C 299.783 45.223,299.600 44.356,299.600 43.520 C 299.600 42.684,299.420 42.000,299.200 42.000 C 298.980 42.000,298.800 41.724,298.800 41.387 C 298.800 40.379,296.140 38.000,295.013 38.000 C 294.456 38.000,294.000 37.820,294.000 37.600 C 294.000 37.337,285.058 37.200,267.974 37.200 L 241.948 37.200 240.020 35.221 C 238.960 34.132,237.981 33.352,237.846 33.487 C 237.711 33.623,237.600 33.526,237.600 33.272 C 237.600 32.689,233.758 28.800,233.182 28.800 C 232.946 28.800,232.864 28.620,233.000 28.400 C 233.136 28.180,232.937 28.000,232.557 28.000 C 232.177 28.000,231.976 27.891,232.109 27.758 C 232.412 27.454,230.595 25.600,229.995 25.600 C 229.752 25.600,229.626 25.465,229.716 25.300 C 229.932 24.904,224.943 19.990,224.637 20.297 C 224.507 20.427,224.400 20.317,224.400 20.053 C 224.400 19.428,221.753 16.780,221.440 17.093 C 221.308 17.225,221.200 17.121,221.200 16.861 C 221.200 16.254,217.337 12.400,216.728 12.400 C 216.474 12.400,216.373 12.294,216.502 12.165 C 216.777 11.889,207.669 2.719,205.495 1.084 C 203.064 -0.745,196.417 -0.516,194.166 1.473 M176.397 18.803 C 175.888 19.244,175.589 19.723,175.733 19.867 C 175.877 20.011,176.356 19.712,176.797 19.203 C 178.055 17.753,177.847 17.545,176.397 18.803 M172.510 22.643 C 171.141 24.030,170.151 25.236,170.310 25.323 C 170.470 25.409,171.720 24.345,173.090 22.957 C 174.459 21.570,175.449 20.364,175.290 20.277 C 175.130 20.191,173.880 21.255,172.510 22.643 M168.982 26.115 C 167.989 27.268,167.959 27.720,168.935 26.830 C 169.521 26.297,170.000 25.802,170.000 25.730 C 170.000 25.428,169.369 25.667,168.982 26.115 M187.200 31.800 C 186.926 32.130,186.836 32.400,187.000 32.400 C 187.164 32.400,187.051 32.707,186.749 33.081 C 186.317 33.618,186.431 33.597,187.287 32.981 C 187.886 32.552,188.381 31.975,188.387 31.700 C 188.405 31.020,187.806 31.070,187.200 31.800 M176.627 43.079 C 175.622 44.113,174.800 45.093,174.800 45.257 C 174.800 45.421,175.700 44.641,176.800 43.523 C 177.900 42.406,178.800 41.426,178.800 41.346 C 178.800 40.957,178.306 41.351,176.627 43.079 M99.867 45.467 C 99.720 45.613,99.639 54.928,99.686 66.167 C 99.733 77.405,99.822 84.530,99.884 82.000 C 99.989 77.673,100.239 45.199,100.167 45.200 C 100.148 45.200,100.013 45.320,99.867 45.467 M244.643 81.890 C 244.177 82.356,244.404 82.773,245.000 82.545 C 245.330 82.418,245.600 82.514,245.600 82.757 C 245.600 83.001,245.780 83.200,246.000 83.200 C 246.220 83.200,246.400 83.063,246.400 82.896 C 246.400 82.449,244.927 81.606,244.643 81.890 M250.032 86.926 C 249.969 87.568,250.790 88.710,251.489 88.954 C 252.137 89.180,252.135 89.151,251.460 88.628 C 251.027 88.292,250.845 87.851,251.022 87.565 C 251.206 87.267,251.157 87.179,250.896 87.341 C 250.661 87.486,250.377 87.379,250.266 87.102 C 250.154 86.826,250.049 86.747,250.032 86.926 M310.000 143.800 C 309.028 144.790,308.432 145.600,308.674 145.600 C 308.916 145.600,309.218 145.331,309.344 145.002 C 309.470 144.674,310.074 144.088,310.687 143.700 C 311.299 143.313,311.845 142.772,311.900 142.498 C 312.049 141.755,311.921 141.843,310.000 143.800 M301.793 152.100 L 297.400 156.600 301.820 152.287 C 304.251 149.914,306.395 148.114,306.584 148.287 C 306.773 148.459,306.799 148.375,306.641 148.100 C 306.258 147.435,306.721 147.052,301.793 152.100 M293.575 160.288 C 292.599 161.318,292.160 161.899,292.600 161.580 C 293.885 160.648,295.713 158.779,295.524 158.590 C 295.428 158.495,294.551 159.259,293.575 160.288 M314.175 164.500 L 313.000 165.800 314.300 164.625 C 315.015 163.979,315.600 163.394,315.600 163.325 C 315.600 163.016,315.270 163.288,314.175 164.500 M287.188 166.700 L 284.600 169.400 287.300 166.812 C 288.785 165.388,290.000 164.173,290.000 164.112 C 290.000 163.817,289.593 164.192,287.188 166.700 M307.000 171.533 C 305.917 172.490,304.216 174.400,304.447 174.400 C 304.550 174.400,305.428 173.590,306.400 172.600 C 308.170 170.797,308.502 170.207,307.000 171.533 M300.229 178.352 C 299.952 178.801,299.905 228.039,300.182 228.315 C 300.295 228.429,300.436 217.154,300.494 203.261 C 300.552 189.367,300.566 178.000,300.524 178.000 C 300.482 178.000,300.349 178.159,300.229 178.352 M239.186 239.500 L 237.000 241.800 239.300 239.614 C 241.437 237.582,241.783 237.200,241.486 237.200 C 241.424 237.200,240.389 238.235,239.186 239.500 M214.175 264.500 L 213.000 265.800 214.300 264.625 C 215.015 263.979,215.600 263.394,215.600 263.325 C 215.600 263.016,215.270 263.288,214.175 264.500 " stroke="none" fill="#f34d3c" fill-rule="evenodd"></path><path id="path3" d="M184.856 10.834 C 184.336 11.255,184.066 11.594,184.256 11.587 C 184.744 11.569,186.176 10.443,185.971 10.239 C 185.877 10.145,185.375 10.413,184.856 10.834 M181.954 13.700 C 181.379 14.195,180.884 14.735,180.854 14.900 C 180.824 15.065,180.687 15.185,180.550 15.167 C 180.412 15.149,179.963 15.644,179.552 16.267 C 179.141 16.890,178.804 17.258,178.803 17.084 C 178.801 16.911,178.548 17.001,178.240 17.284 C 177.933 17.568,177.740 17.863,177.813 17.940 C 177.886 18.016,175.933 20.045,173.473 22.448 C 171.013 24.850,166.646 29.152,163.768 32.008 L 158.536 37.200 147.568 37.271 C 140.717 37.316,138.052 37.428,140.469 37.571 C 145.449 37.866,145.961 38.379,141.367 38.472 C 139.405 38.512,138.620 38.610,139.623 38.691 C 141.392 38.833,141.652 39.043,148.419 45.819 L 155.391 52.800 153.396 52.859 C 152.298 52.892,153.740 53.118,156.600 53.363 C 159.460 53.607,162.025 53.951,162.300 54.127 C 162.575 54.303,162.800 54.302,162.800 54.124 C 162.800 53.946,163.459 53.764,164.264 53.720 C 165.070 53.675,165.877 53.405,166.058 53.120 C 166.239 52.834,166.391 52.730,166.394 52.889 C 166.397 53.047,167.416 52.237,168.657 51.089 C 171.951 48.041,173.998 46.000,173.762 46.000 C 173.648 46.000,174.624 44.965,175.931 43.700 C 183.740 36.142,185.539 34.367,186.800 32.978 C 187.570 32.129,187.840 31.697,187.400 32.017 C 186.657 32.559,186.640 32.549,187.160 31.887 C 187.468 31.494,187.918 31.241,188.160 31.324 C 188.596 31.473,190.000 30.147,190.000 29.586 C 190.000 29.426,190.512 28.779,191.139 28.147 C 192.239 27.038,193.172 25.323,192.424 25.785 C 191.487 26.364,182.076 16.179,182.616 15.170 C 182.899 14.642,183.033 14.053,182.914 13.860 C 182.795 13.668,182.946 13.353,183.249 13.161 C 183.552 12.969,183.620 12.810,183.400 12.807 C 183.180 12.804,182.529 13.206,181.954 13.700 M240.500 54.297 C 242.205 54.372,244.995 54.372,246.700 54.297 C 248.405 54.222,247.010 54.161,243.600 54.161 C 240.190 54.161,238.795 54.222,240.500 54.297 M192.800 66.345 C 192.800 66.526,191.590 66.713,190.112 66.761 C 188.634 66.809,187.239 67.000,187.012 67.186 C 186.785 67.372,185.970 67.576,185.200 67.641 C 184.430 67.706,183.603 67.901,183.363 68.076 C 183.123 68.250,182.368 68.454,181.686 68.529 C 181.004 68.603,180.165 68.897,179.823 69.181 C 179.480 69.465,179.197 69.541,179.194 69.349 C 179.191 69.157,179.013 69.270,178.800 69.600 C 178.526 70.024,178.410 70.049,178.406 69.684 C 178.401 69.263,178.297 69.263,177.842 69.684 C 177.535 69.968,177.358 70.323,177.449 70.472 C 177.539 70.622,177.426 70.861,177.197 71.002 C 176.968 71.144,176.830 71.032,176.890 70.753 C 176.951 70.475,176.646 70.171,176.213 70.078 C 175.519 69.928,175.491 69.987,175.978 70.574 C 176.453 71.146,176.438 71.333,175.874 71.898 C 175.263 72.508,175.227 72.498,175.369 71.762 C 175.557 70.787,173.811 70.473,173.449 71.417 C 173.261 71.906,173.366 71.939,174.009 71.595 C 174.444 71.362,174.822 71.268,174.850 71.386 C 174.878 71.504,174.923 71.772,174.950 71.981 C 175.084 73.000,186.172 83.599,186.872 83.377 C 187.378 83.216,187.600 83.350,187.600 83.816 C 187.600 84.211,187.381 84.401,187.064 84.280 C 186.769 84.167,186.274 84.237,185.964 84.437 C 185.594 84.675,185.932 84.735,186.944 84.612 C 187.793 84.510,188.693 84.273,188.944 84.087 C 189.195 83.901,190.120 83.776,191.000 83.810 C 191.880 83.844,192.809 83.711,193.066 83.515 C 193.714 83.020,206.455 83.095,206.958 83.598 C 207.179 83.819,208.068 84.000,208.934 84.000 C 210.420 84.000,212.819 84.507,214.600 85.198 C 215.040 85.369,216.210 85.742,217.200 86.026 C 218.190 86.311,219.225 86.714,219.500 86.921 C 219.775 87.128,220.000 87.164,220.000 87.000 C 220.000 86.836,220.242 86.903,220.537 87.148 C 220.832 87.393,221.192 87.475,221.337 87.330 C 221.482 87.185,221.600 87.287,221.600 87.557 C 221.600 87.827,221.765 87.945,221.968 87.820 C 222.170 87.695,222.607 87.864,222.939 88.196 C 223.271 88.528,223.815 88.800,224.148 88.800 C 224.481 88.800,224.869 88.988,225.010 89.217 C 225.152 89.446,225.973 89.916,226.834 90.260 C 227.695 90.605,228.400 91.047,228.400 91.243 C 228.400 91.440,228.636 91.600,228.925 91.600 C 229.213 91.600,229.798 91.922,230.225 92.317 C 230.651 92.711,231.810 93.589,232.800 94.269 C 235.011 95.787,240.400 100.984,240.400 101.599 C 240.400 101.845,240.580 101.936,240.800 101.800 C 241.020 101.664,241.200 101.743,241.200 101.976 C 241.200 102.209,241.515 102.730,241.900 103.134 C 242.285 103.538,242.870 104.287,243.200 104.800 C 243.530 105.313,244.115 106.062,244.500 106.466 C 244.885 106.870,245.098 107.200,244.973 107.200 C 244.848 107.200,245.118 107.723,245.573 108.362 C 246.028 109.001,246.400 109.721,246.400 109.962 C 246.400 110.203,246.536 110.400,246.702 110.400 C 246.869 110.400,247.257 110.985,247.565 111.700 C 247.873 112.415,248.457 113.478,248.863 114.062 C 249.268 114.646,249.600 115.490,249.600 115.938 C 249.600 116.386,249.780 116.864,250.000 117.000 C 250.220 117.136,250.400 117.597,250.400 118.024 C 250.400 118.451,250.536 118.800,250.703 118.800 C 251.100 118.800,252.000 121.709,252.000 122.994 C 252.000 123.547,252.180 124.000,252.400 124.000 C 252.620 124.000,252.800 124.642,252.800 125.426 C 252.800 126.211,252.969 127.169,253.177 127.556 C 253.384 127.943,253.591 129.506,253.637 131.030 C 253.683 132.553,253.918 133.932,254.160 134.094 C 254.461 134.295,254.438 134.390,254.086 134.394 C 253.694 134.399,253.675 134.592,254.004 135.207 C 254.450 136.042,254.446 139.600,253.998 139.600 C 253.859 139.600,253.758 140.887,253.773 142.460 C 253.789 144.134,253.598 145.586,253.313 145.960 C 252.719 146.740,252.645 147.743,253.207 147.396 C 253.430 147.258,253.492 146.949,253.345 146.711 C 253.183 146.449,253.263 146.392,253.545 146.566 C 253.802 146.725,253.909 147.023,253.783 147.228 C 253.656 147.432,253.765 147.600,254.025 147.600 C 254.371 147.600,254.360 147.766,253.984 148.219 C 253.611 148.669,253.392 148.710,253.181 148.369 C 253.022 148.112,252.909 148.541,252.929 149.322 C 252.950 150.104,253.102 150.661,253.266 150.559 C 253.431 150.457,253.464 150.110,253.340 149.787 C 253.191 149.400,253.367 149.202,253.857 149.206 C 254.271 149.210,254.423 149.342,254.200 149.506 C 253.177 150.257,254.000 151.409,259.414 156.809 C 263.938 161.320,265.302 162.472,265.584 162.019 C 265.784 161.700,265.860 161.297,265.753 161.124 C 265.646 160.951,265.838 160.916,266.179 161.047 C 266.915 161.330,267.026 160.574,266.300 160.229 C 266.025 160.098,266.205 160.066,266.700 160.158 C 267.492 160.305,267.600 160.159,267.600 158.939 C 267.600 158.117,267.763 157.653,268.000 157.800 C 268.715 158.242,268.422 157.254,267.700 156.790 C 267.033 156.361,267.033 156.350,267.700 156.557 C 268.097 156.681,268.413 156.564,268.431 156.287 C 268.479 155.521,268.675 154.737,269.305 152.800 C 269.814 151.233,269.997 149.988,270.138 147.129 C 270.157 146.761,270.304 146.541,270.467 146.641 C 270.629 146.742,270.759 142.412,270.756 137.020 C 270.752 131.369,270.590 127.118,270.374 126.984 C 270.169 126.857,270.000 126.011,270.000 125.105 C 270.000 124.198,269.832 122.904,269.627 122.228 C 269.422 121.553,269.044 120.190,268.788 119.200 C 268.532 118.210,268.160 117.087,267.961 116.705 C 267.762 116.323,267.597 115.513,267.594 114.905 C 267.589 114.045,267.502 113.933,267.200 114.400 C 266.909 114.850,266.811 114.644,266.806 113.580 C 266.803 112.799,266.608 111.968,266.372 111.732 C 266.137 111.497,265.886 111.056,265.813 110.752 C 265.457 109.253,265.073 108.400,264.753 108.400 C 264.559 108.400,264.421 108.265,264.447 108.100 C 264.616 107.033,264.316 106.000,263.837 106.000 C 263.472 106.000,263.348 105.720,263.484 105.200 C 263.601 104.753,263.496 104.400,263.247 104.400 C 263.001 104.400,262.800 104.119,262.800 103.776 C 262.800 103.433,262.620 103.264,262.400 103.400 C 262.180 103.536,261.978 103.457,261.950 103.224 C 261.923 102.991,261.853 102.665,261.796 102.500 C 261.739 102.335,261.561 101.797,261.401 101.304 C 261.240 100.812,260.950 100.508,260.755 100.628 C 260.433 100.827,260.232 100.263,260.353 99.500 C 260.379 99.335,260.220 99.200,260.000 99.200 C 259.780 99.200,259.600 98.930,259.600 98.600 C 259.600 98.270,259.420 98.000,259.200 98.000 C 258.980 98.000,258.800 97.730,258.800 97.400 C 258.800 97.070,258.620 96.800,258.400 96.800 C 258.180 96.800,258.000 96.530,258.000 96.200 C 258.000 95.870,257.820 95.600,257.600 95.600 C 257.380 95.600,257.200 95.422,257.200 95.205 C 257.200 94.590,255.896 93.217,255.529 93.444 C 255.348 93.556,255.197 93.322,255.194 92.924 C 255.191 92.526,254.471 91.404,253.594 90.432 C 252.717 89.460,252.000 88.558,252.000 88.428 C 252.000 88.299,251.640 87.968,251.200 87.693 C 250.141 87.031,250.185 87.363,251.300 88.434 L 252.200 89.299 251.300 88.835 C 250.436 88.391,250.329 88.215,250.240 87.100 C 250.180 86.355,246.747 83.200,245.995 83.200 C 245.778 83.200,245.600 83.001,245.600 82.757 C 245.600 82.514,245.315 82.424,244.967 82.557 C 244.566 82.711,244.394 82.618,244.499 82.304 C 244.703 81.691,243.087 80.372,242.034 80.293 C 241.606 80.260,241.349 80.082,241.464 79.896 C 241.835 79.297,239.703 77.738,239.008 78.100 C 238.902 78.155,238.526 77.786,238.172 77.281 C 237.629 76.506,237.424 76.441,236.864 76.868 C 236.499 77.146,236.333 77.216,236.497 77.024 C 236.847 76.610,236.050 75.522,235.600 75.800 C 235.430 75.905,235.068 75.723,234.796 75.396 C 234.524 75.068,234.054 74.800,233.751 74.800 C 233.448 74.800,233.199 74.665,233.197 74.500 C 233.193 74.141,231.256 73.200,230.520 73.200 C 230.234 73.200,230.000 73.009,230.000 72.776 C 230.000 72.543,229.835 72.455,229.632 72.580 C 229.430 72.705,228.993 72.536,228.661 72.204 C 228.329 71.872,227.785 71.600,227.452 71.600 C 227.119 71.600,226.736 71.420,226.600 71.200 C 226.464 70.980,225.748 70.800,225.010 70.800 C 224.271 70.800,223.607 70.656,223.533 70.481 C 223.352 70.047,218.722 68.400,217.683 68.400 C 217.223 68.400,216.736 68.220,216.600 68.000 C 216.464 67.780,215.679 67.600,214.856 67.600 C 214.033 67.600,213.189 67.435,212.980 67.234 C 212.198 66.480,192.800 65.625,192.800 66.345 M312.500 141.865 C 312.225 141.976,312.000 142.310,312.000 142.606 C 312.000 142.903,311.666 143.252,311.259 143.381 C 310.419 143.648,308.689 145.471,308.290 146.510 C 308.144 146.889,307.749 147.200,307.413 147.200 C 307.076 147.200,306.800 147.500,306.800 147.867 C 306.800 148.233,306.694 148.427,306.564 148.297 C 306.225 147.959,284.000 170.355,284.000 171.034 C 284.000 171.345,283.849 171.600,283.664 171.600 C 283.344 171.600,283.314 174.689,283.589 179.300 L 283.714 181.400 284.000 179.800 L 284.286 178.200 284.343 180.025 C 284.400 181.839,284.443 181.893,291.780 189.191 C 298.656 196.031,299.171 196.644,299.310 198.166 C 299.393 199.065,299.492 195.071,299.530 189.291 L 299.600 178.783 309.769 168.627 C 315.362 163.041,319.832 158.365,319.702 158.236 C 319.573 158.106,319.777 158.000,320.157 158.000 C 320.537 158.000,320.736 157.820,320.600 157.600 C 320.464 157.380,320.593 157.200,320.887 157.200 C 321.582 157.200,322.874 155.693,322.420 155.413 C 322.229 155.294,321.741 155.317,321.336 155.462 C 320.931 155.608,320.719 155.594,320.865 155.432 C 321.011 155.269,318.806 152.802,315.965 149.950 C 310.604 144.568,310.338 144.203,311.500 143.828 C 311.885 143.703,312.408 143.151,312.662 142.601 C 312.917 142.050,313.097 141.614,313.062 141.632 C 313.028 141.649,312.775 141.754,312.500 141.865 M252.000 152.800 C 252.000 153.046,251.820 153.136,251.600 153.000 C 251.380 152.864,251.200 152.943,251.200 153.176 C 251.200 153.686,251.608 153.710,252.343 153.244 C 252.721 153.004,252.751 152.817,252.443 152.626 C 252.199 152.476,252.000 152.554,252.000 152.800 M322.601 153.999 C 322.269 154.365,322.119 154.785,322.266 154.932 C 322.662 155.328,323.283 155.257,323.028 154.845 C 322.907 154.650,323.101 154.515,323.457 154.545 C 323.814 154.575,324.152 154.315,324.208 153.967 C 324.341 153.135,323.365 153.155,322.601 153.999 M265.878 162.423 C 265.702 163.098,265.765 163.161,266.231 162.774 C 266.868 162.246,266.986 161.600,266.447 161.600 C 266.252 161.600,265.996 161.970,265.878 162.423 " stroke="none" fill="#f45f39" fill-rule="evenodd"></path><path id="path4" d="M106.400 37.547 C 106.400 37.796,105.950 38.000,105.400 38.000 C 104.850 38.000,104.400 38.180,104.400 38.400 C 104.400 38.620,104.085 38.802,103.700 38.805 C 103.045 38.810,101.200 41.139,101.200 41.961 C 101.200 42.166,101.014 42.395,100.787 42.471 C 100.330 42.623,100.218 79.379,100.646 88.800 L 100.891 94.200 106.546 99.926 C 111.780 105.226,113.692 106.915,113.558 106.117 C 113.529 105.943,113.539 105.440,113.581 105.000 L 113.656 104.200 113.984 105.000 C 114.290 105.747,114.341 105.727,114.746 104.700 C 114.985 104.095,115.285 103.600,115.414 103.600 C 115.542 103.600,115.518 103.825,115.359 104.100 C 115.192 104.391,115.224 104.460,115.436 104.264 C 115.636 104.079,115.800 103.539,115.800 103.064 C 115.800 102.589,116.011 102.240,116.268 102.289 C 116.579 102.349,116.727 101.680,116.710 100.289 C 116.696 99.140,116.711 88.345,116.742 76.300 L 116.800 54.400 139.667 54.400 C 152.243 54.400,162.398 54.265,162.234 54.100 C 162.069 53.935,159.564 53.602,156.667 53.359 C 153.770 53.117,152.298 52.892,153.396 52.859 L 155.391 52.800 148.419 45.819 C 141.652 39.043,141.392 38.833,139.623 38.691 C 138.620 38.610,139.420 38.506,141.400 38.460 C 144.339 38.391,144.854 38.291,144.204 37.914 C 143.075 37.260,106.400 36.903,106.400 37.547 M175.569 70.620 C 175.553 70.829,175.475 71.342,175.396 71.759 C 175.264 72.462,175.301 72.470,175.910 71.862 C 176.422 71.349,176.460 71.100,176.083 70.723 C 175.817 70.457,175.586 70.411,175.569 70.620 M174.583 71.227 C 174.438 71.462,174.090 71.567,173.809 71.459 C 173.529 71.351,172.807 71.519,172.204 71.832 C 171.602 72.144,170.859 72.400,170.554 72.400 C 170.249 72.400,170.000 72.580,170.000 72.800 C 170.000 73.020,169.629 73.200,169.176 73.200 C 168.723 73.200,168.464 73.380,168.600 73.600 C 168.815 73.948,168.004 74.190,167.100 74.047 C 166.935 74.021,166.800 74.180,166.800 74.400 C 166.800 74.620,166.429 74.800,165.976 74.800 C 165.523 74.800,165.264 74.980,165.400 75.200 C 165.536 75.420,165.304 75.600,164.886 75.600 C 164.467 75.600,163.802 75.956,163.409 76.391 C 163.015 76.825,162.536 77.084,162.344 76.965 C 162.152 76.846,161.886 77.031,161.754 77.375 C 161.622 77.719,161.326 78.000,161.095 78.000 C 160.864 78.000,160.086 78.450,159.364 79.000 C 158.643 79.550,157.883 80.000,157.675 80.000 C 157.467 80.000,156.353 80.900,155.200 82.000 C 154.047 83.100,152.986 84.000,152.842 84.000 C 152.486 84.000,146.400 90.146,146.400 90.506 C 146.400 90.814,145.170 92.333,143.700 93.841 C 143.205 94.348,142.800 94.853,142.800 94.962 C 142.800 95.303,140.249 98.993,139.916 99.133 C 139.742 99.207,139.600 99.507,139.600 99.800 C 139.600 100.093,139.465 100.393,139.300 100.467 C 139.135 100.540,138.692 101.230,138.316 102.000 C 137.939 102.770,136.994 104.539,136.216 105.932 C 135.437 107.325,134.800 108.900,134.800 109.432 C 134.800 109.964,134.664 110.400,134.498 110.400 C 134.149 110.400,133.536 111.830,132.785 114.400 C 132.495 115.390,132.160 116.380,132.040 116.600 C 131.766 117.103,131.549 117.996,131.481 118.900 C 131.452 119.285,131.266 119.600,131.068 119.600 C 130.869 119.600,130.801 119.960,130.916 120.400 C 131.031 120.839,130.953 121.305,130.743 121.435 C 130.510 121.579,130.543 121.890,130.826 122.231 C 131.082 122.539,131.448 122.694,131.641 122.575 C 131.833 122.456,131.889 122.624,131.764 122.948 C 131.640 123.273,131.291 123.633,130.989 123.749 C 130.633 123.885,130.519 123.756,130.663 123.380 C 130.786 123.061,130.686 122.800,130.443 122.800 C 129.887 122.800,129.857 124.664,130.407 125.004 C 130.630 125.142,130.732 125.386,130.633 125.547 C 130.534 125.707,130.625 126.100,130.835 126.419 C 131.112 126.840,131.167 126.696,131.035 125.900 C 130.758 124.224,131.447 124.779,138.571 131.970 C 144.475 137.928,145.943 139.187,145.491 137.900 C 145.394 137.625,145.458 137.014,145.632 136.541 C 145.806 136.069,145.837 135.570,145.700 135.433 C 145.336 135.069,145.282 133.603,145.641 133.825 C 146.231 134.190,146.462 133.156,145.934 132.506 C 145.556 132.039,145.546 131.934,145.899 132.146 C 146.275 132.372,146.385 131.902,146.346 130.227 C 146.318 129.007,146.477 127.782,146.700 127.504 C 146.923 127.227,147.204 126.370,147.324 125.600 C 147.801 122.546,148.226 121.111,149.247 119.105 C 149.441 118.723,149.600 118.048,149.600 117.605 C 149.600 117.162,149.780 116.800,150.000 116.800 C 150.220 116.800,150.400 116.566,150.400 116.280 C 150.400 115.544,151.341 113.607,151.700 113.603 C 151.865 113.601,152.000 113.351,152.000 113.046 C 152.000 112.741,152.232 112.066,152.515 111.546 C 154.394 108.094,155.772 105.937,156.672 105.038 C 157.242 104.467,157.585 104.000,157.433 104.000 C 157.280 104.000,157.910 103.195,158.832 102.212 C 159.754 101.228,160.764 100.058,161.077 99.612 C 161.390 99.165,161.916 98.800,162.246 98.800 C 162.577 98.800,162.775 98.665,162.687 98.500 C 162.599 98.335,162.858 97.885,163.263 97.500 C 163.669 97.115,164.000 96.883,164.000 96.984 C 164.000 97.086,164.706 96.456,165.569 95.584 C 166.431 94.713,167.300 94.000,167.499 94.000 C 167.698 94.000,168.278 93.556,168.788 93.012 C 169.299 92.469,169.837 92.099,169.985 92.191 C 170.133 92.282,170.507 92.007,170.815 91.579 C 171.124 91.150,171.624 90.800,171.927 90.800 C 172.229 90.800,172.962 90.454,173.556 90.031 C 174.565 89.313,179.060 87.114,179.680 87.035 C 179.834 87.016,180.171 86.789,180.429 86.531 C 180.687 86.273,181.164 86.165,181.489 86.290 C 181.815 86.414,182.198 86.340,182.340 86.124 C 182.810 85.414,185.129 84.800,185.345 85.329 C 185.450 85.588,185.551 85.489,185.568 85.108 C 185.592 84.587,185.883 84.449,186.747 84.549 C 187.703 84.661,187.862 84.557,187.698 83.930 C 187.569 83.439,187.265 83.252,186.822 83.393 C 185.913 83.682,174.978 72.710,175.048 71.579 C 175.102 70.701,174.970 70.602,174.583 71.227 M129.494 127.039 C 129.207 127.326,129.573 128.400,129.958 128.400 C 130.107 128.400,130.257 128.040,130.290 127.600 C 130.349 126.820,129.976 126.558,129.494 127.039 M145.200 141.190 C 145.200 141.442,145.406 141.520,145.658 141.364 C 145.985 141.162,146.034 141.414,145.830 142.240 C 145.613 143.120,145.656 143.290,146.009 142.942 C 146.265 142.691,146.413 142.166,146.338 141.776 C 146.184 140.982,145.200 140.476,145.200 141.190 M253.345 146.711 C 253.492 146.949,253.453 147.243,253.258 147.364 C 253.063 147.485,252.964 148.110,253.039 148.754 C 253.122 149.461,252.967 150.004,252.648 150.126 C 252.094 150.339,252.016 151.866,252.518 152.671 C 252.695 152.956,252.501 153.241,252.026 153.392 C 251.591 153.530,251.331 153.877,251.443 154.169 C 251.555 154.459,251.366 154.977,251.023 155.320 C 250.680 155.663,250.400 156.215,250.400 156.548 C 250.400 156.881,250.220 157.264,250.000 157.400 C 249.780 157.536,249.600 157.997,249.600 158.424 C 249.600 158.851,249.409 159.200,249.176 159.200 C 248.943 159.200,248.855 159.365,248.980 159.568 C 249.105 159.770,248.936 160.207,248.604 160.539 C 248.272 160.871,248.000 161.426,248.000 161.771 C 248.000 162.117,247.859 162.400,247.688 162.400 C 247.516 162.400,247.165 162.895,246.908 163.500 C 246.449 164.579,245.755 165.725,243.446 169.212 C 242.319 170.915,233.600 179.892,233.600 179.350 C 233.600 179.199,233.240 179.402,232.800 179.800 C 232.360 180.198,232.000 180.427,232.000 180.308 C 232.000 180.189,231.327 180.709,230.504 181.463 C 229.681 182.216,228.601 182.935,228.104 183.060 C 227.607 183.185,227.200 183.447,227.200 183.643 C 227.200 183.840,226.945 184.000,226.633 184.000 C 226.322 184.000,226.007 184.149,225.933 184.332 C 225.783 184.707,220.619 187.200,219.994 187.200 C 219.771 187.200,219.232 187.380,218.795 187.600 C 218.358 187.820,217.642 188.180,217.205 188.400 C 216.768 188.620,216.059 188.800,215.629 188.800 C 215.199 188.800,214.736 188.980,214.600 189.200 C 214.464 189.420,213.744 189.600,213.000 189.600 C 212.256 189.600,211.536 189.780,211.400 190.000 C 211.264 190.220,210.188 190.400,209.010 190.400 C 207.774 190.400,206.803 190.591,206.716 190.851 C 206.630 191.111,205.556 191.323,204.183 191.351 C 202.510 191.386,201.830 191.549,201.900 191.900 C 202.045 192.623,201.330 192.516,201.045 191.772 C 200.765 191.042,199.000 191.140,199.000 191.885 C 199.000 193.053,212.398 205.890,213.493 205.770 C 214.076 205.706,214.835 205.805,215.181 205.990 C 216.303 206.591,218.108 206.020,217.516 205.252 C 217.208 204.852,217.386 204.909,217.976 205.400 C 218.505 205.840,218.787 205.944,218.603 205.632 C 218.353 205.208,218.437 205.129,218.934 205.319 C 219.300 205.460,219.600 205.390,219.600 205.164 C 219.600 204.938,219.765 204.855,219.966 204.979 C 220.168 205.104,220.843 205.008,221.466 204.767 C 222.090 204.526,222.870 204.265,223.200 204.188 C 223.782 204.050,225.901 203.244,229.600 201.753 C 230.590 201.354,232.210 200.527,233.200 199.916 C 234.190 199.305,235.495 198.606,236.100 198.363 C 236.705 198.120,237.200 197.759,237.200 197.561 C 237.200 197.362,237.387 197.200,237.616 197.200 C 238.123 197.200,240.356 195.662,241.246 194.700 C 241.602 194.315,242.102 194.000,242.357 194.000 C 242.612 194.000,243.631 193.190,244.621 192.200 C 245.611 191.210,246.604 190.400,246.828 190.400 C 247.355 190.400,253.600 184.092,253.600 183.559 C 253.600 183.336,253.780 183.264,254.000 183.400 C 254.220 183.536,254.400 183.399,254.400 183.096 C 254.400 182.792,254.952 181.927,255.627 181.172 C 256.302 180.417,257.133 179.215,257.473 178.500 C 257.813 177.785,258.251 177.200,258.446 177.200 C 258.641 177.200,258.800 176.930,258.800 176.600 C 258.800 176.270,258.959 176.000,259.154 176.000 C 259.349 176.000,259.804 175.378,260.164 174.619 C 260.525 173.859,261.040 172.997,261.310 172.703 C 262.156 171.781,262.800 170.442,262.800 169.605 C 262.800 169.162,262.936 168.800,263.102 168.800 C 263.269 168.800,263.644 168.259,263.937 167.598 C 264.261 166.864,264.651 166.504,264.935 166.675 C 265.191 166.828,265.130 166.614,264.800 166.200 C 264.336 165.617,264.326 165.523,264.758 165.783 C 265.196 166.047,265.272 165.887,265.109 165.036 C 264.973 164.324,265.058 164.013,265.357 164.128 C 265.630 164.233,265.832 163.821,265.861 163.103 C 265.888 162.443,266.126 161.769,266.389 161.607 C 266.732 161.395,266.683 161.241,266.213 161.060 C 265.853 160.922,265.646 160.951,265.753 161.124 C 265.860 161.297,265.784 161.700,265.584 162.019 C 265.302 162.472,263.938 161.320,259.414 156.809 C 254.000 151.409,253.177 150.257,254.200 149.506 C 254.421 149.343,254.260 149.210,253.838 149.206 C 253.101 149.200,253.100 149.173,253.800 148.400 C 254.249 147.904,254.340 147.600,254.038 147.600 C 253.771 147.600,253.656 147.432,253.783 147.228 C 253.909 147.023,253.802 146.725,253.545 146.566 C 253.263 146.392,253.183 146.449,253.345 146.711 M283.265 198.500 L 283.200 220.000 259.900 220.047 C 247.085 220.073,236.357 220.061,236.060 220.021 C 235.763 219.980,235.638 220.139,235.783 220.373 C 235.945 220.634,235.640 220.800,235.000 220.800 C 234.424 220.800,234.042 220.944,234.151 221.120 C 234.259 221.296,233.981 221.669,233.532 221.949 C 232.862 222.368,232.773 222.365,233.035 221.930 C 233.274 221.532,233.180 221.541,232.658 221.965 C 232.105 222.414,232.069 222.605,232.481 222.899 C 232.841 223.156,232.724 223.209,232.100 223.072 C 231.412 222.921,231.200 223.055,231.200 223.637 C 231.200 224.057,231.009 224.400,230.776 224.400 C 230.543 224.400,230.488 224.175,230.653 223.900 C 230.847 223.577,230.707 223.600,230.258 223.965 C 229.528 224.557,230.060 225.305,230.965 224.958 C 231.205 224.866,233.829 227.223,236.795 230.195 C 241.121 234.530,242.408 235.600,243.294 235.600 C 244.083 235.600,244.398 235.801,244.394 236.300 C 244.389 236.836,244.309 236.875,244.050 236.466 C 243.482 235.571,243.381 236.651,243.623 241.000 L 243.845 245.000 243.923 241.156 L 244.000 237.311 251.300 244.683 L 258.600 252.056 258.847 250.728 L 259.095 249.400 259.207 251.000 C 259.314 252.515,259.333 252.536,259.560 251.400 C 259.692 250.740,259.895 254.250,260.012 259.200 C 260.200 267.195,260.233 266.470,260.312 252.700 L 260.400 237.200 276.300 237.154 C 285.045 237.128,292.380 237.074,292.600 237.033 C 294.120 236.747,295.495 236.193,296.051 235.644 C 297.292 234.416,298.334 233.667,298.566 233.833 C 298.695 233.925,298.709 233.879,298.599 233.732 C 298.488 233.584,298.681 233.030,299.028 232.501 C 299.584 231.653,299.644 229.458,299.530 214.160 L 299.400 196.782 291.900 189.313 C 284.462 181.905,284.399 181.829,284.333 180.022 L 284.266 178.200 284.052 179.800 L 283.839 181.400 283.585 179.200 C 283.445 177.990,283.301 186.675,283.265 198.500 M196.655 191.800 C 196.754 192.057,197.080 192.267,197.379 192.267 C 197.679 192.267,197.843 192.057,197.745 191.800 C 197.646 191.543,197.320 191.333,197.021 191.333 C 196.721 191.333,196.557 191.543,196.655 191.800 M241.400 236.400 C 241.536 236.620,241.997 236.800,242.424 236.800 C 242.851 236.800,243.200 236.620,243.200 236.400 C 243.200 236.180,242.739 236.000,242.176 236.000 C 241.596 236.000,241.260 236.173,241.400 236.400 " stroke="none" fill="#f46f34" fill-rule="evenodd"></path></g></svg>