<svg id="グループ_10498" data-name="グループ 10498" xmlns="http://www.w3.org/2000/svg" xmlns:xlink="http://www.w3.org/1999/xlink" width="42.778" height="42.774" viewBox="0 0 42.778 42.774">
  <defs>
    <clipPath id="clip-path">
      <rect id="長方形_8361" data-name="長方形 8361" width="42.778" height="42.774" fill="#0fa5ef"/>
    </clipPath>
  </defs>
  <g id="グループ_10497" data-name="グループ 10497" clip-path="url(#clip-path)">
    <path id="パス_2680" data-name="パス 2680" d="M113.223,181.174l-5.072,5.056a1.507,1.507,0,0,1-1.1.469,1.545,1.545,0,0,1-1.122-.469,1.566,1.566,0,0,1,0-2.226l2.377-2.377H89.8a8.291,8.291,0,0,0,0-3.147h18.5l-2.377-2.377a1.574,1.574,0,1,1,2.227-2.227l5.072,5.056a1.586,1.586,0,0,1,0,2.243" transform="translate(-74.629 -144.11)" fill="#0fa5ef"/>
    <path id="パス_2681" data-name="パス 2681" d="M42.314,7.437,35.341.465a1.569,1.569,0,0,0-2.228,0L26.6,6.973H13.345V3.621a1.578,1.578,0,0,0-1.578-1.578H1.9A1.577,1.577,0,0,0,.329,3.621v9.866A1.576,1.576,0,0,0,1.9,15.06h9.866a1.577,1.577,0,0,0,1.578-1.573V10.129H26.6l1.908,1.908-18.1,18.1a6.826,6.826,0,1,0-4.3,12.6,7.058,7.058,0,0,0,.732.036,6.816,6.816,0,0,0,5.8-10.4l18.1-18.1,2.367,2.372a1.6,1.6,0,0,0,1.119.459,1.577,1.577,0,0,0,1.114-.459l6.973-6.978a1.569,1.569,0,0,0,0-2.228" transform="translate(0 0)" fill="#0fa5ef"/>
  </g>
</svg>
