<svg width="18" height="15" viewBox="0 0 18 15" fill="none" xmlns="http://www.w3.org/2000/svg">
<path d="M17.9999 5.13187V13.1076C17.9999 13.5497 17.8426 13.9281 17.528 14.2427C17.2133 14.5573 16.835 14.7146 16.3928 14.7146H1.60697C1.16484 14.7146 0.786467 14.5573 0.471842 14.2427C0.157217 13.9281 -9.57031e-05 13.5497 -9.57031e-05 13.1076V5.13187C0.294654 5.45999 0.632904 5.75137 1.01465 6.00599C3.43865 7.65337 5.10272 8.80856 6.00684 9.47156C6.38859 9.75281 6.69834 9.97218 6.93609 10.1297C7.17384 10.2872 7.49034 10.4479 7.88559 10.6117C8.28084 10.7756 8.64909 10.8577 8.99034 10.8581H9.01059C9.35222 10.8581 9.72047 10.776 10.1153 10.6117C10.5102 10.4475 10.8267 10.2868 11.0648 10.1297C11.303 9.97256 11.6127 9.75318 11.9941 9.47156C13.1326 8.64806 14.8 7.49287 16.9964 6.00599C17.3782 5.74499 17.713 5.45362 18.001 5.13187H17.9999ZM17.9999 2.17874C17.9999 2.70787 17.8358 3.21337 17.5077 3.69524C17.1796 4.17712 16.771 4.58887 16.282 4.93049C13.7643 6.67837 12.1973 7.76662 11.5812 8.19524C11.5141 8.24212 11.3718 8.34431 11.1543 8.50181C10.9368 8.65931 10.756 8.78662 10.612 8.88375C10.468 8.98087 10.2938 9.08962 10.0895 9.21C9.88509 9.33037 9.69253 9.42074 9.51178 9.48112C9.33103 9.54149 9.16359 9.57168 9.00947 9.57168H8.98922C8.83509 9.57168 8.66765 9.54149 8.4869 9.48112C8.30615 9.42074 8.11359 9.33037 7.90922 9.21C7.70484 9.08962 7.53065 8.98087 7.38665 8.88375C7.24265 8.78662 7.0619 8.65931 6.8444 8.50181C6.6269 8.34431 6.48459 8.24212 6.41747 8.19524C5.80809 7.76662 4.93078 7.15556 3.78553 6.36206C2.64028 5.56856 1.95384 5.09137 1.72622 4.93049C1.31109 4.64924 0.919404 4.26243 0.551154 3.77006C0.182904 3.27768 -0.0012207 2.82056 -0.0012207 2.39868C-0.0012207 1.87631 0.137717 1.44112 0.415592 1.09312C0.693467 0.745119 1.09022 0.570932 1.60584 0.570557H16.3917C16.8271 0.570557 17.2038 0.727869 17.5218 1.04249C17.8398 1.35712 17.9988 1.73549 17.9988 2.17762L17.9999 2.17874Z" fill="white"/>
</svg>
