<svg width="100" height="100" viewBox="0 0 100 100" fill="none" xmlns="http://www.w3.org/2000/svg">
<rect width="100" height="100" rx="50" fill="#1667B2"/>
<path fill-rule="evenodd" clip-rule="evenodd" d="M49.4141 20.9288C46.791 21.4661 46.3518 25.2479 48.7839 26.356L49.0625 26.483V29.804V33.125H50H50.9375V29.804V26.483L51.216 26.356C54.2226 24.9862 52.6551 20.2649 49.4141 20.9288ZM50.5859 23.1641C51.0932 23.6713 50.7185 24.5704 50 24.5704C49.5489 24.5704 49.1796 24.2011 49.1796 23.75C49.1796 23.299 49.5489 22.9297 50 22.9297C50.1953 22.9297 50.4557 23.0339 50.5859 23.1641ZM34.707 26.7851C31.7682 28.1488 33.0186 32.3809 36.294 32.1565L37.1982 32.0944L37.974 32.8763L38.75 33.6583V36.6728V39.6875H39.6875H40.625V36.1568V32.6261L39.6419 31.6157L38.6586 30.6055L38.7186 29.7133C38.8767 27.3658 36.7698 25.828 34.707 26.7851ZM62.832 26.7812C61.7201 27.2876 61.1859 28.2976 61.2813 29.7133L61.3413 30.6055L60.3581 31.6157L59.375 32.6261V36.1568V39.6875H60.3125H61.25V36.6728V33.6583L62.0259 32.8763L62.8017 32.0944L63.7059 32.1565C65.6492 32.2897 66.8699 31.2166 66.8699 29.375C66.8699 27.2644 64.7546 25.9055 62.832 26.7812ZM36.5234 28.7891C36.6536 28.9193 36.7578 29.1797 36.7578 29.375C36.7578 29.5703 36.6536 29.8307 36.5234 29.9609C36.0162 30.4682 35.1171 30.0935 35.1171 29.375C35.1171 28.924 35.4864 28.5547 35.9375 28.5547C36.1328 28.5547 36.3932 28.6589 36.5234 28.7891ZM64.6484 28.7891C64.7786 28.9193 64.8828 29.1797 64.8828 29.375C64.8828 29.5703 64.7786 29.8307 64.6484 29.9609C64.1412 30.4682 63.2421 30.0935 63.2421 29.375C63.2421 28.924 63.6114 28.5547 64.0625 28.5547C64.2578 28.5547 64.5182 28.6589 64.6484 28.7891ZM43.6719 34.297C43.4513 34.5175 43.4375 34.6879 43.4369 37.1972L43.4364 39.8633L40.368 40.735C38.5196 41.26 37.2153 41.6909 37.0874 41.8189C36.8876 42.0187 36.875 42.406 36.875 48.3595V54.6875H31.953C26.0387 54.6875 26.5625 54.5216 26.5625 56.3947C26.5625 57.9871 26.8647 60.1586 27.1403 60.547C27.3321 60.817 27.4398 60.8449 28.523 60.9049C29.9259 60.9826 30.2061 61.1267 30.4922 61.919C30.6036 62.2279 30.9581 63.0869 31.2798 63.8282C32.151 65.8355 32.15 65.8589 31.1445 66.9212C30.5033 67.5986 30.3125 67.879 30.3125 68.143C30.3125 69.4135 36.2115 75.3125 37.482 75.3125C37.746 75.3125 38.0264 75.1217 38.7038 74.4805C39.7661 73.475 39.7895 73.474 41.7969 74.3452C42.5381 74.6669 43.3971 75.0214 43.706 75.1328C44.4983 75.4189 44.6424 75.6991 44.7201 77.102C44.814 78.7987 45.5247 79.0625 50 79.0625C54.4638 79.0625 55.1853 78.7967 55.2807 77.1169C55.3764 75.4351 55.3401 75.479 57.207 74.7829C57.8516 74.5426 58.6806 74.1943 59.0493 74.0089C60.0843 73.4887 60.2961 73.534 61.3086 74.4922C61.9752 75.1232 62.2544 75.3125 62.5179 75.3125C63.7856 75.3125 69.6875 69.4106 69.6875 68.143C69.6875 67.8794 69.4982 67.6003 68.8671 66.9337C67.9089 65.9212 67.8636 65.7094 68.3838 64.6744C68.5692 64.3057 68.9175 63.4766 69.1578 62.8321C69.854 60.9652 69.81 61.0015 71.4918 60.9058C72.5585 60.8452 72.6684 60.8164 72.8597 60.547C73.1352 60.1586 73.4375 57.9871 73.4375 56.3947C73.4375 54.5216 73.9613 54.6875 68.0469 54.6875H63.125V48.3818C63.125 43.4375 63.0926 42.0317 62.9747 41.8706C62.7953 41.6251 62.3136 41.4637 59.0544 40.5562L56.5659 39.8633L56.5641 37.1972C56.5626 34.6888 56.5487 34.5175 56.3282 34.297C55.9611 33.9299 44.0388 33.9299 43.6719 34.297ZM54.6875 45.3125V54.6875H53.75H52.8125V52.5782C52.8125 49.78 53.0525 50 50 50C46.9475 50 47.1875 49.78 47.1875 52.5782V54.6875H46.25H45.3125V45.3125V35.9375H50H54.6875V45.3125ZM25.332 37.0976C23.1875 38.0927 23.1875 41.2823 25.332 42.2774C26.193 42.6769 27.7194 42.5165 28.3319 41.9621C28.509 41.8019 28.6589 41.8501 29.8889 42.4624L31.25 43.1398V46.57V50H32.1875H33.125V46.0666C33.125 43.9031 33.077 42.0442 33.0183 41.9357C32.9595 41.8271 32.1158 41.3443 31.1433 40.8625L29.375 39.9868L29.3724 39.4562C29.3633 37.5721 27.1253 36.2656 25.332 37.0976ZM72.207 37.0976C71.2718 37.5316 70.625 38.5064 70.625 39.4819V39.9868L68.8566 40.8625C67.8842 41.3443 67.0404 41.8271 66.9816 41.9357C66.923 42.0442 66.875 43.9031 66.875 46.0666V50H67.8125H68.75V46.57V43.1398L70.1111 42.4624C71.3411 41.8501 71.4909 41.8019 71.6681 41.9621C72.5613 42.7706 74.4582 42.6691 75.4146 41.7617C77.7122 39.5819 75.0851 35.7623 72.207 37.0976ZM47.1875 39.6875V40.625H50H52.8125V39.6875V38.75H50H47.1875V39.6875ZM27.1484 39.1016C27.6557 39.6088 27.281 40.5079 26.5625 40.5079C26.1114 40.5079 25.7421 40.1386 25.7421 39.6875C25.7421 39.2365 26.1114 38.8672 26.5625 38.8672C26.7578 38.8672 27.0182 38.9714 27.1484 39.1016ZM74.0234 39.1016C74.1536 39.2318 74.2578 39.4922 74.2578 39.6875C74.2578 39.8828 74.1536 40.1432 74.0234 40.2734C73.8932 40.4036 73.6328 40.5079 73.4375 40.5079C73.2422 40.5079 72.9818 40.4036 72.8516 40.2734C72.7214 40.1432 72.6171 39.8828 72.6171 39.6875C72.6171 39.4922 72.7214 39.2318 72.8516 39.1016C72.9818 38.9714 73.2422 38.8672 73.4375 38.8672C73.6328 38.8672 73.8932 38.9714 74.0234 39.1016ZM43.4375 48.3008V54.6875H41.0937H38.75L38.7522 48.9746L38.7545 43.2617L41.0667 42.5974C42.3384 42.2318 43.392 41.9287 43.4082 41.9234C43.4243 41.9183 43.4375 44.7881 43.4375 48.3008ZM59.6972 42.8236L61.25 43.2614V48.9745V54.6875H58.9062H56.5625V48.3091V41.9306L57.3534 42.1582C57.7886 42.2833 58.8432 42.5827 59.6972 42.8236ZM47.1875 43.4375V44.375H50H52.8125V43.4375V42.5H50H47.1875V43.4375ZM39.6875 45.3125V46.25H41.0937H42.5V45.3125V44.375H41.0937H39.6875V45.3125ZM57.5 45.3125V46.25H58.9062H60.3125V45.3125V44.375H58.9062H57.5V45.3125ZM47.1875 47.1875V48.125H50H52.8125V47.1875V46.25H50H47.1875V47.1875ZM39.6875 49.0625V50H41.0937H42.5V49.0625V48.125H41.0937H39.6875V49.0625ZM57.5 49.0625V50H58.9062H60.3125V49.0625V48.125H58.9062H57.5V49.0625ZM31.25 52.8125V53.75H32.1875H33.125V52.8125V51.875H32.1875H31.25V52.8125ZM50.9375 53.2813V54.6875H50H49.0625V53.2813V51.875H50H50.9375V53.2813ZM66.875 52.8125V53.75H67.8125H68.75V52.8125V51.875H67.8125H66.875V52.8125ZM35.1635 56.8262C35.1915 56.9713 35.2751 57.5381 35.3495 58.0859C36.2883 65.0116 42.7698 70.5065 50 70.5065C57.2274 70.5065 63.7119 65.009 64.6505 58.0859C64.7249 57.5381 64.8084 56.9713 64.8365 56.8262L64.8873 56.5625H68.1824H71.4776L71.396 57.5666C71.2898 58.8766 71.2965 58.865 70.5885 58.9568C68.9297 59.1718 68.0799 59.8588 67.5347 61.4258C67.3551 61.9414 66.9639 62.8907 66.6653 63.5351C65.7851 65.4343 65.8536 66.6323 66.9078 67.7759L67.3728 68.2805L66.8603 68.9513C66.2001 69.815 64.19 71.8252 63.3263 72.4853L62.6555 72.9979L62.1509 72.5329C60.9839 71.4571 59.8212 71.4067 57.7929 72.3439C57.084 72.6713 56.1521 73.0544 55.7219 73.195C54.3015 73.6594 53.5125 74.6239 53.3424 76.1042C53.2703 76.7317 53.22 76.8469 52.9944 76.9034C52.1075 77.126 47.894 77.1265 47.0076 76.904C46.7885 76.849 46.7325 76.729 46.6629 76.1633C46.4699 74.5943 45.725 73.6939 44.1711 73.1512C43.671 72.9764 42.7344 72.589 42.0899 72.2903C40.1931 71.4113 38.9925 71.4788 37.8534 72.5288L37.3533 72.9898L36.6161 72.4258C35.7128 71.7346 33.8337 69.8558 33.1397 68.9497L32.6271 68.2805L33.0921 67.7759C34.1463 66.6323 34.2149 65.4343 33.3347 63.5351C33.036 62.8907 32.6486 61.954 32.4738 61.4539C31.9322 59.903 31.0302 59.155 29.4705 58.9631C28.6979 58.868 28.7112 58.8896 28.604 57.5666L28.5224 56.5625H31.8176H35.1126L35.1635 56.8262ZM62.8026 57.1192C62.2143 62.6527 57.7179 67.3691 52.118 68.3267C44.9681 69.5494 37.9592 64.2847 37.1973 57.1192L37.1381 56.5625H50H62.8619L62.8026 57.1192Z" fill="white"/>
</svg>
