<svg width="100" height="100" viewBox="0 0 100 100" fill="none" xmlns="http://www.w3.org/2000/svg">
<rect width="100" height="100" rx="50" fill="#1667B2"/>
<g clip-path="url(#clip0_519_2124)">
<path fill-rule="evenodd" clip-rule="evenodd" d="M60.6518 20.1415C59.6129 20.5157 58.7379 21.4294 58.4598 22.4306C58.394 22.6676 58.3445 24.7249 58.3442 27.2395L58.3436 31.6339L58.6767 32.3381C59.2112 33.4679 60.0302 34.0588 61.3619 34.2755C62.3693 34.4395 62.3277 34.3156 62.3277 37.1599C62.3277 40.4776 62.5785 41.0378 64.0082 40.9145C64.7895 40.847 64.8747 40.7434 66.8705 37.4317C68.0169 35.5292 68.6958 34.5172 68.8902 34.4203C69.1076 34.3118 70.2602 34.2737 73.3497 34.2724L77.5161 34.2707L78.1175 33.971C79.5333 33.2654 80.0169 32.3239 80.0205 30.2654C80.0231 28.7987 80.0192 28.7768 79.7144 28.537C78.8528 27.8593 78.3134 28.3808 78.2417 29.9603C78.1278 32.4722 78.2018 32.4389 72.5727 32.5129L68.1107 32.5714L67.6509 32.8768C67.2864 33.1187 66.8874 33.6878 65.7263 35.6219L64.2614 38.0618L64.2027 36.0784C64.1244 33.4256 63.7376 32.7686 62.0993 32.5048C60.2052 32.1997 60.2193 32.2399 60.2189 27.179C60.2183 22.5887 60.2328 22.499 61.046 22.063C61.6488 21.7396 76.6842 21.7313 77.3238 22.054C77.9879 22.3891 78.1701 22.847 78.252 24.3869C78.3321 25.8908 78.4283 26.0675 79.1666 26.0675C79.9029 26.0675 80.0231 25.7984 80.0231 24.1487C80.0231 22.0222 79.6034 21.1304 78.2493 20.3806L77.6207 20.0324L69.359 20.0066C62.6103 19.9856 61.0157 20.0102 60.6518 20.1415ZM37.4255 23.4266C32.8362 24.4525 30.6959 27.6892 30.6827 33.623L30.6782 35.6183L30.231 35.9273C29.3195 36.5572 29.1635 37.1279 29.1648 39.8308C29.1666 43.4066 29.796 44.3488 32.183 44.3488H33.1004L33.242 45.1742C33.6404 47.498 35.0582 49.7513 37.0845 51.2812L37.7184 51.7597V53.0992C37.7184 54.4849 37.623 54.8618 37.1684 55.2733C36.9663 55.4561 36.4647 55.4776 31.6779 55.5074C25.7537 55.5443 25.8918 55.5242 24.8997 56.4878C23.9541 57.4061 23.7362 58.2679 23.8754 60.5387L23.9772 62.2031L23.4555 62.9653C21.5099 65.807 20.7272 68.6107 20.7266 72.74L20.7263 75.1741L20.4068 75.6566C19.4598 77.0878 20.2548 79.3504 21.8754 79.8359C22.2207 79.9394 27.6539 79.9738 43.6562 79.9738H64.977L65.5893 79.6687C67.079 78.9263 67.6341 76.6843 66.6149 75.5264C66.4935 75.3887 66.4401 74.6803 66.3938 72.5909C66.3002 68.3849 65.5806 65.8474 63.6861 63.0436L63.1341 62.2267L63.2123 60.3482C63.3215 57.7246 62.9168 56.7427 61.3737 55.888L60.7457 55.5401L55.3986 55.5064C50.3216 55.4744 50.0412 55.4615 49.8503 55.2505C49.4855 54.8474 49.3304 54.1675 49.3251 52.9483L49.32 51.7627L49.7715 51.4639C50.5131 50.9731 51.6471 49.8634 52.2033 49.0838L52.7247 48.3532L54.0399 48.3139C55.9553 48.2566 56.9316 47.6878 57.627 46.2238L57.9332 45.5792V41.5949C57.9332 36.989 57.9102 36.8576 56.9576 36.0197L56.4098 35.5379L56.3513 32.7656C56.2677 28.8145 55.5849 27.664 53.0595 27.2192C52.5179 27.1238 52.3668 27.0515 52.3668 26.8877C52.3668 25.7341 51.3383 24.2185 50.1641 23.6417L49.4957 23.3137L43.8122 23.2915C39.4203 23.2744 37.9688 23.3051 37.4255 23.4266ZM62.5756 24.5147C61.706 25.2367 62.4212 26.239 63.7521 26.1638C64.9529 26.0959 65.4816 25.25 64.7519 24.5645C64.3905 24.2251 62.9637 24.1924 62.5756 24.5147ZM66.8996 24.5426C66.5156 24.9266 66.5468 25.5406 66.9696 25.921C67.3503 26.2636 75.0453 26.3408 75.6878 26.0086C76.1544 25.7672 76.2834 25.1224 75.9533 24.68L75.7205 24.3683L71.4279 24.3376C67.2615 24.3077 67.1285 24.3137 66.8996 24.5426ZM49.6056 25.5266C50.1059 25.9082 50.4854 26.6371 50.4893 27.2234C50.495 28.1008 51.3839 28.9909 52.2656 29.0024C53.1585 29.014 53.8695 29.44 54.2543 30.1937C54.5552 30.7832 54.5958 36.6259 54.302 37.0454C54.167 37.2382 52.3742 38.0207 52.0677 38.0207C52.0389 38.0207 52.014 37.0319 52.0125 35.8234C52.0068 31.3451 50.0079 29.651 46.0388 30.7609C44.6061 31.1614 42.3962 31.1635 41.0582 30.7657C37.2045 29.6198 35.1462 31.3202 35.0255 35.749L34.9644 37.9889L33.912 37.624C32.4723 37.1246 32.5401 37.3313 32.6 33.6262C32.6646 29.6224 32.9354 28.7393 34.6124 27.0637C36.4274 25.2499 36.9546 25.1407 43.7628 25.1674L49.1627 25.1887L49.6056 25.5266ZM62.6654 28.5292C62.1341 28.8397 62.1483 29.8849 62.6877 30.1736C62.8151 30.2417 65.4041 30.2863 69.2394 30.2863H75.5807L75.8682 29.9986C76.2488 29.618 76.2488 29.0795 75.8682 28.699L75.5807 28.4113L69.2178 28.4149C65.4375 28.417 62.7782 28.4633 62.6654 28.5292ZM40.5309 32.5964C42.3351 33.0622 44.7179 33.0592 46.5593 32.5885C49.4066 31.8608 50.1402 32.5921 50.1402 36.1579C50.1402 38.9836 50.5758 39.886 51.9437 39.8938L52.2821 39.8957L52.2138 42.1516C52.1547 44.1046 52.0398 45.1837 51.8733 45.3502C51.8484 45.3751 51.5669 45.2624 51.2478 45.1C50.4587 44.698 47.5901 44.7101 46.8005 45.1187C44.5628 46.2764 45.4205 49.5917 47.9915 49.7216L48.8747 49.7662L48.5406 49.9934C44.945 52.4392 40.4837 52.0106 37.3548 48.9191C35.498 47.0845 34.9059 45.3892 34.9059 41.9078V39.9256L35.3655 39.8521C36.614 39.6524 36.8979 39.016 36.8987 36.4151C36.8994 34.0781 36.9864 33.6053 37.5219 33.0242C38.244 32.2406 38.8301 32.1572 40.5309 32.5964ZM32.3853 39.0853L33.0309 39.3529V40.972V42.5909L32.6501 42.5903C31.1994 42.5878 31.0388 42.3197 31.0388 39.9014V37.9672L31.3892 38.3924C31.6007 38.6489 31.9958 38.9239 32.3853 39.0853ZM56.0619 41.6054C55.9595 42.1687 55.5444 42.4772 54.7835 42.5558L54.1247 42.6238V40.9876V39.3515L54.6861 39.0977C54.995 38.9582 55.43 38.6557 55.6529 38.4254L56.0582 38.0071L56.093 39.6251C56.1122 40.5151 56.0982 41.4062 56.0619 41.6054ZM56.0735 44.7883C55.9347 45.815 55.1964 46.4582 54.1562 46.4582C53.6931 46.4582 53.5353 46.4182 53.5784 46.3117C53.6109 46.2311 53.7293 45.7585 53.8415 45.2614L54.0455 44.3576L54.9933 44.3185C55.5146 44.2969 55.9878 44.2685 56.0448 44.2555C56.102 44.2423 56.1149 44.482 56.0735 44.7883ZM50.5421 46.8767C51.1692 47.5037 50.6375 47.8645 49.0856 47.8645C48.4326 47.8645 47.7963 47.8099 47.6717 47.7431C47.3799 47.587 47.3658 46.9846 47.6501 46.8191C48.002 46.6141 50.3258 46.6604 50.5421 46.8767ZM41.0811 53.1607C42.9279 53.6188 44.8553 53.5174 47.1632 52.8404C47.3951 52.7725 47.4129 52.8232 47.4801 53.7442C47.5193 54.2807 47.5868 54.8912 47.63 55.1008L47.7086 55.4816H43.5213C39.5774 55.4816 39.3392 55.4696 39.4232 55.2766C39.4724 55.1638 39.5367 54.5323 39.5661 53.8732C39.6161 52.7558 39.6342 52.6828 39.8345 52.7899C39.9525 52.853 40.5135 53.02 41.0811 53.1607ZM60.5819 57.6218C61.4919 58.228 61.4733 57.9082 61.0557 65.7821C60.852 69.6236 60.654 73.1227 60.6158 73.5578L60.5462 74.3488H53.7465H46.9469L47.0175 73.9954C47.1311 73.4281 47.6388 72.446 48.0933 71.915C50.8205 68.729 50.1152 63.7054 46.7091 62.0566C45.071 61.2635 44.5152 62.077 44.5152 65.2678V67.4441L43.5485 67.4102L42.5817 67.3762L42.5231 65.0324C42.4586 62.4512 42.4218 62.3068 41.75 61.9879C40.3458 61.3217 38.0219 63.5263 37.415 66.1003C36.9512 68.0675 37.4732 70.0607 38.9031 71.7818C39.3999 72.3797 39.8603 73.2401 40.0415 73.9093L40.1604 74.3488H33.3324H26.5044L26.4276 72.9206C26.3378 71.2502 26.1816 70.9504 25.4018 70.9504C24.6044 70.9504 24.4563 71.3 24.5501 72.9611L24.6285 74.3488H23.5563H22.484L22.4867 73.4405C22.4946 70.7255 22.8914 68.4092 23.6675 66.5471C24.114 65.4757 24.2096 65.5607 24.2301 67.0483C24.2478 68.3233 24.669 68.8772 25.4685 68.6765C26.1821 68.4976 26.1848 68.4647 25.917 63.4795C25.6374 58.274 25.6877 57.9161 26.7614 57.469C26.8902 57.4154 34.463 57.3682 43.5897 57.364L60.1838 57.3566L60.5819 57.6218ZM47.5481 65.677C48.2619 67.1753 47.9271 69.0943 46.6901 70.594C45.9771 71.4583 45.4887 72.4073 45.228 73.435L45.011 74.2901L43.5594 74.3228L42.1079 74.3554L41.9031 73.5611C41.6136 72.4384 41.2599 71.7368 40.4282 70.6349C38.7686 68.4365 38.7149 66.079 40.29 64.5698L40.6481 64.2268L40.6487 65.8601C40.6499 68.8774 41.0952 69.3664 43.7723 69.2905C46.0815 69.2249 46.3875 68.8348 46.3952 65.9452L46.4 64.0949L46.8206 64.5637C47.0517 64.8214 47.3792 65.3224 47.5481 65.677ZM63.6458 67.1404C64.2573 68.8109 64.4432 69.8912 64.5183 72.2101L64.5876 74.3488H63.5082H62.4288L62.4992 73.4405C62.5779 72.4256 62.9106 66.4006 62.9181 65.8526L62.9231 65.5012L63.1125 65.8513C63.2168 66.0439 63.4566 66.6241 63.6458 67.1404ZM64.7166 76.3562C65.3027 76.6232 65.3832 77.3945 64.8746 77.8684C64.6307 78.0956 64.3446 78.0988 43.5714 78.0988H22.5156L22.2068 77.8559C21.7922 77.5297 21.7824 76.9147 22.1858 76.5115L22.4733 76.2238H43.4498C58.7901 76.2238 64.5042 76.2593 64.7166 76.3562Z" fill="white"/>
</g>
<defs>
<clipPath id="clip0_519_2124">
<rect width="60" height="60" fill="white" transform="translate(20 20)"/>
</clipPath>
</defs>
</svg>
