<svg width="100" height="100" viewBox="0 0 100 100" fill="none" xmlns="http://www.w3.org/2000/svg">
<rect width="100" height="100" rx="50" fill="#1667B2"/>
<g clip-path="url(#clip0_519_2111)">
<path d="M79.2978 65.6967C78.9819 66.1219 78.617 66.4121 78.0327 66.7102L78.0325 66.7103L77.2239 67.1204L77.2028 67.1312L77.1791 67.1312L67.8861 67.1664H67.886C63.6609 67.1781 61.336 67.1898 60.0674 67.2206C59.4319 67.236 59.0658 67.2561 58.8595 67.2826C58.7644 67.2948 58.7109 67.3076 58.6824 67.3183C58.6854 67.3617 58.6931 67.4442 58.7053 67.5625C58.7212 67.7147 58.7439 67.9194 58.7714 68.1595C58.8265 68.6396 58.9008 69.2604 58.9777 69.8843C59.0545 70.5081 59.134 71.1347 59.1993 71.6265C59.2652 72.1224 59.3156 72.4724 59.3345 72.5508L59.3347 72.5507L59.3357 72.5563C59.3481 72.6247 59.356 72.6428 59.3669 72.6542C59.3775 72.6653 59.4072 72.6855 59.5086 72.7009C59.7114 72.7317 60.1048 72.732 60.9014 72.732C61.7753 72.732 62.3015 72.7516 62.626 72.8475C62.7927 72.8967 62.915 72.9682 63.0046 73.0739C63.0928 73.1779 63.1415 73.306 63.1781 73.4523L63.1783 73.4531C63.2266 73.6532 63.1739 73.9085 63.0803 74.1217C63.0327 74.2303 62.9722 74.3332 62.9032 74.418C62.835 74.5019 62.7536 74.5739 62.6625 74.6118L62.6625 74.6119L62.6582 74.6135C62.6456 74.6181 62.633 74.6199 62.6279 74.6207C62.6204 74.6218 62.612 74.6227 62.6032 74.6235C62.5855 74.625 62.5625 74.6265 62.5348 74.6279C62.4794 74.6307 62.4018 74.6334 62.304 74.636C62.1084 74.6411 61.8294 74.6459 61.4792 74.6503C60.7788 74.6591 59.7923 74.6664 58.6152 74.6723C56.261 74.684 53.1436 74.6898 50.0264 74.6898C46.9091 74.6898 43.7917 74.684 41.4375 74.6723C40.2604 74.6664 39.2739 74.6591 38.5735 74.6503C38.2234 74.6459 37.9444 74.6411 37.7487 74.636C37.6509 74.6334 37.5734 74.6307 37.5179 74.6279C37.4902 74.6265 37.4672 74.625 37.4495 74.6235C37.4408 74.6227 37.4323 74.6218 37.4248 74.6207C37.4198 74.6199 37.4071 74.6181 37.3945 74.6135L37.3945 74.6136L37.3902 74.6118C37.2991 74.5739 37.2178 74.5019 37.1495 74.418C37.0805 74.3332 37.02 74.2303 36.9724 74.1217C36.8788 73.9085 36.8262 73.6532 36.8745 73.4531L36.8747 73.4523C36.9113 73.306 36.9599 73.1779 37.0481 73.0739C37.1377 72.9682 37.26 72.8967 37.4268 72.8475C37.7513 72.7516 38.2774 72.732 39.1514 72.732C39.9482 72.732 40.3411 72.7317 40.5434 72.6996C40.6442 72.6836 40.6735 72.6627 40.6843 72.6509C40.6963 72.6377 40.7045 72.617 40.7169 72.5454L40.7166 72.5453L40.7184 72.5382C40.7372 72.4633 40.7875 72.1162 40.8535 71.6215C40.9188 71.1314 40.9982 70.5059 41.0751 69.8828C41.1519 69.2597 41.2263 68.6392 41.2813 68.1593C41.3089 67.9193 41.3316 67.7147 41.3474 67.5625C41.3597 67.4442 41.3673 67.3617 41.3703 67.3183C41.3418 67.3076 41.2884 67.2948 41.1932 67.2826C40.9869 67.2561 40.6208 67.236 39.9854 67.2206C38.7167 67.1898 36.3918 67.1781 32.1667 67.1664L32.1666 67.1664L22.8736 67.1312L22.8499 67.1312L22.8288 67.1204L22.0202 66.7103L22.0202 66.7103L22.0194 66.7099C21.072 66.2182 20.3964 65.4362 20.1066 64.4943L20.1065 64.4942C20.0944 64.4544 20.0857 64.3811 20.078 64.2897C20.07 64.1938 20.0623 64.066 20.0549 63.909C20.0401 63.5948 20.0264 63.1604 20.0137 62.6234C19.9885 61.5493 19.9674 60.0624 19.9505 58.3005C19.9168 54.7765 19.9 50.1513 19.9 45.5259C19.9 40.9004 19.9168 36.2745 19.9505 32.7491C19.9674 30.9865 19.9885 29.4986 20.0137 28.4234C20.0264 27.8858 20.0401 27.4509 20.0549 27.136C20.0623 26.9787 20.07 26.8506 20.078 26.7543C20.0857 26.6626 20.0944 26.5891 20.1064 26.5492L20.2021 26.5781L20.1061 26.5501C20.2761 25.9673 20.6564 25.3962 21.1318 24.9387C21.6072 24.4813 22.1851 24.1304 22.7575 23.9964L22.7599 23.9959C22.7771 23.9923 22.8038 23.9902 22.8314 23.9885C22.8619 23.9866 22.9023 23.9849 22.9521 23.9831C23.0519 23.9796 23.1915 23.9762 23.3695 23.9729C23.7256 23.9663 24.2368 23.9602 24.8932 23.9544C26.2059 23.9428 28.1002 23.933 30.4967 23.9249C35.2899 23.9088 42.0927 23.9 50.2725 23.9H50.2725L77.2843 23.9234L77.3082 23.9235L77.3295 23.9343L78.0209 24.2859L78.0213 24.2861C78.8874 24.7311 79.6801 25.6542 79.9463 26.5375L79.9468 26.5392C79.9885 26.6868 80.0187 26.9375 80.0422 27.4731C80.0659 28.0119 80.0831 28.8476 80.0956 30.1719C80.1205 32.8209 80.1264 37.4299 80.1264 45.5391C80.1264 46.8395 80.1266 48.0512 80.1268 49.1805C80.1283 56.9288 80.1291 60.7984 80.0472 62.8297C80.0004 63.9907 79.9264 64.5639 79.8046 64.92C79.7122 65.1901 79.5886 65.3394 79.4464 65.5112C79.3988 65.5687 79.3491 65.6288 79.2978 65.6967ZM79.2978 65.6967C79.2979 65.6966 79.2979 65.6965 79.298 65.6964L79.2178 65.6367M79.2978 65.6967C79.2977 65.6968 79.2976 65.6969 79.2976 65.697L79.2178 65.6367M79.2178 65.6367C79.3317 65.4859 79.4296 65.3807 79.5138 65.2656C80.0706 64.5037 80.0264 63.3026 80.0264 45.5391C80.0264 29.3203 80.0029 27.1055 79.8506 26.5664L22.874 67.0312L32.167 67.0664C40.6162 67.0898 41.4717 67.1133 41.4717 67.2891C41.4717 67.5352 40.8975 72.2344 40.8154 72.5625C40.7686 72.832 40.7334 72.832 39.1514 72.832C37.3936 72.832 37.1123 72.9141 36.9717 73.4766C36.8896 73.8164 37.1475 74.4023 37.4287 74.5195C37.6865 74.6133 62.3662 74.6133 62.624 74.5195C62.9053 74.4023 63.1631 73.8164 63.0811 73.4766C62.9404 72.9141 62.6592 72.832 60.9014 72.832C59.3193 72.832 59.2842 72.832 59.2373 72.5742C59.1553 72.2344 58.5811 67.5352 58.5811 67.2891C58.5811 67.1133 59.4365 67.0898 67.8857 67.0664L77.1787 67.0312L77.9873 66.6211C78.5615 66.3281 78.9131 66.0469 79.2178 65.6367ZM46.648 67.9341L46.6483 67.9352C46.8313 68.6436 47.0404 69.1675 47.3486 69.5866C47.6579 70.007 48.0614 70.3147 48.621 70.6005M46.648 67.9341L48.667 70.5117M46.648 67.9341L46.4788 67.2468L44.9148 67.2133L43.3647 67.18L43.0241 69.973L43.0241 69.9731L42.6862 72.732M46.648 67.9341L42.5855 72.732M48.621 70.6005C48.6212 70.6006 48.6213 70.6007 48.6215 70.6008L48.667 70.5117M48.621 70.6005C48.6208 70.6004 48.6206 70.6003 48.6205 70.6002L48.667 70.5117M48.621 70.6005C48.9866 70.7924 49.5143 70.8842 50.0369 70.8827C50.5601 70.8812 51.0961 70.7862 51.4785 70.5889L51.4785 70.5888C52.0098 70.3142 52.4044 70.0062 52.7103 69.5846C53.0153 69.1644 53.2273 68.638 53.4046 67.9346L53.4047 67.9341L53.5739 67.2468M48.667 70.5117C49.3584 70.875 50.7061 70.875 51.4326 70.5C52.4756 69.9609 52.9561 69.3047 53.3076 67.9102L53.4951 67.1484M53.5739 67.2468L53.4973 67.2484L53.4951 67.1484M53.5739 67.2468L53.5922 67.1723L53.4951 67.1484M53.5739 67.2468L55.1379 67.2133L56.688 67.18M53.4951 67.1484L55.1357 67.1133L56.7764 67.0781M56.7764 67.0781L56.6771 67.0902L56.688 67.18M56.7764 67.0781L57.1279 69.9609L57.4672 72.732H57.3665M56.7764 67.0781L56.7785 67.1781L56.688 67.18M56.688 67.18L57.0287 69.973L57.0287 69.9731L57.3665 72.732M57.3665 72.732L57.3787 72.832H50.0264H42.674L42.6862 72.732M57.3665 72.732H50.0264H42.6862M42.6862 72.732H42.5855M42.5855 72.732L42.9248 69.9609L42.5855 72.732ZM77.1797 26.0811L77.1793 26.0808L76.6854 25.8227H50.0264H23.3673L22.8735 26.0808L22.873 26.0811C22.5281 26.2591 22.3096 26.478 22.1437 26.8209L22.1438 26.8209L22.1423 26.8237L21.8842 27.3175V45.5156C21.8842 54.6099 21.8842 59.1646 21.9149 61.5075C21.9303 62.6799 21.9534 63.2947 21.9875 63.6466C22.0046 63.8221 22.024 63.9283 22.0453 64.0039C22.0661 64.0778 22.0894 64.1251 22.1197 64.1857L22.1198 64.1857L22.1211 64.1886C22.2539 64.4765 22.5224 64.7774 22.7509 64.9189L22.751 64.919L23.1604 65.1734H50.0264H76.8923L77.3017 64.919L77.3019 64.9189C77.5303 64.7774 77.7988 64.4765 77.9317 64.1886L77.9316 64.1885L77.933 64.1857C77.9633 64.1251 77.9866 64.0778 78.0074 64.0039C78.0287 63.9283 78.0482 63.8221 78.0652 63.6466C78.0993 63.2947 78.1224 62.6799 78.1378 61.5075C78.1685 59.1646 78.1686 54.6099 78.1686 45.5156V27.3166L77.9219 26.8232C77.9218 26.8231 77.9217 26.8229 77.9216 26.8227C77.7437 26.4782 77.5244 26.2589 77.1797 26.0811ZM51.5221 67.4452L51.522 67.4452L51.5224 67.4435L51.5779 67.1898H50.0264H48.4828L48.5307 67.4452C48.5307 67.4454 48.5307 67.4456 48.5308 67.4458C48.7129 68.3554 49.353 68.982 50.0264 68.982C50.6999 68.982 51.3401 68.3551 51.5221 67.4452Z" fill="white" stroke="white" stroke-width="0.2"/>
<path d="M70.7029 28.4823C70.7332 28.6402 70.7396 28.7687 70.6978 28.8924C70.6564 29.0148 70.5721 29.1192 70.4525 29.2387L70.1479 29.5434L70.1186 29.5727H70.0772H47.7998H25.6342V45.5274V61.482H26.2021C26.4619 61.482 26.6547 61.4966 26.8117 61.5398C26.9728 61.5842 27.0923 61.6576 27.208 61.7669C27.5777 62.1105 27.5987 62.6504 27.2649 63.0621C27.2125 63.1298 27.1594 63.1882 27.0919 63.2354C27.0234 63.2833 26.9453 63.3161 26.8471 63.3403C26.6568 63.3871 26.3729 63.4048 25.9024 63.428L25.9024 63.428L25.9013 63.4281C25.2866 63.4515 24.8838 63.4463 24.5932 63.3928C24.2948 63.3378 24.1125 63.2314 23.94 63.059C23.9041 63.0231 23.8683 62.9817 23.8393 62.9017C23.8126 62.8278 23.7925 62.7232 23.7758 62.5609C23.7423 62.2353 23.7203 61.6485 23.7057 60.5433C23.6764 58.3308 23.6764 54.0237 23.6764 45.5296V45.5274V28.2891V28.2465L23.7071 28.2169L23.9986 27.9371L24.2784 27.6456L24.308 27.6149H24.3506H47.1904C57.9831 27.6149 63.6995 27.6178 66.747 27.6442C68.2701 27.6573 69.1286 27.6764 69.6213 27.704C69.8672 27.7178 70.0258 27.7339 70.1317 27.7533C70.2372 27.7727 70.3021 27.7972 70.3506 27.836L70.3507 27.8358L70.3554 27.8401C70.4303 27.9082 70.5069 28.0117 70.5689 28.1233C70.6308 28.2348 70.6827 28.3625 70.7029 28.4823ZM70.7029 28.4823C70.703 28.4827 70.7031 28.4832 70.7031 28.4836L70.6045 28.5L70.7027 28.4811C70.7028 28.4815 70.7029 28.4819 70.7029 28.4823Z" fill="white" stroke="white" stroke-width="0.2"/>
<path d="M29.8326 61.482L29.8026 61.521L29.5688 61.825C29.4945 61.9179 29.4296 62.0198 29.3829 62.1103C29.3594 62.1556 29.3398 62.1994 29.3258 62.2389C29.3126 62.276 29.3014 62.3176 29.3014 62.3554C29.3014 62.5336 29.3785 62.734 29.4871 62.9031C29.5957 63.0722 29.7464 63.2265 29.9103 63.3017C29.9103 63.3018 29.9104 63.3018 29.9105 63.3018L29.9521 63.2109L29.8326 61.482ZM29.8326 61.482H29.8818M29.8326 61.482H29.8818M29.8818 61.482H52.2061H74.4186V45.5273V29.5726H73.8506C73.5908 29.5726 73.3981 29.5581 73.241 29.5148C73.08 29.4705 72.9605 29.3971 72.8448 29.2878M29.8818 61.482L72.8448 29.2878M72.8448 29.2878C72.6439 29.0999 72.543 28.8623 72.548 28.618M72.8448 29.2878L72.548 28.618M72.548 28.618C72.553 28.3746 72.6629 28.1339 72.8665 27.9364M72.548 28.618L72.8665 27.9364M72.8665 27.9364C72.9343 27.8686 72.9974 27.8097 73.0725 27.7633C73.1495 27.7156 73.2346 27.6837 73.3451 27.6621C73.559 27.6202 73.884 27.6148 74.46 27.6148C75.0359 27.6148 75.3609 27.6202 75.5749 27.6621C75.6854 27.6837 75.7704 27.7156 75.8474 27.7633C75.9225 27.8097 75.9855 27.8685 76.0533 27.9363C76.0536 27.9366 76.0538 27.9368 76.0541 27.9371L72.8665 27.9364Z" fill="white" stroke="white" stroke-width="0.2"/>
<mask id="path-5-outside-1_519_2111" maskUnits="userSpaceOnUse" x="35.0027" y="32.6532" width="28" height="26" fill="black">
<rect fill="white" x="35.0027" y="32.6532" width="28" height="26"/>
<path d="M36.4678 33.4805C36.3272 33.5508 36.1514 33.75 36.0811 33.9141C35.8467 34.4883 36.0811 34.7812 37.5693 35.7773L38.9522 36.7031L40.5811 42.4336C41.4717 45.5859 42.3037 48.3398 42.4209 48.5508L42.6436 48.9375L41.9756 50.25C41.1904 51.8086 41.1201 52.3711 41.6123 53.1094C41.9053 53.5664 41.917 53.5898 41.7529 54.2109C41.624 54.7031 41.6123 54.9844 41.7061 55.4531C42.2334 57.9726 45.5615 58.4648 46.792 56.2031C47.085 55.6523 47.1201 55.4883 47.0733 54.7734L47.0264 53.9648H50.9639H54.9014L54.8545 54.7266C54.8076 55.3711 54.8545 55.582 55.1123 56.1328C56.2139 58.3828 59.4717 58.0664 60.1748 55.6406C60.3506 55.0312 60.3623 54.8906 60.21 54.3164C60.0693 53.7891 60.0693 53.6133 60.1865 53.3789C60.3506 53.0508 60.292 52.7226 60.0107 52.4062C59.8467 52.2187 59.2842 52.207 51.4678 52.207C45.8662 52.207 43.1123 52.1719 43.1123 52.0898C43.1123 52.0195 43.3467 51.5039 43.6279 50.9414L44.1436 49.9101L44.6006 49.957C45.3037 50.0156 57.7373 48.4922 58.4053 48.2695C59.2139 47.9883 60.2334 46.9687 60.4912 46.1719C60.5967 45.8437 61.0303 43.8516 61.4522 41.7305C62.1553 38.1445 62.2022 37.8516 62.0264 37.5937C61.9326 37.4414 61.7334 37.2656 61.5928 37.207C61.4522 37.1484 56.9873 36.9141 51.667 36.6797C40.9561 36.2226 40.5342 36.1992 40.5342 36C40.5225 35.918 40.4287 35.7539 40.3233 35.6133C40.0303 35.2734 37.1123 33.3398 36.9014 33.3516C36.8076 33.3516 36.6084 33.4101 36.4678 33.4805ZM44.6006 38.1914C44.6592 38.25 45.21 41.3672 45.2217 41.6836C45.2217 41.7422 44.542 41.7773 43.7217 41.7773H42.2217L41.6826 39.8906L41.1436 37.9922L42.8428 38.0625C43.7686 38.0976 44.5654 38.1562 44.6006 38.1914ZM49.1826 38.3437L50.1436 38.4141V40.0898V41.7773H48.585H47.0264L46.7686 40.1601C46.6279 39.2812 46.5108 38.4844 46.5108 38.4023C46.5108 38.2383 47.5772 38.2148 49.1826 38.3437ZM55.2647 38.6484C55.2764 38.6719 55.2412 39.3867 55.1592 40.2305L55.0303 41.7773H53.46H51.9014V40.1133V38.4609L53.5654 38.5312C54.4678 38.5781 55.2412 38.625 55.2647 38.6484ZM60.1865 38.8828C60.2217 38.918 59.9053 40.6289 59.6943 41.5078C59.6357 41.7656 59.5889 41.7773 58.2178 41.7773H56.7881L56.8701 40.8047C56.917 40.2773 56.9873 39.5859 57.0225 39.2695L57.0928 38.6953L58.6162 38.7656C59.4482 38.8125 60.1514 38.8594 60.1865 38.8828ZM45.5029 43.6289C45.5733 43.7578 46.2998 48.0117 46.2529 48.0469C46.2295 48.0703 45.8428 48.1172 45.3858 48.1641C44.1436 48.2812 44.0615 48.1875 43.3467 45.7031C43.0303 44.6016 42.7608 43.6758 42.7608 43.6172C42.7608 43.5 45.4326 43.5117 45.5029 43.6289ZM50.085 45.5859V47.5781L49.0889 47.7187C48.5498 47.8008 48.0811 47.8476 48.0576 47.8242C48.0225 47.7891 47.3311 43.8047 47.3311 43.6172C47.3311 43.5703 47.9522 43.5469 48.7139 43.5586L50.085 43.5937V45.5859ZM54.7842 44.2617C54.749 44.6719 54.6787 45.457 54.6436 46.0195C54.5498 47.168 54.6084 47.1094 53.4834 47.2148C53.0967 47.2617 52.5811 47.3203 52.3467 47.3555L51.9014 47.4258V45.4805V43.5351H53.3779H54.8662L54.7842 44.2617ZM59.249 43.793C59.2139 43.9453 59.1201 44.3906 59.0381 44.8008C58.792 46.0781 58.2061 46.6641 56.999 46.7812C56.4131 46.8398 56.3545 46.8281 56.3545 46.6172C56.3545 46.2422 56.6006 43.8398 56.6475 43.6758C56.6826 43.5703 57.0693 43.5351 58.0068 43.5351C59.2959 43.5351 59.3076 43.5351 59.249 43.793ZM45.0693 54.2226C45.5967 54.7148 45.3389 55.6172 44.6123 55.875C44.2373 56.0039 43.6865 55.7109 43.5108 55.3008C43.1123 54.3398 44.3076 53.5078 45.0693 54.2226ZM58.1475 54.1289C58.499 54.3984 58.6279 54.9492 58.417 55.3476C58.2295 55.7226 57.6553 55.9922 57.3154 55.875C56.2373 55.5 56.4014 53.9531 57.5147 53.9648C57.749 53.9648 58.0303 54.0469 58.1475 54.1289Z"/>
</mask>
<path d="M36.4678 33.4805C36.3272 33.5508 36.1514 33.75 36.0811 33.9141C35.8467 34.4883 36.0811 34.7812 37.5693 35.7773L38.9522 36.7031L40.5811 42.4336C41.4717 45.5859 42.3037 48.3398 42.4209 48.5508L42.6436 48.9375L41.9756 50.25C41.1904 51.8086 41.1201 52.3711 41.6123 53.1094C41.9053 53.5664 41.917 53.5898 41.7529 54.2109C41.624 54.7031 41.6123 54.9844 41.7061 55.4531C42.2334 57.9726 45.5615 58.4648 46.792 56.2031C47.085 55.6523 47.1201 55.4883 47.0733 54.7734L47.0264 53.9648H50.9639H54.9014L54.8545 54.7266C54.8076 55.3711 54.8545 55.582 55.1123 56.1328C56.2139 58.3828 59.4717 58.0664 60.1748 55.6406C60.3506 55.0312 60.3623 54.8906 60.21 54.3164C60.0693 53.7891 60.0693 53.6133 60.1865 53.3789C60.3506 53.0508 60.292 52.7226 60.0107 52.4062C59.8467 52.2187 59.2842 52.207 51.4678 52.207C45.8662 52.207 43.1123 52.1719 43.1123 52.0898C43.1123 52.0195 43.3467 51.5039 43.6279 50.9414L44.1436 49.9101L44.6006 49.957C45.3037 50.0156 57.7373 48.4922 58.4053 48.2695C59.2139 47.9883 60.2334 46.9687 60.4912 46.1719C60.5967 45.8437 61.0303 43.8516 61.4522 41.7305C62.1553 38.1445 62.2022 37.8516 62.0264 37.5937C61.9326 37.4414 61.7334 37.2656 61.5928 37.207C61.4522 37.1484 56.9873 36.9141 51.667 36.6797C40.9561 36.2226 40.5342 36.1992 40.5342 36C40.5225 35.918 40.4287 35.7539 40.3233 35.6133C40.0303 35.2734 37.1123 33.3398 36.9014 33.3516C36.8076 33.3516 36.6084 33.4101 36.4678 33.4805ZM44.6006 38.1914C44.6592 38.25 45.21 41.3672 45.2217 41.6836C45.2217 41.7422 44.542 41.7773 43.7217 41.7773H42.2217L41.6826 39.8906L41.1436 37.9922L42.8428 38.0625C43.7686 38.0976 44.5654 38.1562 44.6006 38.1914ZM49.1826 38.3437L50.1436 38.4141V40.0898V41.7773H48.585H47.0264L46.7686 40.1601C46.6279 39.2812 46.5108 38.4844 46.5108 38.4023C46.5108 38.2383 47.5772 38.2148 49.1826 38.3437ZM55.2647 38.6484C55.2764 38.6719 55.2412 39.3867 55.1592 40.2305L55.0303 41.7773H53.46H51.9014V40.1133V38.4609L53.5654 38.5312C54.4678 38.5781 55.2412 38.625 55.2647 38.6484ZM60.1865 38.8828C60.2217 38.918 59.9053 40.6289 59.6943 41.5078C59.6357 41.7656 59.5889 41.7773 58.2178 41.7773H56.7881L56.8701 40.8047C56.917 40.2773 56.9873 39.5859 57.0225 39.2695L57.0928 38.6953L58.6162 38.7656C59.4482 38.8125 60.1514 38.8594 60.1865 38.8828ZM45.5029 43.6289C45.5733 43.7578 46.2998 48.0117 46.2529 48.0469C46.2295 48.0703 45.8428 48.1172 45.3858 48.1641C44.1436 48.2812 44.0615 48.1875 43.3467 45.7031C43.0303 44.6016 42.7608 43.6758 42.7608 43.6172C42.7608 43.5 45.4326 43.5117 45.5029 43.6289ZM50.085 45.5859V47.5781L49.0889 47.7187C48.5498 47.8008 48.0811 47.8476 48.0576 47.8242C48.0225 47.7891 47.3311 43.8047 47.3311 43.6172C47.3311 43.5703 47.9522 43.5469 48.7139 43.5586L50.085 43.5937V45.5859ZM54.7842 44.2617C54.749 44.6719 54.6787 45.457 54.6436 46.0195C54.5498 47.168 54.6084 47.1094 53.4834 47.2148C53.0967 47.2617 52.5811 47.3203 52.3467 47.3555L51.9014 47.4258V45.4805V43.5351H53.3779H54.8662L54.7842 44.2617ZM59.249 43.793C59.2139 43.9453 59.1201 44.3906 59.0381 44.8008C58.792 46.0781 58.2061 46.6641 56.999 46.7812C56.4131 46.8398 56.3545 46.8281 56.3545 46.6172C56.3545 46.2422 56.6006 43.8398 56.6475 43.6758C56.6826 43.5703 57.0693 43.5351 58.0068 43.5351C59.2959 43.5351 59.3076 43.5351 59.249 43.793ZM45.0693 54.2226C45.5967 54.7148 45.3389 55.6172 44.6123 55.875C44.2373 56.0039 43.6865 55.7109 43.5108 55.3008C43.1123 54.3398 44.3076 53.5078 45.0693 54.2226ZM58.1475 54.1289C58.499 54.3984 58.6279 54.9492 58.417 55.3476C58.2295 55.7226 57.6553 55.9922 57.3154 55.875C56.2373 55.5 56.4014 53.9531 57.5147 53.9648C57.749 53.9648 58.0303 54.0469 58.1475 54.1289Z" fill="white"/>
<path d="M36.4678 33.4805C36.3272 33.5508 36.1514 33.75 36.0811 33.9141C35.8467 34.4883 36.0811 34.7812 37.5693 35.7773L38.9522 36.7031L40.5811 42.4336C41.4717 45.5859 42.3037 48.3398 42.4209 48.5508L42.6436 48.9375L41.9756 50.25C41.1904 51.8086 41.1201 52.3711 41.6123 53.1094C41.9053 53.5664 41.917 53.5898 41.7529 54.2109C41.624 54.7031 41.6123 54.9844 41.7061 55.4531C42.2334 57.9726 45.5615 58.4648 46.792 56.2031C47.085 55.6523 47.1201 55.4883 47.0733 54.7734L47.0264 53.9648H50.9639H54.9014L54.8545 54.7266C54.8076 55.3711 54.8545 55.582 55.1123 56.1328C56.2139 58.3828 59.4717 58.0664 60.1748 55.6406C60.3506 55.0312 60.3623 54.8906 60.21 54.3164C60.0693 53.7891 60.0693 53.6133 60.1865 53.3789C60.3506 53.0508 60.292 52.7226 60.0107 52.4062C59.8467 52.2187 59.2842 52.207 51.4678 52.207C45.8662 52.207 43.1123 52.1719 43.1123 52.0898C43.1123 52.0195 43.3467 51.5039 43.6279 50.9414L44.1436 49.9101L44.6006 49.957C45.3037 50.0156 57.7373 48.4922 58.4053 48.2695C59.2139 47.9883 60.2334 46.9687 60.4912 46.1719C60.5967 45.8437 61.0303 43.8516 61.4522 41.7305C62.1553 38.1445 62.2022 37.8516 62.0264 37.5937C61.9326 37.4414 61.7334 37.2656 61.5928 37.207C61.4522 37.1484 56.9873 36.9141 51.667 36.6797C40.9561 36.2226 40.5342 36.1992 40.5342 36C40.5225 35.918 40.4287 35.7539 40.3233 35.6133C40.0303 35.2734 37.1123 33.3398 36.9014 33.3516C36.8076 33.3516 36.6084 33.4101 36.4678 33.4805ZM44.6006 38.1914C44.6592 38.25 45.21 41.3672 45.2217 41.6836C45.2217 41.7422 44.542 41.7773 43.7217 41.7773H42.2217L41.6826 39.8906L41.1436 37.9922L42.8428 38.0625C43.7686 38.0976 44.5654 38.1562 44.6006 38.1914ZM49.1826 38.3437L50.1436 38.4141V40.0898V41.7773H48.585H47.0264L46.7686 40.1601C46.6279 39.2812 46.5108 38.4844 46.5108 38.4023C46.5108 38.2383 47.5772 38.2148 49.1826 38.3437ZM55.2647 38.6484C55.2764 38.6719 55.2412 39.3867 55.1592 40.2305L55.0303 41.7773H53.46H51.9014V40.1133V38.4609L53.5654 38.5312C54.4678 38.5781 55.2412 38.625 55.2647 38.6484ZM60.1865 38.8828C60.2217 38.918 59.9053 40.6289 59.6943 41.5078C59.6357 41.7656 59.5889 41.7773 58.2178 41.7773H56.7881L56.8701 40.8047C56.917 40.2773 56.9873 39.5859 57.0225 39.2695L57.0928 38.6953L58.6162 38.7656C59.4482 38.8125 60.1514 38.8594 60.1865 38.8828ZM45.5029 43.6289C45.5733 43.7578 46.2998 48.0117 46.2529 48.0469C46.2295 48.0703 45.8428 48.1172 45.3858 48.1641C44.1436 48.2812 44.0615 48.1875 43.3467 45.7031C43.0303 44.6016 42.7608 43.6758 42.7608 43.6172C42.7608 43.5 45.4326 43.5117 45.5029 43.6289ZM50.085 45.5859V47.5781L49.0889 47.7187C48.5498 47.8008 48.0811 47.8476 48.0576 47.8242C48.0225 47.7891 47.3311 43.8047 47.3311 43.6172C47.3311 43.5703 47.9522 43.5469 48.7139 43.5586L50.085 43.5937V45.5859ZM54.7842 44.2617C54.749 44.6719 54.6787 45.457 54.6436 46.0195C54.5498 47.168 54.6084 47.1094 53.4834 47.2148C53.0967 47.2617 52.5811 47.3203 52.3467 47.3555L51.9014 47.4258V45.4805V43.5351H53.3779H54.8662L54.7842 44.2617ZM59.249 43.793C59.2139 43.9453 59.1201 44.3906 59.0381 44.8008C58.792 46.0781 58.2061 46.6641 56.999 46.7812C56.4131 46.8398 56.3545 46.8281 56.3545 46.6172C56.3545 46.2422 56.6006 43.8398 56.6475 43.6758C56.6826 43.5703 57.0693 43.5351 58.0068 43.5351C59.2959 43.5351 59.3076 43.5351 59.249 43.793ZM45.0693 54.2226C45.5967 54.7148 45.3389 55.6172 44.6123 55.875C44.2373 56.0039 43.6865 55.7109 43.5108 55.3008C43.1123 54.3398 44.3076 53.5078 45.0693 54.2226ZM58.1475 54.1289C58.499 54.3984 58.6279 54.9492 58.417 55.3476C58.2295 55.7226 57.6553 55.9922 57.3154 55.875C56.2373 55.5 56.4014 53.9531 57.5147 53.9648C57.749 53.9648 58.0303 54.0469 58.1475 54.1289Z" stroke="white" stroke-width="0.4" mask="url(#path-5-outside-1_519_2111)"/>
</g>
<defs>
<clipPath id="clip0_519_2111">
<rect width="60" height="60" fill="white" transform="translate(20 24)"/>
</clipPath>
</defs>
</svg>
