<svg width="100" height="100" viewBox="0 0 100 100" fill="none" xmlns="http://www.w3.org/2000/svg">
<rect width="100" height="100" rx="50" fill="#1667B2"/>
<g clip-path="url(#clip0_519_2134)">
<path fill-rule="evenodd" clip-rule="evenodd" d="M64.1535 20.1062C63.2103 20.2073 63.1308 20.3246 62.9177 21.9318L62.7357 23.3022L62.1395 23.5941L61.5431 23.8859L60.3758 23.1734C58.6901 22.1447 58.8143 22.1066 56.9061 24.2348C55.7064 25.5728 55.6967 25.703 56.6978 26.9861C57.0942 27.4943 57.4616 27.966 57.5139 28.0343C57.6144 28.1657 57.3989 29.0234 57.2654 29.0234C57.2223 29.0234 56.2871 28.628 55.1871 28.1445C52.0899 26.7834 52.5132 26.4869 50.2931 31.5737L48.6525 35.3328L48.5939 28.4763L48.5352 21.6198L48.2586 21.3959C47.894 21.1007 47.2538 21.1058 46.9533 21.4062C46.7363 21.6231 46.7189 21.7968 46.7189 23.7447V25.8488L46.338 25.9053C46.1285 25.9365 45.4934 26.0204 44.9265 26.0916C39.7992 26.7363 34.8878 29.7824 31.9113 34.1636C31.4174 34.8908 31.3808 35.2206 31.7481 35.6381C32.4024 36.3816 32.8857 36.1629 33.9455 34.644C36.4227 31.0931 41.2241 28.3418 45.7521 27.8789L46.7189 27.7799V46.4486V65.1171H43.7396H40.7603L40.4097 64.7664L40.059 64.4157L40.0197 62.4111C39.9743 60.0816 40.1969 60.4655 38.1056 59.1107C32.2946 55.3461 29.3378 47.9585 30.9195 41.1558C31.4018 39.0818 31.293 38.6328 30.3087 38.6328C29.5793 38.6328 29.2551 39.3218 28.862 41.7077C27.6494 49.0664 30.8142 56.5569 36.8459 60.6038L38.0471 61.4097V62.6717C38.0469 64.8786 38.4663 65.8988 39.6545 66.582L40.2657 66.9336L40.2732 68.8671C40.2933 74.0094 41.7933 76.0157 45.6179 76.0157H46.7189V77.7734C46.7189 79.8048 46.8003 80 47.6478 80C48.6653 80 48.5939 80.8496 48.5939 68.7342C48.5939 62.8776 48.6227 58.0859 48.6578 58.0859C48.7719 58.0859 57.3222 61.8509 57.3933 61.9325C57.6153 62.187 57.2435 62.997 56.844 63.1287C56.4506 63.2586 56.3957 63.239 55.5494 62.6673C54.2825 61.8114 54.195 61.8272 52.8542 63.1542C51.4295 64.5644 51.4125 64.644 52.2669 65.9204C53.195 67.307 53.0844 67.5765 51.4685 67.8674C49.9868 68.1342 50.0001 68.1131 50.0001 70.1876C50.0001 72.218 50.0273 72.258 51.5603 72.4965C53.0624 72.7302 53.2032 73.0661 52.346 74.3718C51.4805 75.69 51.5012 75.8039 52.8486 77.1515C54.2114 78.5141 54.3705 78.5424 55.6842 77.6559L56.5532 77.0696L56.949 77.2583C57.329 77.4395 57.3524 77.4894 57.5316 78.5003C57.8015 80.0231 57.7659 80 59.8439 80C61.9232 80 61.8861 80.0241 62.1576 78.492C62.4305 76.9526 62.7345 76.8329 64.082 77.7348C65.37 78.5969 65.4 78.591 66.7808 77.2103C68.1933 75.7979 68.2125 75.7011 67.3329 74.4288C66.6464 73.4357 66.6422 72.8214 67.3211 72.6881C67.4948 72.6539 67.9779 72.5622 68.3949 72.4841C69.6471 72.2496 69.7131 72.129 69.6671 70.1567C69.6228 68.2554 69.602 68.2148 68.556 67.9862C67.9454 67.8527 68.2724 67.8351 71.5745 67.8245L75.2778 67.8125L76.3301 66.7284C76.9089 66.1323 77.8659 65.1303 78.4569 64.5018L79.5314 63.3593V55.4649C79.5314 47.6559 79.5288 47.5673 79.2885 47.2619L79.0457 46.9532H73.7807C70.8849 46.9532 68.5158 46.9338 68.5158 46.9101C68.5158 46.8866 68.8848 46.032 69.336 45.0111C70.2864 42.861 70.2854 42.8691 69.7476 41.4992C69.2975 40.3526 69.2877 40.398 70.0563 40.0647L70.6007 39.8286L71.7486 40.5198C73.2387 41.417 73.4102 41.4182 74.2359 40.5371C76.5179 38.1018 76.5176 38.1029 75.4119 36.6858C75.0153 36.1775 74.648 35.7056 74.5953 35.637C74.4588 35.4588 74.8526 34.3085 75.071 34.2476C75.1716 34.2195 75.7766 34.0788 76.4154 33.935C78.1014 33.5552 78.0602 33.6243 77.9627 31.3421C77.8565 28.8585 77.895 28.9067 75.8286 28.6689L74.6456 28.5327L74.3931 28.0133C74.0597 27.3269 74.0484 27.3809 74.7686 26.2236C75.8072 24.555 75.8162 24.5972 74.0868 23.0612C72.2843 21.4599 72.3512 21.4661 70.6838 22.7517L69.7463 23.4747L69.1619 23.2526C68.4392 22.9778 68.5586 23.1678 68.2142 21.7455C67.76 19.8695 67.4676 19.7514 64.1535 20.1062ZM66.3344 22.08C66.368 22.1928 66.4778 22.6542 66.5784 23.1054C66.7301 23.7854 66.9741 24.5675 67.0358 24.5712C67.0442 24.5717 67.5783 24.7608 68.2227 24.9915C70.0697 25.6526 70.0449 25.6544 71.2244 24.7641L72.2339 24.0023L72.7775 24.4913L73.3209 24.9804L72.6764 25.9766C71.9288 27.1317 71.8925 27.3995 72.368 28.2474C72.5531 28.5776 72.7994 29.1027 72.9152 29.4146C73.1942 30.1655 73.4118 30.2844 74.8079 30.4482L75.9894 30.5868L76.0611 31.1105C76.1945 32.0835 76.2437 32.0285 74.9904 32.3109C73.512 32.6439 73.3707 32.7393 73.1321 33.5651C73.025 33.9353 72.8102 34.5275 72.6545 34.8812C72.2954 35.6966 72.3411 35.8685 73.2186 37.0028C73.9953 38.0069 73.9982 38.0486 73.3344 38.6802L72.9767 39.0207L72.006 38.4302C70.6352 37.596 70.6556 37.5983 69.566 38.1593L68.6303 38.6411L68.5263 38.3732C68.4692 38.2259 68.3117 37.8266 68.1761 37.4859C67.8567 36.6824 67.833 36.75 68.5679 36.3662C72.0471 34.5482 72.0834 29.3742 68.6312 27.3513C66.0387 25.8324 62.459 27.0258 61.3088 29.7924C61.1228 30.2396 60.9611 30.6209 60.9491 30.6398C60.9372 30.6587 60.5007 30.4742 59.979 30.2297L59.0306 29.7851L59.3754 29.0234C59.8472 27.9809 59.8325 27.902 58.9518 26.7516L58.1771 25.7396L58.6142 25.2063C58.8545 24.9129 59.1108 24.6963 59.1839 24.7248C59.2568 24.7533 59.7603 25.0466 60.3027 25.3766C61.4283 26.0613 61.5726 26.0846 62.2484 25.6884C62.5187 25.53 63.0243 25.2888 63.372 25.1523C64.3908 24.7524 64.4859 24.6105 64.652 23.2428C64.7316 22.5872 64.8558 22.0121 64.9278 21.9647C65.2122 21.7776 66.2703 21.8645 66.3344 22.08ZM28.3409 25.6619C27.7637 26.2763 27.9146 26.5637 29.8131 28.4654C31.7031 30.3585 32.0672 30.5501 32.6564 29.9609C33.2429 29.3744 33.0531 29.013 31.1637 27.1205C29.2523 25.2059 28.9271 25.0379 28.3409 25.6619ZM67.5303 28.9649C69.4239 29.8914 69.9275 32.3327 68.5554 33.9357C68.2013 34.3494 67.263 34.9794 67.1765 34.8617C67.1613 34.8411 67.0269 34.5078 66.8777 34.1211C66.501 33.1443 66.3317 33.0096 64.4727 32.2074C62.6097 31.4036 62.6295 31.43 63.1496 30.4313C64.0298 28.7412 65.8367 28.1363 67.5303 28.9649ZM58.8522 31.8362C61.8146 33.1347 64.2788 34.2362 64.3281 34.284C64.3775 34.3317 63.8897 35.5697 63.2442 37.035C61.5785 40.8156 61.4445 40.4457 65.0588 42.0416C66.5411 42.696 67.7981 43.2719 67.8519 43.3211C67.9058 43.3703 67.6047 44.1945 67.1831 45.1526L66.4163 46.8945L64.6572 46.9532C63.2994 46.9983 62.8616 47.0517 62.7375 47.1875C62.6492 47.2842 61.7855 48.207 60.8183 49.2383C58.5555 51.6507 58.7892 50.8742 58.7892 55.9826C58.7892 60.0752 58.7768 60.3365 58.5842 60.2847C58.4714 60.2543 56.1774 59.2644 53.4864 58.085L48.5939 55.9404V48.0833V40.2261L50.9669 34.8128C52.272 31.8356 53.3684 29.4165 53.403 29.4374C53.4377 29.4582 55.8899 30.5376 58.8522 31.8362ZM66.5703 38.6241C67.059 39.8762 67.4414 40.9181 67.4199 40.9395C67.3431 41.0163 64.302 39.6264 64.2995 39.5133C64.2971 39.4011 65.6261 36.3002 65.6631 36.3318C65.6733 36.3405 66.0815 37.3721 66.5703 38.6241ZM20.7033 44.375C20.4027 44.6756 20.3976 45.3158 20.6928 45.6804C20.9162 45.956 20.9259 45.957 23.5157 45.957C26.4422 45.957 26.5626 45.9194 26.5626 45.0065C26.5626 44.1804 26.4224 44.1407 23.5158 44.1407C21.0939 44.1407 20.9234 44.1548 20.7033 44.375ZM76.1453 49.0332C76.0832 49.146 75.6708 49.5947 75.2291 50.0303L74.4257 50.8224L68.2296 50.792L62.0336 50.7617L62.943 49.7949L63.8526 48.8282H70.0554C75.9279 48.8282 76.2524 48.839 76.1453 49.0332ZM77.6564 56.4609V62.5703L76.7207 63.5214L75.785 64.4726L75.7832 62.8874C75.7811 60.9869 75.6966 60.7812 74.9183 60.7812C73.9728 60.7812 73.9698 60.7896 73.929 63.5255L73.893 65.9375H70.622H67.3509L67.6404 65.511C68.141 64.7733 68.0451 64.5068 66.8327 63.2628C65.4546 61.8491 65.2938 61.8174 64.0016 62.7054C63.0579 63.354 62.8607 63.3836 62.3355 62.9552C62.3202 62.9427 62.2062 62.438 62.0822 61.8336C61.8404 60.6546 61.722 60.4848 61.0539 60.3596L60.6642 60.2864V56.5494V52.8125H67.2852H73.9064V55.0847C73.9064 57.7274 73.964 57.9048 74.822 57.9048C75.7592 57.9048 75.7814 57.8343 75.7814 54.8549V52.2459L76.6725 51.2988C77.1626 50.7777 77.5844 50.3516 77.61 50.3516C77.6355 50.3516 77.6564 53.1008 77.6564 56.4609ZM30.1061 61.515C28.1076 63.5166 28.0287 63.6716 28.6767 64.3196C29.2725 64.9154 29.531 64.7798 31.4591 62.8589C33.2117 61.1129 33.3614 60.8829 33.1223 60.3057C32.6805 59.2391 32.1768 59.4411 30.1061 61.515ZM60.2411 62.3925C60.2748 62.5053 60.362 62.9487 60.4349 63.3777C60.5844 64.2593 60.804 64.5345 61.5431 64.767C61.8009 64.8482 62.2074 65.0129 62.4467 65.133C63.1067 65.4647 63.4523 65.4089 64.3128 64.8317L65.0877 64.3118L65.3955 64.6329L65.7032 64.9542L65.1759 65.7032C64.5503 66.5916 64.5317 66.819 65.0001 67.8522C65.1935 68.2787 65.3517 68.6987 65.3517 68.7855C65.3517 69.1133 65.8827 69.4352 66.6408 69.567C67.8426 69.7763 67.8303 69.7689 67.7898 70.2492L67.754 70.674L66.8007 70.8584C65.6441 71.082 65.5685 71.1401 65.2338 72.0624C65.0882 72.4643 64.8968 72.897 64.8087 73.0241C64.5212 73.4391 64.6215 73.8935 65.1759 74.6865C65.7906 75.5658 65.7863 75.5451 65.4251 75.8844L65.147 76.1457L64.3835 75.6119C63.5247 75.0117 63.1353 74.9489 62.4467 75.2994C62.2074 75.4211 61.7841 75.5888 61.5059 75.6719C60.86 75.8649 60.5985 76.2035 60.4974 76.9784C60.3515 78.0975 60.3359 78.125 59.8478 78.125H59.4084L59.2152 77.1615C58.9614 75.8961 59.0916 76.0052 56.8013 75.1391C56.3088 74.9529 56.0631 75.0323 55.17 75.6659L54.5192 76.1276L54.1964 75.8183L53.8737 75.5091L54.3912 74.7839C55.0781 73.8213 55.1232 73.5969 54.7713 72.8949C54.614 72.5811 54.4187 72.1133 54.3372 71.8554C54.1503 71.2635 53.9262 71.0058 53.5329 70.9304C53.3624 70.8977 52.9196 70.8119 52.5489 70.7396L51.8751 70.6083V70.1564V69.7046L52.7598 69.5618C53.8062 69.393 54.1244 69.1764 54.3282 68.4942C54.4113 68.216 54.579 67.7927 54.7007 67.5534C55.0515 66.8642 54.9885 66.4755 54.386 65.6136L53.85 64.8468L54.1481 64.5488L54.4461 64.2507L55.2518 64.8011C56.1983 65.4477 56.4132 65.4677 57.4017 65.0001C57.8103 64.8068 58.2278 64.6485 58.3293 64.6485C58.6988 64.6484 59.0043 64.1411 59.1411 63.3008C59.3246 62.175 59.3174 62.1875 59.7737 62.1875C60.0588 62.1875 60.1979 62.2485 60.2411 62.3925ZM58.3514 66.3833C55.5506 67.5044 54.8594 71.1015 57.0509 73.1514C59.8988 75.8153 64.4264 73.3794 63.8094 69.5153C63.4176 67.0623 60.6387 65.4677 58.3514 66.3833ZM46.7189 70.6386V74.1678L45.5763 74.118C42.9498 74.0033 42.2723 73.0421 42.2684 69.4238L42.2658 67.1094H44.4923H46.7189V70.6386ZM60.7793 68.2802C62.349 69.081 62.3229 71.4381 60.7364 72.1586C58.7861 73.0443 56.8556 70.8443 57.9827 69.0206C58.533 68.1302 59.8182 67.7898 60.7793 68.2802Z" fill="white"/>
</g>
<defs>
<clipPath id="clip0_519_2134">
<rect width="60" height="60" fill="white" transform="translate(20 20)"/>
</clipPath>
</defs>
</svg>
