<svg xmlns="http://www.w3.org/2000/svg" xmlns:xlink="http://www.w3.org/1999/xlink" width="143.778" height="143.778" viewBox="0 0 143.778 143.778">
  <defs>
    <clipPath id="clip-path">
      <rect id="長方形_8713" data-name="長方形 8713" width="73.027" height="60.046" fill="none"/>
    </clipPath>
  </defs>
  <g id="グループ_10708" data-name="グループ 10708" transform="translate(-968.5 -2159.5)">
    <path id="パス_4118" data-name="パス 4118" d="M70.389,0a70.389,70.389,0,1,0,70.389,70.389A70.389,70.389,0,0,0,70.389,0" transform="translate(970 2161)" fill="none" stroke="#707070" stroke-width="3" fill-rule="evenodd"/>
    <g id="グループ_10707" data-name="グループ 10707" transform="translate(998.03 2196.56)">
      <g id="グループ_10706" data-name="グループ 10706" transform="translate(5.846 4.806)" clip-path="url(#clip-path)">
        <path id="パス_6172" data-name="パス 6172" d="M20.957,72.667a12.308,12.308,0,0,1,3.321-7.043,9.022,9.022,0,0,0-5.808-4.356L14.865,70.3l-.785-6.525H14.6a.563.563,0,0,0,.567-.568V61.451a.577.577,0,0,0-.567-.584H11.728a.588.588,0,0,0-.567.584V63.2a.574.574,0,0,0,.567.568h.534L11.477,70.3,7.855,61.268A9.1,9.1,0,0,0,.912,69.028l-.9,7.427A1.893,1.893,0,0,0,1.48,78.525c1.352.3,2.737.518,4.139.7L6.637,96.6a2.572,2.572,0,0,0,2.587,2.437h7.894A2.6,2.6,0,0,0,19.705,96.6l.785-13.686a5.181,5.181,0,0,1-.434-2.821Z" transform="translate(-0.001 -43.036)" fill="#203a72"/>
        <path id="パス_6173" data-name="パス 6173" d="M25.432,16.166a8.083,8.083,0,1,0-8.083-8.084,8.083,8.083,0,0,0,8.083,8.084" transform="translate(-12.267)" fill="#203a72"/>
        <path id="パス_6174" data-name="パス 6174" d="M189.762,69.028a9.075,9.075,0,0,0-6.943-7.761L179.214,70.3l-.784-6.526h.517a.563.563,0,0,0,.567-.567V61.451a.577.577,0,0,0-.567-.584h-2.854a.591.591,0,0,0-.584.584V63.2a.577.577,0,0,0,.584.567h.517l-.785,6.526L172.2,61.267a9.1,9.1,0,0,0-5.808,4.339,12.378,12.378,0,0,1,3.338,7.06l.9,7.427a5.219,5.219,0,0,1-.451,2.838l.8,13.669a2.572,2.572,0,0,0,2.587,2.437h7.894a2.594,2.594,0,0,0,2.587-2.437l1-17.374c1.4-.184,2.8-.4,4.156-.7a1.866,1.866,0,0,0,1.452-2.07Z" transform="translate(-117.65 -43.036)" fill="#203a72"/>
        <path id="パス_6175" data-name="パス 6175" d="M176.762,8.082A8.083,8.083,0,1,0,184.845,0a8.083,8.083,0,0,0-8.083,8.082" transform="translate(-124.98)" fill="#203a72"/>
        <path id="パス_6176" data-name="パス 6176" d="M98.192,75.068l-3.616,9.041-.784-6.532h.522a.571.571,0,0,0,.57-.571V75.251a.57.57,0,0,0-.57-.57H91.453a.57.57,0,0,0-.569.57v1.756a.571.571,0,0,0,.569.571h.522l-.784,6.53-3.616-9.039a9.11,9.11,0,0,0-6.942,7.763l-.9,7.431a1.884,1.884,0,0,0,1.457,2.078c1.349.289,2.741.51,4.15.7l1.006,17.367a2.59,2.59,0,0,0,2.586,2.443h7.9a2.591,2.591,0,0,0,2.587-2.443l1-17.367c1.409-.187,2.8-.409,4.151-.7a1.887,1.887,0,0,0,1.457-2.078l-.9-7.431a9.1,9.1,0,0,0-6.943-7.763" transform="translate(-56.368 -52.803)" fill="#203a72"/>
        <path id="パス_6177" data-name="パス 6177" d="M105.14,13.793a8.083,8.083,0,1,0,8.083,8.082,8.083,8.083,0,0,0-8.083-8.082" transform="translate(-68.624 -9.752)" fill="#203a72"/>
      </g>
    </g>
  </g>
</svg>
