<svg xmlns="http://www.w3.org/2000/svg" xmlns:xlink="http://www.w3.org/1999/xlink" width="143.778" height="143.778" viewBox="0 0 143.778 143.778">
  <defs>
    <clipPath id="clip-path">
      <rect id="長方形_8712" data-name="長方形 8712" width="64.995" height="76.043" fill="none"/>
    </clipPath>
  </defs>
  <g id="グループ_10705" data-name="グループ 10705" transform="translate(-968.5 -1968.5)">
    <path id="パス_4116" data-name="パス 4116" d="M70.389,0a70.389,70.389,0,1,0,70.389,70.389A70.389,70.389,0,0,0,70.389,0" transform="translate(970 1970)" fill="none" stroke="#707070" stroke-width="3" fill-rule="evenodd"/>
    <g id="グループ_10704" data-name="グループ 10704" transform="translate(1007.892 1997.703)">
      <g id="グループ_10703" data-name="グループ 10703" clip-path="url(#clip-path)">
        <path id="パス_6165" data-name="パス 6165" d="M13.881,13.866a25.313,25.313,0,0,1,35.247-.486l-4.168,4.168a2.294,2.294,0,0,0-.553,2.2,2.128,2.128,0,0,0,1.66,1.5L62.4,24.657A2.128,2.128,0,0,0,64.942,22.1L61.538,5.8a2.435,2.435,0,0,0-1.461-1.662,2.306,2.306,0,0,0-2.242.54L53.712,8.8A31.773,31.773,0,0,0,3.753,46.769h7.66a25.371,25.371,0,0,1,2.468-32.9" transform="translate(0 0)" fill="#203a72"/>
        <path id="パス_6166" data-name="パス 6166" d="M162.73,103.729a25.021,25.021,0,0,1-4.6,10.75h7.686a31.206,31.206,0,0,0,3.3-9.686,3.238,3.238,0,1,0-6.388-1.064" transform="translate(-106.001 -67.71)" fill="#203a72"/>
        <path id="パス_6167" data-name="パス 6167" d="M89.2,44.27a3.246,3.246,0,0,0-3.246,3.246V61.441a3.245,3.245,0,0,0,1.958,2.98l8.4,3.629a3.246,3.246,0,0,0,2.576-5.96l-6.439-2.782V47.516A3.246,3.246,0,0,0,89.2,44.27" transform="translate(-57.616 -29.675)" fill="#203a72"/>
        <path id="パス_6168" data-name="パス 6168" d="M158.052,161.466a.908.908,0,0,0-.743-.387H151.5a.906.906,0,0,0-.743,1.425l7.021,10.044-7.021,10.044a.906.906,0,0,0,.743,1.425h5.806a.909.909,0,0,0,.743-.387l7.383-10.564a.9.9,0,0,0,0-1.037Z" transform="translate(-100.947 -107.975)" fill="#14a0de"/>
        <path id="パス_6169" data-name="パス 6169" d="M120.109,172.03l-7.385-10.564a.905.905,0,0,0-.742-.387h-5.808a.906.906,0,0,0-.742,1.425l7.021,10.044-7.021,10.044a.906.906,0,0,0,.742,1.425h5.808a.905.905,0,0,0,.742-.387l7.385-10.564a.9.9,0,0,0,0-1.037" transform="translate(-70.563 -107.975)" fill="#14a0de"/>
        <path id="パス_6170" data-name="パス 6170" d="M74.777,172.03l-7.383-10.564a.908.908,0,0,0-.743-.387H60.844A.906.906,0,0,0,60.1,162.5l7.022,10.044L60.1,182.592a.906.906,0,0,0,.743,1.425H66.65a.908.908,0,0,0,.743-.387l7.383-10.564a.9.9,0,0,0,0-1.037" transform="translate(-40.176 -107.975)" fill="#14a0de"/>
        <path id="パス_6171" data-name="パス 6171" d="M29.45,172.03l-7.383-10.564a.91.91,0,0,0-.743-.387H15.517a.906.906,0,0,0-.743,1.425l7.021,10.044-7.021,10.044a.906.906,0,0,0,.743,1.425h5.806a.91.91,0,0,0,.743-.387l7.383-10.564a.9.9,0,0,0,0-1.037" transform="translate(-9.793 -107.975)" fill="#14a0de"/>
      </g>
    </g>
  </g>
</svg>
