<svg width="74" height="54" viewBox="0 0 74 54" fill="none" xmlns="http://www.w3.org/2000/svg">
<rect width="74" height="54" rx="3" fill="#FC721E"/>
<g clip-path="url(#clip0_519_2147)">
<path d="M53 21.6791V35.8581C53 36.6441 52.7204 37.3167 52.161 37.8761C51.6017 38.4354 50.929 38.7151 50.143 38.7151H23.857C23.071 38.7151 22.3984 38.4354 21.839 37.8761C21.2797 37.3167 21 36.6441 21 35.8581V21.6791C21.524 22.2624 22.1254 22.7804 22.804 23.2331C27.1134 26.1617 30.0717 28.2154 31.679 29.3941C32.3577 29.8941 32.9084 30.2841 33.331 30.5641C33.7537 30.8441 34.3164 31.1297 35.019 31.4211C35.7217 31.7124 36.3764 31.8584 36.983 31.8591H37.019C37.6264 31.8591 38.281 31.7131 38.983 31.4211C39.685 31.1291 40.2477 30.8434 40.671 30.5641C41.0944 30.2847 41.645 29.8947 42.323 29.3941C44.347 27.9301 47.3114 25.8764 51.216 23.2331C51.8947 22.7691 52.49 22.2511 53.002 21.6791H53ZM53 16.4291C53 17.3697 52.7084 18.2684 52.125 19.1251C51.5417 19.9817 50.8154 20.7137 49.946 21.3211C45.47 24.4284 42.6844 26.3631 41.589 27.1251C41.4697 27.2084 41.2167 27.3901 40.83 27.6701C40.4434 27.9501 40.122 28.1764 39.866 28.3491C39.61 28.5217 39.3004 28.7151 38.937 28.9291C38.5737 29.1431 38.2314 29.3037 37.91 29.4111C37.5887 29.5184 37.291 29.5721 37.017 29.5721H36.981C36.707 29.5721 36.4094 29.5184 36.088 29.4111C35.7667 29.3037 35.4244 29.1431 35.061 28.9291C34.6977 28.7151 34.388 28.5217 34.132 28.3491C33.876 28.1764 33.5547 27.9501 33.168 27.6701C32.7814 27.3901 32.5284 27.2084 32.409 27.1251C31.3257 26.3631 29.766 25.2767 27.73 23.8661C25.694 22.4554 24.4737 21.6071 24.069 21.3211C23.331 20.8211 22.6347 20.1334 21.98 19.2581C21.3254 18.3827 20.998 17.5701 20.998 16.8201C20.998 15.8914 21.245 15.1177 21.739 14.4991C22.233 13.8804 22.9384 13.5707 23.855 13.5701H50.141C50.915 13.5701 51.5847 13.8497 52.15 14.4091C52.7154 14.9684 52.998 15.6411 52.998 16.4271L53 16.4291Z" fill="white"/>
</g>
<defs>
<clipPath id="clip0_519_2147">
<rect width="32" height="32" fill="white" transform="translate(21 9)"/>
</clipPath>
</defs>
</svg>
