<svg width="50" height="50" viewBox="0 0 50 50" fill="none" xmlns="http://www.w3.org/2000/svg">
<g clip-path="url(#clip0_1375_2364)">
<path fill-rule="evenodd" clip-rule="evenodd" d="M33.8765 0.117909C33.0107 0.429784 32.2816 1.19116 32.0499 2.02553C31.995 2.22303 31.9537 3.93741 31.9535 6.03291L31.953 9.69491L32.2306 10.2818C32.676 11.2233 33.3585 11.7157 34.4683 11.8963C35.3078 12.0329 35.2731 11.9297 35.2731 14.2999C35.2731 17.0647 35.4821 17.5315 36.6735 17.4288C37.3246 17.3725 37.3956 17.2862 39.0588 14.5264C40.0141 12.941 40.5799 12.0977 40.7419 12.0169C40.923 11.9265 41.8835 11.8948 44.4581 11.8937L47.9301 11.8923L48.4312 11.6425C49.6111 11.0545 50.0141 10.2699 50.0171 8.55453C50.0192 7.33228 50.016 7.31403 49.762 7.11416C49.044 6.54941 48.5945 6.98403 48.5347 8.30028C48.4399 10.3935 48.5015 10.3658 43.8106 10.4274L40.0923 10.4762L39.7091 10.7307C39.4054 10.9323 39.0729 11.4065 38.1052 13.0183L36.8845 15.0515L36.8356 13.3987C36.7704 11.188 36.448 10.6405 35.0827 10.4207C33.5044 10.1664 33.5161 10.1999 33.5157 5.98253C33.5152 2.15728 33.5274 2.08253 34.205 1.71916C34.7074 1.44966 47.2369 1.44278 47.7699 1.71166C48.3232 1.99091 48.4751 2.37253 48.5434 3.65578C48.6101 4.90903 48.6903 5.05628 49.3055 5.05628C49.9191 5.05628 50.0192 4.83203 50.0192 3.45728C50.0192 1.68516 49.6695 0.942034 48.5411 0.317159L48.0173 0.0270341L41.1325 0.00553409C35.5086 -0.0119659 34.1797 0.0085341 33.8765 0.117909ZM14.5212 2.85553C10.6969 3.71041 8.91325 6.40766 8.90225 11.3525L8.8985 13.0153L8.52587 13.2728C7.76625 13.7977 7.63625 14.2733 7.63737 16.5257C7.63887 19.5055 8.16337 20.2907 10.1525 20.2907H10.917L11.035 20.9785C11.367 22.915 12.5485 24.7928 14.2371 26.0677L14.7654 26.4664V27.5827C14.7654 28.7374 14.6859 29.0515 14.307 29.3944C14.1386 29.5468 13.7206 29.5647 9.73162 29.5895C4.79475 29.6203 4.90987 29.6035 4.08312 30.4065C3.29512 31.1718 3.1135 31.8899 3.2295 33.7823L3.31437 35.1693L2.87962 35.8044C1.25825 38.1725 0.605997 40.5089 0.605497 43.95L0.605247 45.9784L0.338997 46.3805C-0.450128 47.5732 0.212372 49.4587 1.56287 49.8633C1.85062 49.9495 6.37825 49.9782 19.7135 49.9782H37.4809L37.9911 49.7239C39.2325 49.1053 39.6951 47.2369 38.8457 46.272C38.7446 46.1573 38.7001 45.5669 38.6615 43.8258C38.5835 40.3208 37.9839 38.2062 36.4051 35.8697L35.9451 35.1889L36.0103 33.6235C36.1012 31.4372 35.764 30.6189 34.4781 29.9067L33.9548 29.6168L29.4989 29.5887C25.268 29.562 25.0344 29.5513 24.8752 29.3754C24.5712 29.0395 24.442 28.4729 24.4376 27.4569L24.4334 26.4689L24.8096 26.2199C25.4276 25.8109 26.3726 24.8862 26.8361 24.2365L27.2706 23.6277L28.3666 23.5949C29.9627 23.5472 30.7764 23.0732 31.3559 21.8532L31.611 21.316V17.9958C31.611 14.1575 31.5919 14.048 30.798 13.3498L30.3415 12.9483L30.2927 10.638C30.2231 7.34541 29.6541 6.38666 27.5496 6.01603C27.0982 5.93653 26.9724 5.87628 26.9724 5.73978C26.9724 4.77841 26.1152 3.51541 25.1367 3.03478L24.5797 2.76141L19.8435 2.74291C16.1836 2.72866 14.974 2.75428 14.5212 2.85553ZM35.4796 3.76228C34.755 4.36391 35.351 5.19916 36.4601 5.13653C37.4608 5.07991 37.9014 4.37503 37.2932 3.80378C36.9921 3.52091 35.8031 3.49366 35.4796 3.76228ZM39.083 3.78553C38.763 4.10553 38.789 4.61716 39.1414 4.93416C39.4586 5.21966 45.8711 5.28403 46.4065 5.00716C46.7954 4.80603 46.9029 4.26866 46.6278 3.90003L46.4338 3.64028L42.8566 3.61466C39.3846 3.58978 39.2738 3.59478 39.083 3.78553ZM24.6714 4.60553C25.0882 4.92353 25.4045 5.53091 25.4077 6.01953C25.4125 6.75066 26.1532 7.49241 26.888 7.50203C27.6321 7.51166 28.2246 7.86666 28.5452 8.49478C28.796 8.98603 28.8299 13.8549 28.585 14.2045C28.4725 14.3652 26.9785 15.0173 26.7231 15.0173C26.6991 15.0173 26.6784 14.1933 26.6771 13.1862C26.6724 9.45428 25.0066 8.04253 21.699 8.96741C20.5051 9.30116 18.6635 9.30291 17.5485 8.97141C14.3371 8.01653 12.6219 9.43353 12.5212 13.1242L12.4704 14.9908L11.5934 14.6867C10.3936 14.2705 10.4501 14.4428 10.5 11.3552C10.5539 8.01866 10.7795 7.28278 12.177 5.88641C13.6895 4.37491 14.1289 4.28391 19.8024 4.30616L24.3022 4.32391L24.6714 4.60553ZM35.5545 7.10766C35.1118 7.36641 35.1236 8.23741 35.5731 8.47803C35.6792 8.53478 37.8368 8.57191 41.0329 8.57191H46.3172L46.5569 8.33216C46.874 8.01503 46.874 7.56628 46.5569 7.24916L46.3172 7.00941L41.0149 7.01241C37.8646 7.01416 35.6485 7.05278 35.5545 7.10766ZM17.1091 10.497C18.6126 10.8852 20.5982 10.8827 22.1327 10.4904C24.5055 9.88403 25.1169 10.4934 25.1169 13.4649C25.1169 15.8197 25.4799 16.5717 26.6197 16.5782L26.9017 16.5798L26.8449 18.4597C26.7956 20.0872 26.6999 20.9864 26.5611 21.1252C26.5404 21.1459 26.3057 21.052 26.0399 20.9167C25.3822 20.5817 22.9917 20.5918 22.3337 20.9323C20.469 21.897 21.1837 24.6598 23.3262 24.768L24.0622 24.8052L23.7839 24.9945C20.7875 27.0327 17.0697 26.6755 14.4624 24.0993C12.915 22.5704 12.4216 21.1577 12.4216 18.2565V16.6047L12.8046 16.5434C13.845 16.377 14.0816 15.8467 14.0822 13.6793C14.0829 11.7318 14.1554 11.3378 14.6016 10.8535C15.2034 10.2005 15.6917 10.131 17.1091 10.497ZM10.3211 15.9044L10.8591 16.1274V17.4767V18.8258L10.5417 18.8253C9.33287 18.8232 9.199 18.5998 9.199 16.5845V14.9727L9.491 15.327C9.66725 15.5408 9.9965 15.7699 10.3211 15.9044ZM30.0516 18.0045C29.9662 18.4739 29.6204 18.731 28.9862 18.7965L28.4372 18.8532V17.4897V16.1263L28.9051 15.9148C29.1625 15.7985 29.525 15.5464 29.7107 15.3545L30.0485 15.0059L30.0775 16.3543C30.0935 17.0959 30.0819 17.8385 30.0516 18.0045ZM30.0612 20.6569C29.9456 21.5125 29.3304 22.0485 28.4635 22.0485C28.0776 22.0485 27.9461 22.0152 27.982 21.9264C28.0091 21.8593 28.1077 21.4654 28.2012 21.0512L28.3712 20.298L29.1611 20.2654C29.5955 20.2474 29.9899 20.2238 30.0374 20.2129C30.085 20.2019 30.0957 20.4017 30.0612 20.6569ZM25.4517 22.3973C25.9744 22.9198 25.5312 23.2204 24.238 23.2204C23.6939 23.2204 23.1636 23.1749 23.0597 23.1193C22.8166 22.9892 22.8049 22.4872 23.0417 22.3493C23.335 22.1784 25.2715 22.217 25.4517 22.3973ZM17.5676 27.6339C19.1066 28.0157 20.7127 27.9312 22.636 27.367C22.8292 27.3104 22.8441 27.3527 22.9001 28.1202C22.9327 28.5673 22.989 29.076 23.025 29.2507L23.0905 29.568H19.6011C16.3145 29.568 16.116 29.558 16.186 29.3972C16.227 29.3032 16.2806 28.7769 16.3051 28.2277C16.3467 27.2965 16.3619 27.2357 16.5287 27.3249C16.6271 27.3775 17.0946 27.5167 17.5676 27.6339ZM33.8182 31.3515C34.5766 31.8567 34.5611 31.5902 34.2131 38.1518C34.0434 41.353 33.8784 44.2689 33.8465 44.6315L33.7885 45.2907H28.1221H22.4557L22.5146 44.9962C22.6092 44.5234 23.0324 43.705 23.4111 43.2625C25.6837 40.6075 25.096 36.4212 22.2576 35.0472C20.8925 34.3863 20.4294 35.0642 20.4294 37.7232V39.5368L19.6237 39.5085L18.8181 39.4802L18.7692 37.527C18.7155 35.376 18.6849 35.2557 18.125 34.9899C16.9549 34.4348 15.0182 36.2719 14.5125 38.4169C14.126 40.0563 14.561 41.7173 15.7526 43.1515C16.1666 43.6498 16.5502 44.3668 16.7012 44.9244L16.8004 45.2907H11.1104H5.42037L5.35637 44.1005C5.2815 42.7085 5.15137 42.4587 4.5015 42.4587C3.837 42.4587 3.71362 42.75 3.79175 44.1343L3.85712 45.2907H2.96362H2.07L2.07225 44.5338C2.07887 42.2713 2.4095 40.341 3.05625 38.7893C3.42837 37.8964 3.508 37.9673 3.52512 39.2069C3.53987 40.2694 3.89087 40.731 4.55712 40.5638C5.15175 40.4147 5.154 40.3873 4.93087 36.2329C4.69787 31.895 4.73975 31.5968 5.6345 31.2242C5.74187 31.1795 12.0525 31.1402 19.6581 31.1367L33.4865 31.1305L33.8182 31.3515ZM22.9567 38.0642C23.5516 39.3128 23.2726 40.9119 22.2417 42.1617C21.6476 42.8819 21.2406 43.6728 21.0234 44.5292L20.8425 45.2418L19.6329 45.269L18.4232 45.2962L18.2526 44.6343C18.0114 43.6987 17.7166 43.114 17.0235 42.1958C15.6405 40.3638 15.5957 38.3992 16.9084 37.1415L17.2067 36.8557L17.2072 38.2168C17.2082 40.7312 17.5794 41.1387 19.8102 41.0754C21.7346 41.0208 21.9896 40.6957 21.996 38.2877L22 36.7458L22.3505 37.1364C22.5431 37.3512 22.816 37.7687 22.9567 38.0642ZM36.3715 39.2837C36.8811 40.6758 37.036 41.576 37.0986 43.5084L37.1564 45.2907H36.2569H35.3574L35.416 44.5338C35.4816 43.688 35.7589 38.6672 35.7651 38.2105L35.7692 37.9177L35.9271 38.2094C36.014 38.3699 36.2139 38.8534 36.3715 39.2837ZM37.2639 46.9635C37.7523 47.186 37.8194 47.8288 37.3955 48.2237C37.1922 48.413 36.9539 48.4157 19.6429 48.4157H2.09637L1.839 48.2133C1.4935 47.9414 1.48537 47.4289 1.8215 47.0929L2.06112 46.8532H19.5415C32.3251 46.8532 37.0869 46.8828 37.2639 46.9635Z" fill="black"/>
</g>
<defs>
<clipPath id="clip0_1375_2364">
<rect width="50" height="50" fill="white"/>
</clipPath>
</defs>
</svg>
