<svg width="70" height="71" viewBox="0 0 70 71" fill="none" xmlns="http://www.w3.org/2000/svg">
<rect y="0.5" width="70" height="70" rx="35" fill="white"/>
<rect x="5" y="5.5" width="60" height="60" rx="30" fill="#1667B2"/>
<path fill-rule="evenodd" clip-rule="evenodd" d="M24.0874 20.8327C21.9508 21.2188 20.2041 22.9861 19.8281 25.1422C19.675 26.0202 19.675 45.9804 19.8281 46.8584C20.1277 48.5764 21.2575 50.032 22.8694 50.7768C23.9018 51.2537 23.5647 51.2313 30.0527 51.2558L35.8964 51.2779L36.1914 51.1264C36.9731 50.7249 37.0125 49.7358 36.2669 49.2334L36.0428 49.0823H30.4445C26.6141 49.0823 24.7352 49.0592 24.4945 49.0089C23.241 48.7476 22.217 47.7068 21.9899 46.4637C21.9408 46.1948 21.9179 43.5222 21.9179 38.0467V30.0238H35H48.082V33.5334V37.0432L48.233 37.2672C48.7346 38.0116 49.7259 37.9733 50.124 37.1943L50.2734 36.9018V31.3133C50.2734 26.5956 50.2575 25.6339 50.1718 25.1422C49.791 22.9582 48.042 21.2093 45.858 20.8285C45.0188 20.6821 24.8991 20.6861 24.0874 20.8327ZM45.5054 22.9916C47.2448 23.3543 48.082 24.6183 48.082 26.8817V27.8323H35H21.9179V26.8395C21.9179 24.6522 22.7161 23.4205 24.3981 23.0125C24.8627 22.8998 44.9698 22.8799 45.5054 22.9916ZM35.4808 24.4452C34.8256 24.8447 34.8256 25.9059 35.4808 26.3054C36.2118 26.751 37.1244 26.2346 37.1244 25.3753C37.1244 24.5159 36.2118 23.9996 35.4808 24.4452ZM39.4788 24.3765C39.0797 24.538 38.7909 25.131 38.8799 25.6057C39.0569 26.5491 40.4765 26.7565 40.9122 25.9025C41.3882 24.9693 40.4586 23.9797 39.4788 24.3765ZM43.226 24.4747C42.3496 25.0703 42.7818 26.4378 43.8466 26.4378C44.9631 26.4378 45.3598 25.0949 44.4303 24.4622C44.1152 24.2477 43.5515 24.2536 43.226 24.4747ZM31.3085 32.204C30.9242 32.4457 30.824 32.6867 29.6843 36.1113C28.4017 39.9652 28.4169 39.8867 28.863 40.3806C29.3418 40.9107 30.2911 40.8336 30.6038 40.2393C30.7546 39.9528 32.9413 33.3142 32.9413 33.143C32.9413 32.3858 31.9374 31.8085 31.3085 32.204ZM26.8652 33.2149C26.7361 33.2525 26.2064 33.7353 25.36 34.5868C23.5049 36.4533 23.5058 36.3989 25.2975 38.2142C26.752 39.6878 27.0937 39.8713 27.7603 39.5363C28.6535 39.0876 28.552 38.3257 27.4478 37.1886L26.677 36.3948L27.4451 35.6164C28.0655 34.9878 28.2279 34.7828 28.2903 34.5504C28.5246 33.6765 27.7551 32.9554 26.8652 33.2149ZM33.7651 33.2713C32.8432 33.6899 32.942 34.4831 34.0571 35.6164L34.8229 36.3948L34.0521 37.1886C32.9479 38.3257 32.8464 39.0876 33.7396 39.5363C34.4062 39.8713 34.7479 39.6878 36.2024 38.2142C37.9925 36.4004 37.9935 36.4552 36.1419 34.5888C34.6232 33.0579 34.4483 32.9609 33.7651 33.2713ZM43.0534 37.8619C42.585 38.1004 42.4749 38.3565 42.4471 39.2713L42.4234 40.0521L42.2478 40.0944C42.1513 40.1177 41.8685 40.2269 41.6197 40.3372L41.1672 40.5375L40.6568 40.0361C40.0555 39.4453 39.9559 39.387 39.5466 39.387C38.3267 39.387 38.0691 40.5356 39.0611 41.5519L39.5915 42.0953L39.4266 42.4208C39.3359 42.5998 39.2118 42.8988 39.1508 43.0852L39.0399 43.4241L38.2651 43.4477C37.1271 43.4822 36.6414 43.8783 36.7515 44.6819C36.8486 45.3903 37.232 45.6292 38.2716 45.6292H39.0265L39.1378 45.9824C39.199 46.1766 39.3191 46.4737 39.4045 46.6425L39.5599 46.9494L39.0732 47.4328C38.0713 48.4281 38.3286 49.6136 39.5466 49.6136C39.9525 49.6136 40.0567 49.554 40.6244 48.997L41.1023 48.5282L41.557 48.7378C41.8072 48.8531 42.1044 48.9659 42.2176 48.9886L42.4236 49.0298L42.4475 49.7699C42.483 50.8715 42.8885 51.3574 43.6815 51.2487C44.3612 51.1555 44.5849 50.8196 44.6288 49.8262L44.6621 49.0759L45.1066 48.9208C45.3511 48.8356 45.6517 48.7035 45.7747 48.6276L45.9984 48.4893L46.4569 48.9515C47.4272 49.9292 48.6132 49.6554 48.6132 48.4536C48.6132 48.0483 48.5534 47.9433 48.0013 47.3805C47.5376 46.9078 47.5372 46.907 47.6485 46.7371C47.7098 46.6435 47.831 46.3634 47.9177 46.1146L48.0756 45.6624L48.8259 45.6292C49.8193 45.5852 50.1552 45.3615 50.2484 44.6819C50.3556 43.8992 49.8772 43.4927 48.7864 43.4398L48.0594 43.4046L47.9973 43.2054C47.9632 43.0958 47.8436 42.8028 47.7316 42.5544L47.5278 42.1026L47.9967 41.6247C48.5536 41.057 48.6132 40.9528 48.6132 40.5469C48.6132 39.329 47.4277 39.0717 46.4325 40.0736L45.9491 40.5602L45.6421 40.4048C45.4733 40.3194 45.1762 40.1994 44.982 40.1382L44.6288 40.0268V39.2719C44.6288 37.9969 43.9613 37.3994 43.0534 37.8619ZM44.5142 42.3267C46.0988 43.0521 46.4734 45.0184 45.2612 46.248C43.7262 47.805 41.1353 46.7257 41.1453 44.5335C41.1533 42.7771 42.9406 41.6062 44.5142 42.3267Z" fill="white"/>
</svg>
