<svg width="70" height="71" viewBox="0 0 70 71" fill="none" xmlns="http://www.w3.org/2000/svg">
<rect y="0.5" width="70" height="70" rx="35" fill="white"/>
<rect x="5" y="5.5" width="60" height="60" rx="30" fill="#1667B2"/>
<g clip-path="url(#clip0_1375_2395)">
<path fill-rule="evenodd" clip-rule="evenodd" d="M20.002 18.6996C19.2118 18.9845 18.6251 19.5158 18.2466 20.2893L18.0332 20.7255V33.5087V46.2919L18.2603 46.7567C18.5575 47.3649 19.0851 47.8926 19.6933 48.1897L20.1582 48.4169L23.2792 48.4359L26.4003 48.4549L27.5957 49.6396C29.2658 51.2947 29.3987 51.3232 30.4938 50.2605L31.144 49.6296L31.5613 49.7963L31.9785 49.9631L32.0117 50.9165C32.0667 52.4968 31.9423 52.4335 35 52.4335C38.0577 52.4335 37.9332 52.4968 37.9882 50.9165L38.0215 49.9631L38.4386 49.7963L38.8559 49.6296L39.5062 50.2605C40.6012 51.3232 40.7342 51.2947 42.4042 49.6396L43.5996 48.4549L46.7207 48.4359L49.8417 48.4169L50.3066 48.1897C50.9149 47.8926 51.4425 47.3649 51.7396 46.7567L51.9667 46.2919V33.5087V20.7255L51.7396 20.2606C51.4425 19.6524 50.9149 19.1248 50.3066 18.8276L49.8417 18.6005L35.0996 18.5859C20.6829 18.5717 20.3495 18.5743 20.002 18.6996ZM49.4766 20.7375C49.9787 21.0504 49.9721 21.0101 49.9947 23.9295L50.0149 26.536H35H19.9851L20.0052 23.9295C20.0274 21.0625 20.0316 21.034 20.4698 20.7638C20.7718 20.5777 21.1998 20.5724 35.1328 20.5825L49.2441 20.5926L49.4766 20.7375ZM22.4918 22.6777C21.6359 23.2419 22.0231 24.5429 23.0468 24.5429C23.6806 24.5429 24.042 24.1815 24.042 23.5477C24.042 22.914 23.6806 22.5525 23.0468 22.5525C22.8005 22.5525 22.6198 22.5933 22.4918 22.6777ZM26.4762 22.6777C25.8694 23.0778 25.8694 24.0177 26.4762 24.4178C26.903 24.6991 27.6113 24.5426 27.9013 24.1028C28.3383 23.4399 27.8402 22.5525 27.0312 22.5525C26.7849 22.5525 26.6042 22.5933 26.4762 22.6777ZM30.4605 22.6777C30.1504 22.8821 30.0204 23.1392 30.0204 23.5477C30.0204 24.5715 31.3214 24.9586 31.8857 24.1028C32.3226 23.4399 31.8246 22.5525 31.0156 22.5525C30.7693 22.5525 30.5886 22.5933 30.4605 22.6777ZM40.4214 22.6777C40.1114 22.8821 39.9813 23.1392 39.9813 23.5477C39.9813 23.9562 40.1114 24.2134 40.4214 24.4178C40.6011 24.5363 40.7911 24.5429 43.9648 24.5429C47.6827 24.5429 47.5208 24.5614 47.8232 24.1028C48.1045 23.676 47.9479 22.9676 47.5081 22.6777C47.214 22.4838 40.7155 22.4838 40.4214 22.6777ZM49.9924 37.1112C49.9748 45.5602 49.9725 45.6976 49.8417 45.9146C49.535 46.4238 49.5432 46.4223 46.7539 46.4442L44.2636 46.4636L43.7064 45.9021L43.1493 45.3406L43.3174 44.9198L43.4856 44.4989L44.439 44.4657C46.0193 44.4106 45.9561 44.5351 45.9561 41.4775C45.9561 38.4198 46.0193 38.5442 44.439 38.4891L43.4856 38.456L43.3188 38.0387L43.1521 37.6214L43.7831 36.9713C44.8767 35.8442 44.86 35.7865 42.8445 33.75C40.7345 31.618 40.6446 31.5895 39.5085 32.6919L38.8559 33.3253L38.4386 33.1585L38.0215 32.9917L37.9882 32.0383C37.9332 30.4581 38.0577 30.5213 35 30.5213C31.9423 30.5213 32.0667 30.4581 32.0117 32.0383L31.9785 32.9917L31.5613 33.1585L31.144 33.3253L30.4938 32.6943C29.3668 31.6006 29.309 31.6175 27.2726 33.6329C25.1406 35.7429 25.1121 35.8327 26.2145 36.9688L26.8478 37.6214L26.6811 38.0387L26.5143 38.456L25.5609 38.4891C23.9807 38.5442 24.0438 38.4198 24.0438 41.4775C24.0438 44.5351 23.9807 44.4106 25.5609 44.4657L26.5143 44.4989L26.6825 44.9198L26.8507 45.3406L26.2935 45.9021L25.7363 46.4636L23.2461 46.4442C20.4567 46.4223 20.465 46.4238 20.1582 45.9146C20.0275 45.6976 20.0251 45.5602 20.0076 37.1112L19.9897 28.5282H35H50.0102L49.9924 37.1112ZM36.0074 33.3811L36.0292 34.2497L36.2723 34.4723C36.4292 34.6159 36.6763 34.7431 36.9696 34.8311C37.2194 34.9059 37.7375 35.1172 38.1208 35.3004C39.1468 35.7909 39.3455 35.7609 40.1146 34.9994L40.614 34.5051L41.2936 35.187L41.9733 35.869L41.5031 36.3324C40.7035 37.1207 40.6701 37.3288 41.1767 38.3648C41.3598 38.7394 41.5711 39.2519 41.6461 39.5039C41.735 39.8023 41.8602 40.0468 42.0052 40.2051L42.2277 40.4481L43.0962 40.47L43.9648 40.4919V41.4774V42.463L43.0962 42.4848L42.2277 42.5067L42.0052 42.7497C41.8602 42.908 41.735 43.1526 41.6461 43.4509C41.5711 43.7029 41.3598 44.2155 41.1767 44.59C40.6701 45.6261 40.7035 45.8341 41.5031 46.6224L41.9733 47.0858L41.2936 47.7678L40.614 48.4498L40.1146 47.9593C39.3128 47.1717 39.1499 47.1469 38.1126 47.6542C37.7381 47.8373 37.2254 48.0486 36.9735 48.1236C36.6751 48.2124 36.4305 48.3377 36.2723 48.4826L36.0292 48.7052L36.0074 49.5737L35.9855 50.4422H34.9947H34.0039V49.6044V48.7665L33.7534 48.516C33.5688 48.3314 33.38 48.2288 33.0356 48.1263C32.7786 48.0498 32.2619 47.8373 31.8874 47.6542C30.85 47.1469 30.6872 47.1717 29.8853 47.9593L29.386 48.4498L28.7063 47.7678L28.0267 47.0858L28.4968 46.6224C29.2965 45.8341 29.3299 45.6261 28.8232 44.59C28.6401 44.2155 28.4288 43.7029 28.3538 43.4509C28.2649 43.1526 28.1397 42.908 27.9948 42.7497L27.7722 42.5067L26.9037 42.4848L26.0351 42.463V41.4775V40.4919L26.9037 40.47L27.7722 40.4481L27.9948 40.2051C28.1397 40.0468 28.2649 39.8023 28.3538 39.5039C28.4288 39.2519 28.6401 38.7394 28.8232 38.3648C29.3305 37.3275 29.3056 37.1646 28.5181 36.3628L28.0276 35.8635L28.7095 35.1838L29.3916 34.5041L29.8549 34.9742C30.6407 35.7712 30.8302 35.8018 31.8791 35.3004C32.2625 35.1172 32.7805 34.9059 33.0303 34.8311C33.3236 34.7431 33.5707 34.6159 33.7276 34.4723L33.9707 34.2497L33.9925 33.3811L34.0144 32.5126H35H35.9855L36.0074 33.3811ZM33.7501 36.6261C29.9985 37.5476 28.7344 42.2837 31.5068 45.0317C34.2389 47.7398 38.9123 46.4402 39.8485 42.7119C40.7701 39.042 37.4409 35.7196 33.7501 36.6261ZM36.2153 38.8045C38.0752 39.6782 38.5084 42.0968 37.0639 43.5413C35.9056 44.6996 34.0944 44.6996 32.9361 43.5413C30.6587 41.2639 33.3072 37.4382 36.2153 38.8045Z" fill="white"/>
</g>
<defs>
<clipPath id="clip0_1375_2395">
<rect width="34" height="34" fill="white" transform="translate(18 18.5)"/>
</clipPath>
</defs>
</svg>
