<svg width="110" height="110" viewBox="0 0 110 110" fill="none" xmlns="http://www.w3.org/2000/svg">
<g clip-path="url(#clip0_1188_2364)">
<path fill-rule="evenodd" clip-rule="evenodd" d="M6.23042 0.393425C-4.04606 4.21565 -0.618455 19.7127 10.2044 18.3603L11.3099 18.2222L13.7115 23.2685C16.5344 29.1994 16.4104 28.5314 14.8794 29.5478C2.68127 37.6471 2.30452 55.6679 14.1317 65.3154L15.0508 66.0648L13.5072 68.858C12.6583 70.3941 11.9424 71.6792 11.9169 71.7136C11.891 71.7479 11.2841 71.6819 10.5683 71.5667C0.67597 69.9736 -4.17173 83.5746 4.47784 88.6541C13.3411 93.859 23.0359 82.1936 16.1002 74.6693L15.2543 73.7516L16.8911 70.8083C18.1893 68.4727 18.5999 67.8946 18.8779 68.0099C25.6281 70.8072 33.3372 70.1626 39.3049 66.3018C40.587 65.4724 40.9288 65.3352 41.1353 65.5659C41.275 65.7221 42.8585 67.4637 44.6542 69.436L47.9193 73.022L47.3025 73.7329C43.7954 77.7748 41.9191 83.3054 42.1506 88.92L42.2455 91.227L38.1491 92.1942L34.0527 93.1614L33.6815 92.4692C32.1877 89.6845 28.1369 87.5965 24.9365 87.9614C13.0155 89.3207 14.0828 106.764 26.0593 106.315C30.8842 106.134 34.141 102.973 34.9157 97.72L35.0317 96.9335L38.4095 96.1448C40.2672 95.7109 42.1116 95.2723 42.5084 95.1697C43.1373 95.0072 43.2443 95.0393 43.3444 95.4227C44.1449 98.4834 47.5808 103.158 50.8241 105.599C65.3989 116.569 86.179 106.213 86.1809 87.979C86.1814 84.3729 85.7376 82.435 83.8635 77.8568C83.7835 77.6613 93.8443 70.8987 94.215 70.899C94.2766 70.899 94.8096 71.2309 95.3995 71.6368C104.555 77.9349 115.102 65.9501 107.558 57.8203C101.552 51.3479 90.2138 56.8011 91.7246 65.4359C91.8473 66.1363 91.9729 66.889 92.004 67.1084C92.0475 67.4156 90.8487 68.297 86.8071 70.9298L81.5532 74.3519L80.4064 73.0644C79.0972 71.5945 76.3106 69.4236 74.6862 68.6077C74.0801 68.3033 73.5625 68.0363 73.5359 68.014C73.4811 67.9683 82.2668 43.5604 82.3782 43.4491C82.4186 43.4089 83.3083 43.5373 84.3555 43.7345C103.19 47.2815 117.013 25.7151 106.251 9.57155C100.301 0.645051 88.1208 -2.5939 78.3107 2.14188C74.3969 4.03113 70.4558 7.80907 68.6205 11.4305C67.991 12.673 68.3518 12.6691 65.0744 11.4696L62.3642 10.4779L62.3552 9.04107C62.2853 -2.11952 45.5928 -3.2627 44.0616 7.78818C42.7532 17.2303 55.3504 22.4292 60.6438 14.6313L60.9939 14.1156L63.7439 15.1439C65.2567 15.7095 66.5305 16.2032 66.5745 16.2414C66.6188 16.2793 66.498 17.09 66.3061 18.0426C65.7096 21.0022 65.9277 25.2273 66.847 28.5278C66.91 28.7539 47.6383 37.1744 47.0756 37.1667C47.003 37.1656 46.5399 36.513 46.0468 35.7164C41.1928 27.8745 31.1941 23.9562 22.0311 26.3053C20.8546 26.6067 19.8272 26.7816 19.7478 26.6936C19.6686 26.6056 18.5397 24.2939 17.2398 21.5566L14.8759 16.5794L15.8763 15.5137C22.3432 8.62582 15.0084 -2.87165 6.23042 0.393425ZM11.0712 4.1788C15.4338 6.00178 15.658 11.9495 11.4411 13.9911C8.03195 15.6413 3.86404 13.0591 3.86844 9.2993C3.87284 5.50952 7.71625 2.77713 11.0712 4.1788ZM55.3223 4.27588C60.0658 6.47697 59.2488 13.2711 54.1013 14.4278C51.0659 15.1098 47.8352 12.3721 47.864 9.14282C47.8984 5.34617 51.942 2.70755 55.3223 4.27588ZM91.6936 4.20795C104.714 6.88398 110.448 22.2999 102.417 33.0373L101.891 33.7399L101.333 32.6075C100.253 30.416 98.0092 28.153 95.8804 27.1083L94.7587 26.5577L95.3029 25.8444C101.233 18.069 92.5485 7.58963 83.7793 11.9396C78.7826 14.4184 77.1705 21.6575 80.6853 25.8345L81.2405 26.4942L79.9904 27.1495C78.3313 28.0191 75.4699 30.8975 74.7827 32.388C74.1543 33.7506 74.087 33.76 73.2427 32.6031C63.5949 19.3841 75.6049 0.90135 91.6936 4.20795ZM90.1269 15.3375C93.5704 16.9682 94.3905 21.003 91.85 23.8152C89.372 26.558 84.7985 25.843 83.2263 22.4668C81.1415 17.9896 85.7258 13.2532 90.1269 15.3375ZM30.7527 29.7741C43.6835 32.2227 49.8242 46.9039 42.49 57.836L41.3804 59.4898L40.7278 58.1583C39.8962 56.461 37.0937 53.61 35.5113 52.8516C34.2683 52.2557 34.1924 52.1121 34.7815 51.4694C38.1095 47.8378 36.927 40.9265 32.4924 38.0899C23.8444 32.558 13.9167 43.3292 20.135 51.4967L20.6569 52.1825L19.8352 52.6019C17.4592 53.8152 15.293 55.9734 14.1207 58.2949L13.5963 59.3333L12.9159 58.5097C2.79512 46.2568 14.8907 26.7706 30.7527 29.7741ZM91.5665 29.6721C94.6715 30.3219 97.7768 33.2309 98.4792 36.1478C98.8573 37.7181 92.4492 40.1763 87.9786 40.1763C83.787 40.1763 77.3407 37.7929 77.5107 36.306C78.0634 31.4706 84.851 28.2671 91.5665 29.6721ZM69.2412 33.6772C71.1084 36.6843 74.0619 39.5091 77.0743 41.1682C77.8723 41.6079 78.5565 41.9905 78.5945 42.0185C78.6764 42.0782 70.0739 65.9831 69.8266 66.383C69.6905 66.6035 69.4342 66.5991 68.5055 66.3607C63.7159 65.1309 55.6974 66.7597 51.6907 69.7762L50.8522 70.4076L47.3319 66.5441C44.2244 63.133 43.8444 62.6369 44.0886 62.3086C44.2406 62.1042 44.8225 61.3263 45.3816 60.5799C49.0509 55.6805 50.4603 48.7005 49.0025 42.648C48.7748 41.7031 48.6186 40.9001 48.6552 40.8632C48.7407 40.778 68.1689 32.4865 68.3436 32.4609C68.4153 32.4504 68.8193 32.9977 69.2412 33.6772ZM29.7558 41.0189C31.8412 41.9349 33.17 44.5408 32.6997 46.7925C31.6363 51.8866 24.8218 52.7174 22.6342 48.0196C20.5571 43.5596 25.1845 39.0108 29.7558 41.0189ZM32.3978 55.7658C34.4751 56.5358 36.2362 58.1379 37.2647 60.1938C38.3059 62.2753 38.2896 62.3451 36.5123 63.4009C30.7678 66.8136 23.083 66.617 17.6844 62.9191L16.7846 62.3031L17.105 61.3628C18.9186 56.0399 26.0733 53.4214 32.3978 55.7658ZM102.568 59.1029C105.146 59.819 106.882 63.5351 105.822 66.0717C103.538 71.5384 95.5248 70.033 95.5248 64.137C95.5248 60.5213 98.9244 58.0914 102.568 59.1029ZM69.3946 70.5798C81.1181 74.2378 86.0189 87.9562 79.2286 98.1083C77.9625 100.001 78.1641 99.9764 77.3119 98.3451C76.4277 96.6528 73.7954 93.9968 72.1562 93.1429L70.9432 92.511L71.4494 91.8471C76.0582 85.8048 71.701 76.9146 64.1308 76.9146C56.5609 76.9146 52.2038 85.8048 56.8125 91.8471L57.3188 92.511L56.1058 93.1399C54.4825 93.9814 51.6142 96.8684 50.9341 98.3451C50.2997 99.7229 50.2466 99.7264 49.3221 98.4526C41.5124 87.6924 47.9386 72.5892 61.4455 69.9591C62.9904 69.6582 67.5931 70.0176 69.3946 70.5798ZM11.5624 75.9915C16.5726 78.3556 14.7037 85.9687 9.11297 85.9687C4.47977 85.9687 2.09002 80.2287 5.36142 76.9573C7.11812 75.2006 9.19932 74.8766 11.5624 75.9915ZM66.5299 81.3897C70.5196 83.425 70.3722 89.1134 66.2808 91.0188C62.8282 92.6265 58.8242 90.0137 58.8242 86.1527C58.8242 82.1993 63.0259 79.6022 66.5299 81.3897ZM28.0726 92.4238C29.8224 93.2978 30.9683 95.1823 30.9683 97.1865C30.9683 101.741 25.5164 104.182 22.1807 101.122C17.5816 96.9027 22.5005 89.6411 28.0726 92.4238ZM67.7067 95.701C71.0138 96.402 73.9272 99.1572 74.6485 102.266C75.0401 103.954 68.2204 106.27 63.4057 106.084C59.1377 105.919 53.4966 103.705 53.663 102.259C54.2215 97.4071 60.9444 94.2677 67.7067 95.701Z" fill="#1466B1"/>
</g>
<defs>
<clipPath id="clip0_1188_2364">
<rect width="110" height="110" fill="white"/>
</clipPath>
</defs>
</svg>
