<svg width="110" height="110" viewBox="0 0 110 110" fill="none" xmlns="http://www.w3.org/2000/svg">
<g clip-path="url(#clip0_1199_2131)">
<path fill-rule="evenodd" clip-rule="evenodd" d="M17.2881 0.58433C8.19307 3.73143 6.37944 14.4933 13.2063 24.8044L14.1955 26.2985L13.7043 26.9502C11.2255 30.2381 7.68459 36.5552 6.75977 39.3398C5.89104 41.9553 8.61657 43.2723 9.81749 40.8174C10.0768 40.2872 10.918 38.5481 11.6869 36.9528C12.4556 35.3575 13.7901 32.9895 14.6525 31.6901L16.2206 29.3279L16.3281 34.3758C16.4565 40.409 16.6127 40.8872 18.7462 41.7785C20.7793 42.628 21.7464 42.2691 26.5556 38.8797C30.8583 35.8473 31.5249 35.6639 38.2264 35.6639C45.8307 35.6636 46.0694 35.5561 52.4821 29.2311C58.0319 23.7575 58.3313 23.3054 58.328 20.4099C58.3253 17.9921 57.9829 17.303 55.1719 14.0552C51.513 9.8279 51.5251 9.77153 56.0571 9.94973C66.2084 10.3496 75.5263 13.4744 83.182 19.0473L84.1866 19.7782L83.6682 20.6849C82.1642 23.3145 81.6764 27.9763 82.5946 30.9372C82.8338 31.708 83.0225 33.3891 83.1372 35.7711C83.3495 40.1728 83.4941 40.6909 86.2262 46.8347C88.4543 51.8452 89.4437 53.3299 91.4782 54.7162C94.8585 57.0196 98.4019 57.1282 103.071 55.072C103.279 54.9807 103.34 55.614 103.34 57.8545C103.34 93.2967 67.3758 116.731 35.0919 102.326C15.414 93.5451 3.47819 71.2371 7.29932 50.3805C8.07619 46.1397 8.07124 46.2937 7.44864 45.6711C5.93092 44.1534 4.74539 45.1844 4.11784 48.5674C-2.89466 86.3761 31.5133 118.155 68.75 108.261C97.5037 100.621 113.926 69.0384 103.801 40.854L103.002 38.6322L104.248 36.1275C106.442 31.7141 107.186 27.1298 106.273 23.6568C104.098 15.3909 93.9642 11.6737 87.2756 16.6892L86.5727 17.2161L85.7717 16.5844C72.5488 6.15885 51.4286 3.57716 35.2344 10.4068L33.5888 11.1009L33.2379 9.60625C31.5353 2.35203 24.1887 -1.8035 17.2881 0.58433ZM24.1926 3.89945C32.4068 6.92968 31.8983 17.3167 23.0505 27.231C21.2921 29.2017 21.2275 29.1953 19.2118 26.8631C13.3644 20.0972 11.1144 13.1329 13.2803 8.50433C15.2031 4.395 20.0225 2.36138 24.1926 3.89945ZM18.7415 6.14868C15.2322 7.42936 13.3705 12.2773 15.103 15.6224C18.5757 22.3267 28.5967 19.6594 28.0951 12.1643C27.786 7.54898 23.1225 4.54955 18.7415 6.14868ZM23.2521 9.78555C25.4001 11.3748 25.0838 14.5128 22.6575 15.6873C19.6903 17.1237 16.4818 13.3872 18.4269 10.7604C19.5712 9.21493 21.8564 8.7532 23.2521 9.78555ZM49.2899 11.2431C49.4959 12.6156 50.1091 13.6039 52.3121 16.113C56.2251 20.5697 56.216 20.6131 50.1077 26.6931C44.3866 32.3878 45.0843 32.0812 37.4902 32.2407C29.7429 32.4035 29.5207 32.4791 22.7876 37.2388C19.7365 39.3956 19.5508 39.2543 19.5508 34.7759V31.9825L20.0343 32.1378C21.6799 32.6672 23.2268 32.1535 24.7302 30.578C29.1791 25.9157 32.4648 20.2383 33.1809 15.9761C33.4188 14.5604 38.8844 12.2947 45.3062 10.9499C49.2528 10.1235 49.1208 10.1136 49.2899 11.2431ZM97.9652 18.7044C105.468 22.1628 104.788 31.834 96.3614 41.5184C94.3819 43.7932 94.4809 43.7863 92.6665 41.7692C87.3639 35.8748 84.6714 29.1728 85.8118 24.7068C87.214 19.2145 92.9384 16.3875 97.9652 18.7044ZM92.4902 20.4825C84.7033 23.0626 86.5903 34.2908 94.746 33.9066C101.777 33.5755 103.74 24.024 97.4132 20.9286C96.0094 20.2416 93.8168 20.0431 92.4902 20.4825ZM96.2208 24.2195C99.1023 26.3532 97.5986 30.795 94.1083 30.4595C91.3047 30.1903 89.9891 27.0542 91.8098 24.9804C93.0275 23.5936 94.9319 23.265 96.2208 24.2195ZM58.0662 31.6756C54.2509 32.6001 50.8194 35.7277 49.5129 39.4715L49.005 40.9274L47.7353 41.0723C43.1285 41.5978 41.5217 42.8675 36.6325 49.8454C32.3075 56.018 31.6038 58.3277 32.8875 62.1379C33.3259 63.4397 33.3267 63.4821 32.9411 64.6555C31.2477 69.8084 33.542 77.4911 38.6834 83.8848L40.2295 85.8071L40.0878 88.8263C39.6588 97.9717 40.1844 99.7928 43.7574 101.541C47.1108 103.181 48.0689 102.784 58.8555 95.2828C68.9851 88.2384 68.995 88.229 74.1936 80.8109C76.5402 77.4625 76.6626 75.8395 74.5684 75.8395C73.4893 75.8395 73.315 76.0146 70.6395 79.7854C66.2065 86.0332 66.7381 85.553 55.9669 93.0347C47.6033 98.8438 47.2763 99.0255 45.9209 98.626C43.7308 97.98 43.3188 97.0392 43.3755 92.8122C43.4349 88.3954 43.3961 88.5156 44.7645 88.5142C49.132 88.5098 56.5147 76.9177 56.8733 69.5015C57.4024 58.551 45.3233 52.0528 37.0067 58.8142L35.879 59.7311L35.8809 58.7083C35.8839 57.2382 36.4988 56.0923 39.7686 51.4596C43.645 45.9681 44.4471 45.2452 47.3374 44.6391C48.8004 44.3322 48.7487 44.2838 49.0163 46.2132C49.6631 50.8821 52.3165 55.9971 56.5972 60.828C60.4769 65.206 62.6079 64.8051 67.2512 58.8222L68.7032 56.9516L73.2121 60.151C78.5339 63.9273 78.7402 64.169 78.7402 66.6319C78.7402 68.2272 78.7121 68.3157 77.7502 69.7471C76.3587 71.8181 76.2446 72.8879 77.3523 73.4808C79.4651 74.6116 82.1782 70.7445 82.1771 66.6047C82.176 62.6694 81.4976 61.7314 75.6632 57.5951C73.3381 55.9465 71.2514 54.4612 71.0267 54.294C70.6313 54.0006 70.6475 53.9209 71.5225 51.8806C72.8043 48.893 73.3216 46.5764 73.3216 43.8278C73.3213 35.632 65.9552 29.764 58.0662 31.6756ZM64.7196 35.5979C72.2356 39.158 71.3487 49.542 62.7473 58.6863L61.0618 60.4782L59.8513 59.189C54.3474 53.3271 51.4522 46.5467 52.4485 41.8511C53.625 36.306 59.6901 33.2156 64.7196 35.5979ZM58.8032 37.4775C54.0485 39.1737 52.6661 45.315 56.2471 48.8325C60.473 52.9837 67.8898 50.1718 67.8903 44.4185C67.8909 41.7023 65.0017 41.4031 64.5579 44.0737C64.0068 47.3891 60.7134 48.563 58.5821 46.2041C56.4932 43.8919 57.9901 40.819 61.2912 40.6433C63.1469 40.5443 63.8085 40.0983 63.8085 38.9466C63.8085 37.3197 61.3052 36.5851 58.8032 37.4775ZM90.6631 44.7636C93.4816 47.7617 95.6882 47.5807 98.7701 44.0984C99.6317 43.1249 100.404 42.3029 100.486 42.2724C100.807 42.1525 102.695 49.2376 102.695 50.5601C102.695 51.6444 99.6982 53.0662 97.4127 53.0662C93.2357 53.0662 91.8525 51.4269 87.714 41.572C87.6642 41.4537 88.0415 41.8404 88.5519 42.4314C89.0626 43.0221 90.0127 44.0717 90.6631 44.7636ZM47.707 60.1405C55.7249 63.1873 55.2544 73.321 46.6342 83.2389C44.7188 85.4427 44.6627 85.4499 43.109 83.691C35.2806 74.8294 33.668 66.3503 38.9375 61.7597C41.3289 59.6763 44.7991 59.0359 47.707 60.1405ZM42.9536 62.1557C35.2148 64.3425 36.6674 75.6247 44.6875 75.6247C51.9874 75.6247 54.2228 65.6364 47.6011 62.6051C46.217 61.9715 44.2714 61.7834 42.9536 62.1557ZM46.5118 65.9557C49.4948 67.799 47.9421 72.3852 44.4188 72.1388C40.9434 71.8957 40.0777 67.45 43.1835 65.7965C44.2904 65.2074 45.386 65.2597 46.5118 65.9557Z" fill="#1466B1"/>
</g>
<defs>
<clipPath id="clip0_1199_2131">
<rect width="110" height="110" fill="white"/>
</clipPath>
</defs>
</svg>
