<svg width="110" height="110" viewBox="0 0 110 110" fill="none" xmlns="http://www.w3.org/2000/svg">
<path fill-rule="evenodd" clip-rule="evenodd" d="M16.8653 2.0756C15.5717 2.7576 15.135 3.47562 11.0416 11.6541L6.87511 19.9781V34.9109V49.8437H4.27911H1.68311L1.77716 55.6981C1.88111 62.1702 2.01503 63.0041 3.52671 66.5881C5.51001 71.2909 10.1157 76.0877 14.5559 78.0746L15.4689 78.4833L15.4658 79.7934L15.4625 81.1034L14.123 81.6141C8.93541 83.5916 4.61626 88.089 2.75396 93.452C1.86736 96.0051 1.71886 97.365 1.71886 102.924V108.281H55.0001H108.281V102.924C108.281 97.365 108.133 96.0051 107.246 93.452C105.384 88.089 101.065 83.5916 95.8772 81.6141L94.5377 81.1034L94.5344 79.7934L94.5314 78.4833L95.4444 78.0765C99.8419 76.1188 104.501 71.2659 106.474 66.5881C107.985 63.0041 108.119 62.1702 108.223 55.6981L108.317 49.8437H91.2666H74.2157L72.3463 55.4833L70.4768 61.1231L70.473 55.4833L70.4689 49.8437H67.8613H65.254L65.3572 46.0921C65.4889 41.3079 65.8038 40.5228 68.6203 37.9587C77.7168 29.6782 78.0908 15.786 69.4409 7.47907C58.0735 -3.43788 39.3831 1.6642 34.9738 16.8876C34.2508 19.3838 34.2508 25.3035 34.9738 27.7996C36.1128 31.7319 37.9881 34.7423 41.2251 37.8349C44.2985 40.7714 44.6829 41.801 44.686 47.1044L44.6876 49.8437H42.1095H39.5314L39.5272 55.4833L39.5234 61.1231L37.6539 55.4833L35.7845 49.8437H33.3609H30.9376V34.9109V19.9781L26.8338 11.7614C24.5769 7.2423 22.5223 3.31777 22.2685 3.04057C21.1047 1.76952 18.3718 1.2814 16.8653 2.0756ZM57.1487 5.46717C65.331 6.1852 71.9728 13.7466 71.9728 22.3436C71.9728 27.6313 70.2684 31.1772 65.4295 35.9556C63.2567 38.1014 62.4397 39.4811 62.0132 41.7245L61.7769 42.9687H60.1976H58.6183L58.7451 41.6258C58.8149 40.8875 59.0148 38.0112 59.1895 35.2343C59.3644 32.4573 59.5643 29.5811 59.6341 28.8427L59.7609 27.4999H61.4695C64.9898 27.4999 67.022 25.6128 67.022 22.3436C67.022 15.1832 57.0351 15.3718 56.3685 22.5449L56.2274 24.0624H55.0004H53.7733L53.6496 22.5873C53.0468 15.3969 42.9782 15.1672 42.9782 22.3436C42.9782 25.6134 45.0105 27.4999 48.5324 27.4999H50.2426L50.3647 28.6279C50.4318 29.2481 50.6328 32.1727 50.811 35.1267C50.9895 38.0811 51.1927 41.0538 51.2626 41.7333L51.3899 42.9687H49.7853H48.1804L48.0399 41.9082C47.7825 39.9692 46.4006 37.6237 44.4151 35.757C35.8598 27.713 35.7732 16.3121 44.2135 9.22615C47.0977 6.8045 52.4968 4.88885 55.3224 5.2843C55.5586 5.3173 56.3806 5.39952 57.1487 5.46717ZM85.8273 5.53207C82.0235 6.88425 79.3439 10.2046 79.1096 13.8563L79.0062 15.4686H80.7302C82.5614 15.4686 82.7149 15.3787 82.7149 14.3076C82.7149 7.98975 93.606 6.69725 95.6751 12.7695C96.8711 16.2791 95.9583 18.146 91.1755 21.9732L87.6564 24.7892V28.7228V32.6561H89.3751H91.0939L91.0969 29.7021L91.0996 26.748L93.9899 24.4413C98.7378 20.6521 99.5801 19.2172 99.5801 14.9197C99.5801 10.7598 97.8091 7.88167 94.1299 6.06255C92.1254 5.07145 87.8854 4.80057 85.8273 5.53207ZM19.6024 5.74685C19.9046 6.0884 26.2112 18.5418 26.2112 18.7972C26.2112 18.8572 22.9238 18.9061 18.9064 18.9061C14.8889 18.9061 11.6018 18.8572 11.6018 18.7972C11.6015 18.5418 17.9081 6.0884 18.2103 5.74685C18.3935 5.54005 18.7067 5.37092 18.9064 5.37092C19.106 5.37092 19.4192 5.54005 19.6024 5.74685ZM49.7594 21.8288C50.3757 23.3037 50.1832 24.0624 49.1924 24.0624C47.9453 24.0624 46.8802 23.5608 46.713 22.895C46.196 20.8353 48.9427 19.8739 49.7594 21.8288ZM63.2487 21.7384C63.7261 23.0938 62.7089 24.0624 60.8078 24.0624C59.8343 24.0624 59.6548 23.4453 60.1852 21.9234C60.6701 20.5328 62.779 20.4052 63.2487 21.7384ZM17.1876 36.0936V49.8437H13.7501H10.3126V36.0936V22.3436H13.7501H17.1876V36.0936ZM27.5001 36.0936V49.8437H24.0626H20.6251V36.0936V22.3436H24.0626H27.5001V36.0936ZM56.0055 28.1981C55.9414 28.5823 55.7184 31.676 55.51 35.0731C55.3012 38.4705 55.0705 41.2499 54.9971 41.2499C54.9237 41.2499 54.6962 38.567 54.4919 35.2879C54.2876 32.0088 54.0657 28.915 53.9988 28.4129L53.877 27.4999H54.9996H56.1221L56.0055 28.1981ZM87.1193 36.5017C83.153 38.342 83.2506 44.3951 87.2736 46.0731C90.7853 47.5378 94.522 45.0515 94.522 41.2499C94.522 37.3773 90.6228 34.8762 87.1193 36.5017ZM90.4493 40.1757C90.688 40.4144 90.8791 40.8918 90.8791 41.2499C90.8791 41.6079 90.688 42.0854 90.4493 42.3241C90.2106 42.5628 89.7332 42.7539 89.3751 42.7539C89.0171 42.7539 88.5397 42.5628 88.301 42.3241C88.0623 42.0854 87.8711 41.6079 87.8711 41.2499C87.8711 40.8918 88.0623 40.4144 88.301 40.1757C88.5397 39.937 89.0171 39.7459 89.3751 39.7459C89.7332 39.7459 90.2106 39.937 90.4493 40.1757ZM61.8751 48.1249V49.8437H55.0001H48.1251V48.1249V46.4062H55.0001H61.8751V48.1249ZM15.4689 55.9522C15.4689 58.4811 15.4447 58.631 15.0154 58.7671C11.4167 59.9095 10.9897 65.0886 14.2168 68.4493L15.484 69.7691L15.4227 72.0724L15.3613 74.3759L13.9649 73.4529C8.39916 69.7745 5.58646 64.329 5.23831 56.5575L5.09146 53.2812H10.2802H15.4689V55.9522ZM34.4329 57.6374C36.3653 63.4584 36.31 64.1043 33.7756 65.2912L32.7072 65.7917L32.6107 69.0433C32.4399 74.7892 31.5033 75.6249 25.2336 75.6249H22.3439V77.3437V79.0624H24.0626H25.7814V81.5476C25.7814 83.8171 25.7486 84.0223 25.4054 83.912C25.1986 83.8455 23.676 83.2177 22.0216 82.517L19.0139 81.2429L18.957 74.5145L18.9 67.7863L17.3083 66.1734C15.6724 64.5154 15.4818 64.1381 15.7551 63.0962C15.9391 62.3952 16.9583 61.8749 18.1476 61.8749H18.9064V57.578V53.2812H25.9464H32.9864L34.4329 57.6374ZM67.0297 61.6062C67.0278 72.1943 66.8691 73.209 64.9111 75.167C63.0945 76.9837 62.8923 77.0214 55.0001 77.0214C47.1079 77.0214 46.9058 76.9837 45.0891 75.167C43.1311 73.209 42.9724 72.1943 42.9705 61.6062L42.9689 53.2812H55.0001H67.0314L67.0297 61.6062ZM91.0939 57.578V61.8749H91.8526C93.042 61.8749 94.0611 62.3952 94.2451 63.0962C94.5184 64.1381 94.3279 64.5154 92.6919 66.1734L91.1002 67.7863L91.0433 74.5145L90.9863 81.2429L87.9787 82.517C86.3243 83.2177 84.8016 83.8455 84.5948 83.912C84.2516 84.0223 84.2189 83.8171 84.2189 81.5476V79.0624H85.9376H87.6564V77.3437V75.6249H84.7667C78.4969 75.6249 77.5603 74.7892 77.3895 69.0433L77.293 65.7917L76.2246 65.2912C73.6902 64.1043 73.6349 63.4584 75.5674 57.6374L77.0139 53.2812H84.0539H91.0939V57.578ZM104.762 56.5575C104.414 64.329 101.601 69.7745 96.0353 73.4529L94.6389 74.3759L94.5776 72.0724L94.5162 69.7691L95.7834 68.4493C99.0106 65.0886 98.5835 59.9095 94.9848 58.7671C94.5556 58.631 94.5314 58.4811 94.5314 55.9522V53.2812H99.7201H104.909L104.762 56.5575ZM40.0585 74.1209C41.3043 77.0843 44.7921 80.3516 46.7097 80.3516C47.2127 80.3516 47.3042 80.7105 47.0325 81.6169C46.7809 82.4573 46.771 82.4636 44.928 82.9253C41.2982 83.8353 37.9883 85.7358 35.1919 88.5158L33.538 90.16L32.0767 88.6855C31.2728 87.8745 30.3018 86.997 29.9185 86.7355L29.2219 86.2597L29.2202 82.6886L29.2189 79.1174L30.0246 78.9835C33.8268 78.3524 35.9225 75.5639 36.0543 70.9598C36.1255 68.4733 36.183 68.1061 36.5165 68.0003C37.1683 67.7932 38.6409 66.1443 39.0416 65.1727L39.4238 64.2451L39.538 68.6996C39.6331 72.4093 39.72 73.316 40.0585 74.1209ZM72.0688 66.8719C72.382 67.1978 72.8751 67.6199 73.165 67.8097C73.6355 68.118 73.6919 68.3069 73.6957 69.5804C73.7119 74.9869 76.5763 79.0624 80.3598 79.0624C80.7618 79.0624 80.7814 79.228 80.78 82.661L80.7783 86.2597L80.0818 86.7355C79.6984 86.997 78.7304 87.8712 77.9307 88.6783L76.4765 90.1457L74.4811 88.2026C71.6244 85.4207 68.5934 83.7479 64.7511 82.8321C62.977 82.4094 61.7654 80.3516 63.2905 80.3516C64.9543 80.3516 68.2015 77.5452 69.4489 75.0293L70.3613 73.1889L70.4309 68.6839L70.5005 64.1791L70.9999 65.2294C71.2746 65.8066 71.7556 66.5461 72.0688 66.8719ZM58.131 65.8638C57.8948 66.8048 56.9356 67.0312 53.1807 67.0312H49.8439V68.7499V70.4687L53.9796 70.464C59.6803 70.4574 61.8751 69.2067 61.8751 65.9639V65.3124H60.0722C58.3161 65.3124 58.2657 65.3267 58.131 65.8638ZM59.2513 82.2312L59.7232 83.6816L57.3618 86.0435L55.0001 88.4058L52.6384 86.0435L50.277 83.6816L50.7489 82.2312L51.2205 80.7812H55.0001H58.7797L59.2513 82.2312ZM95.8206 85.6734C101.873 88.6536 104.814 94.2575 104.838 102.856L104.844 104.844H101.406H97.9689V99.6874V94.5312H96.2501H94.5314V99.6874V104.844H84.2986H74.0659L74.2069 103.781C75.0977 97.0661 79.5628 90.6933 85.5081 87.6518C87.7455 86.5069 92.946 84.4557 93.3497 84.5588C93.5862 84.619 94.6977 85.1207 95.8206 85.6734ZM16.6274 87.8033L17.3127 90.5566L22.7553 93.8423C25.7484 95.6493 28.2228 97.0996 28.2539 97.065C28.285 97.0303 28.8328 95.9567 29.471 94.6794L30.6321 92.3567L31.6523 93.7125C33.6455 96.3607 35.3951 100.573 35.7795 103.65L35.9286 104.844H25.6986H15.4689V99.6874V94.5312H13.7501H12.0314V99.6874V104.844H8.59386H5.15636L5.16186 102.856C5.18633 94.0592 8.29548 88.3453 14.6628 85.3951C16.0158 84.7684 15.8085 84.514 16.6274 87.8033ZM22.5746 86.7756C25.112 87.9078 27.7209 89.4882 27.7053 89.8837C27.7 90.0173 27.4825 90.5299 27.2218 91.0227L26.7483 91.9184L23.7403 90.1196C20.6716 88.2845 20.346 87.9653 20.0812 86.5281C19.8972 85.5299 19.7501 85.5153 22.5746 86.7756ZM50.8154 92.5927C49.9948 93.4199 49.2628 94.0252 49.1888 93.9377C49.0796 93.8087 48.5129 91.3458 47.546 86.7968C47.4602 86.3933 48.0382 86.8603 49.8697 88.6745L52.3076 91.089L50.8154 92.5927ZM61.7395 90.1509C60.7688 94.5952 60.9756 94.3975 59.1862 92.594L57.6951 91.0915L60.0428 88.7364C61.3342 87.4411 62.4224 86.4132 62.4614 86.4519C62.5002 86.4907 62.1754 88.1553 61.7395 90.1509ZM44.0191 88.0321C44.1332 88.4754 44.8295 91.593 45.5662 94.961C46.3032 98.3286 46.9891 101.178 47.0903 101.292C47.2017 101.419 48.7978 99.9789 51.1372 97.6422L55.0001 93.7837L58.863 97.6422C61.2025 99.9789 62.7986 101.419 62.9099 101.292C63.0111 101.178 63.697 98.3286 64.434 94.961C66.2506 86.6582 66.0986 87.1768 66.6667 87.3418C67.7989 87.6704 70.5786 89.5754 71.9646 90.9721C74.279 93.3044 74.2102 93.1204 73.3423 94.6728C71.9767 97.1148 70.4823 102.047 70.4722 104.145L70.4689 104.844H55.0001H39.5314L39.5281 104.145C39.5179 102.023 38.0222 97.112 36.6252 94.6139L35.8505 93.2288L37.9595 91.1322C39.5666 89.5344 40.4776 88.8216 41.7872 88.1377C43.8808 87.044 43.7661 87.0495 44.0191 88.0321Z" fill="#1466B1"/>
</svg>
