<svg width="110" height="115" viewBox="0 0 110 115" fill="none" xmlns="http://www.w3.org/2000/svg">
<path fill-rule="evenodd" clip-rule="evenodd" d="M53.8066 0.403428C53.6061 0.62526 52.7785 2.84789 51.9676 5.34235L50.4938 9.87784H45.5934C40.1005 9.87784 39.5103 10.0301 39.5103 11.4473C39.5103 12.5588 39.7094 12.7588 43.6914 15.6386C45.8365 17.19 47.5919 18.5543 47.5919 18.6698C47.5919 18.7856 46.9333 20.8959 46.1287 23.3596C44.5911 28.0664 44.5196 28.6689 45.4224 29.3014C46.3787 29.9712 46.9382 29.7192 50.9148 26.8267C53.0368 25.2834 54.8753 24.0208 55 24.0208C55.1247 24.0208 56.9632 25.2834 59.0852 26.8267C63.0618 29.7192 63.6213 29.9712 64.5776 29.3014C65.4902 28.6623 65.4184 28.0537 63.8744 23.3349C63.0679 20.8703 62.4081 18.7658 62.4081 18.658C62.4081 18.5506 63.9991 17.3164 65.9439 15.9159C70.2702 12.8005 70.4897 12.5913 70.4897 11.5881C70.4897 10.0092 70.0225 9.87784 64.4055 9.87784H59.5042L58.0416 5.35356C57.237 2.86542 56.41 0.642788 56.2034 0.414922C55.7077 -0.13305 54.2983 -0.139659 53.8066 0.403428ZM55.9698 10.1939C57.0336 13.4266 56.9074 13.3323 60.3636 13.4697L63.1903 13.582L61.5084 14.7898C58.1631 17.1923 58.2025 17.0851 59.3637 20.6511C60.303 23.536 60.4289 23.4622 57.806 21.5625C55.0345 19.5551 54.9693 19.5551 52.2254 21.5513C51.0372 22.4157 50.0252 23.1228 49.9763 23.1228C49.9275 23.1228 50.2292 22.0367 50.6467 20.7094C51.8079 17.0176 51.8596 17.1805 48.8396 15.0188L46.8319 13.582L49.7016 13.4697C53.1541 13.3346 53.0363 13.4274 54.1081 10.004C55.0204 7.09144 54.9463 7.08397 55.9698 10.1939ZM14.4148 12.7487C14.1941 12.9694 13.3803 15.1162 12.6065 17.519C11.8324 19.9221 11.1577 22.0142 11.1068 22.1686C11.0361 22.3821 9.80343 22.4493 5.95585 22.4493C0.383321 22.4493 0 22.5441 0 23.9231C0 24.9121 0.325277 25.2274 4.35216 28.1396L8.27417 30.976L6.83082 35.2929C5.27598 39.9441 5.1349 40.8292 5.8366 41.5309C6.7699 42.4642 7.45695 42.1809 11.5611 39.1726C13.6602 37.6339 15.4544 36.3733 15.5487 36.3713C15.6429 36.3693 17.4466 37.6304 19.5571 39.1738C23.7349 42.2288 24.4159 42.5007 25.3587 41.4886C26.0308 40.7671 25.9592 40.3418 24.3375 35.4265C23.524 32.9616 22.8927 30.9186 22.9343 30.887C22.976 30.8553 24.7274 29.5927 26.8265 28.0816C30.6393 25.3363 31.3197 24.6282 31.0533 23.684C30.7094 22.4665 30.6272 22.4493 25.1624 22.4493H20.0884L18.6399 17.9296C17.8428 15.4438 17.0029 13.1708 16.773 12.8786C16.2578 12.2235 15.0087 12.1548 14.4148 12.7487ZM93.2264 12.8795C92.9959 13.172 92.1586 15.4449 91.3655 17.9305L89.9233 22.4493H84.8433C79.3722 22.4493 79.2906 22.4662 78.9467 23.684C78.678 24.6357 79.3544 25.3389 83.1735 28.0787C85.2726 29.5847 87.0229 30.8441 87.0631 30.878C87.1033 30.9117 86.472 32.9697 85.66 35.4512C84.0155 40.4769 83.9646 40.7979 84.7034 41.4918C85.7117 42.4392 86.2895 42.2061 90.4518 39.1738C92.5701 37.6304 94.3752 36.3693 94.4628 36.3713C94.5508 36.3733 96.3398 37.6339 98.4389 39.1726C102.458 42.1185 103.05 42.3751 104.113 41.6306C104.897 41.0815 104.748 40.0134 103.265 35.5819C102.525 33.3673 101.918 31.3915 101.918 31.1918C101.918 30.9792 103.505 29.6835 105.742 28.0692C109.668 25.2366 110 24.913 110 23.9231C110 22.545 109.615 22.4493 104.06 22.4493H99.0184L97.5001 17.7974C96.6654 15.2389 95.8025 12.966 95.5829 12.7464C94.9907 12.1542 93.7413 12.2249 93.2264 12.8795ZM17.6109 25.3412C17.8946 25.6253 18.6103 25.7288 20.9014 25.8167L23.8291 25.9288L21.5692 27.5675C18.7592 29.6045 18.7546 29.6189 19.8264 32.8628C20.8278 35.894 20.9206 35.8305 18.2874 33.9147C15.4311 31.8369 15.6912 31.8068 11.7545 34.6791L10.3767 35.6845L11.1373 33.3389C12.3646 29.5542 12.3818 29.6117 9.34597 27.4175L7.13081 25.8167H10.0755C13.6898 25.8167 13.5605 25.9144 14.7047 22.3114L15.5518 19.6431L16.4001 22.3105C16.8667 23.7774 17.4115 25.1412 17.6109 25.3412ZM95.3197 22.3674C96.4349 25.9075 96.3134 25.8167 99.9273 25.8167H102.875L100.657 27.4241C97.6153 29.6284 97.6547 29.4996 98.859 33.2943L99.6158 35.679L98.2415 34.6765C94.3114 31.8082 94.5884 31.8404 91.7333 33.9228C89.0915 35.8494 89.1693 35.9026 90.1736 32.8628C91.2454 29.6189 91.2408 29.6045 88.4308 27.5675L86.1709 25.9288L89.1265 25.8167C92.687 25.6814 92.5293 25.8064 93.6244 22.2513C94.0473 20.8786 94.4166 19.7554 94.4453 19.7554C94.4738 19.7554 94.8674 20.9309 95.3197 22.3674ZM50.2858 35.494C22.1999 38.6744 6.31101 70.0033 20.2407 94.7352C35.9288 122.589 76.5542 121.457 90.8009 92.7675C104.802 64.5721 81.7153 31.9355 50.2858 35.494ZM58.3996 38.8491C89.1762 41.9783 102.473 79.2533 80.5765 101.018C62.4009 119.084 31.6203 113.002 21.4565 89.3357C10.6922 64.2713 31.3102 36.0946 58.3996 38.8491ZM51.1837 42.1205C18.8241 46.2126 10.8402 89.8285 39.7493 104.585C66.3341 118.155 95.8783 92.7089 86.4234 64.385C81.5926 49.9131 66.2442 40.216 51.1837 42.1205ZM60.5222 45.9103C83.9977 50.6286 92.8023 79.1148 76.0022 95.9938C60.2878 111.782 33.8058 105.494 26.7365 84.2953C19.7 63.1951 38.7629 41.5372 60.5222 45.9103ZM54.8667 52.0601C53.3084 52.7679 52.6438 53.8457 50.2861 59.4901C49.0738 62.3917 47.9678 64.8919 47.8281 65.0462C47.4051 65.5135 45.8506 65.404 45.6891 64.8954C44.5612 61.3412 37.9905 61.9328 36.8678 65.6896C36.3644 67.3752 36.492 91.6876 37.0106 92.829C38.5399 96.1953 43.0501 96.6654 45.2273 93.685L45.908 92.7531L57.4695 92.6778C73.4264 92.5738 72.0383 93.5606 74.7902 80.3679C76.6309 71.544 76.7191 70.5113 75.7939 68.6205C74.3781 65.7264 73.1109 65.2382 66.766 65.1413L61.8073 65.0661L62.4788 62.8954C64.7115 55.6767 60.4041 49.5453 54.8667 52.0601ZM58.3341 55.5681C60.0473 57.0094 60.0797 59.1148 58.4628 63.8813C56.8132 68.7441 56.7451 68.6944 65.0115 68.6944C74.1715 68.6944 73.7758 68.0088 71.3762 79.7159C69.1731 90.4632 70.8573 89.3466 56.852 89.3469L46.2448 89.3475V79.0208V68.6944L47.0867 68.693C50.0056 68.6886 50.4639 68.151 53.2107 61.5107C55.9856 54.802 56.5902 54.1006 58.3341 55.5681ZM42.3265 66.3269L42.8777 66.8778V79.0208L42.8774 91.1638L42.3265 91.7146C41.6134 92.4278 41.0053 92.4126 40.4188 91.6672C39.9522 91.0736 39.9485 90.9641 40.0097 78.8513L40.0714 66.6338L40.6013 66.2048C41.3016 65.6382 41.6634 65.6637 42.3265 66.3269Z" fill="#1466B1"/>
</svg>
