<svg width="12" height="18" viewBox="0 0 12 18" fill="none" xmlns="http://www.w3.org/2000/svg">
<path d="M6 0C2.89331 0 0.375 2.51831 0.375 5.625C0.375 11.25 6 18 6 18C6 18 11.625 11.25 11.625 5.625C11.625 2.51831 9.10669 0 6 0ZM6 9.07031C4.09706 9.07031 2.55469 7.52794 2.55469 5.625C2.55469 3.72206 4.09706 2.17969 6 2.17969C7.90294 2.17969 9.44531 3.72206 9.44531 5.625C9.44531 7.52794 7.90294 9.07031 6 9.07031ZM3.82031 5.625C3.82031 4.42125 4.79625 3.44531 6 3.44531C7.20375 3.44531 8.17969 4.42125 8.17969 5.625C8.17969 6.82875 7.20375 7.80469 6 7.80469C4.79625 7.80469 3.82031 6.82875 3.82031 5.625Z" fill="#EAEAEA"/>
</svg>
