<svg width="15" height="21" viewBox="0 0 15 21" fill="none" xmlns="http://www.w3.org/2000/svg">
<path d="M7.5 0C3.87553 0 0.9375 2.93803 0.9375 6.5625C0.9375 13.125 7.5 21 7.5 21C7.5 21 14.0625 13.125 14.0625 6.5625C14.0625 2.93803 11.1245 0 7.5 0ZM7.5 10.582C5.27991 10.582 3.48047 8.78259 3.48047 6.5625C3.48047 4.34241 5.27991 2.54297 7.5 2.54297C9.72009 2.54297 11.5195 4.34241 11.5195 6.5625C11.5195 8.78259 9.72009 10.582 7.5 10.582ZM4.95703 6.5625C4.95703 5.15812 6.09562 4.01953 7.5 4.01953C8.90438 4.01953 10.043 5.15812 10.043 6.5625C10.043 7.96688 8.90438 9.10547 7.5 9.10547C6.09562 9.10547 4.95703 7.96688 4.95703 6.5625Z" fill="#FC721E"/>
</svg>
