<svg width="74" height="54" viewBox="0 0 74 54" fill="none" xmlns="http://www.w3.org/2000/svg">
<rect width="74" height="54" rx="3" fill="#FC721E"/>
<path d="M28.1889 24.6206C30.5014 29.1007 33.8977 32.497 38.3778 34.8095L41.774 31.4132C42.2561 30.9312 42.7859 30.8109 43.3635 31.0525C45.0984 31.6311 46.9294 31.9204 48.8565 31.9204C49.2902 31.9204 49.6514 32.0648 49.9403 32.3536C50.2291 32.6424 50.3735 33.0037 50.3735 33.4374V38.8579C50.3735 39.2916 50.2291 39.6529 49.9403 39.9417C49.6514 40.2305 49.2902 40.3749 48.8565 40.3749C41.6302 40.3749 35.4517 37.8096 30.321 32.6789C25.1903 27.5483 22.625 21.3698 22.625 14.1435C22.625 13.7097 22.7694 13.3485 23.0582 13.0597C23.347 12.7709 23.7083 12.6265 24.142 12.6265H29.5625C29.9962 12.6265 30.3575 12.7709 30.6463 13.0597C30.9351 13.3485 31.0795 13.7097 31.0795 14.1435C31.0795 16.0705 31.3688 17.9015 31.9475 19.6364C32.1407 20.2623 32.0204 20.7922 31.5867 21.2259L28.1889 24.6206Z" fill="white"/>
</svg>
