<svg width="18" height="19" viewBox="0 0 18 19" fill="none" xmlns="http://www.w3.org/2000/svg">
<path d="M12.9743 11.4C11.8072 12.6667 11.8072 13.9333 10.64 13.9333C9.47289 13.9333 8.30574 12.6667 7.1386 11.4C5.97146 10.1333 4.80431 8.86667 4.80431 7.6C4.80431 6.33333 5.97146 6.33333 7.1386 5.06667C8.30574 3.8 4.80431 0 3.63717 0C2.47003 0 0.135742 3.8 0.135742 3.8C0.135742 6.33333 2.53364 11.469 4.80431 13.9333C7.07499 16.3976 11.8072 19 14.1415 19C14.1415 19 17.6429 16.4667 17.6429 15.2C17.6429 13.9333 14.1415 10.1333 12.9743 11.4Z" fill="#FC721E"/>
</svg>
