<svg width="19" height="19" viewBox="0 0 19 19" fill="none" xmlns="http://www.w3.org/2000/svg">
<path d="M14.4761 16.4287C14.4761 16.2354 14.4045 16.0679 14.2614 15.9262C14.1183 15.7846 13.9485 15.7139 13.7522 15.7144C13.5559 15.7148 13.3861 15.7854 13.243 15.9262C13.0999 16.0671 13.0283 16.2346 13.0283 16.4287C13.0283 16.6229 13.0999 16.7904 13.243 16.9312C13.3861 17.0721 13.5559 17.1427 13.7522 17.1431C13.9485 17.1435 14.1183 17.0729 14.2614 16.9312C14.4045 16.7896 14.4761 16.6221 14.4761 16.4287ZM17.3717 16.4287C17.3717 16.2354 17.3001 16.0679 17.157 15.9262C17.0139 15.7846 16.8441 15.7139 16.6478 15.7144C16.4515 15.7148 16.2817 15.7854 16.1386 15.9262C15.9955 16.0671 15.9239 16.2346 15.9239 16.4287C15.9239 16.6229 15.9955 16.7904 16.1386 16.9312C16.2817 17.0721 16.4515 17.1427 16.6478 17.1431C16.8441 17.1435 17.0139 17.0729 17.157 16.9312C17.3001 16.7896 17.3717 16.6221 17.3717 16.4287ZM18.8189 13.9287V17.5C18.8189 17.7975 18.7133 18.0504 18.5022 18.2587C18.2911 18.4671 18.0348 18.5712 17.7333 18.5712H1.08553C0.784067 18.5712 0.527778 18.4671 0.316667 18.2587C0.105556 18.0504 0 17.7975 0 17.5V13.9287C0 13.6312 0.105556 13.3783 0.316667 13.17C0.527778 12.9616 0.784067 12.8575 1.08553 12.8575H5.9147C6.07303 13.2741 6.33882 13.6164 6.71207 13.8844C7.08531 14.1523 7.50183 14.2862 7.96163 14.2862H10.8566C11.3164 14.2862 11.7329 14.1523 12.1062 13.8844C12.4794 13.6164 12.7452 13.2741 12.9035 12.8575H17.7327C18.0342 12.8575 18.2905 12.9616 18.5016 13.17C18.7127 13.3783 18.8182 13.6312 18.8182 13.9287H18.8189ZM15.1436 6.69623C15.0153 6.99373 14.7928 7.14248 14.4761 7.14248H11.5811V12.1425C11.5811 12.3358 11.5096 12.5033 11.3664 12.645C11.2233 12.7866 11.0536 12.8573 10.8572 12.8569H7.96227C7.76636 12.8569 7.59662 12.7862 7.45307 12.645C7.30951 12.5037 7.23794 12.3362 7.23837 12.1425V7.14248H4.3434C4.02673 7.14248 3.80422 6.99373 3.67587 6.69623C3.54751 6.40623 3.60029 6.14956 3.8342 5.92623L8.90087 0.92623C9.0364 0.78498 9.20613 0.714355 9.41007 0.714355C9.614 0.714355 9.78373 0.78498 9.91927 0.92623L14.9859 5.92623C15.2198 6.14956 15.2726 6.40623 15.1443 6.69623H15.1436Z" fill="#252525"/>
</svg>
