<svg id="グループ_10496" data-name="グループ 10496" xmlns="http://www.w3.org/2000/svg" xmlns:xlink="http://www.w3.org/1999/xlink" width="40.869" height="41.709" viewBox="0 0 40.869 41.709">
  <defs>
    <clipPath id="clip-path">
      <rect id="長方形_8360" data-name="長方形 8360" width="40.869" height="41.709" fill="#0fa5ef"/>
    </clipPath>
  </defs>
  <g id="グループ_10495" data-name="グループ 10495" clip-path="url(#clip-path)">
    <path id="パス_2676" data-name="パス 2676" d="M21.825,126.387a1.208,1.208,0,0,0-1.7-.2l-4.29,3.384a.375.375,0,0,1-.509-.041l-.017-.018a.375.375,0,0,1,.023-.529l5.206-4.768a1.213,1.213,0,1,0-1.639-1.789l-5.2,4.767a.374.374,0,0,1-.534-.524l5.428-6.158a1.213,1.213,0,1,0-1.82-1.6l-5.2,5.9a.375.375,0,0,1-.558.005l-.084-.092a.375.375,0,0,1-.03-.468l3.755-5.339a1.213,1.213,0,0,0-1.985-1.4S9.64,121.9,8.947,122.8s-1.094,1.4-1.768,2.14c-.376.414-.975.337-.974-.442,0,0,.166-1.631.17-2.488s-.3-1.458-1.008-1.623a1.348,1.348,0,0,0-1.633,1.078,55.181,55.181,0,0,0-1.294,7.29,5.49,5.49,0,0,0,.294,2.3l-2.5,2.951a.993.993,0,0,0,.056,1.344l3.772,3.772a.993.993,0,0,0,1.344.056l3.036-2.572c1.6.594,3.2-.859,5.013-2.231,2.2-1.668,8.167-6.288,8.167-6.288a1.212,1.212,0,0,0,.2-1.7" transform="translate(0 -97.708)" fill="#0fa5ef"/>
    <path id="パス_2677" data-name="パス 2677" d="M135.714,4.063,131.942.291A.993.993,0,0,0,130.6.235l-3.037,2.572c-1.6-.594-3.2.859-5.013,2.231-2.2,1.668-8.167,6.288-8.167,6.288a1.213,1.213,0,0,0,1.5,1.9l4.291-3.384a.375.375,0,0,1,.509.041l.016.018a.375.375,0,0,1-.023.529L115.47,15.2a1.213,1.213,0,0,0,1.639,1.789l5.2-4.767a.374.374,0,0,1,.534.524l-5.427,6.158a1.213,1.213,0,1,0,1.82,1.6l5.2-5.9a.374.374,0,0,1,.557-.005l.084.092a.374.374,0,0,1,.03.468l-3.754,5.34a1.213,1.213,0,1,0,1.985,1.4s3.023-4.387,3.716-5.285,1.1-1.4,1.769-2.14c.376-.414.975-.337.973.442,0,0-.166,1.631-.169,2.488s.3,1.458,1.007,1.623a1.349,1.349,0,0,0,1.634-1.078,55.324,55.324,0,0,0,1.294-7.29,5.477,5.477,0,0,0-.295-2.3l2.5-2.951a.993.993,0,0,0-.056-1.344" transform="translate(-95.136 0)" fill="#0fa5ef"/>
    <path id="パス_2678" data-name="パス 2678" d="M16.556,21.408a1.144,1.144,0,0,0,1.086-1.5A9.5,9.5,0,0,1,26.669,7.467h1.743l-1.5,1.5a1.143,1.143,0,1,0,1.616,1.616l3.45-3.45a1.142,1.142,0,0,0,0-1.616l-3.45-3.45a1.143,1.143,0,0,0-1.616,1.616l1.5,1.5H26.669A11.787,11.787,0,0,0,15.47,20.62a1.144,1.144,0,0,0,1.086.788" transform="translate(-12.435 -1.446)" fill="#0fa5ef"/>
    <path id="パス_2679" data-name="パス 2679" d="M142.7,131.948a1.143,1.143,0,0,0-.732,1.441,9.5,9.5,0,0,1-9.025,12.444H131.2l1.5-1.5a1.143,1.143,0,0,0-1.616-1.616l-3.451,3.451a1.142,1.142,0,0,0,0,1.616l3.451,3.45a1.143,1.143,0,1,0,1.615-1.616l-1.5-1.5h1.744a11.788,11.788,0,0,0,11.2-15.438,1.143,1.143,0,0,0-1.441-.732" transform="translate(-106.309 -110.145)" fill="#0fa5ef"/>
  </g>
</svg>
