<svg xmlns="http://www.w3.org/2000/svg" xmlns:xlink="http://www.w3.org/1999/xlink" width="143.778" height="143.778" viewBox="0 0 143.778 143.778">
  <defs>
    <clipPath id="clip-path">
      <rect id="長方形_8714" data-name="長方形 8714" width="82.778" height="82.778" fill="none"/>
    </clipPath>
  </defs>
  <g id="グループ_10711" data-name="グループ 10711" transform="translate(-403.5 -2159.5)">
    <path id="パス_4117" data-name="パス 4117" d="M70.389,0a70.389,70.389,0,1,0,70.389,70.389A70.389,70.389,0,0,0,70.389,0" transform="translate(405 2161)" fill="none" stroke="#707070" stroke-width="3" fill-rule="evenodd"/>
    <g id="グループ_10710" data-name="グループ 10710" transform="translate(434 2190)">
      <g id="グループ_10709" data-name="グループ 10709" clip-path="url(#clip-path)">
        <path id="パス_6178" data-name="パス 6178" d="M22.49,56.2,19.73,53.443a2.427,2.427,0,0,0-3.431,0L.716,69.029a2.424,2.424,0,0,0,0,3.429l2.649,2.649,17.3-17.3a18.3,18.3,0,0,1,1.825-1.6" transform="translate(-0.004 -39.223)" fill="#203a72"/>
        <path id="パス_6179" data-name="パス 6179" d="M57.2,98.387a18.174,18.174,0,0,1-12.938-5.352,7.311,7.311,0,0,1,0-10.29l11.692-11.69c.066-.068.137-.135.2-.2a13.427,13.427,0,0,0-12.363,3.631l-17.3,17.3L53.011,118.3a11.72,11.72,0,0,0,15.964.576,8.931,8.931,0,0,0,7.827-6.959,8.94,8.94,0,0,0,5.683-4.042L68.83,94.223A18.164,18.164,0,0,1,57.2,98.387" transform="translate(-19.705 -52.472)" fill="#203a72"/>
        <path id="パス_6180" data-name="パス 6180" d="M257.1,69.029,241.516,53.443a2.427,2.427,0,0,0-3.431,0L235.324,56.2a18.365,18.365,0,0,1,1.825,1.6l17.3,17.3,2.645-2.648a2.428,2.428,0,0,0,0-3.43" transform="translate(-175.033 -39.223)" fill="#14a0de"/>
        <path id="パス_6181" data-name="パス 6181" d="M118.862,74.475,107.174,86.165a2.425,2.425,0,0,0,0,3.431,13.461,13.461,0,0,0,19.014,0l2.181-2.183L143.956,103l11.221-11.222-17.3-17.3a13.437,13.437,0,0,0-19.014,0" transform="translate(-79.187 -52.462)" fill="#14a0de"/>
      </g>
    </g>
  </g>
</svg>
