<svg xmlns="http://www.w3.org/2000/svg" xmlns:xlink="http://www.w3.org/1999/xlink" width="143.778" height="143.778" viewBox="0 0 143.778 143.778">
  <defs>
    <clipPath id="clip-path">
      <rect id="長方形_8711" data-name="長方形 8711" width="79.93" height="79.202" fill="none"/>
    </clipPath>
  </defs>
  <g id="グループ_10702" data-name="グループ 10702" transform="translate(-403.5 -1968.5)">
    <path id="パス_4114" data-name="パス 4114" d="M70.389,0a70.389,70.389,0,1,0,70.389,70.389A70.389,70.389,0,0,0,70.389,0" transform="translate(405 1970)" fill="none" stroke="#707070" stroke-width="3" fill-rule="evenodd"/>
    <g id="グループ_10701" data-name="グループ 10701" transform="translate(435.424 2000.788)">
      <g id="グループ_10700" data-name="グループ 10700" clip-path="url(#clip-path)">
        <path id="パス_6158" data-name="パス 6158" d="M77.6,0H22.056a7.6,7.6,0,0,0-7.6,7.6v13.65a7.6,7.6,0,0,0,7.6,7.6H43.792l4.707,8.39a1.526,1.526,0,0,0,2.662,0l4.707-8.39H77.6a7.6,7.6,0,0,0,7.6-7.6V7.6A7.6,7.6,0,0,0,77.6,0M33.347,13.513,31.07,15.468l.693,2.918a1.007,1.007,0,0,1-1.5,1.092L27.7,17.917l-2.561,1.561a1.007,1.007,0,0,1-1.5-1.091l.693-2.92L22.05,13.513a1.006,1.006,0,0,1,.574-1.766l2.991-.243,1.155-2.77a1.006,1.006,0,0,1,1.857,0L29.782,11.5l2.991.244a1.006,1.006,0,0,1,.574,1.766m6.544,5.966a1.006,1.006,0,0,1-1.5-1.091l.693-2.92L36.8,13.513a1.006,1.006,0,0,1,.574-1.766l2.991-.243,1.155-2.77a1.007,1.007,0,0,1,1.858,0L44.537,11.5l2.991.244a1.006,1.006,0,0,1,.574,1.766l-2.277,1.956.693,2.918a1.006,1.006,0,0,1-1.5,1.092l-2.563-1.561Zm22.965-5.966-2.278,1.956.693,2.918a1.007,1.007,0,0,1-1.5,1.092l-2.562-1.561-2.562,1.561a1.006,1.006,0,0,1-1.5-1.091l.693-2.92-2.277-1.954a1.006,1.006,0,0,1,.574-1.766l2.99-.243,1.156-2.77a1.007,1.007,0,0,1,1.858,0L59.291,11.5l2.992.244a1.006,1.006,0,0,1,.574,1.766m14.755,0-2.277,1.956.693,2.918a1.007,1.007,0,0,1-1.5,1.092l-2.562-1.561L69.4,19.478a1.006,1.006,0,0,1-1.5-1.091l.693-2.92-2.277-1.954a1.006,1.006,0,0,1,.574-1.766l2.992-.243,1.155-2.77a1.007,1.007,0,0,1,1.858,0L74.044,11.5l2.993.244a1.006,1.006,0,0,1,.574,1.766" transform="translate(-9.865)" fill="#14a0de"/>
        <path id="パス_6159" data-name="パス 6159" d="M26.116,139.674a8.426,8.426,0,1,0-8.428-8.426,8.424,8.424,0,0,0,8.428,8.426" transform="translate(-12.066 -83.786)" fill="#203a72"/>
        <path id="パス_6160" data-name="パス 6160" d="M21.271,182.824a12.837,12.837,0,0,1-14.448,0A13.331,13.331,0,0,0,0,194.449v1.733a3.4,3.4,0,0,0,3.4,3.4H21.488v-.8a17.631,17.631,0,0,1,4.4-11.666,13.415,13.415,0,0,0-4.617-4.292" transform="translate(0 -124.718)" fill="#203a72"/>
        <path id="パス_6161" data-name="パス 6161" d="M180.809,131.247a8.426,8.426,0,1,0,8.426-8.426,8.426,8.426,0,0,0-8.426,8.426" transform="translate(-123.344 -83.786)" fill="#203a72"/>
        <path id="パス_6162" data-name="パス 6162" d="M189.162,182.819a12.835,12.835,0,0,1-14.451,0,13.361,13.361,0,0,0-4.6,4.272,17.644,17.644,0,0,1,4.4,11.688v.8h18.065a3.386,3.386,0,0,0,3.4-3.4v-1.733a13.325,13.325,0,0,0-6.814-11.627" transform="translate(-116.045 -124.714)" fill="#203a72"/>
        <path id="パス_6163" data-name="パス 6163" d="M99.247,144.864a8.426,8.426,0,1,0,8.428-8.426,8.426,8.426,0,0,0-8.428,8.426" transform="translate(-67.704 -93.075)" fill="#203a72"/>
        <path id="パス_6164" data-name="パス 6164" d="M102.846,196.438a12.835,12.835,0,0,1-14.45,0,13.314,13.314,0,0,0-6.818,11.622V209.8a3.405,3.405,0,0,0,3.405,3.405h21.275a3.405,3.405,0,0,0,3.4-3.405V208.06a13.316,13.316,0,0,0-6.816-11.622" transform="translate(-55.651 -134.006)" fill="#203a72"/>
      </g>
    </g>
  </g>
</svg>
