<svg xmlns="http://www.w3.org/2000/svg" width="399" height="237.223" viewBox="0 0 399 237.223">
  <g id="グループ_19872" data-name="グループ 19872" transform="translate(-15 -4204.392)">
    <rect id="長方形_8647" data-name="長方形 8647" width="0.458" height="46.742" transform="translate(77.882 4265.256)" fill="#7dccf0"/>
    <path id="パス_5655" data-name="パス 5655" d="M457.288,32.141a32.14,32.14,0,1,0-32.141,32.141,32.14,32.14,0,0,0,32.141-32.141" transform="translate(-347.036 4204.392)" fill="#c3e7f9"/>
    <path id="パス_5656" data-name="パス 5656" d="M413.125,18.877H403.85a.36.36,0,0,0-.359.36v6.571a.36.36,0,0,0,.359.36h3.223v.557h-.485a.4.4,0,1,0,0,.8h3.81a.4.4,0,1,0,0-.8h-.473v-.557h3.211a.36.36,0,0,0,.359-.36V19.248a.369.369,0,0,0-.369-.371m-4.633,6.956a.381.381,0,1,1,.383-.378.382.382,0,0,1-.383.378m4.276-1.2h-8.551V19.6h8.551Z" transform="translate(-345.504 4207.149)" fill="#0054a3"/>
    <path id="パス_5657" data-name="パス 5657" d="M412.7,17.6a4.239,4.239,0,0,0,.573.926c.053.069.111.139.172.2l.2.219a1.394,1.394,0,0,0,1.03.457h.307a1.4,1.4,0,0,0,1.029-.457l.2-.219c.062-.065.119-.135.177-.2a4.46,4.46,0,0,0,.773-1.449,4.84,4.84,0,0,0,.17-.776,4,4,0,0,0,.03-.488v-.7a2.359,2.359,0,0,0-.1-.68,2.539,2.539,0,0,0-4.88,0,2.516,2.516,0,0,0-.1.7v.7a3.277,3.277,0,0,0,.034.47,4.3,4.3,0,0,0,.369,1.3" transform="translate(-344.218 4206.231)" fill="#0054a3"/>
    <path id="パス_5658" data-name="パス 5658" d="M418.763,20.258a2.174,2.174,0,0,0-.384-.134l-1.457-.523a.1.1,0,0,0-.011-.047l-.258-.645a.224.224,0,0,0-.327-.108l-.925.558-.627.376-.626-.376-.931-.562a.223.223,0,0,0-.322.111l-.212.531v6.136h1.375l.266-3.02v0a.48.48,0,0,0-.1-.356.12.12,0,0,1-.016-.023l-.342-.6a.259.259,0,0,1,0-.258l.342-.591a.258.258,0,0,1,.223-.131h.683a.258.258,0,0,1,.224.131l.341.591a.259.259,0,0,1,0,.258l-.341.6a.086.086,0,0,1-.016.023.485.485,0,0,0-.1.356v0l.266,3.02h3.942a.639.639,0,0,0,.642-.638V22.287a2.228,2.228,0,0,0-1.31-2.029" transform="translate(-344.161 4207.134)" fill="#0054a3"/>
    <path id="パス_5659" data-name="パス 5659" d="M432.431,19.619h1.427l0,0a3,3,0,0,1-.876-1.938c0-.074-.008-.149-.008-.223a1.5,1.5,0,0,1,.641-1.309c.281-.162.468-.46.707-1.142,0,0,.07,1.335,1.1,1.015.552-.171.806-.453,1.15.109a2.251,2.251,0,0,1,.3,1.164v.5a2.818,2.818,0,0,1-.339,1.36,2.245,2.245,0,0,1-.337.463h1.25a.986.986,0,0,0,.933-1.3l-.233-.687a1.148,1.148,0,0,1-.025-.62,1.405,1.405,0,0,0-.213-1.16,1.675,1.675,0,0,0-.22-.241.669.669,0,0,1-.23-.505,2.469,2.469,0,0,0-2.528-2.5h-.017a2.475,2.475,0,0,0-2.541,2.5.677.677,0,0,1-.23.507,1.6,1.6,0,0,0-.217.235,1.408,1.408,0,0,0-.217,1.164,1.148,1.148,0,0,1-.025.62l-.218.642a1.02,1.02,0,0,0,.966,1.348" transform="translate(-341.425 4206.233)" fill="#0054a3"/>
    <path id="パス_5660" data-name="パス 5660" d="M438.667,20.1c-.068-.025-1.04-.3-1.7-.563-.07-.028-.14-.053-.209-.08h-.045l.133.626.116.534a.2.2,0,0,1-.1.219l-.59.313a.205.205,0,0,0-.1.234l.143.485a.2.2,0,0,1-.061.205l-.774.917-.136-2.07a.349.349,0,0,1,.04-.222l.236-.41a.325.325,0,0,0,0-.335l-.2-.344a.335.335,0,0,0-.292-.171h-.4a.332.332,0,0,0-.291.171l-.2.344a.325.325,0,0,0,0,.335l.236.41a.349.349,0,0,1,.04.222l-.136,2.07-.774-.917a.206.206,0,0,1-.061-.205l.143-.485a.205.205,0,0,0-.1-.234L433,20.833a.2.2,0,0,1-.1-.218l.105-.5.143-.664H433.1c-.068.028-.139.053-.209.08-.334.131-.934.267-1.207.372-.01,0-.023.007-.033.013-.117.045-.218.083-.295.115V25.49h7.286a1.024,1.024,0,0,0,1.023-1.023V21.655a1.714,1.714,0,0,0-1-1.556" transform="translate(-341.432 4207.231)" fill="#0054a3"/>
    <path id="パス_5661" data-name="パス 5661" d="M431.686,18.877h-9.276a.359.359,0,0,0-.359.36v6.571a.36.36,0,0,0,.359.36h3.223v.557h-.484a.4.4,0,1,0,0,.8h3.809a.4.4,0,0,0,0-.8h-.473v-.557H431.7a.36.36,0,0,0,.358-.36V19.248a.369.369,0,0,0-.369-.371m-4.633,6.956a.381.381,0,1,1,.383-.378.382.382,0,0,1-.383.378m4.276-1.2h-8.551V19.6h8.551Z" transform="translate(-342.792 4207.149)" fill="#0054a3"/>
    <path id="パス_5662" data-name="パス 5662" d="M413.87,36.688H415.3l0,0a3,3,0,0,1-.876-1.938c0-.075-.008-.149-.008-.223a1.5,1.5,0,0,1,.641-1.309c.281-.162.468-.46.707-1.142,0,0,.07,1.335,1.1,1.015.552-.171.806-.453,1.15.109a2.251,2.251,0,0,1,.3,1.164v.5a2.818,2.818,0,0,1-.339,1.36,2.246,2.246,0,0,1-.337.463h1.25a.986.986,0,0,0,.933-1.3l-.233-.687a1.148,1.148,0,0,1-.025-.62,1.405,1.405,0,0,0-.213-1.16,1.612,1.612,0,0,0-.221-.241.672.672,0,0,1-.229-.505,2.469,2.469,0,0,0-2.528-2.5h-.017a2.475,2.475,0,0,0-2.541,2.5.677.677,0,0,1-.23.507,1.6,1.6,0,0,0-.217.235,1.408,1.408,0,0,0-.217,1.164,1.148,1.148,0,0,1-.025.62l-.218.642a1.02,1.02,0,0,0,.966,1.348" transform="translate(-344.137 4208.728)" fill="#0054a3"/>
    <path id="パス_5663" data-name="パス 5663" d="M420.1,37.167c-.068-.025-1.04-.3-1.7-.563-.07-.028-.14-.053-.209-.08h-.045l.133.626.116.534a.2.2,0,0,1-.1.219l-.59.313a.205.205,0,0,0-.1.234l.143.485a.2.2,0,0,1-.061.205l-.774.917-.136-2.07a.349.349,0,0,1,.04-.222l.236-.41a.325.325,0,0,0,0-.335l-.2-.344a.335.335,0,0,0-.292-.171h-.4a.332.332,0,0,0-.291.171l-.2.344a.325.325,0,0,0,0,.335l.236.41a.342.342,0,0,1,.04.222l-.136,2.07-.774-.917a.2.2,0,0,1-.06-.205l.142-.485a.205.205,0,0,0-.1-.234l-.591-.314a.2.2,0,0,1-.1-.218l.105-.5.143-.664h-.045c-.068.028-.139.053-.209.08-.333.131-.934.267-1.207.372-.01,0-.023.007-.033.013-.117.045-.218.083-.295.115v5.454h7.286a1.024,1.024,0,0,0,1.023-1.023V38.724a1.714,1.714,0,0,0-1-1.556" transform="translate(-344.145 4209.726)" fill="#0054a3"/>
    <path id="パス_5664" data-name="パス 5664" d="M413.125,35.946H403.85a.36.36,0,0,0-.359.36v6.571a.36.36,0,0,0,.359.36h3.223v.557h-.485a.4.4,0,0,0,0,.8h3.81a.4.4,0,0,0,0-.8h-.473v-.557h3.211a.36.36,0,0,0,.359-.36V36.317a.37.37,0,0,0-.369-.371M408.493,42.9a.381.381,0,1,1,.383-.379.382.382,0,0,1-.383.379m4.276-1.2h-8.551v-5.03h8.551Z" transform="translate(-345.504 4209.645)" fill="#0054a3"/>
    <path id="パス_5665" data-name="パス 5665" d="M431.96,35.946h-9.276a.361.361,0,0,0-.359.36v6.571a.36.36,0,0,0,.359.36h3.224v.557h-.485a.4.4,0,1,0,0,.8h3.809a.4.4,0,0,0,0-.8h-.473v-.557h3.213a.359.359,0,0,0,.358-.36V36.317a.37.37,0,0,0-.369-.371M427.328,42.9a.381.381,0,1,1,.383-.379.383.383,0,0,1-.383.379m4.276-1.2h-8.551v-5.03H431.6Z" transform="translate(-342.752 4209.645)" fill="#0054a3"/>
    <path id="パス_5666" data-name="パス 5666" d="M431.534,34.668a4.239,4.239,0,0,0,.573.926c.053.069.111.139.172.2l.2.219a1.394,1.394,0,0,0,1.03.457h.307a1.4,1.4,0,0,0,1.029-.457l.2-.219c.062-.065.119-.135.177-.2A4.471,4.471,0,0,0,436,34.146a4.843,4.843,0,0,0,.17-.776,4.009,4.009,0,0,0,.03-.488v-.7a2.359,2.359,0,0,0-.1-.68,2.539,2.539,0,0,0-4.88,0,2.516,2.516,0,0,0-.1.7v.7a3.273,3.273,0,0,0,.034.47,4.3,4.3,0,0,0,.369,1.3" transform="translate(-341.465 4208.727)" fill="#0054a3"/>
    <path id="パス_5667" data-name="パス 5667" d="M437.6,37.327a2.173,2.173,0,0,0-.384-.134l-1.457-.523a.1.1,0,0,0-.011-.047l-.258-.645a.224.224,0,0,0-.327-.108l-.925.558-.627.376-.626-.376-.931-.562a.223.223,0,0,0-.322.111l-.212.531v6.136H432.9l.265-3.02v0a.48.48,0,0,0-.1-.356.12.12,0,0,1-.016-.023l-.342-.6a.259.259,0,0,1,0-.258l.342-.591a.258.258,0,0,1,.224-.131h.683a.258.258,0,0,1,.224.131l.341.591a.253.253,0,0,1,0,.258l-.341.6a.086.086,0,0,1-.016.023.485.485,0,0,0-.1.356v0l.266,3.02h3.942a.639.639,0,0,0,.642-.638V39.356a2.227,2.227,0,0,0-1.31-2.029" transform="translate(-341.409 4209.628)" fill="#0054a3"/>
    <g id="グループ_10657" data-name="グループ 10657" transform="translate(15 4204.392)">
      <g id="グループ_19774" data-name="グループ 19774" transform="translate(0)">
        <path id="パス_5690" data-name="パス 5690" d="M577.618,183.033a32.141,32.141,0,1,0-32.141,32.141,32.14,32.14,0,0,0,32.141-32.141" transform="translate(-344.453 22.049)" fill="#c3e7f9"/>
        <rect id="長方形_8655" data-name="長方形 8655" width="0.458" height="48.941" transform="translate(201.004 125.019)" fill="#7dccf0"/>
        <rect id="長方形_8656" data-name="長方形 8656" width="0.458" height="46.744" transform="translate(336.564 60.863)" fill="#7dccf0"/>
        <path id="パス_5691" data-name="パス 5691" d="M695.589,32.141a32.141,32.141,0,1,0-32.141,32.141,32.14,32.14,0,0,0,32.141-32.141" transform="translate(-327.214)" fill="#c3e7f9"/>
        <rect id="長方形_8657" data-name="長方形 8657" width="287.024" height="8.15" transform="translate(111.975 109.433)" fill="#7dccf0"/>
        <path id="パス_5692" data-name="パス 5692" d="M488.267,116.523H367.386a1.2,1.2,0,0,1-1.2-1.2V87.756a1.2,1.2,0,0,1,1.2-1.2H488.267a1.2,1.2,0,0,1,1.2,1.2v27.566a1.2,1.2,0,0,1-1.2,1.2" transform="translate(-365.956 12.648)" fill="#fff"/>
        <path id="パス_5693" data-name="パス 5693" d="M488.3,116.782H367.415a1.432,1.432,0,0,1-1.43-1.43V87.785a1.432,1.432,0,0,1,1.43-1.43H488.3a1.432,1.432,0,0,1,1.43,1.43v27.567a1.432,1.432,0,0,1-1.43,1.43M367.415,86.813a.973.973,0,0,0-.972.972v27.567a.973.973,0,0,0,.972.972H488.3a.974.974,0,0,0,.972-.972V87.785a.974.974,0,0,0-.972-.972Z" transform="translate(-365.985 12.619)" fill="#7dccf0"/>
        <path id="パス_5694" data-name="パス 5694" d="M608.349,116.523H487.468a1.2,1.2,0,0,1-1.2-1.2V87.756a1.2,1.2,0,0,1,1.2-1.2H608.349a1.2,1.2,0,0,1,1.2,1.2v27.566a1.2,1.2,0,0,1-1.2,1.2" transform="translate(-348.409 12.648)" fill="#fff"/>
        <path id="パス_5695" data-name="パス 5695" d="M608.378,116.782H487.5a1.432,1.432,0,0,1-1.43-1.43V87.785a1.432,1.432,0,0,1,1.43-1.43H608.378a1.432,1.432,0,0,1,1.43,1.43v27.567a1.432,1.432,0,0,1-1.43,1.43M487.5,86.813a.973.973,0,0,0-.972.972v27.567a.973.973,0,0,0,.972.972H608.378a.974.974,0,0,0,.972-.972V87.785a.974.974,0,0,0-.972-.972Z" transform="translate(-348.438 12.619)" fill="#7dccf0"/>
        <path id="パス_5696" data-name="パス 5696" d="M728.431,116.523H607.55a1.2,1.2,0,0,1-1.2-1.2V87.756a1.2,1.2,0,0,1,1.2-1.2H728.431a1.2,1.2,0,0,1,1.2,1.2v27.566a1.2,1.2,0,0,1-1.2,1.2" transform="translate(-330.861 12.648)" fill="#fff"/>
        <path id="パス_5697" data-name="パス 5697" d="M728.46,116.782H607.579a1.432,1.432,0,0,1-1.43-1.43V87.785a1.432,1.432,0,0,1,1.43-1.43H728.46a1.432,1.432,0,0,1,1.43,1.43v27.567a1.432,1.432,0,0,1-1.43,1.43M607.579,86.813a.973.973,0,0,0-.972.972v27.567a.973.973,0,0,0,.972.972H728.46a.974.974,0,0,0,.972-.972V87.785a.974.974,0,0,0-.972-.972Z" transform="translate(-330.891 12.619)" fill="#7dccf0"/>
      </g>
    </g>
    <text id="受入テスト" transform="translate(183.794 4321.368)" fill="#4ea0bb" font-size="11" font-family="Meiryo-Bold, Meiryo" font-weight="700"><tspan x="0" y="0">受入テスト</tspan></text>
    <text id="開発" transform="translate(64.691 4321.368)" fill="#4ea0bb" font-size="11" font-family="Meiryo-Bold, Meiryo" font-weight="700"><tspan x="0" y="0">開発</tspan></text>
    <path id="パス_5698" data-name="パス 5698" d="M533.837,169.769h-9.276a.36.36,0,0,0-.359.36V176.7a.36.36,0,0,0,.359.36h3.223v.557H527.3a.4.4,0,1,0,0,.8h3.81a.4.4,0,0,0,0-.8h-.473v-.557h3.211a.36.36,0,0,0,.359-.36V170.14a.369.369,0,0,0-.369-.371m-4.633,6.956a.381.381,0,1,1,.383-.379.382.382,0,0,1-.383.379m4.276-1.2H524.93v-5.03h8.551Z" transform="translate(-327.865 4229.199)" fill="#0054a3"/>
    <path id="パス_5699" data-name="パス 5699" d="M533.411,168.49a4.237,4.237,0,0,0,.573.926c.053.069.111.139.172.2l.2.219a1.394,1.394,0,0,0,1.03.457h.307a1.4,1.4,0,0,0,1.029-.457l.2-.219c.062-.065.119-.135.176-.2a4.471,4.471,0,0,0,.773-1.449,4.855,4.855,0,0,0,.17-.776,4.01,4.01,0,0,0,.03-.488V166a2.355,2.355,0,0,0-.1-.68,2.539,2.539,0,0,0-4.88,0,2.518,2.518,0,0,0-.1.7v.7a3.264,3.264,0,0,0,.034.47,4.3,4.3,0,0,0,.369,1.3" transform="translate(-326.578 4228.28)" fill="#0054a3"/>
    <path id="パス_5700" data-name="パス 5700" d="M539.476,171.15a2.213,2.213,0,0,0-.385-.134l-1.457-.523a.1.1,0,0,0-.012-.047l-.258-.645a.222.222,0,0,0-.324-.108l-.927.558-.627.376-.626-.376-.931-.562a.223.223,0,0,0-.322.111l-.212.531v6.136h1.375l.266-3.02v0a.48.48,0,0,0-.1-.356.121.121,0,0,1-.016-.023l-.341-.6a.259.259,0,0,1,0-.258l.341-.591a.259.259,0,0,1,.224-.131h.683a.258.258,0,0,1,.224.131l.341.591a.253.253,0,0,1,0,.258l-.341.6a.083.083,0,0,1-.016.023.486.486,0,0,0-.1.356v0l.266,3.02h3.942a.639.639,0,0,0,.642-.638v-2.651a2.228,2.228,0,0,0-1.309-2.029" transform="translate(-326.522 4229.183)" fill="#0054a3"/>
    <path id="パス_5704" data-name="パス 5704" d="M534.582,187.58h1.427l0,0a3,3,0,0,1-.876-1.938c0-.074-.008-.149-.008-.223a1.5,1.5,0,0,1,.641-1.309c.281-.162.468-.46.707-1.142,0,0,.07,1.335,1.1,1.015.552-.171.806-.453,1.15.109a2.251,2.251,0,0,1,.3,1.164v.5a2.818,2.818,0,0,1-.339,1.36,2.243,2.243,0,0,1-.337.463h1.25a.986.986,0,0,0,.933-1.3l-.233-.687a1.147,1.147,0,0,1-.025-.62,1.406,1.406,0,0,0-.213-1.16,1.624,1.624,0,0,0-.221-.241.672.672,0,0,1-.229-.505,2.469,2.469,0,0,0-2.528-2.5h-.017a2.475,2.475,0,0,0-2.541,2.5.677.677,0,0,1-.23.507,1.6,1.6,0,0,0-.217.235,1.408,1.408,0,0,0-.217,1.164,1.148,1.148,0,0,1-.025.62l-.218.642a1.02,1.02,0,0,0,.966,1.348" transform="translate(-326.498 4230.776)" fill="#0054a3"/>
    <path id="パス_5705" data-name="パス 5705" d="M540.817,188.059c-.068-.025-1.039-.3-1.7-.563-.07-.027-.14-.053-.209-.08h-.045l.133.626.116.534a.2.2,0,0,1-.1.219l-.59.313a.205.205,0,0,0-.1.234l.143.485a.2.2,0,0,1-.061.205l-.774.917-.136-2.07a.349.349,0,0,1,.04-.222l.236-.41a.325.325,0,0,0,0-.335l-.2-.344a.335.335,0,0,0-.292-.171h-.4a.332.332,0,0,0-.291.171l-.2.344a.325.325,0,0,0,0,.335l.236.41a.341.341,0,0,1,.04.222l-.136,2.07-.774-.917a.206.206,0,0,1-.061-.205l.143-.485a.205.205,0,0,0-.1-.234l-.591-.314a.2.2,0,0,1-.1-.218l.105-.5.143-.664h-.045c-.068.028-.139.053-.209.08-.334.131-.934.267-1.207.373-.01,0-.023.007-.033.013-.117.045-.218.083-.295.115v5.454h7.286a1.024,1.024,0,0,0,1.023-1.023v-2.811a1.714,1.714,0,0,0-1-1.556" transform="translate(-326.505 4231.775)" fill="#0054a3"/>
    <path id="パス_5706" data-name="パス 5706" d="M533.837,186.838h-9.276a.36.36,0,0,0-.359.36v6.571a.36.36,0,0,0,.359.36h3.223v.557H527.3a.4.4,0,0,0,0,.8h3.81a.4.4,0,0,0,0-.8h-.473v-.557h3.211a.36.36,0,0,0,.359-.36v-6.559a.37.37,0,0,0-.369-.371m-4.633,6.957a.381.381,0,1,1,.383-.379.382.382,0,0,1-.383.379m4.276-1.2H524.93v-5.03h8.551Z" transform="translate(-327.865 4231.694)" fill="#0054a3"/>
    <text id="納品" transform="translate(339.946 4321.368)" fill="#4ea0bb" font-size="11" font-family="Meiryo-Bold, Meiryo" font-weight="700"><tspan x="0" y="0">納品</tspan></text>
    <path id="パス_5701" data-name="パス 5701" d="M553.143,170.511h1.427l0,0a3,3,0,0,1-.876-1.938c0-.074-.008-.149-.008-.223a1.5,1.5,0,0,1,.641-1.309c.281-.162.468-.46.707-1.142,0,0,.07,1.335,1.1,1.015.552-.171.806-.453,1.15.109a2.251,2.251,0,0,1,.3,1.164v.5a2.818,2.818,0,0,1-.339,1.36,2.245,2.245,0,0,1-.337.463h1.25a.985.985,0,0,0,.933-1.3l-.233-.687a1.146,1.146,0,0,1-.025-.62,1.406,1.406,0,0,0-.213-1.16,1.68,1.68,0,0,0-.22-.241.669.669,0,0,1-.23-.505,2.469,2.469,0,0,0-2.528-2.5h-.017a2.477,2.477,0,0,0-2.541,2.5.677.677,0,0,1-.23.507,1.6,1.6,0,0,0-.217.235,1.408,1.408,0,0,0-.217,1.164,1.148,1.148,0,0,1-.025.62l-.218.642a1.02,1.02,0,0,0,.966,1.348" transform="translate(-323.785 4228.282)" fill="#0054a3"/>
    <path id="パス_5702" data-name="パス 5702" d="M559.379,170.99c-.068-.025-1.04-.3-1.7-.563-.07-.027-.14-.053-.209-.08h-.045l.133.626.116.534a.2.2,0,0,1-.1.219l-.59.313a.205.205,0,0,0-.1.234l.143.485a.2.2,0,0,1-.061.205l-.774.917-.136-2.07a.349.349,0,0,1,.04-.222l.236-.41a.325.325,0,0,0,0-.335l-.2-.344a.336.336,0,0,0-.292-.171h-.4a.332.332,0,0,0-.291.171l-.2.344a.325.325,0,0,0,0,.335l.236.41a.349.349,0,0,1,.04.222l-.136,2.07-.774-.917a.206.206,0,0,1-.061-.205l.143-.485a.205.205,0,0,0-.1-.234l-.591-.314a.2.2,0,0,1-.1-.218l.105-.5.143-.664h-.045c-.068.028-.139.053-.209.08-.333.131-.934.267-1.207.373-.01,0-.023.007-.033.013-.117.045-.218.083-.295.115v5.454h7.286a1.024,1.024,0,0,0,1.023-1.023v-2.811a1.714,1.714,0,0,0-1-1.556" transform="translate(-323.793 4229.281)" fill="#0054a3"/>
    <path id="パス_5703" data-name="パス 5703" d="M552.4,169.769h-9.276a.36.36,0,0,0-.359.36V176.7a.36.36,0,0,0,.359.36h3.223v.557h-.484a.4.4,0,1,0,0,.8h3.809a.4.4,0,1,0,0-.8H549.2v-.557h3.213a.36.36,0,0,0,.358-.36V170.14a.369.369,0,0,0-.369-.371m-4.633,6.956a.381.381,0,1,1,.383-.379.383.383,0,0,1-.383.379m4.276-1.2h-8.551v-5.03h8.551Z" transform="translate(-325.153 4229.199)" fill="#0054a3"/>
    <path id="パス_5707" data-name="パス 5707" d="M552.672,186.838H543.4a.361.361,0,0,0-.359.36v6.571a.36.36,0,0,0,.359.36h3.224v.557h-.485a.4.4,0,1,0,0,.8h3.809a.4.4,0,0,0,0-.8h-.473v-.557h3.213a.359.359,0,0,0,.358-.36v-6.559a.37.37,0,0,0-.369-.371m-4.633,6.957a.381.381,0,1,1,.383-.379.383.383,0,0,1-.383.379m4.276-1.2h-8.551v-5.03h8.551Z" transform="translate(-325.113 4231.694)" fill="#0054a3"/>
    <path id="パス_5708" data-name="パス 5708" d="M552.246,185.559a4.242,4.242,0,0,0,.573.926c.054.069.111.139.172.2l.2.219a1.394,1.394,0,0,0,1.03.457h.307a1.4,1.4,0,0,0,1.029-.457l.2-.219c.062-.065.119-.135.176-.2a4.438,4.438,0,0,0,.773-1.449,4.843,4.843,0,0,0,.17-.776,4.009,4.009,0,0,0,.03-.488v-.7a2.359,2.359,0,0,0-.1-.68,2.539,2.539,0,0,0-4.88,0,2.518,2.518,0,0,0-.1.7v.7a3.3,3.3,0,0,0,.034.47,4.3,4.3,0,0,0,.369,1.3" transform="translate(-323.826 4230.775)" fill="#0054a3"/>
    <path id="パス_5709" data-name="パス 5709" d="M558.311,188.219a2.174,2.174,0,0,0-.384-.134l-1.457-.523a.1.1,0,0,0-.011-.047l-.258-.645a.223.223,0,0,0-.325-.108l-.926.558-.627.376-.626-.376-.931-.562a.223.223,0,0,0-.322.111l-.212.531v6.136h1.376l.265-3.02v0a.48.48,0,0,0-.1-.356.129.129,0,0,1-.016-.023l-.341-.6a.259.259,0,0,1,0-.258l.341-.591a.259.259,0,0,1,.224-.131h.683a.258.258,0,0,1,.223.131l.342.591a.253.253,0,0,1,0,.258l-.342.6a.105.105,0,0,1-.015.023.481.481,0,0,0-.1.356v0l.266,3.02h3.942a.639.639,0,0,0,.642-.638v-2.651a2.228,2.228,0,0,0-1.31-2.029" transform="translate(-323.77 4231.678)" fill="#0054a3"/>
    <path id="パス_5731" data-name="パス 5731" d="M656.114,37.166l-7.362-2.884v5.664a1,1,0,0,0,.675.943L660.067,44.5V33.548l-3.029,3.4a.834.834,0,0,1-.924.222" transform="translate(-309.666 4209.294)" fill="#0054a3"/>
    <path id="パス_5732" data-name="パス 5732" d="M677.015,31.727l-3.657-4.606a1.008,1.008,0,0,0-.523-.434l-5.822-1.979A8.92,8.92,0,0,1,664.7,26.03l4.713,1.606-8.058,2.734-8.05-2.734,4.7-1.6a8.985,8.985,0,0,1-2.3-1.331l-5.822,1.979a1.032,1.032,0,0,0-.533.434l-3.647,4.606a.5.5,0,0,0,.2.772l10.4,4.073a.493.493,0,0,0,.559-.133l3.861-4.331a.857.857,0,0,1,1.242,0l3.86,4.331a.493.493,0,0,0,.559.133L676.8,32.5a.5.5,0,0,0,.213-.772" transform="translate(-310.125 4208.002)" fill="#0054a3"/>
    <path id="パス_5733" data-name="パス 5733" d="M663.728,37.222a.829.829,0,0,1-.621-.279l-3.033-3.4V44.5l10.643-3.614a1,1,0,0,0,.675-.943V34.283l-7.361,2.884a.882.882,0,0,1-.3.056" transform="translate(-308.011 4209.294)" fill="#0054a3"/>
    <path id="パス_5734" data-name="パス 5734" d="M660.293,26.755a7.389,7.389,0,1,0-7.389-7.388,7.389,7.389,0,0,0,7.389,7.388m-3.365-8.41a1.208,1.208,0,0,1,1.708.047l.9.952L661.95,16.8a1.209,1.209,0,0,1,1.755,1.663l-3.289,3.47a1.21,1.21,0,0,1-1.755,0l-1.78-1.88a1.207,1.207,0,0,1,.047-1.708" transform="translate(-309.059 4206.142)" fill="#0054a3"/>
  </g>
</svg>
