<svg xmlns="http://www.w3.org/2000/svg" width="232.672" height="207.93" viewBox="0 0 232.672 207.93">
  <g id="グループ_19869" data-name="グループ 19869" transform="translate(-97.665 -2340.473)">
    <path id="パス_5607" data-name="パス 5607" d="M359.679,51.97H326.185a1.3,1.3,0,0,0-1.293,1.3V77a1.3,1.3,0,0,0,1.293,1.3h11.641v2.01h-1.75a1.45,1.45,0,1,0,0,2.9H349.83a1.45,1.45,0,0,0,0-2.9H348.12V78.3h11.6a1.3,1.3,0,0,0,1.293-1.3V53.31a1.334,1.334,0,0,0-1.334-1.34M342.953,77.089a1.374,1.374,0,1,1,1.381-1.368,1.382,1.382,0,0,1-1.381,1.368m15.439-4.344H327.514V54.58h30.878Z" transform="translate(-183.228 2314.517)" fill="#0054a3"/>
    <path id="パス_5608" data-name="パス 5608" d="M344.192,57.312a15.287,15.287,0,0,0,2.067,3.343,9.589,9.589,0,0,0,.625.735l.735.792a5.042,5.042,0,0,0,3.719,1.65h1.109a5.048,5.048,0,0,0,3.719-1.65l.735-.792c.223-.235.431-.484.639-.735a16.129,16.129,0,0,0,2.79-5.23,17.5,17.5,0,0,0,.611-2.8,14.171,14.171,0,0,0,.11-1.762V48.334a8.5,8.5,0,0,0-.347-2.455,9.154,9.154,0,0,0-17.967,2.51v2.526a11.672,11.672,0,0,0,.125,1.693,15.552,15.552,0,0,0,1.332,4.7" transform="translate(-164.631 2301.241)" fill="#0054a3"/>
    <path id="パス_5609" data-name="パス 5609" d="M365.475,57.132a7.8,7.8,0,0,0-1.387-.486l-5.259-1.887a.357.357,0,0,0-.043-.165l-.929-2.332a.806.806,0,0,0-1.178-.388l-3.345,2.012-2.261,1.36-2.263-1.36-3.357-2.026a.808.808,0,0,0-1.166.4l-.764,1.918V76.335h4.969l.958-10.905v-.014a1.747,1.747,0,0,0-.361-1.291.3.3,0,0,1-.055-.084l-1.236-2.15a.932.932,0,0,1,0-.929l1.236-2.136a.927.927,0,0,1,.8-.472h2.469a.925.925,0,0,1,.8.472l1.236,2.136a.922.922,0,0,1,0,.929l-1.236,2.15a.229.229,0,0,1-.055.084,1.745,1.745,0,0,0-.359,1.291v.014l.956,10.905h14.236a2.311,2.311,0,0,0,2.318-2.3V64.458a8.046,8.046,0,0,0-4.732-7.325" transform="translate(-163.811 2314.285)" fill="#0054a3"/>
    <path id="パス_5610" data-name="パス 5610" d="M385.157,64.591h5.151l-.01-.008a10.821,10.821,0,0,1-3.161-7c-.018-.27-.029-.539-.029-.809a5.415,5.415,0,0,1,2.312-4.726c1.017-.582,1.689-1.66,2.555-4.123,0,0,.251,4.824,3.988,3.668,2-.617,2.908-1.638,4.152.392a8.121,8.121,0,0,1,1.078,4.2v1.816a10.166,10.166,0,0,1-1.223,4.91,8.165,8.165,0,0,1-1.217,1.673h4.513a3.562,3.562,0,0,0,3.374-4.7l-.841-2.479a4.171,4.171,0,0,1-.092-2.242,5.084,5.084,0,0,0-.77-4.189,5.8,5.8,0,0,0-.8-.868,2.426,2.426,0,0,1-.831-1.824,8.919,8.919,0,0,0-9.131-9.033h-.059a8.939,8.939,0,0,0-9.176,9.033,2.437,2.437,0,0,1-.833,1.828,5.647,5.647,0,0,0-.782.85,5.086,5.086,0,0,0-.78,4.2,4.154,4.154,0,0,1-.094,2.242l-.784,2.316a3.683,3.683,0,0,0,3.488,4.867" transform="translate(-124.26 2301.263)" fill="#0054a3"/>
    <path id="パス_5611" data-name="パス 5611" d="M407.756,55.5c-.245-.09-3.752-1.1-6.145-2.03-.253-.1-.508-.19-.752-.29H400.7l.48,2.257.417,1.93a.722.722,0,0,1-.372.788l-2.13,1.133a.741.741,0,0,0-.353.843l.517,1.748a.735.735,0,0,1-.216.743l-2.794,3.31-.494-7.472a1.271,1.271,0,0,1,.145-.807l.852-1.479a1.169,1.169,0,0,0,0-1.209l-.717-1.244a1.2,1.2,0,0,0-1.052-.617h-1.434a1.2,1.2,0,0,0-1.054.617l-.717,1.244a1.178,1.178,0,0,0,0,1.209l.852,1.479a1.258,1.258,0,0,1,.145.807l-.492,7.472-2.794-3.31a.74.74,0,0,1-.219-.743l.517-1.748a.736.736,0,0,0-.353-.843l-2.134-1.135a.724.724,0,0,1-.368-.786l.382-1.8.517-2.391h-.163c-.245.1-.5.19-.754.29-1.2.472-3.372.96-4.358,1.342-.037.018-.082.027-.118.045-.423.163-.788.3-1.066.417v19.7h26.31a3.7,3.7,0,0,0,3.7-3.7V61.116a6.189,6.189,0,0,0-3.617-5.62" transform="translate(-124.369 2315.697)" fill="#0054a3"/>
    <path id="パス_5612" data-name="パス 5612" d="M397.294,51.97H363.8a1.3,1.3,0,0,0-1.293,1.3V77a1.3,1.3,0,0,0,1.293,1.3H375.44v2.01h-1.75a1.45,1.45,0,0,0,0,2.9h13.754a1.45,1.45,0,1,0,0-2.9h-1.709V78.3h11.6A1.3,1.3,0,0,0,398.63,77V53.31a1.336,1.336,0,0,0-1.336-1.34M380.568,77.089a1.374,1.374,0,1,1,1.38-1.368,1.382,1.382,0,0,1-1.38,1.368m15.439-4.344H365.129V54.58h30.878Z" transform="translate(-144.024 2314.517)" fill="#0054a3"/>
    <path id="パス_5613" data-name="パス 5613" d="M347.542,99.183h5.15l-.01-.008a10.82,10.82,0,0,1-3.161-7c-.018-.27-.029-.539-.029-.809a5.415,5.415,0,0,1,2.312-4.726c1.017-.582,1.689-1.66,2.555-4.123,0,0,.251,4.824,3.988,3.668,2-.617,2.908-1.638,4.152.392a8.12,8.12,0,0,1,1.078,4.2V92.6a10.167,10.167,0,0,1-1.223,4.91,8.163,8.163,0,0,1-1.217,1.673h4.513a3.561,3.561,0,0,0,3.374-4.7L368.183,92a4.172,4.172,0,0,1-.092-2.242,5.084,5.084,0,0,0-.77-4.189,5.8,5.8,0,0,0-.8-.868,2.426,2.426,0,0,1-.831-1.824,8.919,8.919,0,0,0-9.131-9.033H356.5a8.939,8.939,0,0,0-9.176,9.033,2.437,2.437,0,0,1-.833,1.828,5.646,5.646,0,0,0-.782.85,5.079,5.079,0,0,0-.78,4.2A4.154,4.154,0,0,1,344.838,92l-.784,2.316a3.683,3.683,0,0,0,3.488,4.867" transform="translate(-163.463 2337.316)" fill="#0054a3"/>
    <path id="パス_5614" data-name="パス 5614" d="M370.141,90.087c-.245-.09-3.752-1.1-6.145-2.03-.253-.1-.508-.19-.752-.29h-.163l.48,2.257.417,1.93a.722.722,0,0,1-.372.788l-2.13,1.133a.741.741,0,0,0-.353.843l.517,1.748a.735.735,0,0,1-.216.743l-2.794,3.31-.494-7.472a1.271,1.271,0,0,1,.145-.807l.852-1.479a1.169,1.169,0,0,0,0-1.209l-.717-1.244a1.2,1.2,0,0,0-1.052-.617h-1.434a1.2,1.2,0,0,0-1.054.617l-.717,1.244a1.178,1.178,0,0,0,0,1.209l.852,1.479a1.258,1.258,0,0,1,.145.807l-.492,7.472-2.794-3.31a.74.74,0,0,1-.219-.743l.517-1.748a.736.736,0,0,0-.353-.843L349.68,92.74a.724.724,0,0,1-.368-.786l.382-1.8.517-2.391h-.163c-.245.1-.5.19-.754.29-1.2.472-3.372.96-4.358,1.342-.037.018-.082.027-.118.045-.423.163-.788.3-1.066.415v19.7h26.31a3.7,3.7,0,0,0,3.7-3.7V95.708a6.189,6.189,0,0,0-3.617-5.62" transform="translate(-163.572 2351.75)" fill="#0054a3"/>
    <path id="パス_5615" data-name="パス 5615" d="M359.679,86.562H326.185a1.3,1.3,0,0,0-1.293,1.3v23.729a1.3,1.3,0,0,0,1.293,1.3h11.641V114.9h-1.75a1.45,1.45,0,1,0,0,2.9H349.83a1.45,1.45,0,0,0,0-2.9H348.12v-2.012h11.6a1.3,1.3,0,0,0,1.293-1.3V87.9a1.335,1.335,0,0,0-1.334-1.34m-16.726,25.119a1.374,1.374,0,1,1,1.381-1.368,1.382,1.382,0,0,1-1.381,1.368m15.439-4.344H327.514V89.172h30.878Z" transform="translate(-183.228 2350.57)" fill="#0054a3"/>
    <path id="パス_5616" data-name="パス 5616" d="M397.85,86.562H364.356a1.3,1.3,0,0,0-1.293,1.3v23.729a1.3,1.3,0,0,0,1.293,1.3H376V114.9h-1.75a1.45,1.45,0,0,0,0,2.9H388a1.45,1.45,0,1,0,0-2.9h-1.709v-2.012h11.6a1.3,1.3,0,0,0,1.293-1.3V87.9a1.335,1.335,0,0,0-1.334-1.34m-16.728,25.119a1.374,1.374,0,1,1,1.38-1.368,1.382,1.382,0,0,1-1.38,1.368m15.439-4.344H365.683V89.172h30.878Z" transform="translate(-143.445 2350.57)" fill="#0054a3"/>
    <path id="パス_5617" data-name="パス 5617" d="M382.362,91.9a15.286,15.286,0,0,0,2.067,3.343,9.59,9.59,0,0,0,.625.735l.735.792a5.042,5.042,0,0,0,3.719,1.65h1.109a5.048,5.048,0,0,0,3.719-1.65l.735-.792c.223-.235.431-.484.639-.735a16.132,16.132,0,0,0,2.79-5.23,17.27,17.27,0,0,0,.609-2.8,13.783,13.783,0,0,0,.112-1.762V82.927a8.573,8.573,0,0,0-.347-2.455,9.154,9.154,0,0,0-17.967,2.51v2.526a11.659,11.659,0,0,0,.125,1.693,15.55,15.55,0,0,0,1.331,4.7" transform="translate(-124.849 2337.295)" fill="#0054a3"/>
    <path id="パス_5618" data-name="パス 5618" d="M403.645,91.724a7.8,7.8,0,0,0-1.387-.486L397,89.351a.356.356,0,0,0-.043-.165l-.929-2.332a.806.806,0,0,0-1.178-.388L391.5,88.477l-2.261,1.36-2.263-1.36-3.357-2.026a.808.808,0,0,0-1.166.4l-.764,1.918v22.156h4.969l.958-10.905v-.014a1.747,1.747,0,0,0-.361-1.291.3.3,0,0,1-.055-.084l-1.236-2.15a.932.932,0,0,1,0-.929l1.236-2.136a.927.927,0,0,1,.8-.472h2.469a.925.925,0,0,1,.8.472l1.236,2.136a.922.922,0,0,1,0,.929l-1.236,2.15a.229.229,0,0,1-.055.084,1.746,1.746,0,0,0-.359,1.291v.014l.956,10.905h14.236a2.311,2.311,0,0,0,2.318-2.3V99.05a8.046,8.046,0,0,0-4.732-7.325" transform="translate(-124.028 2350.337)" fill="#0054a3"/>
    <path id="パス_5619" data-name="パス 5619" d="M523.638,156H338.488a23.761,23.761,0,0,1,0-47.523H523.638a23.761,23.761,0,1,1,0,47.523" transform="translate(-217.063 2392.403)" fill="#4abbf3"/>
    <text id="お客様専属チーム" transform="translate(214.664 2532.567)" fill="#fff" font-size="18" font-family="Meiryo-Bold, Meiryo" font-weight="700"><tspan x="-72" y="0">お客様専属チーム</tspan></text>
  </g>
</svg>
