<svg xmlns="http://www.w3.org/2000/svg" width="57.35" height="46.17" viewBox="0 0 57.35 46.17">
  <g id="グループ_19870" data-name="グループ 19870" transform="translate(-19.659 -3724.656)">
    <g id="グループ_19775" data-name="グループ 19775" transform="translate(19.659 3724.656)">
      <g id="グループ_19776" data-name="グループ 19776">
        <path id="パス_5683" data-name="パス 5683" d="M21.363,9.547,22.059,8a5.208,5.208,0,0,0,2.921.924c1.214,0,1.706-.4,1.706-.948,0-1.656-5.145-.52-5.145-3.807,0-1.5,1.214-2.755,3.729-2.755a5.943,5.943,0,0,1,3.073.783l-.631,1.554a5.011,5.011,0,0,0-2.453-.7c-1.215,0-1.682.456-1.682,1.012,0,1.631,5.145.505,5.145,3.756,0,1.479-1.226,2.744-3.754,2.744a6.3,6.3,0,0,1-3.6-1.025" transform="translate(-19.833 -1.418)" fill="#0054a3"/>
        <path id="パス_5684" data-name="パス 5684" d="M28.366,3.169H25.535V1.5h7.711V3.169H30.415V10.35H28.366Z" transform="translate(-16.368 -1.35)" fill="#0054a3"/>
        <path id="パス_5685" data-name="パス 5685" d="M37.2,8.707V10.35H30.348V1.5h6.688V3.144H32.384V5.066h4.109V6.659H32.384V8.707Z" transform="translate(-12.372 -1.35)" fill="#0054a3"/>
        <path id="パス_5686" data-name="パス 5686" d="M42.658,4.712c0,1.973-1.479,3.2-3.844,3.2H37.031v2.44H34.983V1.5h3.831c2.365,0,3.844,1.228,3.844,3.212m-2.074,0c0-.974-.631-1.543-1.883-1.543H37.031V6.243H38.7c1.252,0,1.883-.569,1.883-1.53" transform="translate(-8.523 -1.35)" fill="#0054a3"/>
        <path id="パス_5687" data-name="パス 5687" d="M20.527,25.18c0-10.076,5.52-15.772,12.793-15.772,7.318,0,12.838,5.7,12.838,15.772S40.637,40.953,33.32,40.953c-7.272,0-12.793-5.7-12.793-15.772m19.891,0c0-7.4-2.892-10.821-7.1-10.821-4.162,0-7.052,3.417-7.052,10.821S29.157,36,33.32,36c4.206,0,7.1-3.417,7.1-10.821" transform="translate(-20.527 5.217)" fill="#0054a3"/>
        <path id="パス_5688" data-name="パス 5688" d="M49.031,9.647V40.315h-5.7V14.423H36.852V9.647Z" transform="translate(-6.971 5.416)" fill="#0054a3"/>
        <path id="パス_5689" data-name="パス 5689" d="M47.934,26.233a3.592,3.592,0,1,1,7.184,0,3.592,3.592,0,1,1-7.184,0" transform="translate(2.231 16.168)" fill="#0054a3"/>
      </g>
    </g>
  </g>
</svg>
