<svg xmlns="http://www.w3.org/2000/svg" width="106.895" height="78.116" viewBox="0 0 106.895 78.116">
  <g id="グループ_19822" data-name="グループ 19822" transform="translate(3981.896 -5924.914)">
    <rect id="長方形_8646" data-name="長方形 8646" width="106.895" height="78.116" rx="5" transform="translate(-3981.896 5924.914)" fill="#4abbf3"/>
    <path id="パス_5642" data-name="パス 5642" d="M217.595,32.054l-.383,1.753-.4-1.753-2.781-8.793h-2.52l4.517,12.685h2.349L222.9,23.261h-2.5Z" transform="translate(-4171.664 5922.417)" fill="#fff"/>
    <rect id="長方形_8638" data-name="長方形 8638" width="2.293" height="2.258" transform="translate(-3947.39 5945.678)" fill="#fff"/>
    <rect id="長方形_8639" data-name="長方形 8639" width="2.293" height="9.347" transform="translate(-3947.39 5949.016)" fill="#fff"/>
    <path id="パス_5643" data-name="パス 5643" d="M224.1,25.927a4,4,0,0,0-3.443-1.774c-2.31,0-4.377,1.582-4.377,4.917,0,3.2,1.91,4.886,4.447,4.886a4.087,4.087,0,0,0,4.137-2.99h-2.31a1.709,1.709,0,0,1-1.7,1.129c-1.84,0-2.189-1.9-2.276-2.363h6.465a6.974,6.974,0,0,0-.937-3.806m-5.527,2.311c.1-.589.4-2.206,2.1-2.206,1.147,0,1.826.746,1.878,2.206Z" transform="translate(-4159.824 5924.633)" fill="#fff"/>
    <path id="パス_5644" data-name="パス 5644" d="M222.54,23.466h-2.293V26.09h-1.286v1.84h1.286v5.3c0,1.478.624,2.206,2.45,2.206H224.1V33.7h-.99c-.4,0-.575-.192-.575-.61V27.93h1.617V26.09H222.54Z" transform="translate(-4153.157 5922.926)" fill="#fff"/>
    <path id="パス_5645" data-name="パス 5645" d="M225.789,24.154a3.085,3.085,0,0,0-2.886,1.805l.087-.8v-.781H220.7v9.347h2.293V28.273a1.938,1.938,0,0,1,2.053-2.192c1.147,0,1.579.7,1.579,1.739v5.907h2.293V27.454c0-2.119-1.147-3.3-3.126-3.3" transform="translate(-4148.843 5924.636)" fill="#fff"/>
    <path id="パス_5646" data-name="パス 5646" d="M231.858,32.653V27.509c0-2.415-1.875-3.356-4.032-3.356-1.251,0-3.837.383-4.011,3.286h2.067a1.284,1.284,0,0,1,.366-.924,2.6,2.6,0,0,1,1.788-.572c.714,0,1.513.227,1.513.972,0,.871-1.129,1.059-2.136,1.2-2.087.3-4.015.937-4.015,3.095,0,1.181.694,2.746,3.265,2.746,2.189,0,2.764-1.08,3.025-1.582a2.445,2.445,0,0,0,.279,1.356h2.412a1.206,1.206,0,0,1-.519-1.077m-2.311-3.286v1.059c0,1.3-1.391,1.9-2.328,1.9a1.338,1.338,0,0,1-1.478-1.181c0-1.129,1.286-1.443,2.154-1.582a2.516,2.516,0,0,0,1.774-.8Z" transform="translate(-4142.136 5924.633)" fill="#fff"/>
    <path id="パス_5647" data-name="パス 5647" d="M236.746,24.154a3.659,3.659,0,0,0-2.973,1.547,2.827,2.827,0,0,0-2.621-1.547,2.779,2.779,0,0,0-2.624,1.565l.07-.836v-.5h-2.293v9.347H228.6v-5.82a1.778,1.778,0,0,1,1.683-1.791c1.286,0,1.5,1.2,1.5,1.931v5.681h2.293V28.047a1.866,1.866,0,0,1,1.774-1.966c1.129,0,1.439.871,1.439,1.966v5.681h2.3V27.768c0-2.032-.714-3.614-2.833-3.614" transform="translate(-4134.907 5924.636)" fill="#fff"/>
    <path id="パス_5648" data-name="パス 5648" d="M217.261,32.787l.732-.9a9.623,9.623,0,0,0-1.634-1.425l-.732.9a9.053,9.053,0,0,1,1.634,1.425" transform="translate(-4161.441 5940.304)" fill="#fff"/>
    <path id="パス_5649" data-name="パス 5649" d="M216.086,30.854a10.238,10.238,0,0,1,1.634,1.391l.746-.9a8.243,8.243,0,0,0-1.652-1.377Z" transform="translate(-4160.301 5939.076)" fill="#fff"/>
    <path id="パス_5650" data-name="パス 5650" d="M221.268,32.171c-.9-1.007-1.356-1.512-2.485-1.512-1.007,0-1.443.4-3.231,2.415a41.392,41.392,0,0,1-3.147,3.3l1.774,1.544c.589-.641,3-3.631,3.509-4.22.331-.4.624-.746,1.077-.746.484,0,.693.24,1.53,1.234a69.407,69.407,0,0,0,5.733,6.217l1.512-1.722c-2.206-2.049-4.276-4.255-6.273-6.513" transform="translate(-4169.446 5940.801)" fill="#fff"/>
    <path id="パス_5651" data-name="パス 5651" d="M220.491,34.441l-.815,1.286V31.158c0-.087.45-.366.45-.47,0-.209-.362-.261-.415-.279l-2.087-.362V43.808h2.053V36.3a17.763,17.763,0,0,1,5.109,3.478l1.37-1.669a21.238,21.238,0,0,0-2.711-2.084,15.589,15.589,0,0,0-2.952-1.582" transform="translate(-4156.482 5939.277)" fill="#fff"/>
    <path id="パス_5652" data-name="パス 5652" d="M229.35,31.856c0-.714,0-.8.035-.85.07-.1.488-.418.488-.505,0-.174-.279-.227-.523-.261l-2.328-.279a25.459,25.459,0,0,1,.157,3.875h-6.447V35.85h6.308c-.523,3.914-1.875,5.388-5.2,6.987l1.774,1.718c3.753-2.206,5.057-4.081,5.559-8.705h5.388V33.835h-5.248c.017-.9.035-1.945.035-1.979" transform="translate(-4148.756 5939.063)" fill="#fff"/>
    <path id="パス_5653" data-name="パス 5653" d="M233.5,36.659a15.466,15.466,0,0,1,2,2.694c-1.91.331-3.736.572-6.2.85.767-1.875,2.227-5.646,3.147-8.34.157-.47.192-.523.362-.606.3-.174.331-.2.331-.279,0-.174-.331-.3-.484-.331l-2.053-.5a90.775,90.775,0,0,1-3.422,10.267c-1.007.087-1.512.122-1.927.139l.415,2.014c.07.314.122.47.261.47a.181.181,0,0,0,.139-.07c.017-.017.227-.227.261-.244.122-.087,8.392-1.46,10.061-1.739a13.228,13.228,0,0,1,.728,1.948l1.966-1.077a23.106,23.106,0,0,0-3.736-6.116Z" transform="translate(-4137.524 5939.526)" fill="#fff"/>
    <rect id="長方形_8645" data-name="長方形 8645" width="106.895" height="78.116" rx="5" transform="translate(-3981.896 5924.914)" fill="none"/>
  </g>
</svg>
