<svg id="グループ_19779" data-name="グループ 19779" xmlns="http://www.w3.org/2000/svg" width="67.296" height="44.902" viewBox="0 0 67.296 44.902">
  <path id="パス_5676" data-name="パス 5676" d="M386.631,175.462c0-10.15,5.561-15.888,12.886-15.888,7.371,0,12.932,5.738,12.932,15.888s-5.561,15.888-12.932,15.888c-7.325,0-12.886-5.738-12.886-15.888m20.036,0c0-7.458-2.913-10.9-7.15-10.9-4.193,0-7.1,3.442-7.1,10.9s2.911,10.9,7.1,10.9c4.237,0,7.15-3.442,7.15-10.9" transform="translate(-386.413 -146.448)" fill="#0054a3"/>
  <path id="パス_5677" data-name="パス 5677" d="M426.919,186.053v4.855H404.146v-3.839l12.269-11.653c3-2.867,3.531-4.678,3.531-6.4,0-2.825-1.941-4.458-5.738-4.458a8.718,8.718,0,0,0-7.237,3.223l-4.016-3.09c2.382-3.221,6.664-5.12,11.739-5.12,6.708,0,11.033,3.4,11.033,8.872,0,3-.839,5.736-5.12,9.752l-8.253,7.856Z" transform="translate(-372.639 -146.449)" fill="#0054a3"/>
  <path id="パス_5678" data-name="パス 5678" d="M419.087,176.426a3.619,3.619,0,1,1,7.237,0,3.619,3.619,0,1,1-7.237,0" transform="translate(-359.028 -135.32)" fill="#0054a3"/>
  <path id="パス_5679" data-name="パス 5679" d="M386.513,160.643l.7-1.554a5.241,5.241,0,0,0,2.943.931c1.222,0,1.718-.407,1.718-.955,0-1.669-5.183-.524-5.183-3.835,0-1.516,1.222-2.775,3.756-2.775a5.987,5.987,0,0,1,3.1.789l-.636,1.565a5.044,5.044,0,0,0-2.471-.7c-1.224,0-1.694.457-1.694,1.018,0,1.643,5.183.509,5.183,3.783,0,1.49-1.235,2.764-3.781,2.764a6.348,6.348,0,0,1-3.63-1.033" transform="translate(-386.513 -152.455)" fill="#0054a3"/>
  <path id="パス_5680" data-name="パス 5680" d="M393.537,154.219h-2.852v-1.682h7.768v1.682H395.6v7.233h-2.063Z" transform="translate(-382.993 -152.386)" fill="#0054a3"/>
  <path id="パス_5681" data-name="パス 5681" d="M402.4,159.8v1.656h-6.9v-8.915h6.737v1.656h-4.687v1.936h4.139v1.6h-4.139V159.8Z" transform="translate(-378.932 -152.385)" fill="#0054a3"/>
  <path id="パス_5682" data-name="パス 5682" d="M407.863,155.773c0,1.988-1.49,3.223-3.872,3.223h-1.8v2.458h-2.063v-8.917h3.859c2.382,0,3.872,1.237,3.872,3.236m-2.089,0c0-.981-.636-1.554-1.9-1.554H402.2v3.1h1.682c1.261,0,1.9-.573,1.9-1.541" transform="translate(-375.021 -152.386)" fill="#0054a3"/>
</svg>
