<svg xmlns="http://www.w3.org/2000/svg" width="177.086" height="176.448" viewBox="0 0 177.086 176.448">
  <g id="グループ_19823" data-name="グループ 19823" transform="translate(4485.126 -6562.581)">
    <path id="パス_5602" data-name="パス 5602" d="M336.266,156H206.7a23.761,23.761,0,0,1,0-47.523H336.266a23.761,23.761,0,1,1,0,47.523" transform="translate(-4668.068 6583.03)" fill="#4abbf3"/>
    <path id="パス_5604" data-name="パス 5604" d="M222.832,90.064h6.928l-.011-.011a14.547,14.547,0,0,1-4.255-9.412c-.025-.361-.039-.725-.039-1.086,0-2.718,1.191-5.255,3.112-6.357,1.366-.784,2.271-2.234,3.437-5.546,0,0,.336,6.489,5.364,4.935,2.687-.83,3.912-2.2,5.585.527a10.934,10.934,0,0,1,1.45,5.657v2.439a13.666,13.666,0,0,1-1.646,6.605,11.062,11.062,0,0,1-1.637,2.25h6.071a4.79,4.79,0,0,0,4.537-6.328L250.6,80.4a5.58,5.58,0,0,1-.125-3.016,6.83,6.83,0,0,0-1.034-5.632,7.848,7.848,0,0,0-1.073-1.168,3.266,3.266,0,0,1-1.118-2.455,11.993,11.993,0,0,0-12.281-12.149h-.082A12.026,12.026,0,0,0,222.543,68.13a3.286,3.286,0,0,1-1.121,2.459,7.726,7.726,0,0,0-1.052,1.143,6.836,6.836,0,0,0-1.05,5.653,5.6,5.6,0,0,1-.125,3.016l-1.057,3.116a4.955,4.955,0,0,0,4.694,6.546" transform="translate(-4607.903 6506.6)" fill="#0054a3"/>
    <path id="パス_5605" data-name="パス 5605" d="M253.244,75.938c-.33-.123-5.048-1.475-8.267-2.73-.341-.134-.682-.257-1.011-.391h-.22l.648,3.034.561,2.6a.979.979,0,0,1-.5,1.061l-2.866,1.523a.993.993,0,0,0-.475,1.134l.7,2.353a1,1,0,0,1-.293,1l-3.757,4.453-.664-10.053a1.682,1.682,0,0,1,.2-1.084l1.146-1.989a1.584,1.584,0,0,0,0-1.627l-.966-1.673a1.621,1.621,0,0,0-1.416-.827h-1.927a1.621,1.621,0,0,0-1.416.827l-.964,1.673a1.574,1.574,0,0,0,0,1.627l1.143,1.989a1.7,1.7,0,0,1,.2,1.084l-.666,10.053-3.757-4.453a.994.994,0,0,1-.291-1l.693-2.353a.993.993,0,0,0-.475-1.134l-2.871-1.527a.967.967,0,0,1-.493-1.057l.511-2.414.7-3.218h-.22c-.33.134-.671.257-1.011.391-1.621.632-4.535,1.291-5.864,1.8-.048.025-.109.036-.159.061-.568.22-1.062.4-1.434.559v26.5h35.392a4.972,4.972,0,0,0,4.971-4.973V83.5a8.324,8.324,0,0,0-4.864-7.56" transform="translate(-4608.064 6527.908)" fill="#0054a3"/>
    <path id="パス_5606" data-name="パス 5606" d="M241.747,71.351H196.693a1.75,1.75,0,0,0-1.741,1.748v31.917a1.75,1.75,0,0,0,1.741,1.748h15.658v2.7H210a1.95,1.95,0,1,0,0,3.9h18.5a1.95,1.95,0,0,0,0-3.9h-2.3v-2.7h15.6a1.75,1.75,0,0,0,1.741-1.748V73.153a1.8,1.8,0,0,0-1.8-1.8m-22.5,33.789A1.849,1.849,0,1,1,221.1,103.3a1.857,1.857,0,0,1-1.857,1.841M240.015,99.3H198.48V74.863h41.536Z" transform="translate(-4637.079 6526.166)" fill="#0054a3"/>
    <text id="ブリッジSE" transform="translate(-4396.126 6723.193)" fill="#fff" font-size="18" font-family="Meiryo-Bold, Meiryo" font-weight="700"><tspan x="-50" y="0">ブリッ</tspan><tspan y="0" letter-spacing="0.249em">ジ</tspan><tspan y="0">SE</tspan></text>
  </g>
</svg>
