<svg xmlns="http://www.w3.org/2000/svg" width="106.896" height="78.116" viewBox="0 0 106.896 78.116">
  <g id="グループ_19821" data-name="グループ 19821" transform="translate(4473 -5924.914)">
    <rect id="長方形_8644" data-name="長方形 8644" width="106.896" height="78.116" rx="5" transform="translate(-4473 5924.914)" fill="#4abbf3"/>
    <path id="パス_5634" data-name="パス 5634" d="M46.163,31.951c0,1.687-.641,2.154-1.77,2.154a1.6,1.6,0,0,1-1.809-1.736V31.013H40.239v1.356c0,2.293,1.338,3.84,4.015,3.84a4.507,4.507,0,0,0,3.213-1.133,4.092,4.092,0,0,0,1.042-2.969v-9H46.163Z" transform="translate(-4483.088 5922.032)" fill="#fff"/>
    <path id="パス_5635" data-name="パス 5635" d="M51.494,32.5V27.354c0-2.415-1.875-3.356-4.032-3.356-1.251,0-3.837.383-4.011,3.286h2.067a1.29,1.29,0,0,1,.366-.924,2.605,2.605,0,0,1,1.788-.572c.714,0,1.512.227,1.512.972,0,.871-1.129,1.059-2.136,1.2-2.088.3-4.015.937-4.015,3.095,0,1.181.694,2.746,3.265,2.746,2.189,0,2.764-1.08,3.025-1.582a2.445,2.445,0,0,0,.279,1.356h2.415a1.2,1.2,0,0,1-.523-1.077m-2.311-3.286v1.059c0,1.3-1.391,1.9-2.328,1.9a1.338,1.338,0,0,1-1.478-1.181c0-1.129,1.286-1.443,2.154-1.582a2.516,2.516,0,0,0,1.774-.8Z" transform="translate(-4476.148 5924.249)" fill="#fff"/>
    <path id="パス_5636" data-name="パス 5636" d="M50.584,24A2.539,2.539,0,0,0,48.1,25.563l.084-.746v-.592H45.89V35.9h2.293V33.85l-.136-1.77A2.8,2.8,0,0,0,50.7,33.8c2.38,0,3.635-2.555,3.635-5.071,0-2.384-1.115-4.729-3.753-4.729m-.505,7.89c-1.652,0-1.9-1.809-1.9-2.99,0-1.356.627-2.934,2-2.934,1.356,0,1.857,1.5,1.857,2.812,0,1.269-.45,3.112-1.962,3.112" transform="translate(-4469.046 5924.249)" fill="#fff"/>
    <path id="パス_5637" data-name="パス 5637" d="M57.041,32.5V27.354c0-2.415-1.875-3.356-4.032-3.356-1.248,0-3.837.383-4.011,3.286h2.067a1.29,1.29,0,0,1,.366-.924,2.605,2.605,0,0,1,1.788-.572c.714,0,1.512.227,1.512.972,0,.871-1.129,1.059-2.136,1.2-2.088.3-4.015.937-4.015,3.095,0,1.181.694,2.746,3.265,2.746,2.192,0,2.764-1.08,3.025-1.582a2.446,2.446,0,0,0,.279,1.356h2.415a1.2,1.2,0,0,1-.523-1.077M54.73,29.212v1.059c0,1.3-1.391,1.9-2.328,1.9a1.338,1.338,0,0,1-1.478-1.181c0-1.129,1.286-1.443,2.154-1.582a2.516,2.516,0,0,0,1.774-.8Z" transform="translate(-4462.364 5924.249)" fill="#fff"/>
    <path id="パス_5638" data-name="パス 5638" d="M56.519,24A3.085,3.085,0,0,0,53.633,25.8l.087-.8v-.781H51.427v9.347H53.72V28.118a1.938,1.938,0,0,1,2.053-2.192c1.147,0,1.579.7,1.579,1.739v5.907h2.293V27.3c0-2.119-1.147-3.3-3.126-3.3" transform="translate(-4455.286 5924.251)" fill="#fff"/>
    <path id="パス_5639" data-name="パス 5639" d="M42.86,43.736h2.07v-.99H51.5v.9h2.035V30.27H42.86Zm2.07-11.553H51.5v3.3H44.93Zm0,5.106H51.5V40.85H44.93Z" transform="translate(-4476.575 5939.834)" fill="#fff"/>
    <path id="パス_5640" data-name="パス 5640" d="M56.307,34.762h5.457V32.884H55.4V30.748c0-.07.052-.122.157-.209.1-.07.157-.122.157-.192,0-.192-.418-.261-.645-.275l-1.7-.091v2.9h-6.43v1.878h5.248a18.537,18.537,0,0,1-5.405,7.263l1.652,1.164a23.351,23.351,0,0,0,4.935-6.621v3.945h-2.4v1.739h2.4v2.795H55.4V42.252h2.537V40.565a14.368,14.368,0,0,0,2.676,2.363l1.425-1.391a15.818,15.818,0,0,1-5.736-6.775m-.9,5.75V36.759a15.112,15.112,0,0,0,2.5,3.753Z" transform="translate(-4466.819 5939.116)" fill="#fff"/>
  </g>
</svg>
