<svg xmlns="http://www.w3.org/2000/svg" width="399" height="237.222" viewBox="0 0 399 237.222">
  <g id="グループ_19871" data-name="グループ 19871" transform="translate(-15 -3810.283)">
    <rect id="長方形_8648" data-name="長方形 8648" width="0.458" height="48.941" transform="translate(351.214 3935.303)" fill="#7dccf0"/>
    <rect id="長方形_8649" data-name="長方形 8649" width="0.458" height="46.744" transform="translate(351.563 3871.146)" fill="#7dccf0"/>
    <rect id="長方形_8650" data-name="長方形 8650" width="287.024" height="8.15" transform="translate(126.974 3919.717)" fill="#7dccf0"/>
    <rect id="長方形_8651" data-name="長方形 8651" width="0.458" height="48.941" transform="translate(76.508 3939.454)" fill="#7dccf0"/>
    <path id="パス_5668" data-name="パス 5668" d="M122.282,116.523H1.4a1.2,1.2,0,0,1-1.2-1.2V87.756a1.2,1.2,0,0,1,1.2-1.2H122.282a1.2,1.2,0,0,1,1.2,1.2v27.565a1.2,1.2,0,0,1-1.2,1.2" transform="translate(15.029 3822.931)" fill="#fff"/>
    <path id="パス_5669" data-name="パス 5669" d="M122.311,116.782H1.43A1.432,1.432,0,0,1,0,115.352V87.785a1.432,1.432,0,0,1,1.43-1.43H122.311a1.432,1.432,0,0,1,1.43,1.43v27.567a1.432,1.432,0,0,1-1.43,1.43M1.43,86.813a.973.973,0,0,0-.972.972v27.567a.973.973,0,0,0,.972.972H122.311a.974.974,0,0,0,.972-.972V87.785a.974.974,0,0,0-.972-.972Z" transform="translate(15 3822.902)" fill="#7dccf0"/>
    <path id="パス_5670" data-name="パス 5670" d="M90.2,183.033a32.141,32.141,0,1,0-32.141,32.141A32.14,32.14,0,0,0,90.2,183.033" transform="translate(18.787 3832.332)" fill="#c3e7f9"/>
    <rect id="長方形_8652" data-name="長方形 8652" width="0.458" height="46.744" transform="translate(214.582 3871.146)" fill="#7dccf0"/>
    <path id="パス_5671" data-name="パス 5671" d="M242.364,116.523H121.483a1.2,1.2,0,0,1-1.2-1.2V87.756a1.2,1.2,0,0,1,1.2-1.2H242.364a1.2,1.2,0,0,1,1.2,1.2v27.565a1.2,1.2,0,0,1-1.2,1.2" transform="translate(32.576 3822.931)" fill="#fff"/>
    <path id="パス_5672" data-name="パス 5672" d="M242.393,116.782H121.512a1.432,1.432,0,0,1-1.43-1.43V87.785a1.432,1.432,0,0,1,1.43-1.43H242.393a1.432,1.432,0,0,1,1.43,1.43v27.567a1.432,1.432,0,0,1-1.43,1.43M121.512,86.813a.973.973,0,0,0-.972.972v27.567a.973.973,0,0,0,.972.972H242.393a.974.974,0,0,0,.972-.972V87.785a.974.974,0,0,0-.972-.972Z" transform="translate(32.547 3822.902)" fill="#7dccf0"/>
    <path id="パス_5673" data-name="パス 5673" d="M362.445,116.523H241.564a1.2,1.2,0,0,1-1.2-1.2V87.756a1.2,1.2,0,0,1,1.2-1.2H362.445a1.2,1.2,0,0,1,1.2,1.2v27.565a1.2,1.2,0,0,1-1.2,1.2" transform="translate(50.123 3822.931)" fill="#fff"/>
    <path id="パス_5674" data-name="パス 5674" d="M362.475,116.782H241.594a1.432,1.432,0,0,1-1.43-1.43V87.785a1.432,1.432,0,0,1,1.43-1.43H362.475a1.432,1.432,0,0,1,1.43,1.43v27.567a1.432,1.432,0,0,1-1.43,1.43M241.594,86.813a.973.973,0,0,0-.972.972v27.567a.973.973,0,0,0,.972.972H362.475a.974.974,0,0,0,.972-.972V87.785a.974.974,0,0,0-.972-.972Z" transform="translate(50.095 3822.902)" fill="#7dccf0"/>
    <path id="パス_5675" data-name="パス 5675" d="M210.575,32.141a32.141,32.141,0,1,0-32.141,32.141,32.14,32.14,0,0,0,32.141-32.141" transform="translate(36.377 3810.283)" fill="#c3e7f9"/>
    <text id="案件内容提示" transform="translate(38.986 3927.26)" fill="#4ea0bb" font-size="11" font-family="Meiryo-Bold, Meiryo" font-weight="700"><tspan x="0" y="0">案件内容提示</tspan></text>
    <text id="工数算出_お見積" data-name="工数算出・お見積" transform="translate(165.521 3927.26)" fill="#4ea0bb" font-size="11" font-family="Meiryo-Bold, Meiryo" font-weight="700"><tspan x="0" y="0">工数算出・お見積</tspan></text>
    <text id="面談_ご契約" data-name="面談・ご契約" transform="translate(315.582 3927.26)" fill="#4ea0bb" font-size="11" font-family="Meiryo-Bold, Meiryo" font-weight="700"><tspan x="0" y="0">面談・ご契約</tspan></text>
    <path id="パス_5710" data-name="パス 5710" d="M176.911,15.869h-1.879a3.278,3.278,0,0,0-6.371,0h-1.879a1.19,1.19,0,0,0-1.19,1.19v1.895a1.189,1.189,0,0,0,1.19,1.19h10.128a1.189,1.189,0,0,0,1.19-1.19V17.059a1.189,1.189,0,0,0-1.19-1.19M171.839,18a1.347,1.347,0,1,1,1.362-1.347A1.347,1.347,0,0,1,171.839,18" transform="translate(39.197 3812.236)" fill="#0054a3"/>
    <path id="パス_5711" data-name="パス 5711" d="M182.135,17.053h-1.487v1.362a2.954,2.954,0,0,1-2.943,2.959H167.577a2.967,2.967,0,0,1-2.959-2.959V17.053H163.13a2.973,2.973,0,0,0-2.974,2.974V43.494a2.973,2.973,0,0,0,2.974,2.974H176.5a2.524,2.524,0,0,1-.141-.846V27.228A2.652,2.652,0,0,1,179,24.583h6.121V20.027a2.987,2.987,0,0,0-2.99-2.974M168.7,25.319a.248.248,0,0,1,.251-.251,3.444,3.444,0,0,1,3.444,3.444.245.245,0,0,1-.235.251h-3.209a.248.248,0,0,1-.251-.251Zm-2.818,17.329a.414.414,0,0,1-.407.407h-1.268a.429.429,0,0,1-.423-.407V40.034a.429.429,0,0,1,.423-.407h1.268a.414.414,0,0,1,.407.407Zm3.382,0a.415.415,0,0,1-.407.407h-1.269a.4.4,0,0,1-.407-.407V37.841a.408.408,0,0,1,.407-.422h1.269a.418.418,0,0,1,.407.422Zm-1.785-9.2a3.452,3.452,0,0,1,0-6.9.247.247,0,0,1,.25.251v2.755a.194.194,0,0,0,.2.188h2.755a.257.257,0,0,1,.25.25,3.461,3.461,0,0,1-3.459,3.46m5.166,9.2a.418.418,0,0,1-.423.407h-1.253a.418.418,0,0,1-.422-.407V35.635a.419.419,0,0,1,.422-.408h1.253a.419.419,0,0,1,.423.408Z" transform="translate(38.403 3812.775)" fill="#0054a3"/>
    <path id="パス_5712" data-name="パス 5712" d="M189.514,25.193h-12.8a.85.85,0,0,0-.85.85V44.432a.85.85,0,0,0,.85.85h12.8a.85.85,0,0,0,.85-.85V26.043a.85.85,0,0,0-.85-.85M179.7,42.773a1.069,1.069,0,1,1,1.069-1.069,1.07,1.07,0,0,1-1.069,1.069m0-3.3a1.069,1.069,0,1,1,1.069-1.069,1.069,1.069,0,0,1-1.069,1.069m0-3.3a1.069,1.069,0,1,1,1.069-1.069,1.07,1.07,0,0,1-1.069,1.069m3.409,6.6a1.069,1.069,0,1,1,1.069-1.069,1.07,1.07,0,0,1-1.069,1.069m0-3.3a1.069,1.069,0,1,1,1.069-1.069,1.069,1.069,0,0,1-1.069,1.069m0-3.3a1.069,1.069,0,1,1,1.069-1.069,1.07,1.07,0,0,1-1.069,1.069m3.409,6.6A1.069,1.069,0,1,1,187.59,41.7a1.07,1.07,0,0,1-1.069,1.069m0-3.3A1.069,1.069,0,1,1,187.59,38.4a1.069,1.069,0,0,1-1.069,1.069m0-3.3A1.069,1.069,0,1,1,187.59,35.1a1.07,1.07,0,0,1-1.069,1.069m1.534-4.75a.822.822,0,0,1-.823.823h-8.238a.822.822,0,0,1-.823-.823v-3.1a.823.823,0,0,1,.823-.824h8.238a.823.823,0,0,1,.823.824Z" transform="translate(40.698 3813.965)" fill="#0054a3"/>
    <path id="パス_5713" data-name="パス 5713" d="M329.6,32.141a32.141,32.141,0,1,0-32.141,32.141A32.14,32.14,0,0,0,329.6,32.141" transform="translate(53.771 3810.283)" fill="#c3e7f9"/>
    <path id="パス_5714" data-name="パス 5714" d="M294.584,12.418a.643.643,0,1,1,.642.673.644.644,0,0,1-.642-.673m2.316,0a.643.643,0,1,1,.643.673.645.645,0,0,1-.643-.673m2.316,0a.644.644,0,1,1,.643.673.645.645,0,0,1-.643-.673" transform="translate(58.046 3812)" fill="#0054a3"/>
    <path id="パス_5715" data-name="パス 5715" d="M291.416,20.14a.3.3,0,0,1-.28-.419l1.307-3.153a6.776,6.776,0,0,1,.988-8.321,6.771,6.771,0,1,1,1.255,10.563l-3.154,1.308a.294.294,0,0,1-.116.023m6.8-13.27a6.165,6.165,0,0,0-5.181,9.5.3.3,0,0,1,.025.281l-1.087,2.622,2.622-1.088a.305.305,0,0,1,.281.025A6.163,6.163,0,1,0,298.218,6.87m4.573,10.737h0Z" transform="translate(57.54 3811.198)" fill="#0054a3"/>
    <path id="パス_5716" data-name="パス 5716" d="M307.935,28.806l-.348-1.029a1.719,1.719,0,0,1-.039-.931,2.11,2.11,0,0,0-.319-1.738,2.456,2.456,0,0,0-.331-.361,1,1,0,0,1-.345-.756,3.7,3.7,0,0,0-3.789-3.749h-.025a3.711,3.711,0,0,0-3.807,3.749,1.011,1.011,0,0,1-.346.759,2.344,2.344,0,0,0-.324.353,2.107,2.107,0,0,0-.324,1.743,1.729,1.729,0,0,1-.038.931l-.327.962a1.529,1.529,0,0,0,1.449,2.019h2.138l0,0a4.489,4.489,0,0,1-1.312-2.9c-.008-.112-.011-.225-.011-.336a2.248,2.248,0,0,1,.959-1.961c.422-.242.7-.69,1.06-1.711,0,0,.1,2,1.655,1.522.829-.256,1.207-.68,1.724.163a3.381,3.381,0,0,1,.447,1.746v.752a4.221,4.221,0,0,1-.508,2.039,3.391,3.391,0,0,1-.505.693h1.874a1.478,1.478,0,0,0,1.4-1.952" transform="translate(58.471 3813.241)" fill="#0054a3"/>
    <path id="パス_5717" data-name="パス 5717" d="M308.587,31.477c-.1-.038-1.558-.455-2.55-.842-.105-.041-.211-.079-.312-.12h-.069l.2.936.173.8a.3.3,0,0,1-.154.328l-.884.47a.3.3,0,0,0-.147.35l.214.725a.31.31,0,0,1-.091.309l-1.16,1.373-.2-3.1a.523.523,0,0,1,.06-.335l.354-.613a.487.487,0,0,0,0-.5l-.3-.516a.5.5,0,0,0-.437-.256h-.595a.5.5,0,0,0-.437.256l-.3.516a.487.487,0,0,0,0,.5l.353.613a.523.523,0,0,1,.061.335l-.205,3.1L301,34.434a.307.307,0,0,1-.091-.309l.214-.725a.306.306,0,0,0-.147-.35l-.886-.471a.3.3,0,0,1-.152-.327l.158-.745.214-.993h-.068c-.1.041-.206.079-.312.12-.5.2-1.4.4-1.81.557-.015.007-.033.01-.049.018-.183.071-.345.132-.462.181l-.229.086a2.579,2.579,0,0,0-1.5,2.332v4.21a1.537,1.537,0,0,0,1.538,1.537h11.131a1.533,1.533,0,0,0,1.534-1.534V33.809a2.567,2.567,0,0,0-1.5-2.332" transform="translate(58.236 3814.738)" fill="#0054a3"/>
    <path id="パス_5718" data-name="パス 5718" d="M294.335,34.772v3.974a.959.959,0,0,1-.962.956h-5.908l-.4-4.526v-.006a.724.724,0,0,1,.149-.536.121.121,0,0,0,.023-.034l.512-.892a.382.382,0,0,0,0-.386l-.512-.887a.386.386,0,0,0-.334-.2h-1.025a.386.386,0,0,0-.335.2l-.512.887a.387.387,0,0,0,0,.386l.512.892a.12.12,0,0,0,.023.034.725.725,0,0,1,.15.536v.006l-.4,4.526h-5.908a.959.959,0,0,1-.962-.956V34.772a3.359,3.359,0,0,1,2.54-3.242l2.182-.783a.153.153,0,0,1,.017-.069l.386-.967a.335.335,0,0,1,.484-.167l1.394.841.939.564.939-.564,1.387-.836a.337.337,0,0,1,.491.162l.385.967a.152.152,0,0,1,.017.069l2.182.783a3.355,3.355,0,0,1,2.54,3.242" transform="translate(55.689 3814.594)" fill="#0054a3"/>
    <path id="パス_5719" data-name="パス 5719" d="M289.667,24.02v1.048a5.729,5.729,0,0,1-.046.731,7.093,7.093,0,0,1-.253,1.163,6.677,6.677,0,0,1-1.158,2.171c-.086.1-.173.207-.265.306l-.3.328a2.1,2.1,0,0,1-1.544.685h-.461a2.089,2.089,0,0,1-1.543-.685l-.306-.328c-.092-.1-.178-.2-.259-.306a6.342,6.342,0,0,1-.857-1.387,6.47,6.47,0,0,1-.554-1.953,4.888,4.888,0,0,1-.052-.7V24.043a3.746,3.746,0,0,1,.144-1.048,3.8,3.8,0,0,1,7.312.006,3.52,3.52,0,0,1,.144,1.019" transform="translate(56.217 3813.241)" fill="#0054a3"/>
    <path id="パス_5720" data-name="パス 5720" d="M329.6,183.033a32.141,32.141,0,1,0-32.141,32.141A32.14,32.14,0,0,0,329.6,183.033" transform="translate(53.771 3832.332)" fill="#c3e7f9"/>
    <path id="パス_5721" data-name="パス 5721" d="M294.584,163.31a.643.643,0,1,1,.642.673.644.644,0,0,1-.642-.673m2.316,0a.643.643,0,1,1,.643.673.645.645,0,0,1-.643-.673m2.316,0a.644.644,0,1,1,.643.673.645.645,0,0,1-.643-.673" transform="translate(58.046 3834.05)" fill="#0054a3"/>
    <path id="パス_5722" data-name="パス 5722" d="M291.416,171.032a.3.3,0,0,1-.28-.419l1.307-3.153a6.776,6.776,0,0,1,.988-8.321,6.771,6.771,0,1,1,1.255,10.563l-3.154,1.308a.294.294,0,0,1-.116.023m6.8-13.27a6.165,6.165,0,0,0-5.181,9.5.3.3,0,0,1,.025.281l-1.087,2.622,2.622-1.088a.305.305,0,0,1,.281.025,6.163,6.163,0,1,0,3.339-11.344m4.573,10.737h0Z" transform="translate(57.54 3833.248)" fill="#0054a3"/>
    <path id="パス_5723" data-name="パス 5723" d="M307.935,179.7l-.348-1.028a1.719,1.719,0,0,1-.039-.931,2.11,2.11,0,0,0-.319-1.738,2.456,2.456,0,0,0-.331-.361,1,1,0,0,1-.345-.758,3.7,3.7,0,0,0-3.789-3.749h-.025a3.711,3.711,0,0,0-3.807,3.749,1.011,1.011,0,0,1-.346.76,2.29,2.29,0,0,0-.324.353,2.106,2.106,0,0,0-.324,1.743,1.729,1.729,0,0,1-.038.931l-.327.962a1.529,1.529,0,0,0,1.449,2.019h2.138l0,0a4.492,4.492,0,0,1-1.312-2.9c-.008-.113-.011-.226-.011-.337a2.245,2.245,0,0,1,.959-1.96c.422-.242.7-.69,1.06-1.711,0,0,.1,2,1.655,1.522.829-.256,1.207-.68,1.724.163a3.376,3.376,0,0,1,.447,1.744v.752a4.226,4.226,0,0,1-.508,2.04,3.391,3.391,0,0,1-.505.693h1.874a1.479,1.479,0,0,0,1.4-1.953" transform="translate(58.471 3835.29)" fill="#0054a3"/>
    <path id="パス_5724" data-name="パス 5724" d="M308.587,182.369c-.1-.038-1.558-.455-2.55-.842-.105-.041-.211-.079-.312-.12h-.069l.2.936.173.8a.3.3,0,0,1-.154.328l-.884.47a.3.3,0,0,0-.147.35l.214.725a.31.31,0,0,1-.091.309l-1.16,1.373-.2-3.1a.523.523,0,0,1,.06-.335l.354-.613a.487.487,0,0,0,0-.5l-.3-.516a.5.5,0,0,0-.437-.256h-.595a.5.5,0,0,0-.437.256l-.3.516a.487.487,0,0,0,0,.5l.353.613a.523.523,0,0,1,.061.335l-.205,3.1L301,185.326a.307.307,0,0,1-.091-.309l.214-.725a.306.306,0,0,0-.147-.35l-.886-.471a.3.3,0,0,1-.152-.327l.158-.745.214-.993h-.068c-.1.041-.206.079-.312.12-.5.2-1.4.4-1.81.557-.015.007-.033.01-.049.018-.183.071-.345.132-.462.181l-.229.086a2.579,2.579,0,0,0-1.5,2.332v4.21a1.537,1.537,0,0,0,1.538,1.537h11.131a1.533,1.533,0,0,0,1.534-1.534V184.7a2.567,2.567,0,0,0-1.5-2.332" transform="translate(58.236 3836.787)" fill="#0054a3"/>
    <path id="パス_5725" data-name="パス 5725" d="M294.335,185.662v3.975a.959.959,0,0,1-.962.956h-5.908l-.4-4.526v-.007a.723.723,0,0,1,.149-.535.12.12,0,0,0,.023-.034l.512-.892a.382.382,0,0,0,0-.386l-.512-.887a.386.386,0,0,0-.334-.2h-1.025a.386.386,0,0,0-.335.2l-.512.887a.387.387,0,0,0,0,.386l.512.892a.119.119,0,0,0,.023.034.723.723,0,0,1,.15.535v.007l-.4,4.526h-5.908a.959.959,0,0,1-.962-.956v-3.975a3.341,3.341,0,0,1,1.964-3.041,3.41,3.41,0,0,1,.575-.2l2.182-.783a.146.146,0,0,1,.017-.069l.386-.967a.334.334,0,0,1,.484-.167l1.394.841.939.564.939-.564,1.387-.836a.336.336,0,0,1,.491.162l.385.967a.145.145,0,0,1,.017.069l2.182.783a3.458,3.458,0,0,1,.576.2,3.34,3.34,0,0,1,1.963,3.041" transform="translate(55.689 3836.643)" fill="#0054a3"/>
    <path id="パス_5726" data-name="パス 5726" d="M289.667,174.912v1.048a5.715,5.715,0,0,1-.046.731,7.093,7.093,0,0,1-.253,1.163,6.677,6.677,0,0,1-1.158,2.171c-.086.1-.173.207-.265.306l-.3.328a2.1,2.1,0,0,1-1.544.685h-.461a2.089,2.089,0,0,1-1.543-.685l-.306-.328c-.092-.1-.178-.2-.259-.306a6.343,6.343,0,0,1-.857-1.387,6.47,6.47,0,0,1-.554-1.953,4.889,4.889,0,0,1-.052-.7v-1.048a3.746,3.746,0,0,1,.144-1.048,3.8,3.8,0,0,1,7.312.006,3.521,3.521,0,0,1,.144,1.019" transform="translate(56.217 3835.291)" fill="#0054a3"/>
    <path id="パス_5727" data-name="パス 5727" d="M55.157,171.454a9.284,9.284,0,0,1,9.287,9.3,1.291,1.291,0,0,0,1.278,1.3h.01a1.29,1.29,0,0,0,1.289-1.278,11.861,11.861,0,0,0-11.865-11.9,1.288,1.288,0,1,0,0,2.576" transform="translate(22.872 3834.961)" fill="#0054a3"/>
    <path id="パス_5728" data-name="パス 5728" d="M55.152,175.759a4.369,4.369,0,0,1,4.382,4.382,1.288,1.288,0,0,0,2.576,0,6.946,6.946,0,0,0-6.958-6.958,1.288,1.288,0,0,0,0,2.577" transform="translate(22.871 3835.59)" fill="#0054a3"/>
    <path id="パス_5729" data-name="パス 5729" d="M53.818,180.929h0a2.017,2.017,0,0,0,2.853-2.853,2.068,2.068,0,0,0-2.853,0,2.017,2.017,0,0,0,0,2.853Z" transform="translate(22.778 3836.222)" fill="#0054a3"/>
    <path id="パス_5730" data-name="パス 5730" d="M67.993,188.443l-5.553-2.871a1.834,1.834,0,0,0-2.289.5l-2.038,2.614a20.7,20.7,0,0,1-5.241-3.841,20.261,20.261,0,0,1-3.881-5.332l2.585-2.018a1.833,1.833,0,0,0,.5-2.288l-2.856-5.524A1.834,1.834,0,0,0,46.574,169l-3.537,2.358a2.749,2.749,0,0,0-1.218,2.474,19.116,19.116,0,0,0,.424,3.16,26.172,26.172,0,0,0,6.97,11.513,26.18,26.18,0,0,0,11.512,6.968,19,19,0,0,0,3.172.423,2.748,2.748,0,0,0,2.493-1.256l2.3-3.576a1.834,1.834,0,0,0-.7-2.622" transform="translate(21.11 3834.934)" fill="#0054a3"/>
  </g>
</svg>
