<svg xmlns="http://www.w3.org/2000/svg" width="51.475" height="67.451" viewBox="0 0 51.475 67.451">
  <g id="グループ_19867" data-name="グループ 19867" transform="translate(-188 -1498.928)">
    <path id="パス_5620" data-name="パス 5620" d="M74.971,88.192V101.07a3.108,3.108,0,0,1-3.118,3.1H52.706L51.414,89.5v-.018a2.344,2.344,0,0,1,.486-1.737.52.52,0,0,0,.077-.111l1.659-2.893a1.253,1.253,0,0,0,0-1.25l-1.659-2.875a1.254,1.254,0,0,0-1.086-.634H47.573a1.254,1.254,0,0,0-1.086.634L44.83,83.489a1.242,1.242,0,0,0,0,1.25l1.657,2.893a.52.52,0,0,0,.077.111,2.344,2.344,0,0,1,.486,1.737V89.5l-1.289,14.67H26.612a3.107,3.107,0,0,1-3.116-3.1V88.192a10.825,10.825,0,0,1,6.364-9.855,10.6,10.6,0,0,1,1.866-.652L38.8,75.145a.506.506,0,0,1,.057-.223l1.25-3.137a1.086,1.086,0,0,1,1.568-.541l4.514,2.725,3.043,1.83,3.043-1.83,4.5-2.707a1.085,1.085,0,0,1,1.584.523l1.25,3.137a.48.48,0,0,1,.059.223l7.071,2.539a10.6,10.6,0,0,1,1.866.652,10.824,10.824,0,0,1,6.367,9.855" transform="translate(164.504 1462.211)" fill="#0054a3"/>
    <path id="パス_5621" data-name="パス 5621" d="M54.035,68.213v3.4a18.542,18.542,0,0,1-.15,2.368,23.04,23.04,0,0,1-.821,3.771,21.726,21.726,0,0,1-3.75,7.037c-.282.336-.561.671-.859.989l-.989,1.064a6.789,6.789,0,0,1-5,2.221H40.971a6.781,6.781,0,0,1-5-2.221l-.989-1.064c-.3-.318-.577-.652-.839-.989a20.566,20.566,0,0,1-2.782-4.5,20.993,20.993,0,0,1-1.791-6.328,15.862,15.862,0,0,1-.168-2.277v-3.4a12.322,12.322,0,0,1,24.17-3.378,11.517,11.517,0,0,1,.466,3.3" transform="translate(172.018 1442.959)" fill="#0054a3"/>
  </g>
</svg>
