<svg id="グループ_19788" data-name="グループ 19788" xmlns="http://www.w3.org/2000/svg" xmlns:xlink="http://www.w3.org/1999/xlink" width="30.465" height="42.995" viewBox="0 0 30.465 42.995">
  <defs>
    <clipPath id="clip-path">
      <rect id="長方形_15912" data-name="長方形 15912" width="30.465" height="42.995" fill="none"/>
    </clipPath>
  </defs>
  <g id="グループ_19787" data-name="グループ 19787" clip-path="url(#clip-path)">
    <path id="パス_9373" data-name="パス 9373" d="M26.679,37.357H24.5v1.722a3.041,3.041,0,0,1-3.038,3.038H9a3.041,3.041,0,0,1-3.038-3.038V37.357H3.786A3.785,3.785,0,0,0,0,41.143v29.13a3.791,3.791,0,0,0,3.786,3.786H26.679a3.791,3.791,0,0,0,3.786-3.786V41.143a3.785,3.785,0,0,0-3.786-3.786M23.111,68H7.354a1.041,1.041,0,1,1,0-2.082H23.111a1.041,1.041,0,1,1,0,2.082m0-6.341H7.354a1.041,1.041,0,1,1,0-2.082H23.111a1.041,1.041,0,1,1,0,2.082m0-6.341H7.354a1.036,1.036,0,1,1,0-2.073H23.111a1.036,1.036,0,1,1,0,2.073m0-6.331H7.354a1.041,1.041,0,1,1,0-2.082H23.111a1.041,1.041,0,1,1,0,2.082" transform="translate(0 -31.063)" fill="#203a72"/>
    <path id="パス_9374" data-name="パス 9374" d="M47.772,9.161H60.236a1.149,1.149,0,0,0,1.145-1.145V4.855A1.157,1.157,0,0,0,60.236,3.7H58.107a4.125,4.125,0,0,0-8.205,0H47.772a1.157,1.157,0,0,0-1.145,1.155V8.016a1.149,1.149,0,0,0,1.145,1.145m6.237-6.89A1.835,1.835,0,0,1,55.8,3.7a1.542,1.542,0,0,1,.057.426,1.85,1.85,0,1,1-3.7,0,1.542,1.542,0,0,1,.057-.426,1.838,1.838,0,0,1,1.8-1.429" transform="translate(-38.772)" fill="#14a0de"/>
  </g>
</svg>
