<svg xmlns="http://www.w3.org/2000/svg" xmlns:xlink="http://www.w3.org/1999/xlink" width="100.252" height="100.252" viewBox="0 0 100.252 100.252">
  <defs>
    <clipPath id="clip-path">
      <rect id="長方形_8708" data-name="長方形 8708" width="57.232" height="39.257" transform="translate(0 0)" fill="none"/>
    </clipPath>
  </defs>
  <g id="グループ_10693" data-name="グループ 10693" transform="translate(-442.5 -3298.196)">
    <path id="パス_5595" data-name="パス 5595" d="M48.626,0A48.626,48.626,0,1,0,97.252,48.626,48.626,48.626,0,0,0,48.626,0" transform="translate(444 3299.696)" fill="none" stroke="#0fa5ef" stroke-width="3" fill-rule="evenodd"/>
    <g id="グループ_10692" data-name="グループ 10692" transform="translate(464.01 3328.695)">
      <g id="グループ_10691" data-name="グループ 10691" transform="translate(0 -0.001)" clip-path="url(#clip-path)">
        <path id="パス_6140" data-name="パス 6140" d="M55.958,573.7H35.524l-.683,1.954a1.273,1.273,0,0,1-1.2.854H23.591a1.275,1.275,0,0,1-1.2-.854l-.682-1.954H1.274A1.274,1.274,0,0,0,0,574.977v2.79a3.442,3.442,0,0,0,3.439,3.439H53.793a3.442,3.442,0,0,0,3.439-3.439v-2.79a1.274,1.274,0,0,0-1.274-1.274" transform="translate(0 -541.949)" fill="#203a72"/>
        <path id="パス_6141" data-name="パス 6141" d="M115.806,0H78.85a6.123,6.123,0,0,0-6.112,6.118V30.036h4.077V6.117A2.041,2.041,0,0,1,78.85,4.076H92l.774,1.206a1.29,1.29,0,0,0,1.069.576h6.961a1.28,1.28,0,0,0,1.069-.576l.781-1.206h13.148a2.041,2.041,0,0,1,2.035,2.042V30.036h4.077V6.117A6.123,6.123,0,0,0,115.806,0M97.327,3.85a.969.969,0,0,1,0-1.939.969.969,0,1,1,0,1.939" transform="translate(-68.712 0.001)" fill="#203a72"/>
        <path id="パス_6142" data-name="パス 6142" d="M525.663,205.131a.828.828,0,0,0,.708-.82v-1.77a.826.826,0,0,0-.708-.818l-1.524-.222c-.192-.462-.243-.585-.434-1.048l.921-1.235a.827.827,0,0,0-.078-1.08l-1.251-1.252a.83.83,0,0,0-1.08-.078l-1.235.922-1.048-.434-.221-1.525a.827.827,0,0,0-.819-.708h-1.77a.827.827,0,0,0-.819.708l-.221,1.525-1.048.434-1.235-.922a.828.828,0,0,0-1.079.078l-1.252,1.252a.826.826,0,0,0-.078,1.079l.922,1.235-.434,1.048-1.525.222a.827.827,0,0,0-.708.818v1.77a.829.829,0,0,0,.708.82l1.524.221.435,1.05-.922,1.234a.827.827,0,0,0,.078,1.08l1.252,1.251a.826.826,0,0,0,1.079.079l1.235-.922,1.048.434.221,1.525a.828.828,0,0,0,.819.708h1.77a.828.828,0,0,0,.819-.708l.221-1.525,1.048-.434,1.235.922a.828.828,0,0,0,1.08-.079l1.251-1.251a.827.827,0,0,0,.078-1.08L523.7,206.4l.433-1.044Zm-7.655,1.4a3.1,3.1,0,1,1,3.1-3.1,3.1,3.1,0,0,1-3.1,3.1" transform="translate(-481.436 -184.267)" fill="#14a0de"/>
        <path id="パス_6143" data-name="パス 6143" d="M234.353,205h-11.1a1.109,1.109,0,0,1-1.109-1.109v-4.209a1.109,1.109,0,0,1,1.109-1.109h11.1a1.109,1.109,0,0,1,1.109,1.109v4.209A1.109,1.109,0,0,1,234.353,205" transform="translate(-209.848 -187.582)" fill="#203a72"/>
        <path id="パス_6144" data-name="パス 6144" d="M234.353,366.375h-11.1a1.109,1.109,0,1,1,0-2.218h11.1a1.109,1.109,0,1,1,0,2.218" transform="translate(-209.848 -344.001)" fill="#203a72"/>
        <path id="パス_6145" data-name="パス 6145" d="M234.353,455.92h-11.1a1.109,1.109,0,0,1,0-2.218h11.1a1.109,1.109,0,0,1,0,2.218" transform="translate(-209.848 -428.59)" fill="#203a72"/>
      </g>
    </g>
  </g>
</svg>
