<svg xmlns="http://www.w3.org/2000/svg" width="542.098" height="322.301" viewBox="0 0 542.098 322.301">
  <g id="グループ_19795" data-name="グループ 19795" transform="translate(-403 -2642.029)">
    <rect id="長方形_8648" data-name="長方形 8648" width="0.623" height="66.493" transform="translate(859.794 2811.886)" fill="#7dccf0"/>
    <rect id="長方形_8649" data-name="長方形 8649" width="0.623" height="63.508" transform="translate(860.269 2724.72)" fill="#7dccf0"/>
    <rect id="長方形_8650" data-name="長方形 8650" width="389.963" height="11.073" transform="translate(555.133 2790.71)" fill="#7dccf0"/>
    <rect id="長方形_8651" data-name="長方形 8651" width="0.623" height="66.493" transform="translate(486.567 2817.526)" fill="#7dccf0"/>
    <path id="パス_5668" data-name="パス 5668" d="M166.066,127.271H1.832A1.632,1.632,0,0,1,.2,125.639V88.187a1.633,1.633,0,0,1,1.632-1.633H166.066a1.633,1.633,0,0,1,1.632,1.633v37.452a1.632,1.632,0,0,1-1.632,1.632" transform="translate(403.111 2690.255)" fill="#fff"/>
    <path id="パス_5669" data-name="パス 5669" d="M166.177,127.695H1.943A1.946,1.946,0,0,1,0,125.752V88.3a1.946,1.946,0,0,1,1.943-1.943H166.177A1.946,1.946,0,0,1,168.12,88.3v37.453a1.946,1.946,0,0,1-1.943,1.943M1.943,86.978A1.322,1.322,0,0,0,.623,88.3v37.453a1.322,1.322,0,0,0,1.32,1.32H166.177a1.323,1.323,0,0,0,1.32-1.32V88.3a1.323,1.323,0,0,0-1.32-1.32Z" transform="translate(403 2690.144)" fill="#7dccf0"/>
    <path id="パス_5670" data-name="パス 5670" d="M113.25,194.56a43.668,43.668,0,1,0-43.668,43.668A43.667,43.667,0,0,0,113.25,194.56" transform="translate(417.438 2726.103)" fill="#c3e7f9"/>
    <rect id="長方形_8652" data-name="長方形 8652" width="0.623" height="63.508" transform="translate(674.16 2724.72)" fill="#7dccf0"/>
    <path id="パス_5671" data-name="パス 5671" d="M286.148,127.271H121.914a1.632,1.632,0,0,1-1.632-1.632V88.187a1.633,1.633,0,0,1,1.632-1.633H286.148a1.633,1.633,0,0,1,1.632,1.633v37.452a1.631,1.631,0,0,1-1.632,1.632" transform="translate(470.018 2690.255)" fill="#fff"/>
    <path id="パス_5672" data-name="パス 5672" d="M286.259,127.695H122.025a1.946,1.946,0,0,1-1.943-1.943V88.3a1.946,1.946,0,0,1,1.943-1.943H286.259A1.946,1.946,0,0,1,288.2,88.3v37.453a1.946,1.946,0,0,1-1.943,1.943M122.025,86.978a1.322,1.322,0,0,0-1.32,1.32v37.453a1.322,1.322,0,0,0,1.32,1.32H286.259a1.323,1.323,0,0,0,1.32-1.32V88.3a1.323,1.323,0,0,0-1.32-1.32Z" transform="translate(469.907 2690.144)" fill="#7dccf0"/>
    <path id="パス_5673" data-name="パス 5673" d="M406.229,127.271H241.995a1.632,1.632,0,0,1-1.632-1.632V88.187a1.634,1.634,0,0,1,1.632-1.633H406.229a1.633,1.633,0,0,1,1.632,1.633v37.452a1.631,1.631,0,0,1-1.632,1.632" transform="translate(536.924 2690.255)" fill="#fff"/>
    <path id="パス_5674" data-name="パス 5674" d="M406.341,127.695H242.107a1.946,1.946,0,0,1-1.943-1.943V88.3a1.946,1.946,0,0,1,1.943-1.943H406.341a1.946,1.946,0,0,1,1.943,1.943v37.453a1.946,1.946,0,0,1-1.943,1.943M242.107,86.978a1.322,1.322,0,0,0-1.32,1.32v37.453a1.322,1.322,0,0,0,1.32,1.32H406.341a1.323,1.323,0,0,0,1.32-1.32V88.3a1.323,1.323,0,0,0-1.32-1.32Z" transform="translate(536.813 2690.144)" fill="#7dccf0"/>
    <path id="パス_5675" data-name="パス 5675" d="M233.629,43.668a43.668,43.668,0,1,0-43.668,43.668,43.667,43.667,0,0,0,43.668-43.668" transform="translate(484.511 2642.029)" fill="#c3e7f9"/>
    <text id="案件内容提示" transform="translate(435.589 2801.655)" fill="#4ea0bb" font-size="16" font-family="Meiryo-Bold, Meiryo" font-weight="700"><tspan x="0" y="0">案件内容提示</tspan></text>
    <text id="工数算出_お見積" data-name="工数算出・お見積" transform="translate(607.504 2801.655)" fill="#4ea0bb" font-size="16" font-family="Meiryo-Bold, Meiryo" font-weight="700"><tspan x="0" y="0">工数算出・お見積</tspan></text>
    <text id="面談_ご契約" data-name="面談・ご契約" transform="translate(811.383 2801.655)" fill="#4ea0bb" font-size="16" font-family="Meiryo-Bold, Meiryo" font-weight="700"><tspan x="0" y="0">面談・ご契約</tspan></text>
    <g id="グループ_10655" data-name="グループ 10655" transform="translate(403 2642.029)">
      <g id="グループ_19775" data-name="グループ 19775">
        <g id="グループ_19776" data-name="グループ 19776" transform="translate(-28)">
          <path id="パス_5683" data-name="パス 5683" d="M21.363,8.333l.592-1.313a4.43,4.43,0,0,0,2.485.786c1.032,0,1.451-.344,1.451-.807,0-1.409-4.377-.442-4.377-3.239,0-1.28,1.032-2.344,3.172-2.344a5.056,5.056,0,0,1,2.614.666l-.537,1.322a4.263,4.263,0,0,0-2.087-.592c-1.034,0-1.431.388-1.431.861,0,1.387,4.377.43,4.377,3.2,0,1.258-1.043,2.334-3.194,2.334a5.361,5.361,0,0,1-3.066-.872" transform="translate(11.903 0.79)" fill="#0054a3"/>
          <path id="パス_5684" data-name="パス 5684" d="M27.944,2.92H25.535V1.5H32.1V2.92H29.686V9.029H27.944Z" transform="translate(14.228 0.836)" fill="#0054a3"/>
          <path id="パス_5685" data-name="パス 5685" d="M36.178,7.631v1.4h-5.83V1.5h5.69V2.9H32.08V4.534h3.5V5.889h-3.5V7.631Z" transform="translate(16.909 0.836)" fill="#0054a3"/>
          <path id="パス_5686" data-name="パス 5686" d="M41.512,4.233c0,1.679-1.258,2.722-3.27,2.722H36.725V9.03H34.983V1.5h3.259c2.012,0,3.27,1.045,3.27,2.733m-1.764,0c0-.828-.537-1.313-1.6-1.313h-1.42V5.535h1.42c1.065,0,1.6-.484,1.6-1.3" transform="translate(19.492 0.836)" fill="#0054a3"/>
          <path id="パス_5687" data-name="パス 5687" d="M20.527,22.826c0-8.572,4.7-13.418,10.883-13.418,6.226,0,10.922,4.846,10.922,13.418s-4.7,13.418-10.922,13.418c-6.187,0-10.883-4.846-10.883-13.418m16.922,0c0-6.3-2.46-9.206-6.039-9.206-3.541,0-6,2.907-6,9.206s2.459,9.206,6,9.206c3.578,0,6.039-2.907,6.039-9.206" transform="translate(11.437 5.242)" fill="#0054a3"/>
          <path id="パス_5688" data-name="パス 5688" d="M47.213,9.647v26.09H42.367V13.71H36.852V9.647Z" transform="translate(20.533 5.375)" fill="#0054a3"/>
          <path id="パス_5689" data-name="パス 5689" d="M47.934,25.69a3.056,3.056,0,1,1,6.112,0,3.056,3.056,0,1,1-6.112,0" transform="translate(26.708 12.59)" fill="#0054a3"/>
        </g>
      </g>
    </g>
    <text id="案件のご提示からご契約まで_日本人の営業担当がご担当_" data-name="案件のご提示からご契約まで
日本人の営業担当がご担当。" transform="translate(403 2711.419)" fill="#0054a3" font-size="15" font-family="Meiryo"><tspan x="0" y="0">案件のご提示からご契約まで</tspan><tspan x="0" y="24">日本人の営業担当がご担当。</tspan></text>
    <path id="パス_5710" data-name="パス 5710" d="M180.97,16.767h-2.552a4.454,4.454,0,0,0-8.656,0h-2.552a1.617,1.617,0,0,0-1.616,1.616v2.574a1.616,1.616,0,0,0,1.616,1.616H180.97a1.615,1.615,0,0,0,1.616-1.616V18.384a1.616,1.616,0,0,0-1.616-1.616m-6.89,2.893a1.83,1.83,0,1,1,1.85-1.83,1.831,1.831,0,0,1-1.85,1.83" transform="translate(495.264 2649.476)" fill="#0054a3"/>
    <path id="パス_5711" data-name="パス 5711" d="M190.018,17.053H188V18.9a4.013,4.013,0,0,1-4,4.021H170.239a4.031,4.031,0,0,1-4.021-4.021v-1.85H164.2a4.039,4.039,0,0,0-4.041,4.041V52.977a4.039,4.039,0,0,0,4.041,4.041h18.164a3.429,3.429,0,0,1-.192-1.149V30.878a3.6,3.6,0,0,1,3.594-3.594h8.317v-6.19a4.058,4.058,0,0,0-4.063-4.041m-18.249,11.23a.337.337,0,0,1,.341-.341,4.68,4.68,0,0,1,4.679,4.679.333.333,0,0,1-.319.341h-4.36a.337.337,0,0,1-.341-.341ZM167.94,51.828a.562.562,0,0,1-.553.553h-1.722a.583.583,0,0,1-.575-.553V48.276a.583.583,0,0,1,.575-.553h1.722a.562.562,0,0,1,.553.553Zm4.6,0a.563.563,0,0,1-.553.553h-1.724a.549.549,0,0,1-.553-.553V45.3a.554.554,0,0,1,.553-.573h1.724a.568.568,0,0,1,.553.573Zm-2.425-12.506a4.69,4.69,0,0,1,0-9.38.336.336,0,0,1,.339.341v3.743a.264.264,0,0,0,.277.255h3.743a.348.348,0,0,1,.339.339,4.7,4.7,0,0,1-4.7,4.7m7.018,12.506a.568.568,0,0,1-.575.553h-1.7a.568.568,0,0,1-.573-.553V42.3a.569.569,0,0,1,.573-.554h1.7a.569.569,0,0,1,.575.554Z" transform="translate(492.235 2651.531)" fill="#0054a3"/>
    <path id="パス_5712" data-name="パス 5712" d="M194.411,25.193h-17.4a1.155,1.155,0,0,0-1.155,1.155V51.332a1.155,1.155,0,0,0,1.155,1.155h17.4a1.155,1.155,0,0,0,1.155-1.155V26.348a1.155,1.155,0,0,0-1.155-1.155M181.082,49.078a1.453,1.453,0,1,1,1.453-1.453,1.453,1.453,0,0,1-1.453,1.453m0-4.485a1.453,1.453,0,1,1,1.453-1.453,1.452,1.452,0,0,1-1.453,1.453m0-4.483a1.453,1.453,0,1,1,1.453-1.453,1.453,1.453,0,0,1-1.453,1.453m4.631,8.968a1.453,1.453,0,1,1,1.453-1.453,1.453,1.453,0,0,1-1.453,1.453m0-4.485a1.453,1.453,0,1,1,1.453-1.453,1.452,1.452,0,0,1-1.453,1.453m0-4.483a1.453,1.453,0,1,1,1.453-1.453,1.453,1.453,0,0,1-1.453,1.453m4.631,8.968a1.453,1.453,0,1,1,1.453-1.453,1.453,1.453,0,0,1-1.453,1.453m0-4.485a1.453,1.453,0,1,1,1.453-1.453,1.452,1.452,0,0,1-1.453,1.453m0-4.483a1.453,1.453,0,1,1,1.453-1.453,1.453,1.453,0,0,1-1.453,1.453m2.083-6.453a1.117,1.117,0,0,1-1.118,1.118H180.116A1.117,1.117,0,0,1,179,33.658V29.45a1.118,1.118,0,0,1,1.118-1.12h11.193a1.118,1.118,0,0,1,1.118,1.12Z" transform="translate(500.984 2656.066)" fill="#0054a3"/>
    <path id="パス_5713" data-name="パス 5713" d="M352.658,43.668A43.668,43.668,0,1,0,308.99,87.336a43.667,43.667,0,0,0,43.668-43.668" transform="translate(550.831 2642.029)" fill="#c3e7f9"/>
    <path id="パス_5714" data-name="パス 5714" d="M294.584,12.657a.874.874,0,1,1,.872.914.876.876,0,0,1-.872-.914m3.147,0a.874.874,0,1,1,.874.914.876.876,0,0,1-.874-.914m3.147,0a.874.874,0,1,1,.874.914.876.876,0,0,1-.874-.914" transform="translate(567.135 2648.577)" fill="#0054a3"/>
    <path id="パス_5715" data-name="パス 5715" d="M291.524,25.117a.411.411,0,0,1-.38-.57l1.775-4.284a9.206,9.206,0,0,1,1.342-11.305,9.2,9.2,0,1,1,1.705,14.351l-4.285,1.777a.4.4,0,0,1-.157.031m9.242-18.029A8.376,8.376,0,0,0,293.728,20a.414.414,0,0,1,.034.382l-1.476,3.563,3.563-1.478a.415.415,0,0,1,.382.034,8.374,8.374,0,1,0,4.536-15.413m6.213,14.588h0Z" transform="translate(565.201 2645.52)" fill="#0054a3"/>
    <path id="パス_5716" data-name="パス 5716" d="M311.681,31.877l-.473-1.4a2.335,2.335,0,0,1-.053-1.264,2.867,2.867,0,0,0-.433-2.361,3.336,3.336,0,0,0-.45-.491,1.363,1.363,0,0,1-.469-1.028,5.027,5.027,0,0,0-5.148-5.094h-.034a5.042,5.042,0,0,0-5.173,5.094,1.373,1.373,0,0,1-.47,1.031,3.184,3.184,0,0,0-.441.48,2.863,2.863,0,0,0-.441,2.368,2.349,2.349,0,0,1-.051,1.264l-.444,1.306a2.077,2.077,0,0,0,1.968,2.744h2.9l-.006,0a6.1,6.1,0,0,1-1.783-3.944c-.011-.153-.016-.305-.016-.456a3.054,3.054,0,0,1,1.3-2.664c.573-.329.951-.937,1.44-2.325,0,0,.142,2.719,2.249,2.068,1.126-.347,1.64-.923,2.342.221a4.593,4.593,0,0,1,.607,2.372v1.022a5.735,5.735,0,0,1-.69,2.77,4.608,4.608,0,0,1-.687.942h2.546a2.008,2.008,0,0,0,1.9-2.652" transform="translate(568.753 2653.308)" fill="#0054a3"/>
    <path id="パス_5717" data-name="パス 5717" d="M313.142,31.833c-.139-.051-2.116-.618-3.465-1.145-.143-.056-.287-.107-.424-.164h-.093l.271,1.272.235,1.088a.408.408,0,0,1-.209.445l-1.2.638a.414.414,0,0,0-.2.475l.291.986a.421.421,0,0,1-.123.42l-1.576,1.865-.277-4.214a.71.71,0,0,1,.081-.455l.481-.833a.662.662,0,0,0,0-.682l-.4-.7a.679.679,0,0,0-.593-.347h-.808a.679.679,0,0,0-.593.347l-.4.7a.662.662,0,0,0,0,.682l.48.833a.711.711,0,0,1,.083.455l-.279,4.214L302.84,35.85a.417.417,0,0,1-.123-.42l.291-.986a.416.416,0,0,0-.2-.475l-1.2-.64a.407.407,0,0,1-.207-.444l.215-1.012.291-1.349h-.092c-.139.056-.28.107-.424.164-.68.266-1.9.542-2.459.757-.02.009-.045.014-.067.025-.249.1-.469.179-.628.246-.19.07-.3.112-.311.117A3.5,3.5,0,0,0,295.884,35v5.72a2.089,2.089,0,0,0,2.09,2.088H313.1a2.083,2.083,0,0,0,2.083-2.083V35a3.488,3.488,0,0,0-2.038-3.169" transform="translate(567.859 2659.014)" fill="#0054a3"/>
    <path id="パス_5718" data-name="パス 5718" d="M300.031,36.663v5.4a1.3,1.3,0,0,1-1.306,1.3H290.7l-.539-6.149V37.2a.984.984,0,0,1,.2-.729.164.164,0,0,0,.031-.047l.7-1.211a.519.519,0,0,0,0-.525l-.7-1.205a.524.524,0,0,0-.453-.266h-1.392a.525.525,0,0,0-.455.266l-.7,1.205a.526.526,0,0,0,0,.525l.7,1.211a.164.164,0,0,0,.031.047.985.985,0,0,1,.2.729v.008l-.54,6.149h-8.027a1.3,1.3,0,0,1-1.306-1.3v-5.4a4.564,4.564,0,0,1,3.451-4.405l2.965-1.064a.207.207,0,0,1,.023-.093l.525-1.314a.455.455,0,0,1,.657-.227l1.893,1.143,1.275.766,1.275-.766,1.884-1.135a.457.457,0,0,1,.666.22l.523,1.314a.207.207,0,0,1,.023.093l2.965,1.064a4.558,4.558,0,0,1,3.451,4.405" transform="translate(558.147 2658.464)" fill="#0054a3"/>
    <path id="パス_5719" data-name="パス 5719" d="M292.393,25.374V26.8a7.785,7.785,0,0,1-.062.993,9.637,9.637,0,0,1-.344,1.581,9.071,9.071,0,0,1-1.573,2.949c-.117.142-.235.282-.36.416l-.414.445a2.847,2.847,0,0,1-2.1.931h-.626a2.838,2.838,0,0,1-2.1-.931l-.416-.445c-.125-.134-.241-.274-.352-.416a8.617,8.617,0,0,1-1.165-1.884,8.79,8.79,0,0,1-.752-2.653,6.642,6.642,0,0,1-.07-.955V25.406a5.09,5.09,0,0,1,.2-1.423,5.167,5.167,0,0,1,9.935.008,4.783,4.783,0,0,1,.2,1.384" transform="translate(560.16 2653.308)" fill="#0054a3"/>
    <path id="パス_5720" data-name="パス 5720" d="M352.658,194.56a43.668,43.668,0,1,0-43.668,43.668,43.667,43.667,0,0,0,43.668-43.668" transform="translate(550.831 2726.103)" fill="#c3e7f9"/>
    <path id="パス_5721" data-name="パス 5721" d="M294.584,163.549a.874.874,0,1,1,.872.914.876.876,0,0,1-.872-.914m3.147,0a.874.874,0,1,1,.874.914.876.876,0,0,1-.874-.914m3.147,0a.874.874,0,1,1,.874.914.876.876,0,0,1-.874-.914" transform="translate(567.135 2732.65)" fill="#0054a3"/>
    <path id="パス_5722" data-name="パス 5722" d="M291.524,176.009a.411.411,0,0,1-.38-.57l1.775-4.284a9.206,9.206,0,0,1,1.342-11.305,9.2,9.2,0,1,1,1.705,14.351l-4.285,1.777a.4.4,0,0,1-.157.031m9.242-18.029a8.376,8.376,0,0,0-7.038,12.912.414.414,0,0,1,.034.382l-1.476,3.563,3.563-1.478a.415.415,0,0,1,.382.034,8.374,8.374,0,1,0,4.536-15.413m6.213,14.588h0Z" transform="translate(565.201 2729.593)" fill="#0054a3"/>
    <path id="パス_5723" data-name="パス 5723" d="M311.681,182.768l-.473-1.4a2.335,2.335,0,0,1-.053-1.264,2.867,2.867,0,0,0-.433-2.361,3.337,3.337,0,0,0-.45-.491,1.363,1.363,0,0,1-.469-1.029,5.03,5.03,0,0,0-5.148-5.094h-.034a5.042,5.042,0,0,0-5.173,5.094,1.374,1.374,0,0,1-.47,1.032,3.109,3.109,0,0,0-.441.48,2.862,2.862,0,0,0-.441,2.368,2.35,2.35,0,0,1-.051,1.264l-.444,1.306a2.077,2.077,0,0,0,1.968,2.744h2.9l-.006,0a6.1,6.1,0,0,1-1.783-3.944c-.011-.154-.016-.307-.016-.458a3.051,3.051,0,0,1,1.3-2.663c.573-.329.951-.937,1.44-2.325,0,0,.142,2.717,2.249,2.068,1.126-.347,1.64-.923,2.342.221a4.587,4.587,0,0,1,.607,2.37v1.021a5.741,5.741,0,0,1-.69,2.772,4.608,4.608,0,0,1-.687.942h2.546a2.009,2.009,0,0,0,1.9-2.653" transform="translate(568.753 2737.38)" fill="#0054a3"/>
    <path id="パス_5724" data-name="パス 5724" d="M313.142,182.725c-.139-.051-2.116-.618-3.465-1.145-.143-.056-.287-.107-.424-.164h-.093l.271,1.272.235,1.088a.408.408,0,0,1-.209.445l-1.2.638a.414.414,0,0,0-.2.475l.291.986a.421.421,0,0,1-.123.42l-1.576,1.866-.277-4.214a.71.71,0,0,1,.081-.455l.481-.833a.662.662,0,0,0,0-.682l-.4-.7a.679.679,0,0,0-.593-.347h-.808a.679.679,0,0,0-.593.347l-.4.7a.662.662,0,0,0,0,.682l.48.833a.711.711,0,0,1,.083.455l-.279,4.214-1.574-1.866a.417.417,0,0,1-.123-.42l.291-.986a.416.416,0,0,0-.2-.475l-1.2-.64a.408.408,0,0,1-.207-.444l.215-1.012.291-1.349h-.092c-.139.056-.28.107-.424.164-.68.266-1.9.542-2.459.757-.02.009-.045.014-.067.025-.249.1-.469.179-.628.246-.19.07-.3.112-.311.117a3.5,3.5,0,0,0-2.04,3.169v5.719a2.089,2.089,0,0,0,2.09,2.088H313.1a2.083,2.083,0,0,0,2.083-2.083v-5.724a3.488,3.488,0,0,0-2.038-3.169" transform="translate(567.859 2743.087)" fill="#0054a3"/>
    <path id="パス_5725" data-name="パス 5725" d="M300.031,187.554v5.4a1.3,1.3,0,0,1-1.306,1.3H290.7l-.539-6.149v-.009a.982.982,0,0,1,.2-.727.163.163,0,0,0,.031-.047l.7-1.211a.519.519,0,0,0,0-.525l-.7-1.205a.524.524,0,0,0-.453-.266h-1.392a.525.525,0,0,0-.455.266l-.7,1.205a.526.526,0,0,0,0,.525l.7,1.211a.163.163,0,0,0,.031.047.983.983,0,0,1,.2.727v.009l-.54,6.149h-8.027a1.3,1.3,0,0,1-1.306-1.3v-5.4a4.539,4.539,0,0,1,2.669-4.131,4.635,4.635,0,0,1,.782-.273l2.965-1.064a.2.2,0,0,1,.023-.093l.525-1.314a.454.454,0,0,1,.657-.227l1.893,1.143,1.275.766,1.275-.766,1.884-1.135a.456.456,0,0,1,.666.22l.523,1.314a.2.2,0,0,1,.023.093l2.965,1.064a4.7,4.7,0,0,1,.783.273,4.537,4.537,0,0,1,2.667,4.131" transform="translate(558.147 2742.537)" fill="#0054a3"/>
    <path id="パス_5726" data-name="パス 5726" d="M292.393,176.266v1.423a7.766,7.766,0,0,1-.062.993,9.637,9.637,0,0,1-.344,1.581,9.071,9.071,0,0,1-1.573,2.949c-.117.142-.235.282-.36.416l-.414.445a2.847,2.847,0,0,1-2.1.931h-.626a2.838,2.838,0,0,1-2.1-.931l-.416-.445c-.125-.134-.241-.274-.352-.416a8.618,8.618,0,0,1-1.165-1.884,8.791,8.791,0,0,1-.752-2.653,6.643,6.643,0,0,1-.07-.955V176.3a5.09,5.09,0,0,1,.2-1.423,5.167,5.167,0,0,1,9.935.008,4.783,4.783,0,0,1,.2,1.384" transform="translate(560.16 2737.381)" fill="#0054a3"/>
    <path id="パス_5727" data-name="パス 5727" d="M55.619,172.379a12.613,12.613,0,0,1,12.618,12.633,1.754,1.754,0,0,0,1.736,1.766h.014a1.752,1.752,0,0,0,1.752-1.736,16.114,16.114,0,0,0-16.12-16.163,1.75,1.75,0,1,0,0,3.5" transform="translate(433.015 2736.124)" fill="#0054a3"/>
    <path id="パス_5728" data-name="パス 5728" d="M55.614,176.684a5.936,5.936,0,0,1,5.953,5.953,1.75,1.75,0,1,0,3.5,0,9.437,9.437,0,0,0-9.454-9.454,1.75,1.75,0,1,0,0,3.5" transform="translate(433.012 2738.522)" fill="#0054a3"/>
    <path id="パス_5729" data-name="パス 5729" d="M54.03,182.157l0,0a2.741,2.741,0,0,0,3.876-3.876,2.809,2.809,0,0,0-3.876,0,2.741,2.741,0,0,0,0,3.876Z" transform="translate(432.657 2740.931)" fill="#0054a3"/>
    <path id="パス_5730" data-name="パス 5730" d="M77.382,195.526l-7.545-3.9a2.492,2.492,0,0,0-3.11.68l-2.769,3.552a28.126,28.126,0,0,1-7.121-5.218,27.527,27.527,0,0,1-5.273-7.244l3.511-2.742a2.49,2.49,0,0,0,.68-3.108l-3.88-7.506a2.492,2.492,0,0,0-3.6-.928l-4.805,3.2a3.735,3.735,0,0,0-1.655,3.362,25.971,25.971,0,0,0,.576,4.293,35.558,35.558,0,0,0,9.469,15.642,35.57,35.57,0,0,0,15.64,9.468,25.813,25.813,0,0,0,4.31.575,3.734,3.734,0,0,0,3.387-1.707l3.128-4.858a2.492,2.492,0,0,0-.95-3.563" transform="translate(426.297 2736.021)" fill="#0054a3"/>
  </g>
</svg>
