<svg xmlns="http://www.w3.org/2000/svg" width="542.098" height="322.301" viewBox="0 0 542.098 322.301">
  <g id="グループ_10657" data-name="グループ 10657" transform="translate(-569.902)">
    <g id="グループ_19774" data-name="グループ 19774">
      <path id="パス_5690" data-name="パス 5690" d="M600.672,194.56A43.668,43.668,0,1,0,557,238.228a43.667,43.667,0,0,0,43.668-43.668" transform="translate(286.018 84.073)" fill="#c3e7f9"/>
      <rect id="長方形_8655" data-name="長方形 8655" width="0.623" height="66.493" transform="translate(842.995 169.857)" fill="#7dccf0"/>
      <rect id="長方形_8656" data-name="長方形 8656" width="0.623" height="63.508" transform="translate(1027.171 82.691)" fill="#7dccf0"/>
      <path id="パス_5691" data-name="パス 5691" d="M718.643,43.668a43.668,43.668,0,1,0-43.668,43.668,43.667,43.667,0,0,0,43.668-43.668" transform="translate(351.748)" fill="#c3e7f9"/>
      <rect id="長方形_8657" data-name="長方形 8657" width="389.963" height="11.073" transform="translate(722.037 148.681)" fill="#7dccf0"/>
      <path id="パス_5692" data-name="パス 5692" d="M532.051,127.271H367.817a1.632,1.632,0,0,1-1.632-1.632V88.187a1.633,1.633,0,0,1,1.632-1.633H532.051a1.633,1.633,0,0,1,1.632,1.633v37.452a1.632,1.632,0,0,1-1.632,1.632" transform="translate(204.029 48.226)" fill="#fff"/>
      <path id="パス_5693" data-name="パス 5693" d="M532.162,127.695H367.928a1.946,1.946,0,0,1-1.943-1.943V88.3a1.946,1.946,0,0,1,1.943-1.943H532.162a1.946,1.946,0,0,1,1.943,1.943v37.453a1.946,1.946,0,0,1-1.943,1.943M367.928,86.978a1.322,1.322,0,0,0-1.32,1.32v37.453a1.322,1.322,0,0,0,1.32,1.32H532.162a1.323,1.323,0,0,0,1.32-1.32V88.3a1.323,1.323,0,0,0-1.32-1.32Z" transform="translate(203.917 48.115)" fill="#7dccf0"/>
      <path id="パス_5694" data-name="パス 5694" d="M652.133,127.271H487.9a1.631,1.631,0,0,1-1.632-1.632V88.187a1.633,1.633,0,0,1,1.632-1.633H652.133a1.633,1.633,0,0,1,1.632,1.633v37.452a1.631,1.631,0,0,1-1.632,1.632" transform="translate(270.935 48.226)" fill="#fff"/>
      <path id="パス_5695" data-name="パス 5695" d="M652.244,127.695H488.01a1.946,1.946,0,0,1-1.943-1.943V88.3a1.946,1.946,0,0,1,1.943-1.943H652.244a1.946,1.946,0,0,1,1.943,1.943v37.453a1.946,1.946,0,0,1-1.943,1.943M488.01,86.978a1.322,1.322,0,0,0-1.32,1.32v37.453a1.322,1.322,0,0,0,1.32,1.32H652.244a1.323,1.323,0,0,0,1.321-1.32V88.3a1.323,1.323,0,0,0-1.321-1.32Z" transform="translate(270.824 48.115)" fill="#7dccf0"/>
      <path id="パス_5696" data-name="パス 5696" d="M772.215,127.271H607.981a1.632,1.632,0,0,1-1.632-1.632V88.187a1.634,1.634,0,0,1,1.632-1.633H772.215a1.633,1.633,0,0,1,1.632,1.633v37.452a1.632,1.632,0,0,1-1.632,1.632" transform="translate(337.842 48.226)" fill="#fff"/>
      <path id="パス_5697" data-name="パス 5697" d="M772.326,127.695H608.092a1.946,1.946,0,0,1-1.943-1.943V88.3a1.946,1.946,0,0,1,1.943-1.943H772.326a1.946,1.946,0,0,1,1.943,1.943v37.453a1.946,1.946,0,0,1-1.943,1.943M608.092,86.978a1.322,1.322,0,0,0-1.32,1.32v37.453a1.322,1.322,0,0,0,1.32,1.32H772.326a1.323,1.323,0,0,0,1.32-1.32V88.3a1.323,1.323,0,0,0-1.32-1.32Z" transform="translate(337.731 48.115)" fill="#7dccf0"/>
    </g>
  </g>
</svg>
