<svg xmlns="http://www.w3.org/2000/svg" xmlns:xlink="http://www.w3.org/1999/xlink" width="100.252" height="100.252" viewBox="0 0 100.252 100.252">
  <defs>
    <clipPath id="clip-path">
      <rect id="長方形_8709" data-name="長方形 8709" width="39.783" height="59.088" fill="none"/>
    </clipPath>
  </defs>
  <g id="グループ_10696" data-name="グループ 10696" transform="translate(-1000.374 -3298.196)">
    <g id="グループ_10695" data-name="グループ 10695" transform="translate(1034.391 3318.78)">
      <g id="グループ_10694" data-name="グループ 10694" transform="translate(0 -0.002)" clip-path="url(#clip-path)">
        <path id="パス_6146" data-name="パス 6146" d="M32.217,9.008V5.253A5.258,5.258,0,0,0,26.956,0H5.255A5.253,5.253,0,0,0,0,5.253V53.825a5.258,5.258,0,0,0,5.255,5.261h21.7a5.263,5.263,0,0,0,5.261-5.261V31.051H28.788V47.742a1.349,1.349,0,0,1-1.347,1.347H4.776a1.346,1.346,0,0,1-1.347-1.347V7.051A1.346,1.346,0,0,1,4.776,5.7H27.441a1.349,1.349,0,0,1,1.347,1.347V9.008ZM12.451,53.7a1.515,1.515,0,0,1,1.512-1.512h4.285A1.511,1.511,0,0,1,19.761,53.7v.759a1.511,1.511,0,0,1-1.512,1.512H13.963a1.515,1.515,0,0,1-1.512-1.512ZM16.109,3.89a1.039,1.039,0,1,1,1.039-1.038A1.035,1.035,0,0,1,16.109,3.89" transform="translate(0 0.002)" fill="#203a72"/>
        <path id="パス_6147" data-name="パス 6147" d="M395.3,286.522a3.1,3.1,0,0,0-.969-.108h-1.077v3.215h1.077a2.894,2.894,0,0,0,.969-.116.625.625,0,0,0,.384-.431,6.216,6.216,0,0,0,0-2.139.6.6,0,0,0-.384-.423" transform="translate(-370.287 -269.69)" fill="#14a0de"/>
        <path id="パス_6148" data-name="パス 6148" d="M238.051,289.312l-1.031,4.338h2.169l-1.046-4.338Z" transform="translate(-223.18 -272.419)" fill="#14a0de"/>
        <path id="パス_6149" data-name="パス 6149" d="M154.731,191.138h-27.6a2.451,2.451,0,0,0-2.451,2.451v12.838a2.451,2.451,0,0,0,2.451,2.451h27.6a2.451,2.451,0,0,0,2.451-2.451V193.589a2.451,2.451,0,0,0-2.451-2.451M134.424,205.3l-.538-2.123h-3.123l-.508,2.123h-2.4l2.831-10.584h3.354l2.815,10.584Zm10.653-5.046a2.075,2.075,0,0,1-.869,1.2,3.507,3.507,0,0,1-1.954.446h-1.893v3.4h-2.384V194.716h4.292a3.652,3.652,0,0,1,1.923.408,2,2,0,0,1,.87,1.162,7.361,7.361,0,0,1,.223,2.015,7.55,7.55,0,0,1-.207,1.954m8.723,0a2.074,2.074,0,0,1-.869,1.2,3.507,3.507,0,0,1-1.954.446h-1.893v3.4H146.7V194.716h4.292a3.652,3.652,0,0,1,1.923.408,2,2,0,0,1,.87,1.162,7.361,7.361,0,0,1,.223,2.015,7.549,7.549,0,0,1-.207,1.954" transform="translate(-117.4 -179.977)" fill="#14a0de"/>
        <path id="パス_6150" data-name="パス 6150" d="M544.682,286.522a3.1,3.1,0,0,0-.969-.108h-1.077v3.215h1.077a2.894,2.894,0,0,0,.969-.116.625.625,0,0,0,.384-.431,6.212,6.212,0,0,0,0-2.139.6.6,0,0,0-.384-.423" transform="translate(-510.951 -269.69)" fill="#14a0de"/>
        <path id="パス_6151" data-name="パス 6151" d="M120.642,594.259a1.147,1.147,0,0,0,.821-1.95l-2.453-2.51,2.453-2.51a1.149,1.149,0,0,0-1.643-1.606L116.584,589a1.148,1.148,0,0,0,0,1.606l3.236,3.313a1.142,1.142,0,0,0,.821.344" transform="translate(-109.468 -551.159)" fill="#203a72"/>
        <path id="パス_6152" data-name="パス 6152" d="M341.02,593.934a1.151,1.151,0,0,0,1.624-.018l3.237-3.313a1.15,1.15,0,0,0,0-1.606l-3.237-3.312a1.148,1.148,0,1,0-1.643,1.6l2.453,2.51L341,592.31a1.148,1.148,0,0,0,.018,1.624" transform="translate(-320.782 -551.161)" fill="#203a72"/>
        <path id="パス_6153" data-name="パス 6153" d="M235.854,573.836a1.148,1.148,0,0,0,1.109-.851l2.508-9.324a1.149,1.149,0,0,0-2.219-.6l-2.508,9.326a1.149,1.149,0,0,0,.811,1.406,1.161,1.161,0,0,0,.3.039" transform="translate(-221 -529.386)" fill="#203a72"/>
      </g>
    </g>
    <path id="パス_5599" data-name="パス 5599" d="M48.626,0A48.626,48.626,0,1,0,97.252,48.626,48.626,48.626,0,0,0,48.626,0" transform="translate(1001.874 3299.696)" fill="none" stroke="#0fa5ef" stroke-width="3" fill-rule="evenodd"/>
  </g>
</svg>
