<svg xmlns="http://www.w3.org/2000/svg" xmlns:xlink="http://www.w3.org/1999/xlink" width="100.252" height="100.252" viewBox="0 0 100.252 100.252">
  <defs>
    <clipPath id="clip-path">
      <rect id="長方形_8710" data-name="長方形 8710" width="54.988" height="57.379" fill="none"/>
    </clipPath>
  </defs>
  <g id="グループ_10699" data-name="グループ 10699" transform="translate(-1000.374 -3642.5)">
    <path id="パス_5600" data-name="パス 5600" d="M48.626,0A48.626,48.626,0,1,0,97.252,48.626,48.626,48.626,0,0,0,48.626,0" transform="translate(1001.874 3644)" fill="none" stroke="#0fa5ef" stroke-width="3" fill-rule="evenodd"/>
    <g id="グループ_10698" data-name="グループ 10698" transform="translate(1023.006 3657.937)">
      <g id="グループ_10697" data-name="グループ 10697" clip-path="url(#clip-path)">
        <path id="パス_6154" data-name="パス 6154" d="M50.394,246.87a3.669,3.669,0,0,0-.434.042v-5.728a4.686,4.686,0,0,0-4.691-4.684H9.712a4.681,4.681,0,0,0-4.688,4.684V246.9a2.974,2.974,0,0,0-.437-.026A4.585,4.585,0,0,0,0,251.454v5.919a4.589,4.589,0,0,0,4.587,4.587c.149,0,.288-.032.437-.042v5.724a4.686,4.686,0,0,0,4.688,4.688H45.269a4.691,4.691,0,0,0,4.691-4.688v-5.724c.146.01.285.042.434.042a4.6,4.6,0,0,0,4.594-4.587v-5.919a4.59,4.59,0,0,0-4.594-4.584M36.076,264.279H18.906a9.866,9.866,0,0,1,0-19.732h17.17a9.866,9.866,0,1,1,0,19.732" transform="translate(0 -214.95)" fill="#203a72"/>
        <path id="パス_6155" data-name="パス 6155" d="M154.4,395.1a3.8,3.8,0,1,1-3.8-3.807,3.8,3.8,0,0,1,3.8,3.807" transform="translate(-133.422 -355.643)" fill="#14a0de"/>
        <path id="パス_6156" data-name="パス 6156" d="M373.094,395.1A3.806,3.806,0,1,0,376.9,391.3a3.8,3.8,0,0,0-3.806,3.807" transform="translate(-339.098 -355.643)" fill="#14a0de"/>
        <path id="パス_6157" data-name="パス 6157" d="M238.415,15.517h-1.2V8.624a4.492,4.492,0,1,0-3.515,0v6.894h-1.2a3.69,3.69,0,0,0-3.69,3.687H242.1a3.684,3.684,0,0,0-3.683-3.687" transform="translate(-207.969)" fill="#14a0de"/>
      </g>
    </g>
  </g>
</svg>
