<svg xmlns="http://www.w3.org/2000/svg" xmlns:xlink="http://www.w3.org/1999/xlink" width="100.252" height="100.252" viewBox="0 0 100.252 100.252">
  <defs>
    <clipPath id="clip-path">
      <rect id="長方形_8707" data-name="長方形 8707" width="58.605" height="47.966" fill="none"/>
    </clipPath>
  </defs>
  <g id="グループ_10690" data-name="グループ 10690" transform="translate(-442.5 -3642.5)">
    <path id="パス_5601" data-name="パス 5601" d="M48.626,0A48.626,48.626,0,1,0,97.252,48.626,48.626,48.626,0,0,0,48.626,0" transform="translate(444 3644)" fill="none" stroke="#0fa5ef" stroke-width="3" fill-rule="evenodd"/>
    <g id="グループ_10689" data-name="グループ 10689" transform="translate(469.895 3668.643)">
      <g id="グループ_10688" data-name="グループ 10688" clip-path="url(#clip-path)">
        <path id="パス_6133" data-name="パス 6133" d="M654.345,355.791v2.382h6.131l2.969,4.86a1.181,1.181,0,0,0,1.022.571h7.33a3.142,3.142,0,1,0,0-2.39h-6.662l-2.583-4.232,2.543-4.071h6.7a3.154,3.154,0,1,0,0-2.4h-7.378a1.216,1.216,0,0,0-1.014.563l-2.929,4.715Z" transform="translate(-619.25 -329.863)" fill="#14a0de"/>
        <path id="パス_6134" data-name="パス 6134" d="M654.345,156.112v2.4h6.807a1.192,1.192,0,0,0,1.006-.563l2.937-4.715h3.017a3.154,3.154,0,1,0,0-2.4h-3.693a1.205,1.205,0,0,0-1.014.571l-2.929,4.707Z" transform="translate(-619.25 -140.894)" fill="#14a0de"/>
        <path id="パス_6135" data-name="パス 6135" d="M654.345,682.954v2.4h6.131l2.929,4.707a1.2,1.2,0,0,0,1.014.563h3.693a3.15,3.15,0,1,0,0-2.39h-3.017l-2.937-4.707a1.182,1.182,0,0,0-1.006-.571Z" transform="translate(-619.25 -646.325)" fill="#14a0de"/>
        <path id="パス_6136" data-name="パス 6136" d="M16.194,10.926c8.945,0,16.194-2.446,16.194-5.463S25.138,0,16.194,0,0,2.446,0,5.463s7.25,5.463,16.194,5.463" fill="#203a72"/>
        <path id="パス_6137" data-name="パス 6137" d="M16.239,208c-5.855,0-12.338-.976-16.2-3.439v6.832c0,3.021,7.25,5.461,16.2,5.461s16.2-2.44,16.2-5.461v-6.832C28.579,207.019,22.072,208,16.239,208m9.209,5.082a1.54,1.54,0,1,1,1.541-1.54,1.54,1.54,0,0,1-1.541,1.54" transform="translate(-0.041 -193.585)" fill="#203a72"/>
        <path id="パス_6138" data-name="パス 6138" d="M.043,434.627v6.832c0,3.021,7.25,5.484,16.2,5.484s16.2-2.463,16.2-5.484v-6.832c-3.858,2.463-10.364,3.439-16.2,3.439-5.855,0-12.338-.976-16.2-3.439m25.405,5.447a1.54,1.54,0,1,1-1.54,1.54,1.541,1.541,0,0,1,1.54-1.54" transform="translate(-0.041 -411.317)" fill="#203a72"/>
        <path id="パス_6139" data-name="パス 6139" d="M.043,665.13v6.832c0,3.021,7.25,5.461,16.2,5.461s16.2-2.44,16.2-5.461V665.13c-3.858,2.463-10.364,3.439-16.2,3.439-5.855,0-12.338-.976-16.2-3.439m25.405,5.429a1.54,1.54,0,1,1-1.54,1.54,1.541,1.541,0,0,1,1.54-1.54" transform="translate(-0.041 -629.457)" fill="#203a72"/>
      </g>
    </g>
  </g>
</svg>
