<svg xmlns="http://www.w3.org/2000/svg" width="61" height="51" viewBox="0 0 61 51">
  <g id="グループ_418" data-name="グループ 418" transform="translate(-343 -17)">
    <rect id="長方形_2104" data-name="長方形 2104" width="61" height="51" rx="5" transform="translate(343 17)" fill="#0fa5ef"/>
    <g id="グループ_417" data-name="グループ 417" transform="translate(-3.666 2.672)">
      <path id="パス_1648" data-name="パス 1648" d="M946.647,3062.335H928.191a1.154,1.154,0,1,1,0-2.307h18.456a1.154,1.154,0,0,1,0,2.307Z" transform="translate(-558.222 -3031.701)" fill="#fff"/>
      <path id="パス_1649" data-name="パス 1649" d="M946.647,3116.335H928.191a1.154,1.154,0,1,1,0-2.307h18.456a1.154,1.154,0,0,1,0,2.307Z" transform="translate(-558.222 -3078.78)" fill="#fff"/>
      <path id="パス_1650" data-name="パス 1650" d="M946.647,3170.335H928.191a1.154,1.154,0,1,1,0-2.307h18.456a1.154,1.154,0,0,1,0,2.307Z" transform="translate(-558.222 -3125.859)" fill="#fff"/>
      <path id="パス_1651" data-name="パス 1651" d="M946.647,3224.335H928.191a1.153,1.153,0,1,1,0-2.307h18.456a1.153,1.153,0,1,1,0,2.307Z" transform="translate(-558.222 -3172.938)" fill="#fff"/>
      <circle id="楕円形_28" data-name="楕円形 28" cx="1.209" cy="1.209" r="1.209" transform="translate(364.201 48.979)" fill="#fff"/>
      <circle id="楕円形_29" data-name="楕円形 29" cx="1.209" cy="1.209" r="1.209" transform="translate(364.201 41.724)" fill="#fff"/>
      <circle id="楕円形_30" data-name="楕円形 30" cx="1.209" cy="1.209" r="1.209" transform="translate(364.201 35.679)" fill="#fff"/>
      <circle id="楕円形_31" data-name="楕円形 31" cx="1.209" cy="1.209" r="1.209" transform="translate(364.201 28.426)" fill="#fff"/>
    </g>
  </g>
</svg>
