<svg id="グループ_19786" data-name="グループ 19786" xmlns="http://www.w3.org/2000/svg" xmlns:xlink="http://www.w3.org/1999/xlink" width="44.297" height="49.946" viewBox="0 0 44.297 49.946">
  <defs>
    <clipPath id="clip-path">
      <rect id="長方形_15911" data-name="長方形 15911" width="44.297" height="49.946" fill="none"/>
    </clipPath>
  </defs>
  <g id="グループ_19785" data-name="グループ 19785" clip-path="url(#clip-path)">
    <path id="パス_9363" data-name="パス 9363" d="M24.132,66.055l.3-2.5a7.851,7.851,0,0,1,.2-1.016,19.516,19.516,0,0,0-11.2,13.844,6.532,6.532,0,0,1,3.367-1.35,16.641,16.641,0,0,1,7.328-8.983" transform="translate(-10.713 -49.863)" fill="#203a72"/>
    <path id="パス_9364" data-name="パス 9364" d="M82.31,224.661a16.608,16.608,0,0,1-6.893,1.495,16.4,16.4,0,0,1-6.211-1.219,3.085,3.085,0,0,1-1.945,2.322,19.374,19.374,0,0,0,16.674-.174,3.042,3.042,0,0,1-1.625-2.423" transform="translate(-53.624 -179.112)" fill="#203a72"/>
    <path id="パス_9365" data-name="パス 9365" d="M157.341,76.491h.1a6.494,6.494,0,0,1,3.163.813,19.588,19.588,0,0,0-10.245-12.9c.043.218.073.436.1.653l.348,2.96a16.454,16.454,0,0,1,6.53,8.475" transform="translate(-119.876 -51.346)" fill="#203a72"/>
    <path id="パス_9366" data-name="パス 9366" d="M76.81,59.057a29.245,29.245,0,0,0,5.969.6,29.75,29.75,0,0,0,6-.6A.941.941,0,0,0,89.5,58l-.452-3.8a4.68,4.68,0,0,0-2.773-3.738,6.821,6.821,0,0,1-6.994,0A4.74,4.74,0,0,0,76.51,54.2L76.057,58a.937.937,0,0,0,.753,1.055" transform="translate(-60.631 -40.234)" fill="#203a72"/>
    <path id="パス_9367" data-name="パス 9367" d="M91.965,8.8a4.4,4.4,0,1,0-4.4-4.4,4.4,4.4,0,0,0,4.4,4.4" transform="translate(-69.814)" fill="#203a72"/>
    <path id="パス_9368" data-name="パス 9368" d="M10.226,185.243a6.821,6.821,0,0,1-6.994,0A4.741,4.741,0,0,0,.46,188.981l-.453,3.8a.938.938,0,0,0,.753,1.055,29.26,29.26,0,0,0,5.969.6,29.768,29.768,0,0,0,6-.6.941.941,0,0,0,.724-1.055l-.452-3.8a4.68,4.68,0,0,0-2.773-3.738" transform="translate(0 -147.686)" fill="#203a72"/>
    <path id="パス_9369" data-name="パス 9369" d="M15.916,143.572a4.4,4.4,0,1,0-4.4-4.4,4.4,4.4,0,0,0,4.4,4.4" transform="translate(-9.184 -107.451)" fill="#203a72"/>
    <path id="パス_9370" data-name="パス 9370" d="M165.1,188.981a4.68,4.68,0,0,0-2.773-3.738,6.821,6.821,0,0,1-6.994,0,4.741,4.741,0,0,0-2.773,3.738l-.452,3.8a.937.937,0,0,0,.753,1.055,29.244,29.244,0,0,0,5.969.6,29.751,29.751,0,0,0,6-.6.94.94,0,0,0,.724-1.055Z" transform="translate(-121.261 -147.686)" fill="#203a72"/>
    <path id="パス_9371" data-name="パス 9371" d="M168.014,134.775a4.4,4.4,0,1,0,4.4,4.4,4.4,4.4,0,0,0-4.4-4.4" transform="translate(-130.444 -107.45)" fill="#203a72"/>
    <path id="パス_9372" data-name="パス 9372" d="M86.338,122.686a.446.446,0,0,1,.446-.446h1.3a7.2,7.2,0,0,0-1.8-4.341l-.916.915a.446.446,0,1,1-.631-.63l.916-.916a7.2,7.2,0,0,0-4.341-1.8v1.3a.446.446,0,1,1-.892,0v-1.3a7.2,7.2,0,0,0-4.341,1.8l.916.916a.446.446,0,0,1-.631.63l-.916-.915a7.2,7.2,0,0,0-1.8,4.341h1.3a.446.446,0,0,1,0,.892h-1.3a7.2,7.2,0,0,0,1.8,4.341l.915-.916a.446.446,0,0,1,.631.631l-.915.916a7.2,7.2,0,0,0,4.341,1.8v-1.3a.446.446,0,1,1,.892,0v1.3a7.2,7.2,0,0,0,4.34-1.8l-.916-.916a.446.446,0,0,1,.631-.631l.916.916a7.2,7.2,0,0,0,1.8-4.34h-1.3a.446.446,0,0,1-.446-.446m-3.131.446H80.864a.446.446,0,0,1-.446-.446V118.9a.446.446,0,1,1,.892,0v3.344h1.9a.446.446,0,0,1,0,.892" transform="translate(-58.715 -92.058)" fill="#14a0de"/>
  </g>
</svg>
