<svg xmlns="http://www.w3.org/2000/svg" width="1115" height="388" viewBox="0 0 1115 388">
  <g id="グループ_19794" data-name="グループ 19794" transform="translate(-403 -1282.029)">
    <rect id="長方形_8642" data-name="長方形 8642" width="707" height="388" rx="5" transform="translate(811 1282.029)" fill="#c3e7f9"/>
    <path id="パス_5602" data-name="パス 5602" d="M336.266,156H206.7a23.761,23.761,0,0,1,0-47.523H336.266a23.761,23.761,0,1,1,0,47.523" transform="translate(711.058 1449.403)" fill="#4abbf3"/>
    <path id="パス_5603" data-name="パス 5603" d="M153.324,156H23.761a23.761,23.761,0,0,1,0-47.523H153.324a23.761,23.761,0,1,1,0,47.523" transform="translate(403 1449.403)" fill="#4abbf3"/>
    <g id="グループ_10632" data-name="グループ 10632" transform="translate(55.92 45.029)">
      <path id="パス_5604" data-name="パス 5604" d="M222.832,90.064h6.928l-.011-.011a14.547,14.547,0,0,1-4.255-9.412c-.025-.361-.039-.725-.039-1.086,0-2.718,1.191-5.255,3.112-6.357,1.366-.784,2.271-2.234,3.437-5.546,0,0,.336,6.489,5.364,4.935,2.687-.83,3.912-2.2,5.585.527a10.934,10.934,0,0,1,1.45,5.657v2.439a13.666,13.666,0,0,1-1.646,6.605,11.062,11.062,0,0,1-1.637,2.25h6.071a4.79,4.79,0,0,0,4.537-6.328L250.6,80.4a5.58,5.58,0,0,1-.125-3.016,6.83,6.83,0,0,0-1.034-5.632,7.848,7.848,0,0,0-1.073-1.168,3.266,3.266,0,0,1-1.118-2.455,11.993,11.993,0,0,0-12.281-12.149h-.082A12.026,12.026,0,0,0,222.543,68.13a3.286,3.286,0,0,1-1.121,2.459,7.726,7.726,0,0,0-1.052,1.143,6.836,6.836,0,0,0-1.05,5.653,5.6,5.6,0,0,1-.125,3.016l-1.057,3.116a4.955,4.955,0,0,0,4.694,6.546" transform="translate(715.303 1327.945)" fill="#0054a3"/>
      <path id="パス_5605" data-name="パス 5605" d="M253.244,75.938c-.33-.123-5.048-1.475-8.267-2.73-.341-.134-.682-.257-1.011-.391h-.22l.648,3.034.561,2.6a.979.979,0,0,1-.5,1.061l-2.866,1.523a.993.993,0,0,0-.475,1.134l.7,2.353a1,1,0,0,1-.293,1l-3.757,4.453-.664-10.053a1.682,1.682,0,0,1,.2-1.084l1.146-1.989a1.584,1.584,0,0,0,0-1.627l-.966-1.673a1.621,1.621,0,0,0-1.416-.827h-1.927a1.621,1.621,0,0,0-1.416.827l-.964,1.673a1.574,1.574,0,0,0,0,1.627l1.143,1.989a1.7,1.7,0,0,1,.2,1.084l-.666,10.053-3.757-4.453a.994.994,0,0,1-.291-1l.693-2.353a.993.993,0,0,0-.475-1.134l-2.871-1.527a.967.967,0,0,1-.493-1.057l.511-2.414.7-3.218h-.22c-.33.134-.671.257-1.011.391-1.621.632-4.535,1.291-5.864,1.8-.048.025-.109.036-.159.061-.568.22-1.062.4-1.434.559v26.5h35.392a4.972,4.972,0,0,0,4.971-4.973V83.5a8.324,8.324,0,0,0-4.864-7.56" transform="translate(715.142 1349.252)" fill="#0054a3"/>
      <path id="パス_5606" data-name="パス 5606" d="M241.747,71.351H196.693a1.75,1.75,0,0,0-1.741,1.748v31.917a1.75,1.75,0,0,0,1.741,1.748h15.658v2.7H210a1.95,1.95,0,1,0,0,3.9h18.5a1.95,1.95,0,0,0,0-3.9h-2.3v-2.7h15.6a1.75,1.75,0,0,0,1.741-1.748V73.153a1.8,1.8,0,0,0-1.8-1.8m-22.5,33.789A1.849,1.849,0,1,1,221.1,103.3a1.857,1.857,0,0,1-1.857,1.841M240.015,99.3H198.48V74.863h41.536Z" transform="translate(686.127 1347.51)" fill="#0054a3"/>
    </g>
    <text id="お客様" transform="translate(492 1590.567)" fill="#fff" font-size="18" font-family="Meiryo-Bold, Meiryo" font-weight="700"><tspan x="-27" y="0">お客様</tspan></text>
    <text id="ブリッジSE" transform="translate(983 1589.567)" fill="#fff" font-size="18" font-family="Meiryo-Bold, Meiryo" font-weight="700"><tspan x="-50" y="0">ブリッ</tspan><tspan y="0" letter-spacing="0.249em">ジ</tspan><tspan y="0">SE</tspan></text>
    <text id="日本語による" transform="translate(615.19 1475.13)" fill="#2c3641" font-size="18" font-family="Meiryo-Bold, Meiryo" font-weight="700"><tspan x="0" y="0">日本語による</tspan></text>
    <text id="指示_報告_相談" data-name="指示・報告・相談" transform="translate(615.19 1502.824)" fill="#2c3641" font-size="18" font-family="Meiryo-Bold, Meiryo" font-weight="700"><tspan x="0" y="0">指示・報告・相談</tspan></text>
    <path id="パス_5607" data-name="パス 5607" d="M359.679,51.97H326.185a1.3,1.3,0,0,0-1.293,1.3V77a1.3,1.3,0,0,0,1.293,1.3h11.641v2.01h-1.75a1.45,1.45,0,1,0,0,2.9H349.83a1.45,1.45,0,0,0,0-2.9H348.12V78.3h11.6a1.3,1.3,0,0,0,1.293-1.3V53.31a1.334,1.334,0,0,0-1.334-1.34M342.953,77.089a1.374,1.374,0,1,1,1.381-1.368,1.382,1.382,0,0,1-1.381,1.368m15.439-4.344H327.514V54.58h30.878Z" transform="translate(948.108 1371.517)" fill="#0054a3"/>
    <path id="パス_5608" data-name="パス 5608" d="M344.192,57.312a15.287,15.287,0,0,0,2.067,3.343,9.589,9.589,0,0,0,.625.735l.735.792a5.042,5.042,0,0,0,3.719,1.65h1.109a5.048,5.048,0,0,0,3.719-1.65l.735-.792c.223-.235.431-.484.639-.735a16.129,16.129,0,0,0,2.79-5.23,17.5,17.5,0,0,0,.611-2.8,14.171,14.171,0,0,0,.11-1.762V48.334a8.5,8.5,0,0,0-.347-2.455,9.154,9.154,0,0,0-17.967,2.51v2.526a11.672,11.672,0,0,0,.125,1.693,15.552,15.552,0,0,0,1.332,4.7" transform="translate(966.705 1358.241)" fill="#0054a3"/>
    <path id="パス_5609" data-name="パス 5609" d="M365.475,57.132a7.8,7.8,0,0,0-1.387-.486l-5.259-1.887a.357.357,0,0,0-.043-.165l-.929-2.332a.806.806,0,0,0-1.178-.388l-3.345,2.012-2.261,1.36-2.263-1.36-3.357-2.026a.808.808,0,0,0-1.166.4l-.764,1.918V76.335h4.969l.958-10.905v-.014a1.747,1.747,0,0,0-.361-1.291.3.3,0,0,1-.055-.084l-1.236-2.15a.932.932,0,0,1,0-.929l1.236-2.136a.927.927,0,0,1,.8-.472h2.469a.925.925,0,0,1,.8.472l1.236,2.136a.922.922,0,0,1,0,.929l-1.236,2.15a.229.229,0,0,1-.055.084,1.745,1.745,0,0,0-.359,1.291v.014l.956,10.905h14.236a2.311,2.311,0,0,0,2.318-2.3V64.458a8.046,8.046,0,0,0-4.732-7.325" transform="translate(967.525 1371.285)" fill="#0054a3"/>
    <path id="パス_5610" data-name="パス 5610" d="M385.157,64.591h5.151l-.01-.008a10.821,10.821,0,0,1-3.161-7c-.018-.27-.029-.539-.029-.809a5.415,5.415,0,0,1,2.312-4.726c1.017-.582,1.689-1.66,2.555-4.123,0,0,.251,4.824,3.988,3.668,2-.617,2.908-1.638,4.152.392a8.121,8.121,0,0,1,1.078,4.2v1.816a10.166,10.166,0,0,1-1.223,4.91,8.165,8.165,0,0,1-1.217,1.673h4.513a3.562,3.562,0,0,0,3.374-4.7l-.841-2.479a4.171,4.171,0,0,1-.092-2.242,5.084,5.084,0,0,0-.77-4.189,5.8,5.8,0,0,0-.8-.868,2.426,2.426,0,0,1-.831-1.824,8.919,8.919,0,0,0-9.131-9.033h-.059a8.939,8.939,0,0,0-9.176,9.033,2.437,2.437,0,0,1-.833,1.828,5.647,5.647,0,0,0-.782.85,5.086,5.086,0,0,0-.78,4.2,4.154,4.154,0,0,1-.094,2.242l-.784,2.316a3.683,3.683,0,0,0,3.488,4.867" transform="translate(1007.076 1358.263)" fill="#0054a3"/>
    <path id="パス_5611" data-name="パス 5611" d="M407.756,55.5c-.245-.09-3.752-1.1-6.145-2.03-.253-.1-.508-.19-.752-.29H400.7l.48,2.257.417,1.93a.722.722,0,0,1-.372.788l-2.13,1.133a.741.741,0,0,0-.353.843l.517,1.748a.735.735,0,0,1-.216.743l-2.794,3.31-.494-7.472a1.271,1.271,0,0,1,.145-.807l.852-1.479a1.169,1.169,0,0,0,0-1.209l-.717-1.244a1.2,1.2,0,0,0-1.052-.617h-1.434a1.2,1.2,0,0,0-1.054.617l-.717,1.244a1.178,1.178,0,0,0,0,1.209l.852,1.479a1.258,1.258,0,0,1,.145.807l-.492,7.472-2.794-3.31a.74.74,0,0,1-.219-.743l.517-1.748a.736.736,0,0,0-.353-.843l-2.134-1.135a.724.724,0,0,1-.368-.786l.382-1.8.517-2.391h-.163c-.245.1-.5.19-.754.29-1.2.472-3.372.96-4.358,1.342-.037.018-.082.027-.118.045-.423.163-.788.3-1.066.417v19.7h26.31a3.7,3.7,0,0,0,3.7-3.7V61.116a6.189,6.189,0,0,0-3.617-5.62" transform="translate(1006.966 1372.697)" fill="#0054a3"/>
    <path id="パス_5612" data-name="パス 5612" d="M397.294,51.97H363.8a1.3,1.3,0,0,0-1.293,1.3V77a1.3,1.3,0,0,0,1.293,1.3H375.44v2.01h-1.75a1.45,1.45,0,0,0,0,2.9h13.754a1.45,1.45,0,1,0,0-2.9h-1.709V78.3h11.6A1.3,1.3,0,0,0,398.63,77V53.31a1.336,1.336,0,0,0-1.336-1.34M380.568,77.089a1.374,1.374,0,1,1,1.38-1.368,1.382,1.382,0,0,1-1.38,1.368m15.439-4.344H365.129V54.58h30.878Z" transform="translate(987.311 1371.517)" fill="#0054a3"/>
    <path id="パス_5613" data-name="パス 5613" d="M347.542,99.183h5.15l-.01-.008a10.82,10.82,0,0,1-3.161-7c-.018-.27-.029-.539-.029-.809a5.415,5.415,0,0,1,2.312-4.726c1.017-.582,1.689-1.66,2.555-4.123,0,0,.251,4.824,3.988,3.668,2-.617,2.908-1.638,4.152.392a8.12,8.12,0,0,1,1.078,4.2V92.6a10.167,10.167,0,0,1-1.223,4.91,8.163,8.163,0,0,1-1.217,1.673h4.513a3.561,3.561,0,0,0,3.374-4.7L368.183,92a4.172,4.172,0,0,1-.092-2.242,5.084,5.084,0,0,0-.77-4.189,5.8,5.8,0,0,0-.8-.868,2.426,2.426,0,0,1-.831-1.824,8.919,8.919,0,0,0-9.131-9.033H356.5a8.939,8.939,0,0,0-9.176,9.033,2.437,2.437,0,0,1-.833,1.828,5.646,5.646,0,0,0-.782.85,5.079,5.079,0,0,0-.78,4.2A4.154,4.154,0,0,1,344.838,92l-.784,2.316a3.683,3.683,0,0,0,3.488,4.867" transform="translate(967.873 1394.316)" fill="#0054a3"/>
    <path id="パス_5614" data-name="パス 5614" d="M370.141,90.087c-.245-.09-3.752-1.1-6.145-2.03-.253-.1-.508-.19-.752-.29h-.163l.48,2.257.417,1.93a.722.722,0,0,1-.372.788l-2.13,1.133a.741.741,0,0,0-.353.843l.517,1.748a.735.735,0,0,1-.216.743l-2.794,3.31-.494-7.472a1.271,1.271,0,0,1,.145-.807l.852-1.479a1.169,1.169,0,0,0,0-1.209l-.717-1.244a1.2,1.2,0,0,0-1.052-.617h-1.434a1.2,1.2,0,0,0-1.054.617l-.717,1.244a1.178,1.178,0,0,0,0,1.209l.852,1.479a1.258,1.258,0,0,1,.145.807l-.492,7.472-2.794-3.31a.74.74,0,0,1-.219-.743l.517-1.748a.736.736,0,0,0-.353-.843L349.68,92.74a.724.724,0,0,1-.368-.786l.382-1.8.517-2.391h-.163c-.245.1-.5.19-.754.29-1.2.472-3.372.96-4.358,1.342-.037.018-.082.027-.118.045-.423.163-.788.3-1.066.415v19.7h26.31a3.7,3.7,0,0,0,3.7-3.7V95.708a6.189,6.189,0,0,0-3.617-5.62" transform="translate(967.763 1408.75)" fill="#0054a3"/>
    <path id="パス_5615" data-name="パス 5615" d="M359.679,86.562H326.185a1.3,1.3,0,0,0-1.293,1.3v23.729a1.3,1.3,0,0,0,1.293,1.3h11.641V114.9h-1.75a1.45,1.45,0,1,0,0,2.9H349.83a1.45,1.45,0,0,0,0-2.9H348.12v-2.012h11.6a1.3,1.3,0,0,0,1.293-1.3V87.9a1.335,1.335,0,0,0-1.334-1.34m-16.726,25.119a1.374,1.374,0,1,1,1.381-1.368,1.382,1.382,0,0,1-1.381,1.368m15.439-4.344H327.514V89.172h30.878Z" transform="translate(948.108 1407.57)" fill="#0054a3"/>
    <path id="パス_5616" data-name="パス 5616" d="M397.85,86.562H364.356a1.3,1.3,0,0,0-1.293,1.3v23.729a1.3,1.3,0,0,0,1.293,1.3H376V114.9h-1.75a1.45,1.45,0,0,0,0,2.9H388a1.45,1.45,0,1,0,0-2.9h-1.709v-2.012h11.6a1.3,1.3,0,0,0,1.293-1.3V87.9a1.335,1.335,0,0,0-1.334-1.34m-16.728,25.119a1.374,1.374,0,1,1,1.38-1.368,1.382,1.382,0,0,1-1.38,1.368m15.439-4.344H365.683V89.172h30.878Z" transform="translate(987.891 1407.57)" fill="#0054a3"/>
    <path id="パス_5617" data-name="パス 5617" d="M382.362,91.9a15.286,15.286,0,0,0,2.067,3.343,9.59,9.59,0,0,0,.625.735l.735.792a5.042,5.042,0,0,0,3.719,1.65h1.109a5.048,5.048,0,0,0,3.719-1.65l.735-.792c.223-.235.431-.484.639-.735a16.132,16.132,0,0,0,2.79-5.23,17.27,17.27,0,0,0,.609-2.8,13.783,13.783,0,0,0,.112-1.762V82.927a8.573,8.573,0,0,0-.347-2.455,9.154,9.154,0,0,0-17.967,2.51v2.526a11.659,11.659,0,0,0,.125,1.693,15.55,15.55,0,0,0,1.331,4.7" transform="translate(1006.487 1394.295)" fill="#0054a3"/>
    <path id="パス_5618" data-name="パス 5618" d="M403.645,91.724a7.8,7.8,0,0,0-1.387-.486L397,89.351a.356.356,0,0,0-.043-.165l-.929-2.332a.806.806,0,0,0-1.178-.388L391.5,88.477l-2.261,1.36-2.263-1.36-3.357-2.026a.808.808,0,0,0-1.166.4l-.764,1.918v22.156h4.969l.958-10.905v-.014a1.747,1.747,0,0,0-.361-1.291.3.3,0,0,1-.055-.084l-1.236-2.15a.932.932,0,0,1,0-.929l1.236-2.136a.927.927,0,0,1,.8-.472h2.469a.925.925,0,0,1,.8.472l1.236,2.136a.922.922,0,0,1,0,.929l-1.236,2.15a.229.229,0,0,1-.055.084,1.746,1.746,0,0,0-.359,1.291v.014l.956,10.905h14.236a2.311,2.311,0,0,0,2.318-2.3V99.05a8.046,8.046,0,0,0-4.732-7.325" transform="translate(1007.307 1407.337)" fill="#0054a3"/>
    <path id="パス_5619" data-name="パス 5619" d="M523.638,156H338.488a23.761,23.761,0,0,1,0-47.523H523.638a23.761,23.761,0,1,1,0,47.523" transform="translate(914.273 1449.403)" fill="#4abbf3"/>
    <text id="お客様専属チーム" transform="translate(1346 1589.567)" fill="#fff" font-size="18" font-family="Meiryo-Bold, Meiryo" font-weight="700"><tspan x="-72" y="0">お客様専属チーム</tspan></text>
    <g id="グループ_10631" data-name="グループ 10631" transform="translate(-25.371 45.029)">
      <path id="パス_5620" data-name="パス 5620" d="M74.971,88.192V101.07a3.108,3.108,0,0,1-3.118,3.1H52.706L51.414,89.5v-.018a2.344,2.344,0,0,1,.486-1.737.52.52,0,0,0,.077-.111l1.659-2.893a1.253,1.253,0,0,0,0-1.25l-1.659-2.875a1.254,1.254,0,0,0-1.086-.634H47.573a1.254,1.254,0,0,0-1.086.634L44.83,83.489a1.242,1.242,0,0,0,0,1.25l1.657,2.893a.52.52,0,0,0,.077.111,2.344,2.344,0,0,1,.486,1.737V89.5l-1.289,14.67H26.612a3.107,3.107,0,0,1-3.116-3.1V88.192a10.825,10.825,0,0,1,6.364-9.855,10.6,10.6,0,0,1,1.866-.652L38.8,75.145a.506.506,0,0,1,.057-.223l1.25-3.137a1.086,1.086,0,0,1,1.568-.541l4.514,2.725,3.043,1.83,3.043-1.83,4.5-2.707a1.085,1.085,0,0,1,1.584.523l1.25,3.137a.48.48,0,0,1,.059.223l7.071,2.539a10.6,10.6,0,0,1,1.866.652,10.824,10.824,0,0,1,6.367,9.855" transform="translate(467.875 1347.182)" fill="#0054a3"/>
      <path id="パス_5621" data-name="パス 5621" d="M54.035,68.213v3.4a18.542,18.542,0,0,1-.15,2.368,23.04,23.04,0,0,1-.821,3.771,21.726,21.726,0,0,1-3.75,7.037c-.282.336-.561.671-.859.989l-.989,1.064a6.789,6.789,0,0,1-5,2.221H40.971a6.781,6.781,0,0,1-5-2.221l-.989-1.064c-.3-.318-.577-.652-.839-.989a20.566,20.566,0,0,1-2.782-4.5,20.993,20.993,0,0,1-1.791-6.328,15.862,15.862,0,0,1-.168-2.277v-3.4a12.322,12.322,0,0,1,24.17-3.378,11.517,11.517,0,0,1,.466,3.3" transform="translate(475.389 1327.929)" fill="#0054a3"/>
    </g>
    <g id="グループ_10635" data-name="グループ 10635" transform="translate(0 45.029)">
      <path id="パス_5622" data-name="パス 5622" d="M272.519,108.957h50.538v15.812l30.162-26.533L323.058,71.7V87.512h-50.5Z" transform="translate(849.482 1347.634)" fill="#fff"/>
      <path id="パス_5623" data-name="パス 5623" d="M275.478,77.92h-7.2l.127,21.445h7.031Z" transform="translate(842.939 1357.227)" fill="#fff"/>
      <path id="パス_5624" data-name="パス 5624" d="M269.387,77.92h-4.148l.043,21.445h4.1Z" transform="translate(838.25 1357.227)" fill="#fff"/>
      <path id="パス_5625" data-name="パス 5625" d="M265.018,77.92h-1.986V99.365h2.029Z" transform="translate(834.844 1357.227)" fill="#fff"/>
    </g>
    <g id="グループ_10633" data-name="グループ 10633" transform="translate(0 45.029)">
      <path id="パス_5626" data-name="パス 5626" d="M93.89,79.867h79.373V95.679l30.162-26.533L173.262,42.613V58.422H93.925Z" transform="translate(547.866 1302.749)" fill="#bfd2f8"/>
      <path id="パス_5627" data-name="パス 5627" d="M96.848,48.83h-7.2l.127,21.445h7.031Z" transform="translate(541.324 1312.342)" fill="#bfd2f8"/>
      <path id="パス_5628" data-name="パス 5628" d="M90.757,48.83H86.609l.043,21.445h4.1Z" transform="translate(536.634 1312.342)" fill="#bfd2f8"/>
      <path id="パス_5629" data-name="パス 5629" d="M86.389,48.83H84.4V70.275h2.029Z" transform="translate(533.229 1312.342)" fill="#bfd2f8"/>
    </g>
    <g id="グループ_10634" data-name="グループ 10634" transform="translate(0 45.029)">
      <path id="パス_5630" data-name="パス 5630" d="M193.938,113H114.565V97.191L84.4,123.724l30.162,26.533V134.447H193.9Z" transform="translate(533.229 1386.96)" fill="#bfd2f8"/>
      <path id="パス_5631" data-name="パス 5631" d="M128.886,124.853h7.2l-.127-21.445h-7.031Z" transform="translate(601.864 1396.553)" fill="#bfd2f8"/>
      <path id="パス_5632" data-name="パス 5632" d="M133.126,124.853h4.148l-.043-21.445h-4.1Z" transform="translate(608.406 1396.553)" fill="#bfd2f8"/>
      <path id="パス_5633" data-name="パス 5633" d="M136.209,124.853H138.2V103.408h-2.029Z" transform="translate(613.097 1396.553)" fill="#bfd2f8"/>
    </g>
    <rect id="長方形_8644" data-name="長方形 8644" width="106.896" height="78.116" rx="5" transform="translate(403 1304.914)" fill="#4abbf3"/>
    <rect id="長方形_8646" data-name="長方形 8646" width="106.895" height="78.116" rx="5" transform="translate(894.104 1304.914)" fill="#4abbf3"/>
    <g id="グループ_10651" data-name="グループ 10651" transform="translate(894.104 1304.914)">
      <g id="グループ_10650" data-name="グループ 10650" transform="translate(21.745 20.764)">
        <path id="パス_5642" data-name="パス 5642" d="M217.595,32.054l-.383,1.753-.4-1.753-2.781-8.793h-2.52l4.517,12.685h2.349L222.9,23.261h-2.5Z" transform="translate(-211.513 -23.261)" fill="#fff"/>
        <rect id="長方形_8638" data-name="長方形 8638" width="2.293" height="2.258" transform="translate(12.761)" fill="#fff"/>
        <rect id="長方形_8639" data-name="長方形 8639" width="2.293" height="9.347" transform="translate(12.761 3.338)" fill="#fff"/>
        <path id="パス_5643" data-name="パス 5643" d="M224.1,25.927a4,4,0,0,0-3.443-1.774c-2.31,0-4.377,1.582-4.377,4.917,0,3.2,1.91,4.886,4.447,4.886a4.087,4.087,0,0,0,4.137-2.99h-2.31a1.709,1.709,0,0,1-1.7,1.129c-1.84,0-2.189-1.9-2.276-2.363h6.465a6.974,6.974,0,0,0-.937-3.806m-5.527,2.311c.1-.589.4-2.206,2.1-2.206,1.147,0,1.826.746,1.878,2.206Z" transform="translate(-199.673 -21.044)" fill="#fff"/>
        <path id="パス_5644" data-name="パス 5644" d="M222.54,23.466h-2.293V26.09h-1.286v1.84h1.286v5.3c0,1.478.624,2.206,2.45,2.206H224.1V33.7h-.99c-.4,0-.575-.192-.575-.61V27.93h1.617V26.09H222.54Z" transform="translate(-193.006 -22.752)" fill="#fff"/>
        <path id="パス_5645" data-name="パス 5645" d="M225.789,24.154a3.085,3.085,0,0,0-2.886,1.805l.087-.8v-.781H220.7v9.347h2.293V28.273a1.938,1.938,0,0,1,2.053-2.192c1.147,0,1.579.7,1.579,1.739v5.907h2.293V27.454c0-2.119-1.147-3.3-3.126-3.3" transform="translate(-188.692 -21.042)" fill="#fff"/>
        <path id="パス_5646" data-name="パス 5646" d="M231.858,32.653V27.509c0-2.415-1.875-3.356-4.032-3.356-1.251,0-3.837.383-4.011,3.286h2.067a1.284,1.284,0,0,1,.366-.924,2.6,2.6,0,0,1,1.788-.572c.714,0,1.513.227,1.513.972,0,.871-1.129,1.059-2.136,1.2-2.087.3-4.015.937-4.015,3.095,0,1.181.694,2.746,3.265,2.746,2.189,0,2.764-1.08,3.025-1.582a2.445,2.445,0,0,0,.279,1.356h2.412a1.206,1.206,0,0,1-.519-1.077m-2.311-3.286v1.059c0,1.3-1.391,1.9-2.328,1.9a1.338,1.338,0,0,1-1.478-1.181c0-1.129,1.286-1.443,2.154-1.582a2.516,2.516,0,0,0,1.774-.8Z" transform="translate(-181.986 -21.044)" fill="#fff"/>
        <path id="パス_5647" data-name="パス 5647" d="M236.746,24.154a3.659,3.659,0,0,0-2.973,1.547,2.827,2.827,0,0,0-2.621-1.547,2.779,2.779,0,0,0-2.624,1.565l.07-.836v-.5h-2.293v9.347H228.6v-5.82a1.778,1.778,0,0,1,1.683-1.791c1.286,0,1.5,1.2,1.5,1.931v5.681h2.293V28.047a1.866,1.866,0,0,1,1.774-1.966c1.129,0,1.439.871,1.439,1.966v5.681h2.3V27.768c0-2.032-.714-3.614-2.833-3.614" transform="translate(-174.756 -21.042)" fill="#fff"/>
        <path id="パス_5648" data-name="パス 5648" d="M217.261,32.787l.732-.9a9.623,9.623,0,0,0-1.634-1.425l-.732.9a9.053,9.053,0,0,1,1.634,1.425" transform="translate(-201.291 -5.374)" fill="#fff"/>
        <path id="パス_5649" data-name="パス 5649" d="M216.086,30.854a10.238,10.238,0,0,1,1.634,1.391l.746-.9a8.243,8.243,0,0,0-1.652-1.377Z" transform="translate(-200.151 -6.602)" fill="#fff"/>
        <path id="パス_5650" data-name="パス 5650" d="M221.268,32.171c-.9-1.007-1.356-1.512-2.485-1.512-1.007,0-1.443.4-3.231,2.415a41.392,41.392,0,0,1-3.147,3.3l1.774,1.544c.589-.641,3-3.631,3.509-4.22.331-.4.624-.746,1.077-.746.484,0,.693.24,1.53,1.234a69.407,69.407,0,0,0,5.733,6.217l1.512-1.722c-2.206-2.049-4.276-4.255-6.273-6.513" transform="translate(-209.295 -4.877)" fill="#fff"/>
        <path id="パス_5651" data-name="パス 5651" d="M220.491,34.441l-.815,1.286V31.158c0-.087.45-.366.45-.47,0-.209-.362-.261-.415-.279l-2.087-.362V43.808h2.053V36.3a17.763,17.763,0,0,1,5.109,3.478l1.37-1.669a21.238,21.238,0,0,0-2.711-2.084,15.589,15.589,0,0,0-2.952-1.582" transform="translate(-196.331 -6.4)" fill="#fff"/>
        <path id="パス_5652" data-name="パス 5652" d="M229.35,31.856c0-.714,0-.8.035-.85.07-.1.488-.418.488-.505,0-.174-.279-.227-.523-.261l-2.328-.279a25.459,25.459,0,0,1,.157,3.875h-6.447V35.85h6.308c-.523,3.914-1.875,5.388-5.2,6.987l1.774,1.718c3.753-2.206,5.057-4.081,5.559-8.705h5.388V33.835h-5.248c.017-.9.035-1.945.035-1.979" transform="translate(-188.605 -6.614)" fill="#fff"/>
        <path id="パス_5653" data-name="パス 5653" d="M233.5,36.659a15.466,15.466,0,0,1,2,2.694c-1.91.331-3.736.572-6.2.85.767-1.875,2.227-5.646,3.147-8.34.157-.47.192-.523.362-.606.3-.174.331-.2.331-.279,0-.174-.331-.3-.484-.331l-2.053-.5a90.775,90.775,0,0,1-3.422,10.267c-1.007.087-1.512.122-1.927.139l.415,2.014c.07.314.122.47.261.47a.181.181,0,0,0,.139-.07c.017-.017.227-.227.261-.244.122-.087,8.392-1.46,10.061-1.739a13.228,13.228,0,0,1,.728,1.948l1.966-1.077a23.106,23.106,0,0,0-3.736-6.116Z" transform="translate(-177.373 -6.152)" fill="#fff"/>
      </g>
      <rect id="長方形_8645" data-name="長方形 8645" width="106.895" height="78.116" rx="5" transform="translate(0)" fill="none"/>
    </g>
    <g id="グループ_10649" data-name="グループ 10649" transform="translate(433.15 1325.138)">
      <path id="パス_5634" data-name="パス 5634" d="M46.163,31.951c0,1.687-.641,2.154-1.77,2.154a1.6,1.6,0,0,1-1.809-1.736V31.013H40.239v1.356c0,2.293,1.338,3.84,4.015,3.84a4.507,4.507,0,0,0,3.213-1.133,4.092,4.092,0,0,0,1.042-2.969v-9H46.163Z" transform="translate(-40.239 -23.106)" fill="#fff"/>
      <path id="パス_5635" data-name="パス 5635" d="M51.494,32.5V27.354c0-2.415-1.875-3.356-4.032-3.356-1.251,0-3.837.383-4.011,3.286h2.067a1.29,1.29,0,0,1,.366-.924,2.605,2.605,0,0,1,1.788-.572c.714,0,1.512.227,1.512.972,0,.871-1.129,1.059-2.136,1.2-2.088.3-4.015.937-4.015,3.095,0,1.181.694,2.746,3.265,2.746,2.189,0,2.764-1.08,3.025-1.582a2.445,2.445,0,0,0,.279,1.356h2.415a1.2,1.2,0,0,1-.523-1.077m-2.311-3.286v1.059c0,1.3-1.391,1.9-2.328,1.9a1.338,1.338,0,0,1-1.478-1.181c0-1.129,1.286-1.443,2.154-1.582a2.516,2.516,0,0,0,1.774-.8Z" transform="translate(-33.298 -20.889)" fill="#fff"/>
      <path id="パス_5636" data-name="パス 5636" d="M50.584,24A2.539,2.539,0,0,0,48.1,25.563l.084-.746v-.592H45.89V35.9h2.293V33.85l-.136-1.77A2.8,2.8,0,0,0,50.7,33.8c2.38,0,3.635-2.555,3.635-5.071,0-2.384-1.115-4.729-3.753-4.729m-.505,7.89c-1.652,0-1.9-1.809-1.9-2.99,0-1.356.627-2.934,2-2.934,1.356,0,1.857,1.5,1.857,2.812,0,1.269-.45,3.112-1.962,3.112" transform="translate(-26.196 -20.889)" fill="#fff"/>
      <path id="パス_5637" data-name="パス 5637" d="M57.041,32.5V27.354c0-2.415-1.875-3.356-4.032-3.356-1.248,0-3.837.383-4.011,3.286h2.067a1.29,1.29,0,0,1,.366-.924,2.605,2.605,0,0,1,1.788-.572c.714,0,1.512.227,1.512.972,0,.871-1.129,1.059-2.136,1.2-2.088.3-4.015.937-4.015,3.095,0,1.181.694,2.746,3.265,2.746,2.192,0,2.764-1.08,3.025-1.582a2.446,2.446,0,0,0,.279,1.356h2.415a1.2,1.2,0,0,1-.523-1.077M54.73,29.212v1.059c0,1.3-1.391,1.9-2.328,1.9a1.338,1.338,0,0,1-1.478-1.181c0-1.129,1.286-1.443,2.154-1.582a2.516,2.516,0,0,0,1.774-.8Z" transform="translate(-19.514 -20.889)" fill="#fff"/>
      <path id="パス_5638" data-name="パス 5638" d="M56.519,24A3.085,3.085,0,0,0,53.633,25.8l.087-.8v-.781H51.427v9.347H53.72V28.118a1.938,1.938,0,0,1,2.053-2.192c1.147,0,1.579.7,1.579,1.739v5.907h2.293V27.3c0-2.119-1.147-3.3-3.126-3.3" transform="translate(-12.437 -20.887)" fill="#fff"/>
      <path id="パス_5639" data-name="パス 5639" d="M42.86,43.736h2.07v-.99H51.5v.9h2.035V30.27H42.86Zm2.07-11.553H51.5v3.3H44.93Zm0,5.106H51.5V40.85H44.93Z" transform="translate(-33.725 -5.303)" fill="#fff"/>
      <path id="パス_5640" data-name="パス 5640" d="M56.307,34.762h5.457V32.884H55.4V30.748c0-.07.052-.122.157-.209.1-.07.157-.122.157-.192,0-.192-.418-.261-.645-.275l-1.7-.091v2.9h-6.43v1.878h5.248a18.537,18.537,0,0,1-5.405,7.263l1.652,1.164a23.351,23.351,0,0,0,4.935-6.621v3.945h-2.4v1.739h2.4v2.795H55.4V42.252h2.537V40.565a14.368,14.368,0,0,0,2.676,2.363l1.425-1.391a15.818,15.818,0,0,1-5.736-6.775m-.9,5.75V36.759a15.112,15.112,0,0,0,2.5,3.753Z" transform="translate(-23.969 -6.022)" fill="#fff"/>
    </g>
  </g>
</svg>
