<svg xmlns="http://www.w3.org/2000/svg" width="46.396" height="46.396" viewBox="0 0 46.396 46.396">
  <g id="グループ_328" data-name="グループ 328" transform="translate(0 0)">
    <circle id="楕円形_7" data-name="楕円形 7" cx="16.403" cy="16.403" r="16.403" transform="translate(0 23.198) rotate(-45)" fill="#fff"/>
    <path id="パス_942" data-name="パス 942" d="M2074.067,521.8c-6.3,0-11.413,4.091-11.412,9.138,0,4.5,4.059,8.238,9.405,9h0c.126.018.252.034.379.048,1.821.379.242,2.658.839,3.123.686.536,5.88-2.938,9.036-5.854a9.919,9.919,0,0,0,1.241-1.238l.007-.008a2.373,2.373,0,0,0,.212-.265,7.805,7.805,0,0,0,1.7-4.8C2085.479,525.888,2080.369,521.8,2074.067,521.8Zm-3.725,11.458a.6.6,0,0,1-.6.594h-2.3a.6.6,0,0,1-.6-.594V528.84a.6.6,0,0,1,.6-.594h.05a.6.6,0,0,1,.594.594v3.77h1.657a.6.6,0,0,1,.6.6Zm1.72,0a.6.6,0,0,1-.594.594h-.05a.6.6,0,0,1-.6-.594V528.84a.6.6,0,0,1,.6-.594h.05a.6.6,0,0,1,.594.594Zm5.391,0a.6.6,0,0,1-.172.417h0a.414.414,0,0,1-.146.108.591.591,0,0,1-.278.069h-.05a.585.585,0,0,1-.225-.044.492.492,0,0,1-.232-.171h0a.557.557,0,0,1-.044-.06l-2.166-2.96v2.64a.6.6,0,0,1-.6.6h-.05a.6.6,0,0,1-.6-.6V528.84a.6.6,0,0,1,.6-.594h.05a.6.6,0,0,1,.516.3l2.152,2.885V528.84a.6.6,0,0,1,.594-.594h.05a.6.6,0,0,1,.6.594Zm4.254-4.354a.6.6,0,0,1-.6.6h-1.657v.943h1.657a.6.6,0,0,1,.6.594v.05a.6.6,0,0,1-.6.594h-1.657v.943h1.657a.6.6,0,0,1,.6.6v.05a.6.6,0,0,1-.6.594h-2.3a.6.6,0,0,1-.6-.594V528.85a.6.6,0,0,1,.6-.594h2.3a.6.6,0,0,1,.6.594Z" transform="translate(-2051.092 -507.888)" fill="#181b1b"/>
  </g>
</svg>
