<svg id="グループ_326" data-name="グループ 326" xmlns="http://www.w3.org/2000/svg" width="46.396" height="46.396" viewBox="0 0 46.396 46.396">
  <circle id="楕円形_10" data-name="楕円形 10" cx="16.403" cy="16.403" r="16.403" transform="translate(0 23.198) rotate(-45)" fill="#fff"/>
  <path id="パス_945" data-name="パス 945" d="M1198.946,540.017a12.6,12.6,0,0,0,12.686-12.687c0-.192,0-.385-.013-.575a9.052,9.052,0,0,0,2.224-2.309,8.928,8.928,0,0,1-2.56.7,4.494,4.494,0,0,0,1.961-2.466,8.964,8.964,0,0,1-2.832,1.083,4.459,4.459,0,0,0-7.712,3.048,4.571,4.571,0,0,0,.114,1.019,12.67,12.67,0,0,1-9.191-4.659,4.462,4.462,0,0,0,1.381,5.951,4.428,4.428,0,0,1-2.02-.558c0,.02,0,.038,0,.057a4.46,4.46,0,0,0,3.575,4.371,4.436,4.436,0,0,1-1.173.158,4.373,4.373,0,0,1-.839-.083,4.464,4.464,0,0,0,4.164,3.1,8.94,8.94,0,0,1-5.537,1.908,9.043,9.043,0,0,1-1.063-.062,12.611,12.611,0,0,0,6.834,2Z" transform="translate(-1179.762 -507.911)" fill="#181b1b"/>
</svg>
